<svg xmlns="http://www.w3.org/2000/svg" xmlns:xlink="http://www.w3.org/1999/xlink" viewBox="0 0 3409.5982 1526.56605"><defs><style>.cls-1,.cls-3{mix-blend-mode:multiply;}.cls-2{isolation:isolate;}.cls-11,.cls-4,.cls-5{fill:none;stroke:#969696;stroke-miterlimit:10;stroke-width:4px;}.cls-5{stroke-dasharray:3.85846 1.92923;}.cls-6{fill:#64aa00;}.cls-7{fill:#fff;}.cls-8{fill:url(#linear-gradient);}.cls-9{fill:url(#linear-gradient-2);}.cls-10{fill:url(#linear-gradient-3);}.cls-11{stroke-dasharray:3.99164 1.99582;}.cls-12{fill:#9b8cff;}.cls-13{fill:url(#linear-gradient-4);}.cls-14{fill:#d278c8;}.cls-15{fill:url(#linear-gradient-5);}.cls-16{fill:#46aaff;}.cls-17{fill:url(#linear-gradient-6);}.cls-18{fill:url(#linear-gradient-7);}.cls-19{fill:url(#linear-gradient-8);}.cls-20{fill:url(#linear-gradient-9);}.cls-21{mask:url(#mask);}.cls-22{fill:url(#linear-gradient-10);}.cls-23{fill:url(#linear-gradient-11);}.cls-24{fill:#ff7800;}.cls-25{fill:url(#linear-gradient-12);}.cls-26{fill:url(#linear-gradient-13);}.cls-27{fill:url(#linear-gradient-14);}.cls-28{filter:url(#luminosity-noclip);}</style><linearGradient id="linear-gradient" x1="2267.6191" y1="511.31028" x2="2267.6191" y2="412.74978" gradientUnits="userSpaceOnUse"><stop offset="0" stop-color="#fff"/><stop offset="1" stop-color="#f0f2f2"/></linearGradient><linearGradient id="linear-gradient-2" x1="1143.6191" y1="511.31028" x2="1143.6191" y2="412.74978" xlink:href="#linear-gradient"/><linearGradient id="linear-gradient-3" x1="1705.24827" y1="661.31028" x2="1705.24827" y2="562.74978" xlink:href="#linear-gradient"/><linearGradient id="linear-gradient-4" x1="1706.6191" y1="1214.31028" x2="1706.6191" y2="1115.74978" xlink:href="#linear-gradient"/><linearGradient id="linear-gradient-5" x1="445.6191" y1="1214.31028" x2="445.6191" y2="1115.74978" xlink:href="#linear-gradient"/><linearGradient id="linear-gradient-6" x1="1705.84861" y1="109.8105" x2="1705.84861" y2="11.25" xlink:href="#linear-gradient"/><linearGradient id="linear-gradient-7" x1="1705.24827" y1="1515.31605" x2="1705.24827" y2="1416.75555" xlink:href="#linear-gradient"/><linearGradient id="linear-gradient-8" x1="2233.95855" y1="1515.31605" x2="2233.95855" y2="1416.75555" xlink:href="#linear-gradient"/><linearGradient id="linear-gradient-9" x1="1176.63965" y1="1515.31605" x2="1176.63965" y2="1416.75555" xlink:href="#linear-gradient"/><filter id="luminosity-noclip" x="2387.68407" y="1449.64955" width="24.6699" height="103.9492" filterUnits="userSpaceOnUse" color-interpolation-filters="sRGB"><feFlood flood-color="#fff" result="bg"/><feBlend in="SourceGraphic" in2="bg"/></filter><mask id="mask" x="2343.96285" y="1312.18246" width="24.6699" height="103.9492" maskUnits="userSpaceOnUse"><g class="cls-28"><g transform="translate(-43.72122 -137.46709)"><path class="cls-1" d="M2412.354,1461.98355a12.335,12.335,0,1,1-12.3339-12.334A12.33474,12.33474,0,0,1,2412.354,1461.98355Z"/><path class="cls-1" d="M2412.354,1541.26285a12.335,12.335,0,1,1-12.3339-12.334A12.33474,12.33474,0,0,1,2412.354,1541.26285Z"/></g></g></mask><linearGradient id="linear-gradient-10" x1="667.95855" y1="1514.31605" x2="667.95855" y2="1415.75555" xlink:href="#linear-gradient"/><linearGradient id="linear-gradient-11" x1="220.63965" y1="1514.31605" x2="220.63965" y2="1415.75555" xlink:href="#linear-gradient"/><linearGradient id="linear-gradient-12" x1="-1818.65967" y1="1351.77736" x2="-1818.65967" y2="1253.21686" gradientTransform="translate(4786.59812 -137.46709)" xlink:href="#linear-gradient"/><linearGradient id="linear-gradient-13" x1="3188.95855" y1="1514.31605" x2="3188.95855" y2="1415.75555" xlink:href="#linear-gradient"/><linearGradient id="linear-gradient-14" x1="2741.63965" y1="1514.31605" x2="2741.63965" y2="1415.75555" xlink:href="#linear-gradient"/></defs><title>organization_color</title><g class="cls-2"><g id="레이어_1" data-name="레이어 1"><g class="cls-3"><line class="cls-4" x1="444.29885" y1="1233.21004" x2="444.29885" y2="1235.21004"/><line class="cls-5" x1="444.29885" y1="1237.13974" x2="444.29885" y2="1299.83894"/><line class="cls-4" x1="444.29885" y1="1300.80374" x2="444.29885" y2="1302.80374"/></g><g class="cls-3"><line class="cls-4" x1="1706.29885" y1="1027.9203" x2="1706.29885" y2="1029.9203"/><line class="cls-5" x1="1706.29885" y1="1031.85" x2="1706.29885" y2="1094.5492"/><line class="cls-4" x1="1706.29885" y1="1095.514" x2="1706.29885" y2="1097.514"/></g><g class="cls-3"><line class="cls-4" x1="2965.29885" y1="1233.21004" x2="2965.29885" y2="1235.21004"/><line class="cls-5" x1="2965.29885" y1="1237.13974" x2="2965.29885" y2="1299.83894"/><line class="cls-4" x1="2965.29885" y1="1300.80374" x2="2965.29885" y2="1302.80374"/></g><line class="cls-4" x1="3311.29885" y1="1328.21566" x2="3311.29885" y2="1330.21566"/><line class="cls-5" x1="3311.29885" y1="1332.14536" x2="3311.29885" y2="1394.84456"/><line class="cls-4" x1="3311.29885" y1="1395.80936" x2="3311.29885" y2="1397.80936"/><line class="cls-4" x1="2619.29885" y1="1328.21566" x2="2619.29885" y2="1330.21566"/><line class="cls-5" x1="2619.29885" y1="1332.14536" x2="2619.29885" y2="1394.84456"/><line class="cls-4" x1="2619.29885" y1="1395.80936" x2="2619.29885" y2="1397.80936"/><g class="cls-3"><line class="cls-4" x1="1705.29885" y1="1233.21566" x2="1705.29885" y2="1235.21566"/><line class="cls-5" x1="1705.29885" y1="1237.14536" x2="1705.29885" y2="1299.84456"/><line class="cls-4" x1="1705.29885" y1="1300.80936" x2="1705.29885" y2="1302.80936"/></g><g class="cls-3"><line class="cls-4" x1="1706.44784" y1="473.9203" x2="1706.44784" y2="475.9203"/><line class="cls-5" x1="1706.44784" y1="477.85" x2="1706.44784" y2="540.5492"/><line class="cls-4" x1="1706.44784" y1="541.514" x2="1706.44784" y2="543.514"/></g><path class="cls-1" d="M1762.503,606.68818a12.335,12.335,0,1,1-12.3339-12.334A12.33474,12.33474,0,0,1,1762.503,606.68818Z" transform="translate(-43.72122 -137.46709)"/><path class="cls-1" d="M1762.503,685.96748a12.335,12.335,0,1,1-12.3339-12.334A12.33474,12.33474,0,0,1,1762.503,685.96748Z" transform="translate(-43.72122 -137.46709)"/><path class="cls-6" d="M1770.56805,598.48323a20.55855,20.55855,0,1,1-20.5585-20.5566A20.55813,20.55813,0,0,1,1770.56805,598.48323Z" transform="translate(-43.72122 -137.46709)"/><circle class="cls-7" cx="1750.00953" cy="598.48326" r="11.10159" transform="translate(45.65313 1275.26821) rotate(-45)"/><path class="cls-6" d="M2080.84665,401.49978h373.5469a33.8652,33.8652,0,0,1,33.8652,33.8652v53.332a33.8633,33.8633,0,0,1-33.8633,33.8633h-373.5508a33.8652,33.8652,0,0,1-33.8652-33.8652V435.367A33.8672,33.8672,0,0,1,2080.84665,401.49978Z"/><path class="cls-8" d="M2080.84665,412.74978h373.5469a22.6152,22.6152,0,0,1,22.6152,22.6152v53.332a22.6133,22.6133,0,0,1-22.6133,22.6133h-373.5508a22.6152,22.6152,0,0,1-22.6152-22.6152V435.367A22.6172,22.6172,0,0,1,2080.84665,412.74978Z"/><path class="cls-7" d="M2498.11668,551.46686a21.38849,21.38849,0,0,1,21.3633,21.3652v53.3301a21.38849,21.38849,0,0,1-21.3633,21.3652h-373.5488a21.3899,21.3899,0,0,1-21.3672-21.3652v-53.3301a21.3899,21.3899,0,0,1,21.3672-21.3652h373.5488m0-2.5h-373.5488a23.937,23.937,0,0,0-23.8672,23.8652v53.3301a23.937,23.937,0,0,0,23.8672,23.8652h373.5488a23.93362,23.93362,0,0,0,23.8633-23.8652v-53.3301a23.93362,23.93362,0,0,0-23.8633-23.8652Z" transform="translate(-43.72122 -137.46709)"/><path class="cls-6" d="M2117.11007,598.48323a20.55855,20.55855,0,1,1-20.5585-20.5566A20.55813,20.55813,0,0,1,2117.11007,598.48323Z" transform="translate(-43.72122 -137.46709)"/><circle class="cls-7" cx="2096.55154" cy="598.48326" r="11.10159" transform="translate(147.15294 1520.31041) rotate(-45)"/><path d="M2255.46191,596.44727v3.35986H2240.542v4.08008h10.07959v12.48h-24.15967v-12.48H2236.542v-4.08008h-14.92041v-3.35986Zm-30-5.88038h4.96V584.207h-4.76026v-3.23974h25.76026V584.207h-4.76026v6.35986h4.96v3.24024h-26.15967Zm21.23975,16.64014h-16.31982v5.84033h16.31982Zm-12.3999-16.64014h8.48V584.207h-8.48Z" transform="translate(-43.72122 -137.46709)"/><path d="M2279.42139,584.40723H2272.021v.08007q0,.95947.02,1.69971a5.38094,5.38094,0,0,0,.20019,1.36035,4.13726,4.13726,0,0,0,.56006,1.17969,6.1388,6.1388,0,0,0,1.14014,1.2002,35.00592,35.00592,0,0,0,3.13964,2.37988q1.74024,1.18066,3.5,2.2998l-2.15966,2.88037q-1.56006-.99975-3.12012-2.10009-1.56006-1.1001-2.83984-2.1001-.80127-.6394-1.44043-1.22022a3.43,3.43,0,0,1-.83985-1.01953h-.04a5.92956,5.92956,0,0,1-.96,1.35987,12.5789,12.5789,0,0,1-1.71972,1.64013q-1.24072.95947-2.96045,2.19971-1.71973,1.24072-3.35987,2.28027l-2.1997-2.88037q1.91967-1.23926,3.71972-2.5a31.98258,31.98258,0,0,0,2.91992-2.25976,9.14692,9.14692,0,0,0,1.28028-1.37989,5.57383,5.57383,0,0,0,.73974-1.38037,6.366,6.366,0,0,0,.34034-1.56006q.07909-.83935.07959-1.91992v-.23974h-7.83985v-3.32032h19.24024ZM2265.74121,616.647V606.56689h18.96v-3.55957H2265.541v-3.28027h23.04v10.04h-18.96v3.6001h20V616.647Zm18.91992-18.75976V579.52734h3.91992v18.35987Z" transform="translate(-43.72122 -137.46709)"/><path d="M2323.501,601.167h-10.19971v6.96h14.96v3.36035H2294.4209V608.127h14.92041v-6.96h-10.16016V582.24707h3.91992v6.28027h16.48V582.207h3.91993Zm-20.39991-3.35986h16.48v-5.91992h-16.48Z" transform="translate(-43.72122 -137.46709)"/><path d="M2364.66064,597.00732v3.35987h-33.84033v-3.35987ZM2349.82031,585.127a2.805,2.805,0,0,0,1.02,2.18018,12.37188,12.37188,0,0,0,3.34033,1.85986q1.35938.561,3.21973,1.26026,1.86036.70019,4.26025,1.5l-1.43994,3.12011q-2.24121-.7998-4.22021-1.54-1.97975-.73974-4.21973-1.70019-1.281-.55958-2.44043-1.2002a1.59764,1.59764,0,0,0-3.17969,0q-1.14038.64087-2.41992,1.2002-2.28.96021-4.26025,1.70019-1.97975.74049-4.21973,1.54l-1.44043-3.12011q2.40015-.79981,4.26026-1.5,1.85961-.69946,3.21972-1.26026a12.37965,12.37965,0,0,0,3.34034-1.85986,2.80505,2.80505,0,0,0,1.02-2.18018V584.207H2335.2207v-3.27978h25.04V584.207h-10.44043Zm-2.07959,17.6001a20.80439,20.80439,0,0,1,4.75977.5,12.69294,12.69294,0,0,1,3.62012,1.3999,7.18546,7.18546,0,0,1,2.31982,2.12012,4.67651,4.67651,0,0,1,.82031,2.66016v1.35986a4.67651,4.67651,0,0,1-.82031,2.66016,7.18543,7.18543,0,0,1-2.31982,2.12011,12.69294,12.69294,0,0,1-3.62012,1.39991,20.805,20.805,0,0,1-4.75977.5,21.06633,21.06633,0,0,1-4.78027-.5,12.67326,12.67326,0,0,1-3.64014-1.39991,6.96946,6.96946,0,0,1-2.2998-2.12011,4.75369,4.75369,0,0,1-.79981-2.66016v-1.35986a4.75369,4.75369,0,0,1,.79981-2.66016,6.96948,6.96948,0,0,1,2.2998-2.12012,12.67326,12.67326,0,0,1,3.64014-1.3999A21.06576,21.06576,0,0,1,2347.74072,602.72705Zm0,11.48a14.73773,14.73773,0,0,0,3.07959-.2998,9.55467,9.55467,0,0,0,2.40039-.82032,5.11431,5.11431,0,0,0,1.56006-1.17968,2.11116,2.11116,0,0,0,.55957-1.37989V609.647a2.11114,2.11114,0,0,0-.55957-1.37988,5.12294,5.12294,0,0,0-1.56006-1.18018,9.57459,9.57459,0,0,0-2.40039-.81982,15.96942,15.96942,0,0,0-6.15967,0,9.54347,9.54347,0,0,0-2.3999.81982,5.09912,5.09912,0,0,0-1.56006,1.18018,2.10684,2.10684,0,0,0-.56005,1.37988v.88037a2.10687,2.10687,0,0,0,.56005,1.37989,5.09057,5.09057,0,0,0,1.56006,1.17968,9.52367,9.52367,0,0,0,2.3999.82032A14.736,14.736,0,0,0,2347.74072,614.207Z" transform="translate(-43.72122 -137.46709)"/><path d="M2378.73975,590.56689a3.63572,3.63572,0,0,1-.83985,1.3003,21.67563,21.67563,0,0,1-1.83984,1.81982q-1.281,1.1206-2.98,2.5-1.70069,1.37988-3.38037,2.54l-2.27979-2.7998q1.91969-1.43994,3.72022-2.86036,1.79955-1.4187,2.87988-2.41992a7.97257,7.97257,0,0,0,2.04-2.6997,9.0718,9.0718,0,0,0,.56006-3.46v-4.04h4v3.87988a15.463,15.463,0,0,0,.07959,1.66015A5.95,5.95,0,0,0,2381,587.34717a5.09445,5.09445,0,0,0,.62012,1.20019,6.58328,6.58328,0,0,0,1.07959,1.17969,33.55746,33.55746,0,0,0,3.10009,2.5q1.7,1.221,3.41993,2.37988l-2.27979,2.88037q-1.52051-1.11987-3-2.20019-1.48022-1.08033-2.87988-2.27979-.80053-.67968-1.46-1.34033a3.41722,3.41722,0,0,1-.82031-1.1001Zm-3.91993,26.08008V606.56689h18.95948v-3.55957h-19.15918v-3.28027h23.03906v10.04h-18.95947v3.6001h19.99951V616.647Zm18.91944-18.75976V579.52734h3.91992v18.35987Z" transform="translate(-43.72122 -137.46709)"/><path class="cls-6" d="M956.84665,401.49978h373.5469a33.8652,33.8652,0,0,1,33.8652,33.8652v53.332a33.8633,33.8633,0,0,1-33.8633,33.8633H956.84465a33.8652,33.8652,0,0,1-33.8652-33.8652V435.367A33.8672,33.8672,0,0,1,956.84665,401.49978Z"/><path class="cls-9" d="M956.84665,412.74978h373.5469a22.6152,22.6152,0,0,1,22.6152,22.6152v53.332a22.6133,22.6133,0,0,1-22.6133,22.6133H956.84465a22.6152,22.6152,0,0,1-22.6152-22.6152V435.367A22.6172,22.6172,0,0,1,956.84665,412.74978Z"/><path class="cls-7" d="M1374.11668,551.46686a21.38849,21.38849,0,0,1,21.3633,21.3652v53.3301a21.38849,21.38849,0,0,1-21.3633,21.3652h-373.5488a21.3899,21.3899,0,0,1-21.3672-21.3652v-53.3301a21.3899,21.3899,0,0,1,21.3672-21.3652h373.5488m0-2.5h-373.5488a23.937,23.937,0,0,0-23.8672,23.8652v53.3301a23.937,23.937,0,0,0,23.8672,23.8652h373.5488a23.93362,23.93362,0,0,0,23.8633-23.8652v-53.3301a23.93362,23.93362,0,0,0-23.8633-23.8652Z" transform="translate(-43.72122 -137.46709)"/><path d="M1099.18164,605.207q3.19995-1.87939,5.41992-3.33984a43.05531,43.05531,0,0,0,3.7002-2.68018,15.72056,15.72056,0,0,0,2.31982-2.27978,8.45222,8.45222,0,0,0,1.26026-2.12012,7.82279,7.82279,0,0,0,.52-2.22022q.0996-1.15941.10009-2.5996v-3.64014h-12.60009v-3.3999h16.52v7.08007q0,1.79956-.1001,3.25977a9.87087,9.87087,0,0,1-.58008,2.76025,10.1993,10.1993,0,0,1-1.41992,2.55957,16.99758,16.99758,0,0,1-2.64014,2.7002,50.21721,50.21721,0,0,1-4.23975,3.16016q-2.54076,1.72046-6.18017,3.91992Zm25.04,11.2002V579.52734h3.96v36.87989Z" transform="translate(-43.72122 -137.46709)"/><path d="M1158.78125,602.647q-2.40015.24024-4.68018.41992-2.28.18018-5.02.28028-2.74.10033-6.15966.16015-3.42042.06006-8.02.05957v-3.31982h5.23974q2.35987,0,4.39991-.04v-2.27978a9.14911,9.14911,0,0,1-4.87989-1.72022,4.12483,4.12483,0,0,1-1.64013-3.27978v-1.04a4.28567,4.28567,0,0,1,2.14013-3.62012q2.1394-1.45971,6.33985-1.46a15.02751,15.02751,0,0,1,3.66015.3999,9.25161,9.25161,0,0,1,2.66016,1.08008,4.779,4.779,0,0,1,1.62012,1.6001,3.8834,3.8834,0,0,1,.54,2v1.04a4.12626,4.12626,0,0,1-1.64014,3.27978,9.1507,9.1507,0,0,1-4.87988,1.72022v2.15966q2.63964-.0791,5-.23974,2.35913-.15967,5-.3999Zm-2.24023-20.1997v3.27978h-20.19971v-3.27978h8.19971v-3.36036h3.92041v3.36036Zm-16.52,23.52h24.80029v10.7998h-3.96v-7.43994H1140.021Zm6.48-16.04a7.063,7.063,0,0,0-3.5.65966,1.87719,1.87719,0,0,0-1.09961,1.58008v.48a1.87542,1.87542,0,0,0,1.09961,1.58008,9.60813,9.60813,0,0,0,7,0,1.876,1.876,0,0,0,1.10009-1.58008v-.48a1.8778,1.8778,0,0,0-1.10009-1.58008A7.06174,7.06174,0,0,0,1146.501,589.92725Zm14.40039,14.12011v-24.52h3.91992v24.52Z" transform="translate(-43.72122 -137.46709)"/><path d="M1181.981,586.52734h-10.23975V583.127h14.12012v7.52a30.87545,30.87545,0,0,1-.16016,3.28028,12.97933,12.97933,0,0,1-.62012,2.81982,10.84223,10.84223,0,0,1-1.33984,2.62012,17.4619,17.4619,0,0,1-2.32031,2.66015,41.48966,41.48966,0,0,1-3.53955,2.98q-2.10059,1.60035-4.98047,3.52l-2.19971-3.08007q2.79931-1.8003,4.73975-3.28028a32.036,32.036,0,0,0,3.20019-2.73974,12.68839,12.68839,0,0,0,1.93994-2.39991,9.02151,9.02151,0,0,0,.98-2.24023,10.6598,10.6598,0,0,0,.35986-2.27979q.06006-1.17993.06006-2.54Zm20.48,29.87989h-3.87989V595.84717h-4.43994v18.75976h-3.87988V580.28711h3.87988v12.12012h4.43994V579.52734h3.87989Z" transform="translate(-43.72122 -137.46709)"/><path d="M1208.70068,596.84717V580.60693h3.87989v5.32032h9.12011v-5.32032h3.87989v16.24024Zm3.87989-3.28028h9.12011V589.167h-9.12011Zm.71972,23.08008v-9.91992h18.76026v-3.3999h-18.96v-3.27979h22.83984v9.87989h-18.75977v3.43994h19.79981V616.647Zm27.88037-26.1997h-5.24023V598.127h-3.91992V579.52734h3.91992v7.48h5.24023Z" transform="translate(-43.72122 -137.46709)"/><path d="M1254.73975,590.56689a3.63572,3.63572,0,0,1-.83985,1.3003,21.67563,21.67563,0,0,1-1.83984,1.81982q-1.281,1.1206-2.98,2.5-1.70068,1.37988-3.38037,2.54l-2.27979-2.7998q1.91969-1.43994,3.72022-2.86036,1.79955-1.4187,2.87988-2.41992a7.97257,7.97257,0,0,0,2.04-2.6997,9.0718,9.0718,0,0,0,.56006-3.46v-4.04h4v3.87988a15.463,15.463,0,0,0,.07959,1.66015A5.95,5.95,0,0,0,1257,587.34717a5.09445,5.09445,0,0,0,.62012,1.20019,6.58328,6.58328,0,0,0,1.07959,1.17969,33.55746,33.55746,0,0,0,3.10009,2.5q1.7,1.221,3.41993,2.37988l-2.27979,2.88037q-1.52051-1.11987-3-2.20019-1.48021-1.08033-2.87988-2.27979-.80054-.67968-1.46-1.34033a3.41722,3.41722,0,0,1-.82031-1.1001Zm-3.91993,26.08008V606.56689h18.96v-3.55957h-19.15967v-3.28027h23.03955v10.04h-18.96v3.6001h20V616.647Zm18.91993-18.75976V579.52734h3.91992v18.35987Z" transform="translate(-43.72122 -137.46709)"/><path class="cls-6" d="M1423.56805,598.02913a20.55855,20.55855,0,1,1-20.5585-20.5566A20.55813,20.55813,0,0,1,1423.56805,598.02913Z" transform="translate(-43.72122 -137.46709)"/><circle class="cls-7" cx="1403.00953" cy="598.02916" r="11.10159" transform="translate(-55.65972 1029.76915) rotate(-45)"/><path class="cls-6" d="M1518.47382,551.49978h373.5469a33.8672,33.8672,0,0,1,33.8672,33.8672v53.33a33.8633,33.8633,0,0,1-33.8633,33.8633h-373.5508a33.8652,33.8652,0,0,1-33.8652-33.8652V585.365A33.8652,33.8652,0,0,1,1518.47382,551.49978Z"/><path class="cls-10" d="M1518.47582,562.74978h373.5469a22.6152,22.6152,0,0,1,22.6152,22.6152v53.332a22.6133,22.6133,0,0,1-22.6133,22.6133h-373.5527a22.6133,22.6133,0,0,1-22.6133-22.6133v-53.33A22.6172,22.6172,0,0,1,1518.47582,562.74978Z"/><path class="cls-7" d="M1935.74584,701.46687a21.38849,21.38849,0,0,1,21.3633,21.3652v53.3301a21.38849,21.38849,0,0,1-21.3633,21.3652H1562.197a21.3899,21.3899,0,0,1-21.3672-21.3652v-53.3301a21.3899,21.3899,0,0,1,21.3672-21.3652h373.5488m0-2.5H1562.197a23.937,23.937,0,0,0-23.8672,23.8652v53.3301a23.937,23.937,0,0,0,23.8672,23.8652h373.5488a23.93362,23.93362,0,0,0,23.8633-23.8652v-53.3301a23.93362,23.93362,0,0,0-23.8633-23.8652Z" transform="translate(-43.72122 -137.46709)"/><path class="cls-6" d="M1770.56805,694.48323a20.55855,20.55855,0,1,1-20.5585-20.5566A20.55813,20.55813,0,0,1,1770.56805,694.48323Z" transform="translate(-43.72122 -137.46709)"/><circle class="cls-7" cx="1750.00953" cy="694.48326" r="11.10159" transform="translate(-22.22912 1303.38595) rotate(-45)"/><path d="M1692.85059,758.44727v-7H1677.4502v-3.36036h33.84033v3.36036h-14.43994v7Zm-6.56006,4.11962h20.83984v3.44043h-24.7998V755.127h3.96Zm8.08008-32.35986a23.1592,23.1592,0,0,1,4.91992.48,12.82218,12.82218,0,0,1,3.73974,1.37988,6.89768,6.89768,0,0,1,2.36036,2.16016,5.13433,5.13433,0,0,1,.81982,2.85986v1.28028a5.132,5.132,0,0,1-.81982,2.85986,6.89768,6.89768,0,0,1-2.36036,2.16016,12.79422,12.79422,0,0,1-3.73974,1.37988,25.45773,25.45773,0,0,1-9.84033,0,12.78382,12.78382,0,0,1-3.73975-1.37988,6.88233,6.88233,0,0,1-2.35986-2.16016,5.12448,5.12448,0,0,1-.82032-2.85986v-1.28028a5.12677,5.12677,0,0,1,.82032-2.85986,6.88233,6.88233,0,0,1,2.35986-2.16016,12.81173,12.81173,0,0,1,3.73975-1.37988A23.154,23.154,0,0,1,1694.37061,730.207Zm0,11.76026a17.34638,17.34638,0,0,0,3.25976-.28028,10.20913,10.20913,0,0,0,2.5-.77978,4.84831,4.84831,0,0,0,1.62012-1.18018,2.28564,2.28564,0,0,0,.58008-1.52v-.96a2.28656,2.28656,0,0,0-.58008-1.52,4.86092,4.86092,0,0,0-1.62012-1.17969,10.25084,10.25084,0,0,0-2.5-.78027,19.13211,19.13211,0,0,0-6.52,0,10.23734,10.23734,0,0,0-2.5.78027,4.85086,4.85086,0,0,0-1.62012,1.17969,2.28363,2.28363,0,0,0-.57959,1.52v.96a2.28271,2.28271,0,0,0,.57959,1.52,4.8383,4.8383,0,0,0,1.62012,1.18018,10.19575,10.19575,0,0,0,2.5.77978A17.34447,17.34447,0,0,0,1694.37061,741.96729Z" transform="translate(-43.72122 -137.46709)"/><path d="M1733.32959,741.04736a7.85408,7.85408,0,0,1-.53955,2.75977,7.5877,7.5877,0,0,1-1.68018,2.62012,8.94918,8.94918,0,0,1-2.85986,1.93994,11.33535,11.33535,0,0,1-8.16016,0,8.93312,8.93312,0,0,1-2.85986-1.93994,7.57374,7.57374,0,0,1-1.68018-2.62012,7.85515,7.85515,0,0,1-.54-2.75977v-2.04a7.85562,7.85562,0,0,1,.54-2.76025A7.58271,7.58271,0,0,1,1717.23,733.627a8.94889,8.94889,0,0,1,2.85986-1.93994,11.33535,11.33535,0,0,1,8.16016,0,8.965,8.965,0,0,1,2.85986,1.93994,7.59671,7.59671,0,0,1,1.68018,2.62012,7.85456,7.85456,0,0,1,.53955,2.76025Zm-3.7998-1.84033a4.96841,4.96841,0,0,0-.31983-1.73974,4.60671,4.60671,0,0,0-.98-1.56006,4.76013,4.76013,0,0,0-1.68018-1.12012,7.01064,7.01064,0,0,0-4.77978,0,4.79558,4.79558,0,0,0-1.66016,1.12012,4.59164,4.59164,0,0,0-.98,1.56006,4.94644,4.94644,0,0,0-.31982,1.73974v1.64014a4.93847,4.93847,0,0,0,.31982,1.73974,4.58247,4.58247,0,0,0,.98,1.56006,4.789,4.789,0,0,0,1.66016,1.12012,7.01064,7.01064,0,0,0,4.77978,0A4.75373,4.75373,0,0,0,1728.23,744.147a4.59748,4.59748,0,0,0,.98-1.56006,4.96036,4.96036,0,0,0,.31983-1.73974Zm-7.35987,19.6001a5.14362,5.14362,0,0,1,.77979-2.72022,7.175,7.175,0,0,1,2.24023-2.23974,12.13537,12.13537,0,0,1,3.56006-1.52,20.33815,20.33815,0,0,1,9.48,0,12.15237,12.15237,0,0,1,3.56006,1.52,7.17844,7.17844,0,0,1,2.23975,2.23974,5.14425,5.14425,0,0,1,.78027,2.72022v1.6001a5.14128,5.14128,0,0,1-.78027,2.71972,7.17465,7.17465,0,0,1-2.23975,2.24024,12.166,12.166,0,0,1-3.56006,1.52,20.33815,20.33815,0,0,1-9.48,0,12.14894,12.14894,0,0,1-3.56006-1.52,7.17124,7.17124,0,0,1-2.24023-2.24024,5.14065,5.14065,0,0,1-.77979-2.71972Zm18.75977.24023a2.54248,2.54248,0,0,0-.52-1.46045,4.60733,4.60733,0,0,0-1.48-1.2998,9.30343,9.30343,0,0,0-2.33985-.91992,13.5328,13.5328,0,0,0-6.20019,0,9.311,9.311,0,0,0-2.33985.91992,4.60224,4.60224,0,0,0-1.48,1.2998,2.539,2.539,0,0,0-.52,1.46045V760.167a2.5376,2.5376,0,0,0,.52,1.46,4.60335,4.60335,0,0,0,1.48,1.3003,9.33035,9.33035,0,0,0,2.33985.91992,13.53316,13.53316,0,0,0,6.20019,0,9.32271,9.32271,0,0,0,2.33985-.91992,4.60844,4.60844,0,0,0,1.48-1.3003,2.54109,2.54109,0,0,0,.52-1.46Zm-.15967-7.76025v-5.43994h-5.80029v-3.3999H1740.77v-4.91993h-5.80029V734.127H1740.77v-4.59961h3.87988v21.75977Z" transform="translate(-43.72122 -137.46709)"/><path d="M1761.40967,732.00732a9.99046,9.99046,0,0,1,3.74023.67969,7.92353,7.92353,0,0,1,2.93994,2.04,9.65413,9.65413,0,0,1,1.93995,3.35986,14.04747,14.04747,0,0,1,.6997,4.64014v4.16016a14.04531,14.04531,0,0,1-.6997,4.64013,9.43347,9.43347,0,0,1-1.93995,3.33985,8.01188,8.01188,0,0,1-2.93994,2.02,10.62963,10.62963,0,0,1-7.48,0,8.00165,8.00165,0,0,1-2.94043-2.02,9.419,9.419,0,0,1-1.93994-3.33985,14.03229,14.03229,0,0,1-.69971-4.64013v-4.16016a14.2139,14.2139,0,0,1,.69971-4.66016,9.40893,9.40893,0,0,1,1.93994-3.35986,8.019,8.019,0,0,1,2.94043-2.02A9.98426,9.98426,0,0,1,1761.40967,732.00732Zm0,22a5.54317,5.54317,0,0,0,2.08008-.40039,4.3836,4.3836,0,0,0,1.75976-1.31982,7.00483,7.00483,0,0,0,1.22022-2.37988,12.05684,12.05684,0,0,0,.46-3.58008v-3.04a12.06129,12.06129,0,0,0-.46-3.58008,6.79817,6.79817,0,0,0-1.24024-2.37988,4.57209,4.57209,0,0,0-1.75976-1.31983,5.40192,5.40192,0,0,0-2.06006-.40039,5.55272,5.55272,0,0,0-2.08008.40039,4.38615,4.38615,0,0,0-1.75977,1.31983,6.9968,6.9968,0,0,0-1.22021,2.37988,12.04522,12.04522,0,0,0-.46,3.58008v3.04a12.04079,12.04079,0,0,0,.46,3.58008,6.98763,6.98763,0,0,0,1.22021,2.37988,4.37709,4.37709,0,0,0,1.75977,1.31982A5.54309,5.54309,0,0,0,1761.40967,754.00732Zm15.43994,12.39991V729.52734h3.96v36.87989Z" transform="translate(-43.72122 -137.46709)"/><path d="M1797.56934,747.88721a5.67254,5.67254,0,0,1-.82032,1.35986q-.53979.68042-1.5,1.72022-1.24,1.36009-2.83984,2.93994-1.60034,1.58056-3.64014,3.46L1786.169,754.687a82.8599,82.8599,0,0,0,6.32031-6.19971,19.754,19.754,0,0,0,1.52-1.92041,8.927,8.927,0,0,0,.93994-1.73974,8.26141,8.26141,0,0,0,.48-1.76026,12.92882,12.92882,0,0,0,.14014-1.98V732.207h4v8.87988a12.81556,12.81556,0,0,0,.15966,2.14014,8.21406,8.21406,0,0,0,.52,1.80029,8.67721,8.67721,0,0,0,.98,1.71973,20.24673,20.24673,0,0,0,1.54,1.85986q1.27955,1.40113,2.68018,2.74024,1.39965,1.34033,3.19971,2.93994l-2.55957,2.72021q-2.08081-1.92041-3.5-3.34033-1.4209-1.41944-2.58008-2.65967-.84009-.91992-1.5-1.72021a5.59182,5.59182,0,0,1-.8999-1.3999Zm23.59961-1.6001h-5.67969v20.12012h-3.96V729.52734h3.96v13.31983h5.67969Z" transform="translate(-43.72122 -137.46709)"/><line class="cls-4" x1="1706.1498" y1="687.62019" x2="1706.1498" y2="689.62019"/><line class="cls-11" x1="1706.1498" y1="691.61629" x2="1706.1499" y2="989.99129"/><line class="cls-4" x1="1706.1499" y1="990.98929" x2="1706.1499" y2="992.98929"/><path class="cls-6" d="M1770.42963,804.48323a20.55855,20.55855,0,1,1-20.5585-20.5566A20.55813,20.55813,0,0,1,1770.42963,804.48323Z" transform="translate(-43.72122 -137.46709)"/><circle class="cls-7" cx="1749.8711" cy="804.48326" r="11.10159" transform="translate(-100.05141 1335.50633) rotate(-45)"/><path class="cls-12" d="M1770.57862,1151.79043a20.55855,20.55855,0,1,1-20.5585-20.5566A20.55813,20.55813,0,0,1,1770.57862,1151.79043Z" transform="translate(-43.72122 -137.46709)"/><circle class="cls-7" cx="1750.0201" cy="1151.79045" r="11.10159" transform="translate(-345.59104 1437.3356) rotate(-45)"/><g class="cls-3"><line class="cls-4" x1="445.44784" y1="1027.9203" x2="445.44784" y2="1029.9203"/><line class="cls-5" x1="445.44784" y1="1031.85" x2="445.44784" y2="1094.5492"/><line class="cls-4" x1="445.44784" y1="1095.514" x2="445.44784" y2="1097.514"/></g><path class="cls-1" d="M501.503,1160.68818a12.335,12.335,0,1,1-12.3339-12.334A12.33474,12.33474,0,0,1,501.503,1160.68818Z" transform="translate(-43.72122 -137.46709)"/><path class="cls-1" d="M501.503,1239.96748a12.335,12.335,0,1,1-12.3339-12.334A12.33474,12.33474,0,0,1,501.503,1239.96748Z" transform="translate(-43.72122 -137.46709)"/><path class="cls-12" d="M1519.84665,1104.49978h373.5469a33.8652,33.8652,0,0,1,33.8652,33.8652v53.332a33.8633,33.8633,0,0,1-33.8633,33.8633h-373.5508a33.8652,33.8652,0,0,1-33.8652-33.8652V1138.367A33.8672,33.8672,0,0,1,1519.84665,1104.49978Z"/><path class="cls-13" d="M1519.84665,1115.74978h373.5469a22.6152,22.6152,0,0,1,22.6152,22.6152v53.332a22.6133,22.6133,0,0,1-22.6133,22.6133h-373.5508a22.6152,22.6152,0,0,1-22.6152-22.6152V1138.367A22.6172,22.6172,0,0,1,1519.84665,1115.74978Z"/><path class="cls-7" d="M1937.11668,1254.46686a21.38849,21.38849,0,0,1,21.3633,21.3652v53.3301a21.38849,21.38849,0,0,1-21.3633,21.3652h-373.5488a21.3899,21.3899,0,0,1-21.3672-21.3652v-53.3301a21.3899,21.3899,0,0,1,21.3672-21.3652h373.5488m0-2.5h-373.5488a23.937,23.937,0,0,0-23.8672,23.8652v53.3301a23.937,23.937,0,0,0,23.8672,23.8652h373.5488a23.93362,23.93362,0,0,0,23.8633-23.8652v-53.3301a23.93362,23.93362,0,0,0-23.8633-23.8652Z" transform="translate(-43.72122 -137.46709)"/><path d="M1669.98193,1301.44727a5.03538,5.03538,0,0,1-.66015,1.25976q-.46.65991-1.06006,1.37988-1.19971,1.44068-2.67969,3.04-1.481,1.60035-3.08008,3.24024l-2.68017-2.68018q1.80029-1.719,3.35986-3.35986a40.1609,40.1609,0,0,0,2.84033-3.31983,8.76635,8.76635,0,0,0,1.59961-3.08007,12.691,12.691,0,0,0,.40039-3.24024v-5.27978h-6.32031v-3.32032h16.08008v3.32032h-5.91992v5.27978a10.72934,10.72934,0,0,0,.46,3.2002,9.83823,9.83823,0,0,0,1.66015,3.04q1.27954,1.64063,2.63965,3.12011,1.35938,1.48023,3.16016,3.19971l-2.68018,2.64014q-1.5996-1.59962-2.8999-2.98-1.30005-1.3799-2.5-2.82032a16.32542,16.32542,0,0,1-1.04-1.37988,5.32454,5.32454,0,0,1-.63965-1.25976Zm11.56006-18.16016h3.87989v34.31982H1681.542v-19.55957h-5.6001v-3.44043h5.6001Zm11.19971,36.12012h-3.87988v-36.87989h3.87988Z" transform="translate(-43.72122 -137.46709)"/><path d="M1730.86133,1311.127v3.36035H1697.021V1311.127h14.92041v-7.87988h4v7.87988Zm-16.91992-14.67968a6.45673,6.45673,0,0,1-1.38037,1.46,29.34838,29.34838,0,0,1-3.06006,2.17968q-2.03981,1.281-3.96,2.38038-1.91968,1.10008-4.19971,2.25976l-1.96-3.16016q2.55907-1.31982,4.5-2.37988,1.93945-1.05908,3.85986-2.2998a10.05623,10.05623,0,0,0,3.25977-3.02,7.21277,7.21277,0,0,0,.94043-3.81983v-.96045h-10.72022V1285.647h25.43994v3.43994h-10.71972v.96045a9.58466,9.58466,0,0,0,.1997,2.03955,5.401,5.401,0,0,0,.68018,1.7002,7.29521,7.29521,0,0,0,1.27978,1.52,13.87525,13.87525,0,0,0,2,1.5q1.16016.72,2.14014,1.31982.98.60058,1.96,1.14014.98.53979,2,1.08008,1.02027.53979,2.29981,1.18017l-1.96,3.15967q-1.28028-.67968-2.33985-1.25976-1.06055-.57935-2.02-1.12012-.9602-.53979-1.8999-1.1001-.94043-.55957-1.93994-1.19971a27.545,27.545,0,0,1-3.02-2.16015,7.05068,7.05068,0,0,1-1.33984-1.3999Z" transform="translate(-43.72122 -137.46709)"/><path d="M1756.90088,1303.4873q-2.39942.23951-4.61963.41993-2.22.18016-4.88037.27978-2.66016.10035-6.01953.16016-3.36036.06006-7.96045.06006v-3.39991h7.36035v-7.64013h3.91992v7.56006q1.63989-.03956,3.12012-.1001,1.47876-.06006,2.8999-.16016,1.41944-.09888,2.85986-.1997,1.44-.09962,3-.26026Zm-7.67969-6.40039q.43945-2.07935.66016-4.03955a33.24779,33.24779,0,0,0,.21972-3.68017v-1.56006h-14.20019v-3.3999H1754.021v4.3999q0,1.08032-.06006,2.24023-.06006,1.16016-.17969,2.31983-.12012,1.16088-.30029,2.23974-.17945,1.08033-.37989,1.96Zm-6,18.56006h20.56006v3.40039h-24.52v-11.08007h3.96Zm15.64014-5.75976v-27.35987h3.91992v11.23975h5.19971v3.43994h-5.19971v12.68018Z" transform="translate(-43.72122 -137.46709)"/><path d="M1781.30029,1289.52734h-10.23974V1286.127h14.12011v5.40039h5.27979v-8.24023h3.87988v34.31982h-3.87988V1304.4873h-5.3999v-3.43994h5.3999v-6.08007h-5.31982a21.35918,21.35918,0,0,1-.26026,2.8999,10.49822,10.49822,0,0,1-.75976,2.56006,12.9428,12.9428,0,0,1-1.43995,2.43994,18.68343,18.68343,0,0,1-2.32031,2.54,42.65386,42.65386,0,0,1-3.41992,2.81982q-2.00025,1.5-4.71973,3.30029l-2.20019-3.08007q2.79931-1.8003,4.74023-3.28028a32.08063,32.08063,0,0,0,3.19971-2.73974,12.68878,12.68878,0,0,0,1.93994-2.39991,9.02146,9.02146,0,0,0,.98-2.24023,10.69029,10.69029,0,0,0,.36035-2.27979q.06006-1.17993.05957-2.54Zm20.56006,29.87989h-3.87988v-36.87989h3.87988Z" transform="translate(-43.72122 -137.46709)"/><path d="M1821.14014,1319.40723V1307.687h-14.92041v-3.35986h33.84033v3.35986h-14.91992v11.72022Zm14.12011-19.12012H1811.02v-16.31982h3.91992v5.04h16.3999v-5.08007h3.92041Zm-20.32031-3.3999h16.3999v-4.52h-16.3999Z" transform="translate(-43.72122 -137.46709)"/><path class="cls-12" d="M1770.57862,1246.79043a20.55855,20.55855,0,1,1-20.5585-20.5566A20.55813,20.55813,0,0,1,1770.57862,1246.79043Z" transform="translate(-43.72122 -137.46709)"/><circle class="cls-7" cx="1750.0201" cy="1246.79045" r="11.10159" transform="translate(-412.76619 1465.16046) rotate(-45)"/><path class="cls-12" d="M1769.57862,1357.79043a20.55855,20.55855,0,1,1-20.5585-20.5566A20.55813,20.55813,0,0,1,1769.57862,1357.79043Z" transform="translate(-43.72122 -137.46709)"/><ellipse class="cls-7" cx="1705.33961" cy="1220.4789" rx="11.06084" ry="10.94604"/><path class="cls-14" d="M258.84665,1104.49978h373.5469a33.8652,33.8652,0,0,1,33.8652,33.8652v53.332a33.8633,33.8633,0,0,1-33.8633,33.8633H258.84465a33.8652,33.8652,0,0,1-33.8652-33.8652V1138.367A33.8672,33.8672,0,0,1,258.84665,1104.49978Z"/><path class="cls-15" d="M258.84665,1115.74978h373.5469a22.6152,22.6152,0,0,1,22.6152,22.6152v53.3301a22.6152,22.6152,0,0,1-22.6152,22.6152H258.84275a22.6133,22.6133,0,0,1-22.6133-22.6133v-53.33A22.6172,22.6172,0,0,1,258.84665,1115.74978Z"/><path class="cls-7" d="M676.11668,1254.46686a21.38849,21.38849,0,0,1,21.3633,21.3652v53.3301a21.38849,21.38849,0,0,1-21.3633,21.3652H302.56788a21.3899,21.3899,0,0,1-21.3672-21.3652v-53.3301a21.3899,21.3899,0,0,1,21.3672-21.3652h373.5488m0-2.5H302.56788a23.937,23.937,0,0,0-23.8672,23.8652v53.3301a23.937,23.937,0,0,0,23.8672,23.8652h373.5488a23.93362,23.93362,0,0,0,23.8633-23.8652v-53.3301a23.93362,23.93362,0,0,0-23.8633-23.8652Z" transform="translate(-43.72122 -137.46709)"/><path d="M420.10156,1294.04736a7.85386,7.85386,0,0,1-.53955,2.75977,7.58782,7.58782,0,0,1-1.68017,2.62012,8.94934,8.94934,0,0,1-2.85987,1.93994,11.33532,11.33532,0,0,1-8.16015,0,8.93305,8.93305,0,0,1-2.85987-1.93994,7.57357,7.57357,0,0,1-1.68017-2.62012,7.855,7.855,0,0,1-.54-2.75977v-2.04a7.85542,7.85542,0,0,1,.54-2.76025,7.58254,7.58254,0,0,1,1.68017-2.62012,8.94883,8.94883,0,0,1,2.85987-1.93994,11.33532,11.33532,0,0,1,8.16015,0,8.96518,8.96518,0,0,1,2.85987,1.93994,7.59682,7.59682,0,0,1,1.68017,2.62012,7.85433,7.85433,0,0,1,.53955,2.76025Zm-3.7998-1.84033a4.96841,4.96841,0,0,0-.31983-1.73974,4.60656,4.60656,0,0,0-.98-1.56006,4.76017,4.76017,0,0,0-1.68017-1.12012,7.01066,7.01066,0,0,0-4.77979,0,4.79553,4.79553,0,0,0-1.66015,1.12012,4.59149,4.59149,0,0,0-.98,1.56006,4.94623,4.94623,0,0,0-.31983,1.73974v1.64014a4.93826,4.93826,0,0,0,.31983,1.73974,4.58231,4.58231,0,0,0,.98,1.56006,4.78894,4.78894,0,0,0,1.66015,1.12012,7.01066,7.01066,0,0,0,4.77979,0,4.75378,4.75378,0,0,0,1.68017-1.12012,4.59732,4.59732,0,0,0,.98-1.56006,4.96036,4.96036,0,0,0,.31983-1.73974Zm-7.35987,19.6001a5.14362,5.14362,0,0,1,.77979-2.72022,7.175,7.175,0,0,1,2.24023-2.23974,12.13537,12.13537,0,0,1,3.56006-1.52,20.33815,20.33815,0,0,1,9.48,0,12.15226,12.15226,0,0,1,3.56006,1.52,7.17833,7.17833,0,0,1,2.23975,2.23974,5.14416,5.14416,0,0,1,.78027,2.72022v1.6001a5.14119,5.14119,0,0,1-.78027,2.71972,7.17454,7.17454,0,0,1-2.23975,2.24024,12.16587,12.16587,0,0,1-3.56006,1.52,20.33815,20.33815,0,0,1-9.48,0,12.14894,12.14894,0,0,1-3.56006-1.52,7.17124,7.17124,0,0,1-2.24023-2.24024,5.14065,5.14065,0,0,1-.77979-2.71972Zm18.75977.24023a2.54248,2.54248,0,0,0-.52-1.46045,4.60723,4.60723,0,0,0-1.48-1.2998,9.3035,9.3035,0,0,0-2.33984-.91992,13.53284,13.53284,0,0,0-6.2002,0,9.3108,9.3108,0,0,0-2.33984.91992,4.602,4.602,0,0,0-1.48,1.2998,2.539,2.539,0,0,0-.52,1.46045v1.11963a2.5376,2.5376,0,0,0,.52,1.46,4.60313,4.60313,0,0,0,1.48,1.3003,9.33012,9.33012,0,0,0,2.33984.91992,13.53321,13.53321,0,0,0,6.2002,0,9.32278,9.32278,0,0,0,2.33984-.91992,4.60834,4.60834,0,0,0,1.48-1.3003,2.54109,2.54109,0,0,0,.52-1.46Zm-.15967-7.76025v-5.43994H421.7417v-3.3999H427.542v-4.91993H421.7417V1287.127H427.542v-4.59961h3.87989v21.75977Z" transform="translate(-43.72122 -137.46709)"/><path d="M463.90137,1301.40723v-7.48h-7.48a7.25856,7.25856,0,0,1-.82032,2.52,7.4248,7.4248,0,0,1-1.7998,2.1997,8.8794,8.8794,0,0,1-2.76025,1.54,10.926,10.926,0,0,1-3.69971.58008,10.81657,10.81657,0,0,1-4-.68018,8.60773,8.60773,0,0,1-2.85986-1.77978,7.412,7.412,0,0,1-1.72022-2.48,7.11765,7.11765,0,0,1-.58008-2.77979v-1.52a7.12178,7.12178,0,0,1,.58008-2.78027,7.42174,7.42174,0,0,1,1.72022-2.48,8.63165,8.63165,0,0,1,2.85986-1.77979,12.03407,12.03407,0,0,1,7.67969-.10009,9.194,9.194,0,0,1,2.74023,1.52,7.37873,7.37873,0,0,1,1.79981,2.14013,7.54151,7.54151,0,0,1,.86035,2.48h7.48v-8h3.91992v18.87989Zm-16.56006-4.04a6.10245,6.10245,0,0,0,2.27978-.3999,5.28319,5.28319,0,0,0,1.68018-1.04,4.50939,4.50939,0,0,0,1.04-1.43995,3.96172,3.96172,0,0,0,.35986-1.64013v-1.12012a3.96512,3.96512,0,0,0-.35986-1.64014,4.31433,4.31433,0,0,0-1.04-1.41992,5.50888,5.50888,0,0,0-1.68018-1.02,6.69972,6.69972,0,0,0-4.56,0,5.50032,5.50032,0,0,0-1.67969,1.02,4.29354,4.29354,0,0,0-1.04,1.41992,3.95723,3.95723,0,0,0-.35986,1.64014v1.12012a3.95385,3.95385,0,0,0,.35986,1.64013,4.48693,4.48693,0,0,0,1.04,1.43995,5.27528,5.27528,0,0,0,1.67969,1.04A6.09966,6.09966,0,0,0,447.34131,1297.36719Zm20.48,5.83984v16.2002h-23V1303.207h3.91992v4.68018h15.16016V1303.207Zm-3.91992,12.84033V1311.207H448.74121v4.84033Z" transform="translate(-43.72122 -137.46709)"/><path d="M496.90088,1303.4873q-2.39941.23951-4.61963.41993-2.22.18016-4.88037.27978-2.66016.10035-6.01953.16016-3.36036.06006-7.96045.06006v-3.39991h7.36035v-7.64013h3.91992v7.56006q1.63989-.03956,3.12012-.1001,1.47876-.06006,2.8999-.16016,1.41944-.09888,2.85986-.1997,1.44-.09962,3-.26026Zm-7.67969-6.40039q.43946-2.07935.66016-4.03955a33.24779,33.24779,0,0,0,.21972-3.68017v-1.56006H475.90088v-3.3999H494.021v4.3999q0,1.08032-.06006,2.24023-.06006,1.16016-.17969,2.31983-.12012,1.16088-.30029,2.23974-.17944,1.08033-.37989,1.96Zm-6,18.56006h20.56006v3.40039h-24.52v-11.08007h3.96Zm15.64014-5.75976v-27.35987h3.91992v11.23975H507.981v3.43994h-5.19971v12.68018Z" transform="translate(-43.72122 -137.46709)"/><path d="M516.42041,1299.24707v7.83984h3.76025q1.99952,0,3.63965-.03955,1.63989-.03954,3.14014-.14013,1.5-.09962,2.91992-.24024,1.41943-.13916,2.98-.37988l.36035,3.31982q-1.40112.20069-2.82031.36036-1.42017.16039-3.08008.27978-1.65966.12012-3.63965.18018-1.98046.06006-4.46.06005h-6.72021v-14.56005h12.56006v-7.08008H512.38037v-3.3999h16.6001v13.7998Zm19.96,20.16016v-36.87989h3.96v36.87989Z" transform="translate(-43.72122 -137.46709)"/><path d="M561.14014,1319.40723V1307.687H546.21973v-3.35986h33.84033v3.35986H565.14014v11.72022Zm14.12011-19.12012H551.02v-16.31982h3.91992v5.04h16.3999v-5.08007h3.92041Zm-20.32031-3.3999h16.3999v-4.52h-16.3999Z" transform="translate(-43.72122 -137.46709)"/><path class="cls-14" d="M509.57862,1246.79043a20.55855,20.55855,0,1,1-20.5585-20.5566A20.55813,20.55813,0,0,1,509.57862,1246.79043Z" transform="translate(-43.72122 -137.46709)"/><circle class="cls-7" cx="489.0201" cy="1246.79045" r="11.10159" transform="translate(-782.10454 573.49881) rotate(-45)"/><path class="cls-14" d="M508.57862,1357.79043a20.55855,20.55855,0,1,1-20.5585-20.5566A20.55813,20.55813,0,0,1,508.57862,1357.79043Z" transform="translate(-43.72122 -137.46709)"/><circle class="cls-7" cx="488.0201" cy="1357.79045" r="11.10159" transform="translate(-860.88628 605.30285) rotate(-45)"/><line class="cls-4" x1="1727.18845" y1="461.30474" x2="1729.18845" y2="461.30474"/><line class="cls-11" x1="1731.18455" y1="461.30474" x2="2029.55955" y2="461.30474"/><line class="cls-4" x1="2030.55755" y1="461.30474" x2="2032.55755" y2="461.30474"/><line class="cls-4" x1="1380.18845" y1="461.30474" x2="1382.18845" y2="461.30474"/><line class="cls-11" x1="1384.18455" y1="461.30474" x2="1682.55955" y2="461.30474"/><line class="cls-4" x1="1683.55755" y1="461.30474" x2="1685.55755" y2="461.30474"/><line class="cls-4" x1="1706.1498" y1="134.62019" x2="1706.1498" y2="136.62019"/><line class="cls-11" x1="1706.1498" y1="138.61629" x2="1706.1499" y2="436.99129"/><line class="cls-4" x1="1706.1499" y1="437.98929" x2="1706.1499" y2="439.98929"/><path class="cls-16" d="M1519.07616,0h373.5469a33.8652,33.8652,0,0,1,33.8652,33.8652v53.332a33.8633,33.8633,0,0,1-33.8633,33.8633h-373.5508a33.8652,33.8652,0,0,1-33.8652-33.8652V33.8672A33.8672,33.8672,0,0,1,1519.07616,0Z"/><path class="cls-17" d="M1519.07616,11.25h373.5469a22.6152,22.6152,0,0,1,22.6152,22.6152v53.332a22.6133,22.6133,0,0,1-22.6133,22.6133h-373.5508a22.6152,22.6152,0,0,1-22.6152-22.6152V33.8672A22.6172,22.6172,0,0,1,1519.07616,11.25Z"/><path class="cls-7" d="M1936.34619,149.96709a21.38849,21.38849,0,0,1,21.3633,21.3652v53.3301a21.38849,21.38849,0,0,1-21.3633,21.3652h-373.5488a21.3899,21.3899,0,0,1-21.3672-21.3652v-53.3301a21.3899,21.3899,0,0,1,21.3672-21.3652h373.5488m0-2.5h-373.5488a23.937,23.937,0,0,0-23.8672,23.8652v53.3301a23.937,23.937,0,0,0,23.8672,23.8652h373.5488a23.93362,23.93362,0,0,0,23.8633-23.8652v-53.3301a23.93362,23.93362,0,0,0-23.8633-23.8652Z" transform="translate(-43.72122 -137.46709)"/><path d="M1693.77051,184.9873h-10.2002v16.59961h2.04q1.35938,0,2.56055-.03955,1.1997-.03954,2.35937-.12011,1.16016-.07984,2.40039-.22022,1.23927-.13989,2.63965-.37988l.40039,3.31982q-1.56006.24024-2.91992.41992-1.36085.18018-2.67969.28028-1.31982.10034-2.66015.14013-1.34034.04029-2.90039.04h-5.24024v-23.48h14.2002Zm16.44043,29.91993h-3.87989v-20.6001h-4.36035v18.7998h-3.87988V178.78711h3.87988v12.08008h4.36035V178.02734h3.87989Z" transform="translate(-43.72122 -137.46709)"/><path d="M1744.77051,195.54736v3.27979h-5.96v7.7998H1748.29v3.36035H1714.4502V206.627h9.47949v-7.7998h-5.96v-3.27979h5.16015V184.38721H1718.25v-3.28028h26.2002v3.28028h-4.79981v11.16015Zm-17.68067,0h8.60059V184.38721h-8.60059Zm.76075,11.07959h7.04v-7.7998h-7.04Z" transform="translate(-43.72122 -137.46709)"/><path d="M1762.00977,180.50732a9.99228,9.99228,0,0,1,3.74023.67969,7.92186,7.92186,0,0,1,2.93945,2.04,9.6548,9.6548,0,0,1,1.94043,3.35986,14.06049,14.06049,0,0,1,.69922,4.64014v4.16016a14.05834,14.05834,0,0,1-.69922,4.64013,9.43413,9.43413,0,0,1-1.94043,3.33985,8.01017,8.01017,0,0,1-2.93945,2.02,10.631,10.631,0,0,1-7.48047,0,8.00568,8.00568,0,0,1-2.94043-2.02,9.41817,9.41817,0,0,1-1.93945-3.33985,14.03178,14.03178,0,0,1-.7002-4.64013v-4.16016a14.21342,14.21342,0,0,1,.7002-4.66016,9.40814,9.40814,0,0,1,1.93945-3.35986,8.0231,8.0231,0,0,1,2.94043-2.02A9.985,9.985,0,0,1,1762.00977,180.50732Zm0,22a5.54493,5.54493,0,0,0,2.08007-.40039,4.38363,4.38363,0,0,0,1.75977-1.31982,7.01312,7.01312,0,0,0,1.21973-2.37988,12.04079,12.04079,0,0,0,.46-3.58008v-3.04a12.04522,12.04522,0,0,0-.46-3.58008,6.79009,6.79009,0,0,0-1.24024-2.37988,4.57209,4.57209,0,0,0-1.75976-1.31983,5.39945,5.39945,0,0,0-2.05957-.40039,5.55086,5.55086,0,0,0-2.08008.40039,4.37953,4.37953,0,0,0-1.75977,1.31983,7.00592,7.00592,0,0,0-1.2207,2.37988,12.04522,12.04522,0,0,0-.46,3.58008v3.04a12.04079,12.04079,0,0,0,.46,3.58008,6.99673,6.99673,0,0,0,1.2207,2.37988,4.37051,4.37051,0,0,0,1.75977,1.31982A5.54124,5.54124,0,0,0,1762.00977,202.50732Zm15.43945,12.39991V178.02734h3.96v36.87989Z" transform="translate(-43.72122 -137.46709)"/><path d="M1798.16992,196.38721a5.68844,5.68844,0,0,1-.82031,1.35986q-.54052.68041-1.5,1.72022-1.24073,1.3601-2.83984,2.93994-1.60109,1.58057-3.64063,3.46l-2.59961-2.68018a82.94859,82.94859,0,0,0,6.32031-6.19971,19.74274,19.74274,0,0,0,1.51954-1.92041,8.92973,8.92973,0,0,0,.94042-1.73974,8.28845,8.28845,0,0,0,.4795-1.76026,12.86409,12.86409,0,0,0,.14062-1.98V180.707h4v8.87988a12.87147,12.87147,0,0,0,.15918,2.14014,8.18827,8.18827,0,0,0,.52051,1.80029,8.698,8.698,0,0,0,.97949,1.71973,20.327,20.327,0,0,0,1.54,1.85986q1.28028,1.40113,2.68066,2.74024,1.39893,1.34033,3.19922,2.93994l-2.55957,2.72021q-2.08008-1.92041-3.5-3.34033-1.42089-1.41944-2.58007-2.65967-.83937-.91992-1.5-1.72021a5.58792,5.58792,0,0,1-.89942-1.3999Zm23.59961-1.6001h-5.67969v20.12012h-3.96V178.02734h3.96v13.31983h5.67969Z" transform="translate(-43.72122 -137.46709)"/><path class="cls-16" d="M1770.56805,252.02913a20.55855,20.55855,0,1,1-20.5585-20.5566A20.55813,20.55813,0,0,1,1770.56805,252.02913Z" transform="translate(-43.72122 -137.46709)"/><circle class="cls-7" cx="1750.00953" cy="252.02916" r="11.10159" transform="translate(290.63317 1173.79415) rotate(-45)"/><path class="cls-14" d="M509.56805,1151.79043a20.55855,20.55855,0,1,1-20.5585-20.5566A20.55813,20.55813,0,0,1,509.56805,1151.79043Z" transform="translate(-43.72122 -137.46709)"/><circle class="cls-7" cx="489.00953" cy="1151.79045" r="11.10159" transform="translate(-714.93249 545.66648) rotate(-45)"/><line class="cls-4" x1="1380.18845" y1="1014.32439" x2="1382.18845" y2="1014.32439"/><line class="cls-11" x1="1384.18455" y1="1014.32439" x2="1682.55955" y2="1014.32429"/><line class="cls-4" x1="1683.55755" y1="1014.32429" x2="1685.55755" y2="1014.32429"/><line class="cls-4" x1="1075.18845" y1="1014.32439" x2="1077.18845" y2="1014.32439"/><line class="cls-11" x1="1079.18455" y1="1014.32439" x2="1377.55955" y2="1014.32429"/><line class="cls-4" x1="1378.55755" y1="1014.32429" x2="1380.55755" y2="1014.32429"/><line class="cls-4" x1="465.18845" y1="1014.32439" x2="467.18845" y2="1014.32439"/><line class="cls-11" x1="469.18455" y1="1014.32439" x2="767.55955" y2="1014.32429"/><line class="cls-4" x1="768.55755" y1="1014.32429" x2="770.55755" y2="1014.32429"/><line class="cls-4" x1="770.18845" y1="1014.32439" x2="772.18845" y2="1014.32439"/><line class="cls-11" x1="774.18455" y1="1014.32439" x2="1072.55955" y2="1014.32429"/><line class="cls-4" x1="1073.55755" y1="1014.32429" x2="1075.55755" y2="1014.32429"/><g class="cls-3"><line class="cls-4" x1="1705.29885" y1="1329.21566" x2="1705.29885" y2="1331.21566"/><line class="cls-5" x1="1705.29885" y1="1333.14536" x2="1705.29885" y2="1395.84456"/><line class="cls-4" x1="1705.29885" y1="1396.80936" x2="1705.29885" y2="1398.80936"/></g><g class="cls-3"><line class="cls-4" x1="1054.29885" y1="1329.21566" x2="1054.29885" y2="1331.21566"/><line class="cls-5" x1="1054.29885" y1="1333.14536" x2="1054.29885" y2="1395.84456"/><line class="cls-4" x1="1054.29885" y1="1396.80936" x2="1054.29885" y2="1398.80936"/></g><path class="cls-12" d="M1769.56805,1453.79605a20.55855,20.55855,0,1,1-20.5585-20.5566A20.55813,20.55813,0,0,1,1769.56805,1453.79605Z" transform="translate(-43.72122 -137.46709)"/><circle class="cls-7" cx="1749.00953" cy="1453.79608" r="11.10159" transform="translate(-559.43726 1525.07642) rotate(-45)"/><path class="cls-12" d="M1518.47582,1405.50555h373.5469a33.8652,33.8652,0,0,1,33.8652,33.8652v53.332a33.8633,33.8633,0,0,1-33.8633,33.8633h-373.5527a33.8633,33.8633,0,0,1-33.8633-33.8633v-53.33A33.8672,33.8672,0,0,1,1518.47582,1405.50555Z"/><path class="cls-18" d="M1518.47582,1416.75555h373.5469a22.6152,22.6152,0,0,1,22.6152,22.6152v53.332a22.6133,22.6133,0,0,1-22.6133,22.6133h-373.5508a22.6152,22.6152,0,0,1-22.6152-22.6152v-53.3281A22.6172,22.6172,0,0,1,1518.47582,1416.75555Z"/><path class="cls-7" d="M1935.74584,1555.47264a21.38849,21.38849,0,0,1,21.3633,21.3652v53.3301a21.38849,21.38849,0,0,1-21.3633,21.3652H1562.197a21.3899,21.3899,0,0,1-21.3672-21.3652v-53.3301a21.3899,21.3899,0,0,1,21.3672-21.3652h373.5488m0-2.5H1562.197a23.937,23.937,0,0,0-23.8672,23.8652v53.3301a23.937,23.937,0,0,0,23.8672,23.8652h373.5488a23.93362,23.93362,0,0,0,23.8633-23.8652v-53.3301a23.93362,23.93362,0,0,0-23.8633-23.8652Z" transform="translate(-43.72122 -137.46709)"/><path d="M1681.57129,1590.8125h-21.15967v-3.31934h8.63965v-4.36035h3.91992v4.36035h8.6001Zm-10.56006,15.08008a11.76653,11.76653,0,0,1-3.75977-.54,8.26468,8.26468,0,0,1-2.68017-1.43945,6.14637,6.14637,0,0,1-1.62012-2,5.07463,5.07463,0,0,1-.53955-2.26075v-1.19921a5.20253,5.20253,0,0,1,.53955-2.28028,5.88583,5.88583,0,0,1,1.62012-2,8.50671,8.50671,0,0,1,2.68017-1.41992,13.35949,13.35949,0,0,1,7.52,0,8.26689,8.26689,0,0,1,2.67969,1.43945,6.07108,6.07108,0,0,1,1.62012,2.02051,5.12163,5.12163,0,0,1,.54,2.24024v1.19921a5.07524,5.07524,0,0,1-.54,2.26075,6.13371,6.13371,0,0,1-1.62012,2,8.26708,8.26708,0,0,1-2.67969,1.43945A11.7717,11.7717,0,0,1,1671.01123,1605.89258Zm0-3.16016a6.83426,6.83426,0,0,0,2.12012-.2998,5.06587,5.06587,0,0,0,1.52-.75977,3.12771,3.12771,0,0,0,.8999-1.04,2.5413,2.5413,0,0,0,.30029-1.17968v-.80079a2.5413,2.5413,0,0,0-.30029-1.17968,3.13715,3.13715,0,0,0-.8999-1.04,5.12423,5.12423,0,0,0-1.5-.75977,7.78691,7.78691,0,0,0-4.27979,0,5.124,5.124,0,0,0-1.5.75977,3.13888,3.13888,0,0,0-.90039,1.04,2.54647,2.54647,0,0,0-.2998,1.17968v.80079a2.54647,2.54647,0,0,0,.2998,1.17968,3.12943,3.12943,0,0,0,.90039,1.04,5.05989,5.05989,0,0,0,1.52.75977A6.82884,6.82884,0,0,0,1671.01123,1602.73242Zm7.28027,4.80078a20.7898,20.7898,0,0,1,4.69971.4795,12.21947,12.21947,0,0,1,3.5,1.33984,6.43006,6.43006,0,0,1,2.18018,2.02051,4.531,4.531,0,0,1,.74023,2.47949v1.28027a4.531,4.531,0,0,1-.74023,2.47949,6.43006,6.43006,0,0,1-2.18018,2.02051,12.21976,12.21976,0,0,1-3.5,1.33985,23.22765,23.22765,0,0,1-9.3999,0,12.21976,12.21976,0,0,1-3.5-1.33985,6.41912,6.41912,0,0,1-2.17969-2.02051,4.52287,4.52287,0,0,1-.74023-2.47949v-1.28027a4.5229,4.5229,0,0,1,.74023-2.47949,6.41912,6.41912,0,0,1,2.17969-2.02051,12.21947,12.21947,0,0,1,3.5-1.33984A20.78824,20.78824,0,0,1,1678.2915,1607.5332Zm0,10.71973a11.45823,11.45823,0,0,0,5.31983-1.02051q1.92041-1.01953,1.91992-2.33984v-.79981q0-1.31982-1.91992-2.33984a14.37741,14.37741,0,0,0-10.64014,0q-1.91967,1.01953-1.91992,2.33984v.79981q0,1.31982,1.91992,2.33984A11.459,11.459,0,0,0,1678.2915,1618.25293Zm16.08008-24.96h-5.20019v4.04h5.20019v3.39941h-5.20019v6.08008h-3.87989v-23.2793h3.87989v6.35938h5.20019Z" transform="translate(-43.72122 -137.46709)"/><path d="M1730.69092,1598.97266v3.36035h-8.64014v9.04h-3.91992v-9.04h-5.68018v9.04h-3.91992v-9.04h-11.68017v-3.36035H1720.731a43.63008,43.63008,0,0,0,.63965-4.43946q.19995-2.20019.20019-3.96093v-1.96H1701.291v-3.39941h24.27978v5.51953q0,1.64063-.20019,3.86035-.20068,2.21925-.55957,4.37989Zm-25.28028,17.59961h21.12012v3.44043h-25.08008v-11.87989h3.96Z" transform="translate(-43.72122 -137.46709)"/><path d="M1742.61084,1602.45313a5.0518,5.0518,0,0,1-.66016,1.25976q-.46.65918-1.06,1.37988-1.19972,1.43994-2.67969,3.04-1.481,1.59961-3.08008,3.24024l-2.68018-2.68067q1.8003-1.71825,3.35987-3.35937a40.16743,40.16743,0,0,0,2.84033-3.32031,8.76664,8.76664,0,0,0,1.59961-3.08008,12.68551,12.68551,0,0,0,.40039-3.24024v-5.27929h-6.32031v-3.32032h16.08007v3.32032h-5.91992v5.27929a10.727,10.727,0,0,0,.46,3.2002,9.833,9.833,0,0,0,1.66016,3.04q1.27955,1.64063,2.63965,3.12011,1.35938,1.481,3.16015,3.2002l-2.68017,2.63965q-1.59961-1.59961-2.8999-2.97949-1.30005-1.3799-2.5-2.82032a16.48,16.48,0,0,1-1.04-1.37988,5.34266,5.34266,0,0,1-.63965-1.25976Zm11.56006-18.16016h3.87988v34.31933h-3.87988v-19.55957h-5.6001v-3.44043h5.6001Zm11.19971,36.12012h-3.87989V1583.5332h3.87989Z" transform="translate(-43.72122 -137.46709)"/><path d="M1803.49023,1600.45313v3.35937h-14.91992v4.08008h10.07959v12.48047h-24.15967v-12.48047h10.08008v-4.08008H1769.6499v-3.35937Zm-30-5.88086h4.96v-6.35938h-4.76026v-3.24023h25.76026v3.24023h-4.76026v6.35938h4.96v3.24023h-26.15967Zm21.23975,16.64062h-16.31982v5.83984H1794.73Zm-12.3999-16.64062h8.48v-6.35938h-8.48Z" transform="translate(-43.72122 -137.46709)"/><path d="M1825.28955,1595.69238h-12.96v3.96q3.07983,0,5.56006-.04,2.47924-.03808,4.54-.11914,2.05956-.08056,3.77978-.24023,1.71974-.15967,3.31983-.36035l.36035,3.20019q-1.9204.24024-4,.40039-2.08082.15967-4.62012.2793-2.54078.12012-5.68017.16016-3.14062.041-7.13965.04v-17.71973h17.56006v3.31934h-13.68018v3.80078h12.96Zm11.31983,10.80078v13.87989h-23v-13.87989Zm-19.08008,10.51954h15.16015v-7.16016H1817.5293Zm15.16015-12.32032V1583.5332h3.91993v21.15918Z" transform="translate(-43.72122 -137.46709)"/><path class="cls-12" d="M2047.1861,1405.50555H2420.733a33.8652,33.8652,0,0,1,33.8652,33.8652v53.332a33.8633,33.8633,0,0,1-33.8633,33.8633H2047.1841a33.8652,33.8652,0,0,1-33.8652-33.8652v-53.3281A33.8672,33.8672,0,0,1,2047.1861,1405.50555Z"/><path class="cls-19" d="M2047.1861,1416.75555H2420.733a22.6152,22.6152,0,0,1,22.6152,22.6152v53.332a22.6133,22.6133,0,0,1-22.6133,22.6133H2047.1841a22.6152,22.6152,0,0,1-22.6152-22.6152v-53.3281A22.6172,22.6172,0,0,1,2047.1861,1416.75555Z"/><path class="cls-7" d="M2464.45612,1555.47264a21.38849,21.38849,0,0,1,21.3633,21.3652v53.3301a21.38849,21.38849,0,0,1-21.3633,21.3652h-373.5488a21.3899,21.3899,0,0,1-21.3672-21.3652v-53.3301a21.3899,21.3899,0,0,1,21.3672-21.3652h373.5488m0-2.5h-373.5488a23.937,23.937,0,0,0-23.8672,23.8652v53.3301a23.937,23.937,0,0,0,23.8672,23.8652h373.5488a23.93362,23.93362,0,0,0,23.8633-23.8652v-53.3301a23.93362,23.93362,0,0,0-23.8633-23.8652Z" transform="translate(-43.72122 -137.46709)"/><path d="M2182.92236,1598.5332a5.72443,5.72443,0,0,1-.96045,1.41993,13.84829,13.84829,0,0,1-1.71972,1.69921q-1.281,1.1206-2.85987,2.36036-1.58057,1.24071-3.26025,2.40039l-2.31982-2.84082q1.91967-1.35937,3.60009-2.65918a34.06635,34.06635,0,0,0,2.75977-2.34082,14.10762,14.10762,0,0,0,1.24023-1.39942,6.30075,6.30075,0,0,0,.81983-1.40039,7.068,7.068,0,0,0,.43994-1.55957,11.78749,11.78749,0,0,0,.14014-1.91992v-1.2002h-7.96v-3.40039h7.96V1583.293h4v4.39941h7.43994v3.40039h-7.43994v1.04a15.46139,15.46139,0,0,0,.08007,1.66016,6.27607,6.27607,0,0,0,.29981,1.37988,4.97226,4.97226,0,0,0,.62012,1.21973,6.55339,6.55339,0,0,0,1.08007,1.17969q1.39966,1.28174,2.96,2.46093,1.56,1.17921,3.35986,2.33985l-2.24024,2.87988q-1.55933-1.0796-2.91992-2.12012-1.36011-1.04-2.7998-2.24023-.92065-.75879-1.5-1.33985a3.76842,3.76842,0,0,1-.78028-1.01953Zm-.24023,18.03907H2202.522v3.44043h-23.7998v-11.83985h3.96Zm15.16016-6.75977v-12.43945h-6.64014v-3.40039h6.64014V1583.5332h3.91992v26.2793Z" transform="translate(-43.72122 -137.46709)"/><path d="M2217.32178,1584.85254a9.83678,9.83678,0,0,1,4,.75976,9.10135,9.10135,0,0,1,2.8999,1.98047,8.0401,8.0401,0,0,1,1.75977,2.74024,8.38611,8.38611,0,0,1,.58007,3v2.04a8.38611,8.38611,0,0,1-.58007,3,8.02683,8.02683,0,0,1-1.75977,2.73925,9.06969,9.06969,0,0,1-2.8999,1.98047,10.90939,10.90939,0,0,1-8,0,9.05561,9.05561,0,0,1-2.90039-1.98047,8.01226,8.01226,0,0,1-1.75977-2.73925,8.37552,8.37552,0,0,1-.58008-3v-2.04a8.37552,8.37552,0,0,1,.58008-3,8.02549,8.02549,0,0,1,1.75977-2.74024,9.08716,9.08716,0,0,1,2.90039-1.98047A9.83184,9.83184,0,0,1,2217.32178,1584.85254Zm0,15.52051a5.43107,5.43107,0,0,0,2.33984-.48047,5.655,5.655,0,0,0,1.71973-1.21973,5.01114,5.01114,0,0,0,1.06006-1.70019,5.43009,5.43009,0,0,0,.36035-1.91993v-1.40039a5.43411,5.43411,0,0,0-.36035-1.91992,5.007,5.007,0,0,0-1.06006-1.69922,5.65763,5.65763,0,0,0-1.71973-1.2207,5.95,5.95,0,0,0-4.68017,0,5.65163,5.65163,0,0,0-1.71973,1.2207,4.992,4.992,0,0,0-1.06006,1.69922,5.43411,5.43411,0,0,0-.36035,1.91992v1.40039a5.43009,5.43009,0,0,0,.36035,1.91993,4.996,4.996,0,0,0,1.06006,1.70019,5.649,5.649,0,0,0,1.71973,1.21973A5.43177,5.43177,0,0,0,2217.32178,1600.37305Zm1.75976,16.19922h19.96v3.44043h-23.91992v-12.24024h3.96Zm15.2002-6.71973v-9.12012h-5.80029V1597.333h5.80029v-5.48047h-5.80029v-3.39941h5.80029v-4.91993h3.87988v26.31934Z" transform="translate(-43.72122 -137.46709)"/><path d="M2267.521,1612.73242q-2.48072.24024-4.72022.41992-2.24048.18018-4.85986.30079-2.62061.1201-5.98.17968-3.35962.06006-8.08008.05957V1610.333h5.35986q2.40015,0,4.44043-.08008v-3.64063a10.31606,10.31606,0,0,1-3.02-.7998,8.41079,8.41079,0,0,1-2.26025-1.43945,5.9485,5.9485,0,0,1-1.3999-1.86035,4.8809,4.8809,0,0,1-.48-2.09961v-1.52051a4.83293,4.83293,0,0,1,.62011-2.33985,6.43431,6.43431,0,0,1,1.75977-2.01953,8.882,8.882,0,0,1,2.80029-1.40039,13.69662,13.69662,0,0,1,7.48,0,8.88453,8.88453,0,0,1,2.79981,1.40039,6.4405,6.4405,0,0,1,1.75976,2.01953,4.83824,4.83824,0,0,1,.62012,2.33985v1.52051a5.3011,5.3011,0,0,1-1.77979,3.85937,8.97885,8.97885,0,0,1-4.98,2.26074v3.59961q2.67921-.0791,4.93995-.25976,2.25951-.18018,4.66015-.37989Zm-1.68018-21.63965h-21.19971v-3.40039h8.83985v-4.43945h3.91992v4.43945h8.43994Zm-10.3999,12.36036a5.9552,5.9552,0,0,0,3.76025-1.04,2.98508,2.98508,0,0,0,1.31983-2.36036v-.7998a2.97582,2.97582,0,0,0-1.33985-2.36035,7.28054,7.28054,0,0,0-7.5,0,2.98572,2.98572,0,0,0-1.32031,2.36035v.7998a2.97245,2.97245,0,0,0,1.34033,2.36036A5.96747,5.96747,0,0,0,2255.44092,1603.45313Zm13.91992,16.96V1583.5332h3.91992V1598.293h5.52v3.43945h-5.52v18.68067Z" transform="translate(-43.72122 -137.46709)"/><path d="M2291.561,1596.93262a5.71547,5.71547,0,0,1-.96,1.41992,13.82377,13.82377,0,0,1-1.72021,1.70019q-1.28028,1.1206-2.85986,2.36036-1.58057,1.23925-3.26026,2.39941l-2.31982-2.83984q1.91967-1.35937,3.6001-2.66016a34.191,34.191,0,0,0,2.75976-2.33984,14.11377,14.11377,0,0,0,1.24024-1.40039,6.12438,6.12438,0,0,0,.81982-1.41993,7.41016,7.41016,0,0,0,.43994-1.59961,12.15709,12.15709,0,0,0,.14014-1.94043v-1.39941h-7.76026v-3.40039h19.08008v3.40039h-7.31982v1.24024a16.47093,16.47093,0,0,0,.08008,1.71972,6.29834,6.29834,0,0,0,.2998,1.39942,4.97882,4.97882,0,0,0,.62012,1.2207,6.58574,6.58574,0,0,0,1.08008,1.17969q1.39965,1.28027,2.96,2.46,1.56006,1.18066,3.35986,2.33984l-2.23975,2.87988q-1.56-1.07958-2.92041-2.11914-1.3601-1.04-2.7998-2.24023-.92066-.76026-1.5-1.33984a3.7425,3.7425,0,0,1-.77979-1.02051Zm-4.36036,15.87988a5.24045,5.24045,0,0,1,.76026-2.71973,7.02731,7.02731,0,0,1,2.1997-2.24023,11.90677,11.90677,0,0,1,3.5-1.51953,19.65151,19.65151,0,0,1,9.32032,0,11.90677,11.90677,0,0,1,3.5,1.51953,7.03232,7.03232,0,0,1,2.1997,2.24023,5.24507,5.24507,0,0,1,.76026,2.71973v1.60059a5.245,5.245,0,0,1-.76026,2.71972,7.03234,7.03234,0,0,1-2.1997,2.24024,11.93282,11.93282,0,0,1-3.5,1.51953,19.65151,19.65151,0,0,1-9.32032,0,11.93282,11.93282,0,0,1-3.5-1.51953,7.02733,7.02733,0,0,1-2.1997-2.24024,5.24039,5.24039,0,0,1-.76026-2.71972Zm18.36036.24023a2.60557,2.60557,0,0,0-.5-1.46,4.44552,4.44552,0,0,0-1.43995-1.2998,9.02088,9.02088,0,0,0-2.28027-.91992,12.83526,12.83526,0,0,0-6.04,0,8.99476,8.99476,0,0,0-2.27978.91992,4.42535,4.42535,0,0,0-1.44,1.2998,2.59812,2.59812,0,0,0-.5,1.46v1.12012a2.6005,2.6005,0,0,0,.5,1.46,4.43615,4.43615,0,0,0,1.44,1.29981,9.03164,9.03164,0,0,0,2.27978.91992,12.83526,12.83526,0,0,0,6.04,0,9.058,9.058,0,0,0,2.28027-.91992,4.45642,4.45642,0,0,0,1.43995-1.29981,2.608,2.608,0,0,0,.5-1.46Zm-.2002-7.75976V1583.5332h3.91992v8.91993h5.24024v3.43945h-5.24024v9.40039Z" transform="translate(-43.72122 -137.46709)"/><path d="M2350.40039,1600.45313v3.35937h-14.91992v4.08008h10.07959v12.48047h-24.15967v-12.48047h10.08008v-4.08008h-14.92041v-3.35937Zm-30-5.88086h4.96v-6.35938h-4.76025v-3.24023h25.76025v3.24023h-4.76025v6.35938h4.96v3.24023h-26.15967Zm21.23975,16.64062h-16.31983v5.83984h16.31983Zm-12.39991-16.64062h8.48v-6.35938h-8.48Z" transform="translate(-43.72122 -137.46709)"/><path d="M2372.19971,1595.69238h-12.96v3.96q3.07983,0,5.56-.04,2.47926-.03808,4.54-.11914,2.05957-.08056,3.77979-.24023,1.71972-.15967,3.31982-.36035l.36035,3.20019q-1.9204.24024-4,.40039-2.0808.15967-4.62011.2793-2.54078.12012-5.68018.16016-3.14062.041-7.13965.04v-17.71973h17.56006v3.31934h-13.68017v3.80078h12.96Zm11.31982,10.80078v13.87989h-23v-13.87989Zm-19.08008,10.51954h15.16016v-7.16016h-15.16016Zm15.16016-12.32032V1583.5332h3.91992v21.15918Z" transform="translate(-43.72122 -137.46709)"/><path class="cls-12" d="M989.8672,1405.50555h373.5469a33.8652,33.8652,0,0,1,33.8652,33.8652v53.332a33.8633,33.8633,0,0,1-33.8633,33.8633H989.8652A33.8652,33.8652,0,0,1,956,1492.70085v-53.3281A33.8672,33.8672,0,0,1,989.8672,1405.50555Z"/><path class="cls-20" d="M989.8672,1416.75555h373.5469a22.6152,22.6152,0,0,1,22.6152,22.6152v53.332a22.6133,22.6133,0,0,1-22.6133,22.6133H989.8652a22.6152,22.6152,0,0,1-22.6152-22.6152v-53.3281A22.6172,22.6172,0,0,1,989.8672,1416.75555Z"/><path class="cls-7" d="M1407.13722,1555.47264a21.38849,21.38849,0,0,1,21.3633,21.3652v53.3301a21.38849,21.38849,0,0,1-21.3633,21.3652h-373.5488a21.3899,21.3899,0,0,1-21.3672-21.3652v-53.3301a21.3899,21.3899,0,0,1,21.3672-21.3652h373.5488m0-2.5h-373.5488a23.937,23.937,0,0,0-23.8672,23.8652v53.3301a23.937,23.937,0,0,0,23.8672,23.8652h373.5488a23.93362,23.93362,0,0,0,23.8633-23.8652v-53.3301a23.93362,23.93362,0,0,0-23.8633-23.8652Z" transform="translate(-43.72122 -137.46709)"/><path d="M1158.72266,1609.85254v-13.16016h-9.24024a7.94074,7.94074,0,0,1-1.66015,2.34082,17.52254,17.52254,0,0,1-2.85938,2.23926,41.336,41.336,0,0,1-4.2998,2.37988q-2.54151,1.24072-6.02051,2.72071l-1.55957-3.2002q4.27881-1.87939,6.89941-3.25976a22.89974,22.89974,0,0,0,4.06055-2.60059,6.48022,6.48022,0,0,0,1.91992-2.41992,7.26415,7.26415,0,0,0,.47949-2.71973v-2.91992h-11.83984v-3.36035h15.71973v6.96a2.36067,2.36067,0,0,1-.03907.44043h8.43946v-9.75977h3.91992v26.31934Zm-15.16016,6.71973h19.83984v3.44043h-23.7998v-12.12012h3.96Z" transform="translate(-43.72122 -137.46709)"/><path d="M1182.24219,1589.17285h-11.75977v-3.36035h15.63965v5.7998a10.64022,10.64022,0,0,1-.67969,4,8.41478,8.41478,0,0,1-2.44043,3.18067,24.6482,24.6482,0,0,1-4.7998,3.04q-3.041,1.53956-7.75977,3.54l-1.48047-3.2002q4.23927-1.75927,6.83985-3.10058a22.57551,22.57551,0,0,0,4.04-2.53907,6.27672,6.27672,0,0,0,1.91992-2.4209,7.53413,7.53413,0,0,0,.48047-2.77929Zm-6.96,23.63965a5.24,5.24,0,0,1,.75976-2.71973,7.03424,7.03424,0,0,1,2.2002-2.24023,11.89523,11.89523,0,0,1,3.5-1.51953,19.65147,19.65147,0,0,1,9.32031,0,11.90666,11.90666,0,0,1,3.5,1.51953,7.03068,7.03068,0,0,1,2.19922,2.24023,5.24107,5.24107,0,0,1,.76074,2.71973v1.60059a5.241,5.241,0,0,1-.76074,2.71972,7.0307,7.0307,0,0,1-2.19922,2.24024,11.93271,11.93271,0,0,1-3.5,1.51953,19.65147,19.65147,0,0,1-9.32031,0,11.92123,11.92123,0,0,1-3.5-1.51953,7.03426,7.03426,0,0,1-2.2002-2.24024,5.23994,5.23994,0,0,1-.75976-2.71972Zm18.36035.24023a2.60549,2.60549,0,0,0-.5-1.46,4.44747,4.44747,0,0,0-1.44043-1.2998,9.01356,9.01356,0,0,0-2.28027-.91992,12.83526,12.83526,0,0,0-6.04,0,8.99094,8.99094,0,0,0-2.2793.91992,4.4274,4.4274,0,0,0-1.44043,1.2998,2.59812,2.59812,0,0,0-.5,1.46v1.12012a2.6005,2.6005,0,0,0,.5,1.46,4.43821,4.43821,0,0,0,1.44043,1.29981,9.0278,9.0278,0,0,0,2.2793.91992,12.83526,12.83526,0,0,0,6.04,0,9.05059,9.05059,0,0,0,2.28027-.91992,4.45838,4.45838,0,0,0,1.44043-1.29981,2.60788,2.60788,0,0,0,.5-1.46Zm8.96-17.67968h-5.24024v9.91992h-3.91992V1583.5332h3.91992v8.39942h5.24024Z" transform="translate(-43.72122 -137.46709)"/><path d="M1216.16211,1596.13281a4.65809,4.65809,0,0,1-.96,1.43946,21.63265,21.63265,0,0,1-1.71973,1.76074q-1.24073,1.16016-2.91992,2.55957-1.68018,1.40039-3.28027,2.67969l-2.36035-2.79981q.96093-.71923,1.90039-1.47949.939-.76026,1.7998-1.48047.85986-.71924,1.58008-1.37988.71924-.65919,1.24023-1.17969a11.90511,11.90511,0,0,0,1.25977-1.46,7.01488,7.01488,0,0,0,.7998-1.44043,6.70256,6.70256,0,0,0,.41993-1.58008,13.34614,13.34614,0,0,0,.12011-1.87988v-4.83985h4v4.67969q0,.92139.06055,1.66016a6.231,6.231,0,0,0,.25976,1.37988,4.793,4.793,0,0,0,.62012,1.26074,6.86867,6.86867,0,0,0,1.13965,1.25977q1.40039,1.28027,3.09961,2.66016,1.70068,1.37988,3.5,2.65917l-2.31934,2.76075q-1.56006-1.16016-3.0205-2.36035-1.46046-1.19971-2.89942-2.4004a14.23088,14.23088,0,0,1-1.5-1.39941,4.52262,4.52262,0,0,1-.78027-1.08008Zm-5.36035,10.75977H1235.082v13.87988h-3.96V1610.293h-20.32031Zm20.36035-23.35938h3.91992v21.43946h-3.91992Z" transform="translate(-43.72122 -137.46709)"/><path d="M1274.88184,1600.45313v3.35937h-14.91993v4.08008H1270.041v12.48047h-24.15918v-12.48047h10.08007v-4.08008H1241.041v-3.35937Zm-30-5.88086h4.96v-6.35938h-4.76075v-3.24023h25.76075v3.24023h-4.76075v6.35938h4.96v3.24023h-26.15918Zm21.23925,16.64062h-16.31933v5.83984h16.31933Zm-12.39941-16.64062h8.47949v-6.35938h-8.47949Z" transform="translate(-43.72122 -137.46709)"/><path d="M1296.68066,1595.69238h-12.96v3.96q3.08056,0,5.56055-.04,2.47851-.03808,4.54-.11914,2.05957-.08056,3.7793-.24023t3.32031-.36035l.36035,3.20019q-1.9204.24024-4,.40039-2.08155.15967-4.62012.2793-2.54149.12012-5.68066.16016-3.14062.041-7.13965.04v-17.71973h17.56055v3.31934H1283.7207v3.80078h12.96Zm11.32032,10.80078v13.87989h-23v-13.87989Zm-19.08008,10.51954h15.16015v-7.16016H1288.9209Zm15.16015-12.32032V1583.5332h3.91993v21.15918Z" transform="translate(-43.72122 -137.46709)"/><line class="cls-4" x1="1379.18845" y1="1316.32439" x2="1381.18845" y2="1316.32439"/><line class="cls-11" x1="1383.18455" y1="1316.32439" x2="1681.55955" y2="1316.32429"/><line class="cls-4" x1="1682.55755" y1="1316.32429" x2="1684.55755" y2="1316.32429"/><line class="cls-4" x1="1074.18845" y1="1316.32439" x2="1076.18845" y2="1316.32439"/><line class="cls-11" x1="1078.18455" y1="1316.32439" x2="1376.55955" y2="1316.32429"/><line class="cls-4" x1="1377.55755" y1="1316.32429" x2="1379.55755" y2="1316.32429"/><line class="cls-4" x1="2030.93455" y1="1316.32439" x2="2032.93455" y2="1316.32439"/><line class="cls-11" x1="2034.93065" y1="1316.32439" x2="2333.30565" y2="1316.32429"/><line class="cls-4" x1="2334.30365" y1="1316.32429" x2="2336.30365" y2="1316.32429"/><line class="cls-4" x1="1725.93455" y1="1316.32439" x2="1727.93455" y2="1316.32439"/><line class="cls-11" x1="1729.93065" y1="1316.32439" x2="2028.30565" y2="1316.32429"/><line class="cls-4" x1="2029.30365" y1="1316.32429" x2="2031.30365" y2="1316.32429"/><path class="cls-12" d="M2420.56805,1453.79605a20.55855,20.55855,0,1,1-20.5585-20.5566A20.55813,20.55813,0,0,1,2420.56805,1453.79605Z" transform="translate(-43.72122 -137.46709)"/><circle class="cls-7" cx="2400.00953" cy="1453.79608" r="11.10159" transform="translate(-368.76377 1985.40294) rotate(-45)"/><path class="cls-12" d="M1118.56805,1453.79605a20.55855,20.55855,0,1,1-20.5585-20.5566A20.55813,20.55813,0,0,1,1118.56805,1453.79605Z" transform="translate(-43.72122 -137.46709)"/><circle class="cls-7" cx="1098.00953" cy="1453.79608" r="11.10159" transform="translate(-750.11075 1064.74991) rotate(-45)"/><g class="cls-21"><g class="cls-3"><line class="cls-4" x1="2356.29885" y1="1329.21566" x2="2356.29885" y2="1331.21566"/><line class="cls-5" x1="2356.29885" y1="1333.14536" x2="2356.29885" y2="1395.84456"/><line class="cls-4" x1="2356.29885" y1="1396.80936" x2="2356.29885" y2="1398.80936"/></g></g><path class="cls-12" d="M1769.56805,1549.15694a20.55855,20.55855,0,1,1-20.5585-20.5566A20.55813,20.55813,0,0,1,1769.56805,1549.15694Z" transform="translate(-43.72122 -137.46709)"/><circle class="cls-7" cx="1749.00953" cy="1549.15697" r="11.10159" transform="translate(-626.86759 1553.00698) rotate(-45)"/><path class="cls-12" d="M1118.56805,1549.15694a20.55855,20.55855,0,1,1-20.5585-20.5566A20.55813,20.55813,0,0,1,1118.56805,1549.15694Z" transform="translate(-43.72122 -137.46709)"/><circle class="cls-7" cx="1098.00953" cy="1549.15697" r="11.10159" transform="translate(-817.54108 1092.68047) rotate(-45)"/><path class="cls-12" d="M2420.56805,1549.15694a20.55855,20.55855,0,1,1-20.5585-20.5566A20.55813,20.55813,0,0,1,2420.56805,1549.15694Z" transform="translate(-43.72122 -137.46709)"/><circle class="cls-7" cx="2400.00953" cy="1549.15697" r="11.10159" transform="translate(-436.19411 2013.3335) rotate(-45)"/><g class="cls-3"><line class="cls-4" x1="98.29885" y1="1328.21566" x2="98.29885" y2="1330.21566"/><line class="cls-5" x1="98.29885" y1="1332.14536" x2="98.29885" y2="1394.84456"/><line class="cls-4" x1="98.29885" y1="1395.80936" x2="98.29885" y2="1397.80936"/></g><g class="cls-3"><line class="cls-4" x1="790.29885" y1="1328.21566" x2="790.29885" y2="1330.21566"/><line class="cls-5" x1="790.29885" y1="1332.14536" x2="790.29885" y2="1394.84456"/><line class="cls-4" x1="790.29885" y1="1395.80936" x2="790.29885" y2="1397.80936"/></g><path class="cls-14" d="M508.56805,1452.79605a20.55855,20.55855,0,1,1-20.5585-20.5566A20.55813,20.55813,0,0,1,508.56805,1452.79605Z" transform="translate(-43.72122 -137.46709)"/><circle class="cls-7" cx="488.00953" cy="1452.79608" r="11.10159" transform="translate(-928.0685 633.12188) rotate(-45)"/><path class="cls-14" d="M481.1841,1404.50555H854.733a33.8652,33.8652,0,0,1,33.8652,33.8652v53.332a33.8633,33.8633,0,0,1-33.8633,33.8633H481.1841a33.8652,33.8652,0,0,1-33.8652-33.8652v-53.3301A33.8652,33.8652,0,0,1,481.1841,1404.50555Z"/><path class="cls-22" d="M481.1861,1415.75555H854.733a22.6152,22.6152,0,0,1,22.6152,22.6152v53.332a22.6133,22.6133,0,0,1-22.6133,22.6133H481.1822a22.6133,22.6133,0,0,1-22.6133-22.6133v-53.33A22.6172,22.6172,0,0,1,481.1861,1415.75555Z"/><path class="cls-7" d="M898.45612,1554.47264a21.38849,21.38849,0,0,1,21.3633,21.3652v53.3301a21.38849,21.38849,0,0,1-21.3633,21.3652H524.90732a21.3899,21.3899,0,0,1-21.3672-21.3652v-53.3301a21.3899,21.3899,0,0,1,21.3672-21.3652h373.5488m0-2.5H524.90732a23.937,23.937,0,0,0-23.8672,23.8652v53.3301a23.937,23.937,0,0,0,23.8672,23.8652h373.5488a23.93362,23.93362,0,0,0,23.8633-23.8652v-53.3301a23.93362,23.93362,0,0,0-23.8633-23.8652Z" transform="translate(-43.72122 -137.46709)"/><path d="M679.041,1594.05273a7.86382,7.86382,0,0,1-.53907,2.75977,7.58925,7.58925,0,0,1-1.68066,2.62012,8.94806,8.94806,0,0,1-2.85938,1.94043,11.33532,11.33532,0,0,1-8.16015,0,8.931,8.931,0,0,1-2.86035-1.94043,7.572,7.572,0,0,1-1.67969-2.62012,7.84417,7.84417,0,0,1-.54-2.75977v-2.04a7.84417,7.84417,0,0,1,.54-2.75977,7.581,7.581,0,0,1,1.67969-2.62012,8.94672,8.94672,0,0,1,2.86035-1.94043,11.33532,11.33532,0,0,1,8.16015,0,8.96389,8.96389,0,0,1,2.85938,1.94043,7.59826,7.59826,0,0,1,1.68066,2.62012,7.86382,7.86382,0,0,1,.53907,2.75977Zm-3.79981-1.83984a4.97242,4.97242,0,0,0-.31933-1.74023,4.5986,4.5986,0,0,0-.98047-1.55957,4.74521,4.74521,0,0,0-1.67969-1.12012,7.012,7.012,0,0,0-4.78027,0,4.78677,4.78677,0,0,0-1.66016,1.12012,4.59578,4.59578,0,0,0-.97949,1.55957,4.95154,4.95154,0,0,0-.32032,1.74023v1.63965a4.94355,4.94355,0,0,0,.32032,1.74023,4.58649,4.58649,0,0,0,.97949,1.55957,4.78677,4.78677,0,0,0,1.66016,1.12012,7.012,7.012,0,0,0,4.78027,0,4.74521,4.74521,0,0,0,1.67969-1.12012,4.58929,4.58929,0,0,0,.98047-1.55957,4.96438,4.96438,0,0,0,.31933-1.74023Zm-7.35937,19.59961a5.14457,5.14457,0,0,1,.77929-2.71973,7.18144,7.18144,0,0,1,2.24024-2.24023,12.14388,12.14388,0,0,1,3.56054-1.51953,20.31884,20.31884,0,0,1,9.4795,0,12.15529,12.15529,0,0,1,3.56054,1.51953,7.17779,7.17779,0,0,1,2.23926,2.24023,5.13685,5.13685,0,0,1,.78027,2.71973v1.60059a5.13679,5.13679,0,0,1-.78027,2.71972,7.17782,7.17782,0,0,1-2.23926,2.24024,12.18175,12.18175,0,0,1-3.56054,1.51953,20.31884,20.31884,0,0,1-9.4795,0,12.17028,12.17028,0,0,1-3.56054-1.51953,7.18147,7.18147,0,0,1-2.24024-2.24024,5.14451,5.14451,0,0,1-.77929-2.71972Zm18.75976.24023a2.53842,2.53842,0,0,0-.52051-1.46,4.59891,4.59891,0,0,0-1.47949-1.2998,9.28505,9.28505,0,0,0-2.33984-.91992,13.51529,13.51529,0,0,0-6.2002,0,9.28505,9.28505,0,0,0-2.33984.91992,4.59268,4.59268,0,0,0-1.48047,1.2998,2.53682,2.53682,0,0,0-.51953,1.46v1.12012a2.53913,2.53913,0,0,0,.51953,1.46,4.60412,4.60412,0,0,0,1.48047,1.29981,9.32278,9.32278,0,0,0,2.33984.91992,13.51529,13.51529,0,0,0,6.2002,0,9.32278,9.32278,0,0,0,2.33984-.91992,4.61039,4.61039,0,0,0,1.47949-1.29981,2.54074,2.54074,0,0,0,.52051-1.46Zm-.16015-7.75976v-5.44043h-5.79981v-3.39941h5.79981v-4.91993h-5.79981v-3.40039h5.79981v-4.59961h3.87988V1604.293Z" transform="translate(-43.72122 -137.46709)"/><path d="M722.84082,1601.41309v-7.48047h-7.47949a7.28152,7.28152,0,0,1-.82031,2.52051,7.43662,7.43662,0,0,1-1.79981,2.19921,8.86782,8.86782,0,0,1-2.76074,1.54,12.098,12.098,0,0,1-7.69922-.09961,8.59813,8.59813,0,0,1-2.86035-1.78027,7.40376,7.40376,0,0,1-1.71973-2.47949,7.12,7.12,0,0,1-.58008-2.78028v-1.51953a7.12,7.12,0,0,1,.58008-2.78027,7.427,7.427,0,0,1,1.71973-2.48047,8.62811,8.62811,0,0,1,2.86035-1.7793,12.02983,12.02983,0,0,1,7.67969-.10058,9.19014,9.19014,0,0,1,2.74023,1.52051,7.39084,7.39084,0,0,1,1.79981,2.13964,7.55531,7.55531,0,0,1,.86035,2.48047h7.47949v-8h3.91992v18.87989Zm-16.55957-4.04a6.10159,6.10159,0,0,0,2.2793-.40039,5.28555,5.28555,0,0,0,1.68066-1.04,4.5072,4.5072,0,0,0,1.04-1.43946,3.96924,3.96924,0,0,0,.35938-1.64062v-1.12012a3.97159,3.97159,0,0,0-.35938-1.63965,4.309,4.309,0,0,0-1.04-1.41992,5.52213,5.52213,0,0,0-1.68066-1.02051,6.70608,6.70608,0,0,0-4.55957,0,5.50489,5.50489,0,0,0-1.67969,1.02051,4.28188,4.28188,0,0,0-1.04,1.41992,3.95747,3.95747,0,0,0-.36035,1.63965v1.12012a3.95514,3.95514,0,0,0,.36035,1.64062,4.47782,4.47782,0,0,0,1.04,1.43946,5.26967,5.26967,0,0,0,1.67969,1.04A6.096,6.096,0,0,0,706.28125,1597.37305Zm20.47949,5.83984v16.2002h-23v-16.2002h3.91992v4.67969h15.16016v-4.67969Zm-3.91992,12.83984v-4.83984H707.68066v4.83984Z" transform="translate(-43.72122 -137.46709)"/><path d="M751.60059,1594.69238h-12.96v3.96q3.07909,0,5.55957-.04,2.48-.03808,4.54-.11914,2.05958-.08056,3.78028-.24023,1.71972-.15967,3.31933-.36035l.36036,3.20019q-1.92042.24024-4,.40039-2.08008.15967-4.62012.2793-2.54.12012-5.67969.16016-3.14062.041-7.13965.04v-17.71973h17.55957v3.31934H738.64063v3.80078h12.96Zm11.31933,10.80078v13.87989h-23v-13.87989Zm-19.08008,10.51954H759v-7.16016H743.83984ZM759,1603.69238V1582.5332h3.91992v21.15918Z" transform="translate(-43.72122 -137.46709)"/><path class="cls-14" d="M33.8652,1404.50555H407.4141a33.8652,33.8652,0,0,1,33.8652,33.8652v53.332a33.8633,33.8633,0,0,1-33.8633,33.8633H33.8652A33.8652,33.8652,0,0,1,0,1491.70085v-53.3301A33.8652,33.8652,0,0,1,33.8652,1404.50555Z"/><path class="cls-23" d="M33.8672,1415.75555H407.4141a22.6152,22.6152,0,0,1,22.6152,22.6152v53.332a22.6133,22.6133,0,0,1-22.6133,22.6133H33.8652a22.6152,22.6152,0,0,1-22.6152-22.6152v-53.3281A22.6172,22.6172,0,0,1,33.8672,1415.75555Z"/><path class="cls-7" d="M451.13722,1554.47264a21.38849,21.38849,0,0,1,21.3633,21.3652v53.3301a21.38849,21.38849,0,0,1-21.3633,21.3652H77.58842a21.3899,21.3899,0,0,1-21.3672-21.3652v-53.3301a21.3899,21.3899,0,0,1,21.3672-21.3652h373.5488m0-2.5H77.58842a23.937,23.937,0,0,0-23.8672,23.8652v53.3301a23.937,23.937,0,0,0,23.8672,23.8652h373.5488a23.93362,23.93362,0,0,0,23.8633-23.8652v-53.3301a23.93362,23.93362,0,0,0-23.8633-23.8652Z" transform="translate(-43.72122 -137.46709)"/><path d="M195.88281,1609.69238v-23.83984h17.43946v23.83984Zm3.91992-3.39941h9.59961v-17.04h-9.59961Zm28.79981-7h-5.67969v20.12012h-3.96V1582.5332h3.96v13.31934h5.67969Z" transform="translate(-43.72122 -137.46709)"/><path d="M242.16211,1589.41309H232.042v-3.36036h13.96v7.83985q0,.48047-.0205.91992c-.01368.29395-.01954.58691-.01954.87988h4.96V1583.293h3.87988v34.31933h-3.87988v-18.47949h-5.4004a10.66773,10.66773,0,0,1-1.15918,2.90039,14.48593,14.48593,0,0,1-2.24023,2.83985,34.25512,34.25512,0,0,1-3.62012,3.12011q-2.18115,1.65967-5.33984,3.69922l-2.2002-3.08008q2.79933-1.71825,4.71973-3.15917a29.6947,29.6947,0,0,0,3.16016-2.68067,12.20686,12.20686,0,0,0,1.90039-2.35937,9.9405,9.9405,0,0,0,.97949-2.2002l-10.43945.35938-.12012-3.31934,11-.24023Zm20.31934,30h-3.87989V1582.5332h3.87989Z" transform="translate(-43.72122 -137.46709)"/><path d="M286.08105,1594.97266h-12.96v4.24023q3.08057,0,5.56055-.04,2.47851-.03955,4.54-.12012,2.05958-.0791,3.7793-.24023,1.71972-.15967,3.32031-.35937l.36035,3.19921q-1.92041.24024-4,.40039-2.08154.15968-4.62012.28028-2.54149.12012-5.68066.16015-3.14062.03956-7.13965.04V1584.293h17.56055v3.31933H273.12109v4.04h12.96Zm.24024,10.16015a19.08868,19.08868,0,0,1,4.5.5,13.03445,13.03445,0,0,1,3.58008,1.40039,7.35215,7.35215,0,0,1,2.37988,2.15918,4.76693,4.76693,0,0,1,.86035,2.74024v1.67968a4.76469,4.76469,0,0,1-.86035,2.74024,7.35459,7.35459,0,0,1-2.37988,2.16016,13.06547,13.06547,0,0,1-3.58008,1.40039,20.5,20.5,0,0,1-9,0,13.0532,13.0532,0,0,1-3.58008-1.40039,7.34452,7.34452,0,0,1-2.37988-2.16016,4.7575,4.7575,0,0,1-.86035-2.74024v-1.67968a4.75974,4.75974,0,0,1,.86035-2.74024,7.34209,7.34209,0,0,1,2.37988-2.15918,13.02224,13.02224,0,0,1,3.58008-1.40039A19.077,19.077,0,0,1,286.32129,1605.13281Zm0,12.04a13.00508,13.00508,0,0,0,2.7998-.2998,10.5685,10.5685,0,0,0,2.37989-.80078,5.24019,5.24019,0,0,0,1.64062-1.19922,2.27521,2.27521,0,0,0,.62012-1.54v-1.12012a2.27341,2.27341,0,0,0-.62012-1.54,5.242,5.242,0,0,0-1.64062-1.20019,10.61782,10.61782,0,0,0-2.37989-.79981,13.22346,13.22346,0,0,0-5.59961,0,10.601,10.601,0,0,0-2.37988.79981,5.23059,5.23059,0,0,0-1.64062,1.20019,2.27341,2.27341,0,0,0-.62012,1.54v1.12012a2.27521,2.27521,0,0,0,.62012,1.54,5.22883,5.22883,0,0,0,1.64062,1.19922,10.55183,10.55183,0,0,0,2.37988.80078A13.00517,13.00517,0,0,0,286.32129,1617.17285Zm7.16016-12.56055v-22.0791h3.91992v22.0791Z" transform="translate(-43.72122 -137.46709)"/><path d="M322.48145,1594.69238h-12.96v3.96q3.07911,0,5.55957-.04,2.48-.03808,4.54-.11914,2.05958-.08056,3.78028-.24023,1.71972-.15967,3.31933-.36035l.36035,3.20019q-1.92041.24024-4,.40039-2.08006.15967-4.62011.2793-2.54.12012-5.67969.16016-3.14062.041-7.13965.04v-17.71973h17.55957v3.31934H309.52148v3.80078h12.96Zm11.31933,10.80078v13.87989h-23v-13.87989ZM314.7207,1616.0127h15.16016v-7.16016H314.7207Zm15.16016-12.32032V1582.5332h3.91992v21.15918Z" transform="translate(-43.72122 -137.46709)"/><line class="cls-4" x1="118.18845" y1="1315.32439" x2="120.18845" y2="1315.32439"/><line class="cls-11" x1="122.18455" y1="1315.32439" x2="420.55955" y2="1315.32429"/><line class="cls-4" x1="421.55755" y1="1315.32429" x2="423.55755" y2="1315.32429"/><line class="cls-4" x1="464.93455" y1="1315.32439" x2="466.93455" y2="1315.32439"/><line class="cls-11" x1="468.93065" y1="1315.32439" x2="767.30565" y2="1315.32429"/><line class="cls-4" x1="768.30365" y1="1315.32429" x2="770.30365" y2="1315.32429"/><path class="cls-14" d="M854.56805,1452.79605a20.55855,20.55855,0,1,1-20.5585-20.5566A20.55813,20.55813,0,0,1,854.56805,1452.79605Z" transform="translate(-43.72122 -137.46709)"/><circle class="cls-7" cx="834.00953" cy="1452.79608" r="11.10159" transform="translate(-826.72745 877.78083) rotate(-45)"/><path class="cls-14" d="M162.56805,1452.79605a20.55855,20.55855,0,1,1-20.5585-20.5566A20.55813,20.55813,0,0,1,162.56805,1452.79605Z" transform="translate(-43.72122 -137.46709)"/><circle class="cls-7" cx="142.00953" cy="1452.79608" r="11.10159" transform="translate(-1029.40956 388.46293) rotate(-45)"/><path class="cls-14" d="M162.56805,1548.15694a20.55855,20.55855,0,1,1-20.5585-20.5566A20.55813,20.55813,0,0,1,162.56805,1548.15694Z" transform="translate(-43.72122 -137.46709)"/><circle class="cls-7" cx="142.00953" cy="1548.15697" r="11.10159" transform="translate(-1096.83989 416.39349) rotate(-45)"/><path class="cls-14" d="M854.56805,1548.15694a20.55855,20.55855,0,1,1-20.5585-20.5566A20.55813,20.55813,0,0,1,854.56805,1548.15694Z" transform="translate(-43.72122 -137.46709)"/><circle class="cls-7" cx="834.00953" cy="1548.15697" r="11.10159" transform="translate(-894.15778 905.71138) rotate(-45)"/><g class="cls-3"><line class="cls-4" x1="2967.10971" y1="1027.9203" x2="2967.10971" y2="1029.9203"/><line class="cls-5" x1="2967.10971" y1="1031.85" x2="2967.10971" y2="1094.5492"/><line class="cls-4" x1="2967.10971" y1="1095.514" x2="2967.10971" y2="1097.514"/></g><path class="cls-1" d="M2998.497,1160.68818a12.335,12.335,0,1,0,12.3339-12.334A12.33474,12.33474,0,0,0,2998.497,1160.68818Z" transform="translate(-43.72122 -137.46709)"/><path class="cls-1" d="M2998.497,1239.96748a12.335,12.335,0,1,0,12.3339-12.334A12.33474,12.33474,0,0,0,2998.497,1239.96748Z" transform="translate(-43.72122 -137.46709)"/><path class="cls-24" d="M2781.166,1104.49978h373.5469a33.8652,33.8652,0,0,1,33.8652,33.8652v53.332a33.8633,33.8633,0,0,1-33.8633,33.8633H2781.164a33.8652,33.8652,0,0,1-33.8652-33.8652V1138.367A33.8672,33.8672,0,0,1,2781.166,1104.49978Z"/><path class="cls-25" d="M2781.166,1115.74978h373.5469a22.6152,22.6152,0,0,1,22.6152,22.6152v53.332a22.6133,22.6133,0,0,1-22.6133,22.6133H2781.164a22.6152,22.6152,0,0,1-22.6152-22.6152V1138.367A22.6172,22.6172,0,0,1,2781.166,1115.74978Z"/><path class="cls-7" d="M3198.436,1254.46686a21.38849,21.38849,0,0,1,21.3633,21.3652v53.3301a21.38849,21.38849,0,0,1-21.3633,21.3652h-373.5488a21.3899,21.3899,0,0,1-21.3672-21.3652v-53.3301a21.3899,21.3899,0,0,1,21.3672-21.3652H3198.436m0-2.5h-373.5488a23.937,23.937,0,0,0-23.8672,23.8652v53.3301a23.937,23.937,0,0,0,23.8672,23.8652H3198.436a23.93362,23.93362,0,0,0,23.8633-23.8652v-53.3301a23.93362,23.93362,0,0,0-23.8633-23.8652Z" transform="translate(-43.72122 -137.46709)"/><path d="M2932.41992,1283.04736a10.72871,10.72871,0,0,1,3.96094.67969,9.06906,9.06906,0,0,1,2.87891,1.76025A7.15249,7.15249,0,0,1,2941,1287.92725a6.88521,6.88521,0,0,1,.58008,2.71972v1.6001a6.97511,6.97511,0,0,1-.58008,2.76025,7.15249,7.15249,0,0,1-1.74023,2.43995,8.80093,8.80093,0,0,1-2.87891,1.73974,12.2099,12.2099,0,0,1-7.9209,0,8.7956,8.7956,0,0,1-2.87988-1.73974,7.15238,7.15238,0,0,1-1.74024-2.43995,6.97527,6.97527,0,0,1-.58007-2.76025v-1.6001a6.88537,6.88537,0,0,1,.58007-2.71972,7.15238,7.15238,0,0,1,1.74024-2.43995,9.06322,9.06322,0,0,1,2.87988-1.76025A10.71616,10.71616,0,0,1,2932.41992,1283.04736Zm0,13.39991a6.376,6.376,0,0,0,2.28028-.38038,5.21421,5.21421,0,0,0,1.68066-1,4.29112,4.29112,0,0,0,1.03906-1.41992,3.954,3.954,0,0,0,.36035-1.63965v-1.12011a3.95617,3.95617,0,0,0-.36035-1.64014,4.09277,4.09277,0,0,0-1.03906-1.3999,5.46364,5.46364,0,0,0-1.68066-.98,6.387,6.387,0,0,0-2.28028-.37989,6.6938,6.6938,0,0,0-2.27929.35987,4.93226,4.93226,0,0,0-1.68067.98,4.29055,4.29055,0,0,0-1.04,1.41992,3.95512,3.95512,0,0,0-.35937,1.64014v1.12011a3.95291,3.95291,0,0,0,.35937,1.63965,4.28062,4.28062,0,0,0,1.04,1.41992,5.17252,5.17252,0,0,0,1.68067,1A6.36667,6.36667,0,0,0,2932.41992,1296.44727Zm-2.75976,23.1997v-10.08008h18.96v-3.55957H2929.46v-3.28027h23.04v10.04h-18.96v3.6001h20v3.27978Zm18.91992-18.75976v-18.35987H2952.5v18.35987Z" transform="translate(-43.72122 -137.46709)"/><path d="M2960.13965,1302.96729v-18.56006h3.87988v6.35986H2973.5v-6.35986h3.87891v18.56006Zm3.87988-3.36036H2973.5v-5.52h-9.48047Zm4.87988,15.96H2988.459v3.44043h-23.51953v-11.96h3.96Zm23.79981-19.27978H2987.459v12.56006h-3.91992v-26.31983h3.91992v10.31983h5.24024Z" transform="translate(-43.72122 -137.46709)"/><path d="M3018.21875,1303.4873q-2.39942.23951-4.61914.41993-2.22071.18016-4.88086.27978-2.66016.10035-6.01953.16016-3.36036.06006-7.96.06006v-3.39991h7.36035v-7.64013h3.91992v7.56006q1.64063-.03956,3.12012-.1001,1.478-.06006,2.89941-.16016,1.4209-.09888,2.86035-.1997,1.44-.09962,3-.26026Zm-7.67969-6.40039q.43945-2.07935.66016-4.03955a33.14083,33.14083,0,0,0,.2207-3.68017v-1.56006h-14.20117v-3.3999h18.12109v4.3999q0,1.08032-.06054,2.24023-.06006,1.16016-.17969,2.31983-.12012,1.16088-.30078,2.23974-.17871,1.08033-.37891,1.96Zm-6,18.56006h20.56055v3.40039h-24.51953v-11.08007h3.959Zm15.64063-5.75976v-27.35987h3.91992v11.23975h5.19922v3.43994h-5.19922v12.68018Z" transform="translate(-43.72122 -137.46709)"/><path d="M3037.73828,1299.24707v7.83984h3.76074q1.99951,0,3.63965-.03955,1.64063-.03954,3.14063-.14013,1.5-.09962,2.91992-.24024,1.418-.13916,2.97949-.37988l.36035,3.31982q-1.40038.20069-2.82031.36036-1.4209.16039-3.08008.27978-1.65966.12012-3.63965.18018-1.98047.06006-4.46.06005h-6.7207v-14.56005h12.56055v-7.08008h-12.67969v-3.3999h16.59961v13.7998Zm19.96094,20.16016v-36.87989h3.959v36.87989Z" transform="translate(-43.72122 -137.46709)"/><path d="M3082.459,1319.40723V1307.687h-14.92089v-3.35986h33.84082v3.35986H3086.459v11.72022Zm14.11915-19.12012h-24.24024v-16.31982h3.91992v5.04h16.40039v-5.08007h3.91993Zm-20.32032-3.3999h16.40039v-4.52h-16.40039Z" transform="translate(-43.72122 -137.46709)"/><path class="cls-24" d="M3031.898,1246.79043a20.55855,20.55855,0,1,1-20.5585-20.5566A20.55813,20.55813,0,0,1,3031.898,1246.79043Z" transform="translate(-43.72122 -137.46709)"/><circle class="cls-7" cx="3011.33944" cy="1246.79045" r="11.10159" transform="translate(-43.3343 2357.04792) rotate(-45)"/><path class="cls-24" d="M3030.898,1357.79043a20.55855,20.55855,0,1,1-20.5585-20.5566A20.55813,20.55813,0,0,1,3030.898,1357.79043Z" transform="translate(-43.72122 -137.46709)"/><circle class="cls-7" cx="3010.33944" cy="1357.79045" r="11.10159" transform="translate(-122.11605 2388.85196) rotate(-45)"/><path class="cls-24" d="M2990.432,1151.79043a20.55855,20.55855,0,1,0,20.5585-20.5566A20.55813,20.55813,0,0,0,2990.432,1151.79043Z" transform="translate(-43.72122 -137.46709)"/><circle class="cls-7" cx="3010.99047" cy="1151.79045" r="11.10156" transform="translate(23.73863 2328.97631) rotate(-45)"/><line class="cls-4" x1="2032.3691" y1="1014.32439" x2="2030.3691" y2="1014.32439"/><line class="cls-11" x1="2028.373" y1="1014.32439" x2="1729.998" y2="1014.32429"/><line class="cls-4" x1="1729" y1="1014.32429" x2="1727" y2="1014.32429"/><line class="cls-4" x1="2337.3691" y1="1014.32439" x2="2335.3691" y2="1014.32439"/><line class="cls-11" x1="2333.373" y1="1014.32439" x2="2034.998" y2="1014.32429"/><line class="cls-4" x1="2034" y1="1014.32429" x2="2032" y2="1014.32429"/><line class="cls-4" x1="2947.3691" y1="1014.32439" x2="2945.3691" y2="1014.32439"/><line class="cls-11" x1="2943.373" y1="1014.32439" x2="2644.998" y2="1014.32429"/><line class="cls-4" x1="2644" y1="1014.32429" x2="2642" y2="1014.32429"/><line class="cls-4" x1="2642.3691" y1="1014.32439" x2="2640.3691" y2="1014.32439"/><line class="cls-11" x1="2638.373" y1="1014.32439" x2="2339.998" y2="1014.32429"/><line class="cls-4" x1="2339" y1="1014.32429" x2="2337" y2="1014.32429"/><path class="cls-24" d="M3029.56805,1452.79605a20.55855,20.55855,0,1,1-20.5585-20.5566A20.55813,20.55813,0,0,1,3029.56805,1452.79605Z" transform="translate(-43.72122 -137.46709)"/><circle class="cls-7" cx="3009.00953" cy="1452.79608" r="11.10159" transform="translate(-189.6847 2415.73808) rotate(-45)"/><path class="cls-24" d="M3002.1861,1404.50555H3375.733a33.8652,33.8652,0,0,1,33.8652,33.8652v53.3301a33.8652,33.8652,0,0,1-33.8652,33.8652H3002.1841a33.8652,33.8652,0,0,1-33.8652-33.8652v-53.3281A33.8672,33.8672,0,0,1,3002.1861,1404.50555Z"/><path class="cls-26" d="M3002.1861,1415.75555H3375.733a22.6152,22.6152,0,0,1,22.6152,22.6152v53.332a22.6133,22.6133,0,0,1-22.6133,22.6133H3002.1841a22.6152,22.6152,0,0,1-22.6152-22.6152v-53.3281A22.6172,22.6172,0,0,1,3002.1861,1415.75555Z"/><path class="cls-7" d="M3419.45612,1554.47264a21.38849,21.38849,0,0,1,21.3633,21.3652v53.3301a21.38849,21.38849,0,0,1-21.3633,21.3652h-373.5488a21.3899,21.3899,0,0,1-21.3672-21.3652v-53.3301a21.3899,21.3899,0,0,1,21.3672-21.3652h373.5488m0-2.5h-373.5488a23.937,23.937,0,0,0-23.8672,23.8652v53.3301a23.937,23.937,0,0,0,23.8672,23.8652h373.5488a23.93362,23.93362,0,0,0,23.8633-23.8652v-53.3301a23.93362,23.93362,0,0,0-23.8633-23.8652Z" transform="translate(-43.72122 -137.46709)"/><path d="M3158.3623,1610.89258q-2.51952.24023-5.16015.41992-2.63965.18018-5.58008.2998-2.93994.12012-6.28027.18067-3.33986.06006-7.25977.05957v-3.43945q2.6792.03954,5.04.01953,2.35986-.019,4.52051-.05957v-6.16016a10.503,10.503,0,0,1-3.26074-1.04,9.14774,9.14774,0,0,1-2.46-1.82031,7.81841,7.81841,0,0,1-1.54-2.33984,6.64388,6.64388,0,0,1-.54-2.59961v-1.84082a6.76981,6.76981,0,0,1,.68066-2.91993,7.95033,7.95033,0,0,1,1.93945-2.55957,9.67514,9.67514,0,0,1,3.08008-1.7998,12.68906,12.68906,0,0,1,8.2002,0,9.68581,9.68581,0,0,1,3.08008,1.7998,7.95033,7.95033,0,0,1,1.93945,2.55957,6.78392,6.78392,0,0,1,.68066,2.91993v1.84082a6.50483,6.50483,0,0,1-.54,2.58007,8.20988,8.20988,0,0,1-1.54,2.33985,9.04836,9.04836,0,0,1-2.44042,1.83984,10.26606,10.26606,0,0,1-3.23926,1.04v6.04q2.83887-.08057,5.33984-.25977,2.499-.18017,4.97949-.42089Zm-12.71972-11.96a6.92121,6.92121,0,0,0,2.37988-.39942,6.379,6.379,0,0,0,1.89942-1.06054,5.06411,5.06411,0,0,0,1.26074-1.51953,3.74,3.74,0,0,0,.46-1.78028v-1.36035a3.93341,3.93341,0,0,0-.46-1.83984,4.77233,4.77233,0,0,0-1.26074-1.51953,6.32519,6.32519,0,0,0-1.89942-1.02051,7.64758,7.64758,0,0,0-4.76074,0,6.31336,6.31336,0,0,0-1.89942,1.02051,4.73123,4.73123,0,0,0-1.25976,1.51953,3.91008,3.91008,0,0,0-.46,1.83984v1.36035a3.71765,3.71765,0,0,0,.46,1.78028,5.01769,5.01769,0,0,0,1.25976,1.51953,6.36679,6.36679,0,0,0,1.89942,1.06054A6.9149,6.9149,0,0,0,3145.64258,1598.93262Zm14.71972,20.48047V1582.5332h3.91993v36.87989Z" transform="translate(-43.72122 -137.46709)"/><path d="M3184.60156,1619.41309v-12.64063h-14.91992v-3.35937h33.83984v3.35937h-14.91992v12.64063Zm6.48047-22.60059a22.01782,22.01782,0,0,1-3.04-1.75977,4.62194,4.62194,0,0,1-1.40039-1.44043h-.04a4.273,4.273,0,0,1-1.37988,1.46,21.71945,21.71945,0,0,1-3.06055,1.78027q-1.64062.80127-3.65918,1.75976-2.02147.96095-4.54,1.9209l-1.56054-3.24023q2.23974-.84082,4.40039-1.82031,2.15918-.98,4.08008-2.01953a9.9513,9.9513,0,0,0,1.93945-1.30079,5.70881,5.70881,0,0,0,1.14062-1.33984,4.46284,4.46284,0,0,0,.54-1.37988,7.25413,7.25413,0,0,0,.13965-1.41992H3174.042v-3.36036h25.19922v3.36036h-10.63965a7.18057,7.18057,0,0,0,.13965,1.41992,4.71387,4.71387,0,0,0,.52051,1.37988,5.2449,5.2449,0,0,0,1.12012,1.33984,9.951,9.951,0,0,0,1.93945,1.30079q1.92041,1.04,4.08008,2.01953,2.16065.98144,4.40039,1.82031l-1.52051,3.20019q-2.51953-.96093-4.54-1.92089Q3192.72119,1597.6128,3191.082,1596.8125Z" transform="translate(-43.72122 -137.46709)"/><path d="M3208.80078,1611.69238h4.60059l-3.08008,9.12012h-3.2002Z" transform="translate(-43.72122 -137.46709)"/><path d="M3242.76074,1619.41309V1607.293h-14.91992v-3.36035h33.83984v3.36035h-14.91992v12.12012Zm14.08008-19.72071h-24.16016V1584.6123h24.16016Zm-20.24023-3.31933h16.32031v-8.44043h-16.32031Z" transform="translate(-43.72122 -137.46709)"/><path d="M3283.71973,1593.97266a7.86381,7.86381,0,0,1-.53907,2.75976,7.589,7.589,0,0,1-1.68066,2.62012,8.94812,8.94812,0,0,1-2.85937,1.94043,11.33535,11.33535,0,0,1-8.16016,0,8.931,8.931,0,0,1-2.86035-1.94043,7.57193,7.57193,0,0,1-1.67969-2.62012,7.84416,7.84416,0,0,1-.54-2.75976v-2.04a7.84417,7.84417,0,0,1,.54-2.75977,7.581,7.581,0,0,1,1.67969-2.62012,8.94672,8.94672,0,0,1,2.86035-1.94043,11.33535,11.33535,0,0,1,8.16016,0,8.964,8.964,0,0,1,2.85937,1.94043,7.59811,7.59811,0,0,1,1.68066,2.62012,7.86382,7.86382,0,0,1,.53907,2.75977Zm-3.79981-1.83985a4.97246,4.97246,0,0,0-.31933-1.74023,4.5987,4.5987,0,0,0-.98047-1.55957,4.75811,4.75811,0,0,0-1.67969-1.12012,7.012,7.012,0,0,0-4.78027,0A4.80009,4.80009,0,0,0,3270.5,1588.833a4.59588,4.59588,0,0,0-.97949,1.55957,4.95157,4.95157,0,0,0-.32031,1.74023v1.63965a4.94359,4.94359,0,0,0,.32031,1.74024,4.57733,4.57733,0,0,0,.97949,1.55957,4.77337,4.77337,0,0,0,1.66016,1.12011,7.012,7.012,0,0,0,4.78027,0,4.73222,4.73222,0,0,0,1.67969-1.12011,4.58012,4.58012,0,0,0,.98047-1.55957,4.96443,4.96443,0,0,0,.31933-1.74024Zm-9.16015,13.71973H3295.04v13.91992h-3.96v-10.51953h-20.32031Zm20.40039-1.91992v-5h-5.79981v-3.39942h5.79981v-4.9209h-5.79981v-3.39941h5.79981v-4.67969H3295.04v21.39942Z" transform="translate(-43.72122 -137.46709)"/><path d="M3319.87988,1594.69238h-12.96v3.96q3.08057,0,5.56055-.04,2.47851-.03808,4.54-.11914,2.05956-.08056,3.77929-.24023t3.32032-.36035l.36035,3.20019q-1.9204.24024-4,.40039-2.08155.15967-4.62012.2793-2.54149.12012-5.68066.16016-3.14062.041-7.13965.04v-17.71973h17.56055v3.31934h-13.68067v3.80078h12.96Zm11.32032,10.80078v13.87989h-23v-13.87989Zm-19.08008,10.51954h15.16015v-7.16016h-15.16015Zm15.16015-12.32032V1582.5332h3.91993v21.15918Z" transform="translate(-43.72122 -137.46709)"/><path class="cls-24" d="M2554.8672,1404.50555h373.5469a33.8652,33.8652,0,0,1,33.8652,33.8652v53.332a33.8633,33.8633,0,0,1-33.8633,33.8633H2554.8652A33.8652,33.8652,0,0,1,2521,1491.70085v-53.3281A33.8672,33.8672,0,0,1,2554.8672,1404.50555Z"/><path class="cls-27" d="M2554.8672,1415.75555h373.5469a22.6152,22.6152,0,0,1,22.6152,22.6152v53.332a22.6133,22.6133,0,0,1-22.6133,22.6133H2554.8652a22.6152,22.6152,0,0,1-22.6152-22.6152v-53.3281A22.6172,22.6172,0,0,1,2554.8672,1415.75555Z"/><path class="cls-7" d="M2972.13722,1554.47264a21.38849,21.38849,0,0,1,21.3633,21.3652v53.3301a21.38849,21.38849,0,0,1-21.3633,21.3652h-373.5488a21.3899,21.3899,0,0,1-21.3672-21.3652v-53.3301a21.3899,21.3899,0,0,1,21.3672-21.3652h373.5488m0-2.5h-373.5488a23.937,23.937,0,0,0-23.8672,23.8652v53.3301a23.937,23.937,0,0,0,23.8672,23.8652h373.5488a23.93362,23.93362,0,0,0,23.8633-23.8652v-53.3301a23.93362,23.93362,0,0,0-23.8633-23.8652Z" transform="translate(-43.72122 -137.46709)"/><path d="M2700.44336,1588.17285h-11.75977v-3.36035h15.63965v5.7998a10.79075,10.79075,0,0,1-.66015,3.96,8.25885,8.25885,0,0,1-2.39942,3.18066,24.02,24.02,0,0,1-4.78027,3.04q-3.041,1.53956-7.75977,3.54l-1.56054-3.16016q4.16015-1.71972,6.76074-3.04a21.90129,21.90129,0,0,0,4.03906-2.52051,6.63941,6.63941,0,0,0,1.96094-2.43945,7.30568,7.30568,0,0,0,.51953-2.83984Zm-6.16016,23.63965a5.13686,5.13686,0,0,1,.78028-2.71973,7.17113,7.17113,0,0,1,2.24023-2.24023,12.12621,12.12621,0,0,1,3.55957-1.51953,20.32294,20.32294,0,0,1,9.48047,0,12.1489,12.1489,0,0,1,3.55957,1.51953,7.1814,7.1814,0,0,1,2.24023,2.24023,5.14557,5.14557,0,0,1,.78028,2.71973v1.60059a5.14551,5.14551,0,0,1-.78028,2.71972,7.18143,7.18143,0,0,1-2.24023,2.24024,12.17534,12.17534,0,0,1-3.55957,1.51953,20.32294,20.32294,0,0,1-9.48047,0,12.15255,12.15255,0,0,1-3.55957-1.51953,7.17115,7.17115,0,0,1-2.24023-2.24024,5.1368,5.1368,0,0,1-.78028-2.71972Zm18.75977.24023a2.54381,2.54381,0,0,0-.51953-1.46,4.59278,4.59278,0,0,0-1.48047-1.2998,9.28505,9.28505,0,0,0-2.33984-.91992,13.51529,13.51529,0,0,0-6.2002,0,9.29976,9.29976,0,0,0-2.33984.91992,4.58871,4.58871,0,0,0-1.4795,1.2998,2.53841,2.53841,0,0,0-.5205,1.46v1.12012a2.54072,2.54072,0,0,0,.5205,1.46,4.60013,4.60013,0,0,0,1.4795,1.29981,9.33762,9.33762,0,0,0,2.33984.91992,13.51529,13.51529,0,0,0,6.2002,0,9.32278,9.32278,0,0,0,2.33984-.91992,4.60422,4.60422,0,0,0,1.48047-1.29981,2.54614,2.54614,0,0,0,.51953-1.46Zm-.15918-7.75976v-5.36035h-7.12012v-3.39942h7.12012v-4.28027h-6.52051v-3.40039h6.52051v-5.31934h3.87988V1604.293Z" transform="translate(-43.72122 -137.46709)"/><path d="M2728.96289,1599.25293v7.83984h3.75977q1.9995,0,3.63964-.04,1.64063-.03954,3.14063-.13964,1.5-.09961,2.91992-.24024,1.41943-.13915,2.97949-.37988l.36036,3.31933q-1.4004.20069-2.82032.36036-1.41943.16113-3.08008.28027-1.65966.12012-3.63964.17969-1.98048.06006-4.46.06054H2725.043v-14.56054h12.55957v-7.08008h-12.67969v-3.39941h16.59961v13.7998Zm19.96,20.16016V1582.5332h3.96v36.87989Z" transform="translate(-43.72122 -137.46709)"/><path d="M2761.48242,1611.69238h4.59961l-3.08008,9.12012h-3.20019Z" transform="translate(-43.72122 -137.46709)"/><path d="M2814.3623,1601.0127v3.36035h-33.84082v-3.36035h14.9209v-3.75977h4v3.75977Zm-16.96-7.83985a3.93787,3.93787,0,0,1-1.56054,1.43945,16.3857,16.3857,0,0,1-2.39942,1.12012q-2.28075.88038-4.4209,1.62012-2.14013.74121-4.33984,1.41992l-1.23926-3.20019q2.03907-.59913,3.81934-1.19922,1.77978-.60058,3.78027-1.40039,4.16016-1.59961,4.40039-4h-10.64062v-3.28028h10.64062v-3.63965h3.96v3.63965H2810.082v3.28028h-10.67969a3.113,3.113,0,0,0,1.17969,2.16015,11.77021,11.77021,0,0,0,3.25977,1.83985,77.66154,77.66154,0,0,0,7.60058,2.59961l-1.24023,3.20019q-2.24121-.67968-4.36035-1.41992-2.12111-.73974-4.35938-1.62012a18.18531,18.18531,0,0,1-2.44043-1.12012,3.88569,3.88569,0,0,1-1.59961-1.43945Zm.04,27.36035a21.05963,21.05963,0,0,1-4.78027-.5,13.05705,13.05705,0,0,1-3.64063-1.38086,6.97687,6.97687,0,0,1-2.2998-2.05957,4.5043,4.5043,0,0,1-.7998-2.58007v-1.28028a4.5968,4.5968,0,0,1,.7998-2.59961,6.7033,6.7033,0,0,1,2.2998-2.06054,13.53386,13.53386,0,0,1,3.64063-1.35938,21.05963,21.05963,0,0,1,4.78027-.5,20.80737,20.80737,0,0,1,4.75977.5,13.55686,13.55686,0,0,1,3.62012,1.35938,6.90628,6.90628,0,0,1,2.31933,2.06054,4.51618,4.51618,0,0,1,.82031,2.59961v1.28028a4.53365,4.53365,0,0,1-.7998,2.55957,6.87656,6.87656,0,0,1-2.29981,2.08007,13.057,13.057,0,0,1-3.64062,1.38086A21.063,21.063,0,0,1,2797.44238,1620.5332Zm0-11.08007a14.69911,14.69911,0,0,0-3.08008.2998,10.7581,10.7581,0,0,0-2.40039.78027,4.78949,4.78949,0,0,0-1.55957,1.11914,1.9952,1.9952,0,0,0-.56054,1.32032v.7998a1.99326,1.99326,0,0,0,.56054,1.32031,4.80525,4.80525,0,0,0,1.55957,1.12012,10.75759,10.75759,0,0,0,2.40039.78027,15.96638,15.96638,0,0,0,6.15918,0,10.7912,10.7912,0,0,0,2.4004-.78027,4.83145,4.83145,0,0,0,1.56054-1.12012,1.9966,1.9966,0,0,0,.55957-1.32031v-.7998a1.99855,1.99855,0,0,0-.55957-1.32032,4.81552,4.81552,0,0,0-1.56054-1.11914,10.79172,10.79172,0,0,0-2.4004-.78027A14.70271,14.70271,0,0,0,2797.44238,1609.45313Z" transform="translate(-43.72122 -137.46709)"/><path d="M2831.8418,1619.41309V1607.293h-14.9209v-3.36035h33.84082v3.36035H2835.8418v12.12012Zm14.0791-19.72071h-24.15918V1584.6123h24.15918Zm-20.23926-3.31933H2842.001v-8.44043h-16.31934Z" transform="translate(-43.72122 -137.46709)"/><path d="M2872.56152,1594.69238h-12.96v3.96q3.07911,0,5.55957-.04,2.48-.03808,4.54-.11914,2.05958-.08056,3.78028-.24023,1.71972-.15967,3.31933-.36035l.36035,3.20019q-1.9204.24024-4,.40039-2.08008.15967-4.62011.2793-2.54.12012-5.67969.16016-3.14062.041-7.13965.04v-17.71973h17.55957v3.31934h-13.67969v3.80078h12.96Zm11.31934,10.80078v13.87989h-23v-13.87989Zm-19.08008,10.51954h15.16016v-7.16016h-15.16016Zm15.16016-12.32032V1582.5332h3.91992v21.15918Z" transform="translate(-43.72122 -137.46709)"/><line class="cls-4" x1="2639.18845" y1="1315.32439" x2="2641.18845" y2="1315.32439"/><line class="cls-11" x1="2643.18455" y1="1315.32439" x2="2941.55955" y2="1315.32429"/><line class="cls-4" x1="2942.55755" y1="1315.32429" x2="2944.55755" y2="1315.32429"/><line class="cls-4" x1="2985.93456" y1="1315.29108" x2="2987.93456" y2="1315.29152"/><line class="cls-11" x1="2989.93066" y1="1315.29195" x2="3288.30565" y2="1315.35695"/><line class="cls-4" x1="3289.30365" y1="1315.35716" x2="3291.30365" y2="1315.3576"/><path class="cls-24" d="M3375.56805,1452.79605a20.55855,20.55855,0,1,1-20.5585-20.5566A20.55813,20.55813,0,0,1,3375.56805,1452.79605Z" transform="translate(-43.72122 -137.46709)"/><circle class="cls-7" cx="3355.00953" cy="1452.79608" r="11.10159" transform="translate(-88.34364 2660.39702) rotate(-45)"/><path class="cls-24" d="M2683.56805,1452.79605a20.55855,20.55855,0,1,1-20.5585-20.5566A20.55813,20.55813,0,0,1,2683.56805,1452.79605Z" transform="translate(-43.72122 -137.46709)"/><circle class="cls-7" cx="2663.00953" cy="1452.79608" r="11.10159" transform="translate(-291.02575 2171.07913) rotate(-45)"/><path class="cls-1" d="M3367.354,1540.26285a12.335,12.335,0,1,1-12.3339-12.334A12.33474,12.33474,0,0,1,3367.354,1540.26285Z" transform="translate(-43.72122 -137.46709)"/><path class="cls-1" d="M2675.354,1540.26285a12.335,12.335,0,1,1-12.3339-12.334A12.33474,12.33474,0,0,1,2675.354,1540.26285Z" transform="translate(-43.72122 -137.46709)"/><path class="cls-24" d="M2683.56805,1548.15694a20.55855,20.55855,0,1,1-20.5585-20.5566A20.55813,20.55813,0,0,1,2683.56805,1548.15694Z" transform="translate(-43.72122 -137.46709)"/><circle class="cls-7" cx="2663.00953" cy="1548.15697" r="11.10159" transform="translate(-358.45608 2199.00969) rotate(-45)"/><path class="cls-24" d="M3375.56805,1548.15694a20.55855,20.55855,0,1,1-20.5585-20.5566A20.55813,20.55813,0,0,1,3375.56805,1548.15694Z" transform="translate(-43.72122 -137.46709)"/><circle class="cls-7" cx="3355.00953" cy="1548.15697" r="11.10159" transform="translate(-155.77398 2688.32758) rotate(-45)"/></g></g></svg>