<svg id="레이어_1" data-name="레이어 1" xmlns="http://www.w3.org/2000/svg" viewBox="0 0 796.4 179.57"><defs><style>.cls-1,.cls-3{fill:#fff;}.cls-2{fill:#fdd000;}.cls-3{isolation:isolate;font-size:29.43px;font-family:MalgunGothic, Malgun Gothic;}</style></defs><title>대지 1</title><polygon class="cls-1" points="201.22 95.1 173.06 131.23 173.06 157.8 163.47 157.8 163.47 131.23 135.2 95.1 146.73 95.1 168.26 123.89 189.71 95.1 201.22 95.1"/><rect class="cls-1" x="242.02" y="95.98" width="9.6" height="62.71"/><polygon class="cls-1" points="355.72 95.1 327.54 131.23 327.54 157.8 317.95 157.8 317.95 131.23 289.7 95.1 301.23 95.1 322.74 123.89 344.2 95.1 355.72 95.1"/><path class="cls-1" d="M452.68,157.8H442l-8.35-19H403.39l-8,19h-10L413,95.09h10.27Zm-21.83-25.72-12.79-29-12,29Z"/><polygon class="cls-1" points="544.65 157.8 535 157.8 535 128.19 497.75 128.19 497.75 157.8 488.14 157.8 488.14 95.1 497.75 95.1 497.75 120.78 535 120.78 535 95.1 544.65 95.1 544.65 157.8"/><path class="cls-2" d="M8.22,99.39l10.38,18s45.32,8.89,82.59-19.06c0,0-28,24.77-34.31,52.73l26.47-14.4S108.6,38,228.67,70.16l-11-18s-44-9.53-82.59,18.43c0,0,25-22.45,34.31-52.73L142.9,32S128.71,130.52,8.22,99.39"/><text class="cls-3" transform="translate(544.65 156.6) scale(1.74 1)"> </text><path class="cls-1" d="M581.83,127.39h6.57V157.8h-6.57Zm20.3,12a6.54,6.54,0,0,0-1.84-5,7.17,7.17,0,0,0-5.16-1.76,7.3,7.3,0,0,0-5,1.55,5.54,5.54,0,0,0-1.76,4.37l-.68-5.86a11.26,11.26,0,0,1,4-4.25,10.52,10.52,0,0,1,5.53-1.49q5.44,0,8.43,3.24t3,9.16v18.46h-6.57V139.37Z"/><path class="cls-1" d="M623.45,155.91q-3.06-2.32-3.06-7.08c0-3,.93-5.26,2.8-6.77s4.69-2.26,8.48-2.26h9.51l.45,4.8H631.7a6,6,0,0,0-3.85,1,4.46,4.46,0,0,0,.42,6.61,9.5,9.5,0,0,0,5.14,1.11,16.16,16.16,0,0,0,5.62-.73,2.44,2.44,0,0,0,1.85-2.29l.68,4.28a7.36,7.36,0,0,1-2.14,2,9.91,9.91,0,0,1-2.95,1.19,16.09,16.09,0,0,1-3.77.4C628.57,158.24,625.49,157.46,623.45,155.91Zm17.43-17.39a6.07,6.07,0,0,0-1.76-4.64,7,7,0,0,0-5-1.66,14.07,14.07,0,0,0-3.92.56,12.18,12.18,0,0,0-3.4,1.55l-4.8-3a12.58,12.58,0,0,1,5-3.24,19.72,19.72,0,0,1,6.91-1.16,17.24,17.24,0,0,1,7.12,1.33,9.83,9.83,0,0,1,4.51,3.87,11.53,11.53,0,0,1,1.55,6.11v19.54h-6.25V138.52Z"/><path class="cls-1" d="M657.85,127.39h15.08v5.39H657.85Zm5.33,28.52c-1.26-1.36-1.89-3.36-1.89-6V118.54h6.57V150a2.68,2.68,0,0,0,.48,1.71,1.71,1.71,0,0,0,1.42.6h3.16v5.68h-3.8Q665.07,158,663.18,155.91Z"/><path class="cls-1" d="M691.83,145.88a6.61,6.61,0,0,0,1.79,4.94,6.92,6.92,0,0,0,5,1.74,7.39,7.39,0,0,0,5-1.55,5.58,5.58,0,0,0,1.77-4.42l.45,6.36a9,9,0,0,1-3.35,3.78,10.14,10.14,0,0,1-5.7,1.52q-5.55,0-8.56-3.24t-3-9.13V127.39h6.57Zm13.6-18.49H712V157.8h-6.54Z"/><path class="cls-1" d="M725.26,127.39h6.57V157.8h-6.57Zm16.21,5.74a8.69,8.69,0,0,0-3.06-.5,6.94,6.94,0,0,0-4.85,1.57,5.58,5.58,0,0,0-1.72,4.35l-.68-5.86a11.41,11.41,0,0,1,4-4.23,10.08,10.08,0,0,1,5.41-1.51,13.35,13.35,0,0,1,4.14.6,9.61,9.61,0,0,1,3.24,1.77l-4.29,5.27A5.63,5.63,0,0,0,741.47,133.13Z"/><path class="cls-1" d="M765.78,158.24l-3.29-1.58a11.11,11.11,0,0,1-5-4.64,14.86,14.86,0,0,1-1.72-7.4v-3.43a16.5,16.5,0,0,1,1.66-7.71,11.2,11.2,0,0,1,4.82-4.86,16.14,16.14,0,0,1,7.61-1.67,12.93,12.93,0,0,1,7.15,1.9,12,12,0,0,1,4.53,5.51,21.65,21.65,0,0,1,1.56,8.64v2H760.53v-4.8h16.31a9.67,9.67,0,0,0-2.11-5.79,6.17,6.17,0,0,0-4.88-2.07,7.43,7.43,0,0,0-5.78,2.23,8.93,8.93,0,0,0-2.05,6.3v3.87a7.5,7.5,0,0,0,2.19,5.8,8.82,8.82,0,0,0,6.22,2,11.22,11.22,0,0,0,4-.73,11.61,11.61,0,0,0,3.51-2.05l4.32,3.93a18.2,18.2,0,0,1-5.58,3.35,17.33,17.33,0,0,1-6.22,1.19Z"/></svg>