<?xml version="1.0" encoding="utf-8"?>
<!-- Generator: Adobe Illustrator 23.0.0, SVG Export Plug-In . SVG Version: 6.00 Build 0)  -->
<svg version="1.1" id="레이어_1" xmlns="http://www.w3.org/2000/svg" xmlns:xlink="http://www.w3.org/1999/xlink" x="0px"
	 y="0px" viewBox="0 0 676.06 187" style="enable-background:new 0 0 676.06 187;" xml:space="preserve">
<style type="text/css">
	.st0{fill:#FDD000;}
	.st1{font-family:'Garamond';}
	.st2{font-size:53.5121px;}
</style>
<g>
	<g>
		<path class="st0" d="M46.63,152.03c-20.07-4.96-30.97,3.52-30.97,3.52v17.67h99.2c1.63-11.69,7.75-23,7.75-23
			S98.73,164.9,46.63,152.03z"/>
		<path class="st0" d="M149.59,53.25c-26.74-5.71-47.34-13.5-79.6-2.68c-33.25,11.14-54.3,62.48-54.3,62.48v16.49
			c0,0,13.06-6.55,32.21-2.46c26.74,5.73,47.34,13.5,79.62,2.7c33.23-11.14,54.3-62.48,54.3-62.48V50.81
			C181.79,50.83,168.73,57.38,149.59,53.25z"/>
		<path class="st0" d="M154.76,137.18c-14.17,15.37-12.02,35.24-11.92,36.02h38.95v-54.87
			C181.79,118.33,168.46,122.31,154.76,137.18z"/>
		<path class="st0" d="M82.62,7.12c-1.63,11.71-7.77,23.04-7.77,23.04s23.9-14.68,76-1.81c20.05,4.98,30.95-3.52,30.95-3.52V7.08
			L82.62,7.12z"/>
		<path class="st0" d="M15.67,62.05c0,0,13.36-3.97,27.03-18.85C57.16,27.5,54.62,7.08,54.62,7.08H15.67V62.05z"/>
	</g>
	<rect x="220.41" y="107.69" width="433.77" height="3.92"/>
	<g>
		<text transform="matrix(0.95 0 0 1 220.4215 165.2956)" class="st1 st2">Made of Full Natural</text>
	</g>
	<g>
		<g>
			<path d="M238.63,90.99h-6.16V74.56L215.16,50.2h7.22l13.14,19.6l13.12-19.6h7.28l-17.29,24.36V90.99z"/>
			<path d="M291.42,90.99h-6.2v-40.8h6.2V90.99z"/>
			<path d="M344.1,90.99h-6.14V74.56L320.63,50.2h7.2l13.12,19.6l13.18-19.6h7.3l-17.31,24.36v16.43H344.1z"/>
			<path d="M389.92,79.12l-4.76,11.86h-6.39L396,50.18h7l16.6,40.8h-6.77l-4.53-11.86H389.92z M406.1,74.2l-6.81-17.96h-0.14
				l-7.32,17.96H406.1z"/>
			<path d="M478.06,50.18h6.18v40.8h-6.18V71.94H454.1v19.04h-6.16v-40.8h6.16v16.88h23.96V50.18z"/>
		</g>
	</g>
	<g>
		<g>
			<path d="M519.75,73.04h3.88v17.94h-3.88V73.04z M531.73,80.11c0-1.26-0.35-2.24-1.08-2.93c-0.73-0.69-1.73-1.04-3.05-1.04
				c-1.26,0-2.24,0.31-2.93,0.92s-1.04,1.48-1.04,2.58l-0.39-3.46c0.61-1.08,1.4-1.93,2.38-2.5c0.98-0.59,2.07-0.89,3.27-0.89
				c2.14,0,3.8,0.63,4.98,1.91c1.18,1.28,1.75,3.07,1.75,5.41v10.9h-3.88V80.11z"/>
			<path d="M544.31,89.86c-1.2-0.92-1.81-2.3-1.81-4.17c0-1.77,0.55-3.11,1.65-3.99s2.77-1.34,5-1.34h5.61l0.28,2.83h-5.86
				c-1.02,0-1.77,0.2-2.28,0.61c-0.51,0.41-0.75,1.04-0.75,1.87c0,0.91,0.33,1.59,1,2.03c0.67,0.43,1.67,0.65,3.03,0.65
				c1.48,0,2.6-0.14,3.32-0.43c0.73-0.3,1.1-0.75,1.1-1.36l0.39,2.52c-0.33,0.49-0.77,0.89-1.26,1.2c-0.49,0.31-1.08,0.55-1.73,0.71
				c-0.65,0.16-1.4,0.24-2.22,0.24C547.34,91.24,545.51,90.79,544.31,89.86z M554.6,79.61c0-1.18-0.35-2.09-1.04-2.73
				c-0.69-0.65-1.67-0.98-2.93-0.98c-0.79,0-1.55,0.12-2.3,0.33s-1.42,0.53-2.01,0.92l-2.83-1.77c0.75-0.83,1.73-1.46,2.95-1.91
				c1.22-0.45,2.58-0.69,4.07-0.69c1.63,0,3.03,0.26,4.21,0.79c1.18,0.53,2.05,1.28,2.66,2.28c0.61,1,0.9,2.2,0.9,3.6v11.53h-3.7
				V79.61H554.6z"/>
			<path d="M564.61,73.04h8.91v3.19h-8.91V73.04z M567.76,89.86c-0.75-0.81-1.12-1.99-1.12-3.56V67.81h3.88v18.53
				c0,0.43,0.1,0.77,0.28,1s0.47,0.35,0.85,0.35h1.87v3.36h-2.24C569.67,91.06,568.5,90.67,567.76,89.86z"/>
			<path d="M584.68,83.94c0,1.26,0.35,2.22,1.06,2.91c0.71,0.69,1.69,1.02,2.97,1.02c1.26,0,2.24-0.31,2.95-0.92
				c0.71-0.61,1.04-1.48,1.04-2.62l0.28,3.76c-0.41,0.89-1.06,1.63-1.99,2.22c-0.9,0.59-2.05,0.91-3.36,0.91
				c-2.18,0-3.86-0.63-5.06-1.91c-1.2-1.28-1.77-3.07-1.77-5.39V73h3.88L584.68,83.94L584.68,83.94z M592.7,73.04h3.86v17.94h-3.86
				V73.04z"/>
			<path d="M604.41,73.04h3.88v17.94h-3.88V73.04z M613.97,76.43c-0.51-0.2-1.12-0.3-1.81-0.3c-1.24,0-2.18,0.31-2.87,0.92
				c-0.67,0.61-1.02,1.48-1.02,2.56l-0.39-3.46c0.61-1.06,1.4-1.91,2.36-2.5c0.96-0.59,2.03-0.89,3.19-0.89
				c0.9,0,1.71,0.12,2.44,0.35c0.73,0.24,1.36,0.59,1.91,1.04l-2.54,3.11C614.92,76.92,614.48,76.62,613.97,76.43z"/>
			<path d="M628.31,91.24c0,0-0.65-0.31-1.95-0.92c-1.3-0.63-2.28-1.53-2.95-2.73c-0.67-1.2-1.02-2.66-1.02-4.37v-2.03
				c0-1.77,0.33-3.29,0.98-4.54c0.65-1.26,1.59-2.22,2.85-2.87c1.26-0.65,2.73-0.98,4.49-0.98c1.65,0,3.05,0.37,4.23,1.12
				c1.18,0.75,2.07,1.83,2.68,3.25c0.61,1.42,0.92,3.11,0.92,5.1v1.18h-13.32V80.6h9.62c-0.12-1.46-0.53-2.6-1.24-3.42
				c-0.71-0.83-1.67-1.22-2.87-1.22c-1.48,0-2.62,0.43-3.42,1.32s-1.2,2.12-1.2,3.72v2.28c0,1.5,0.43,2.64,1.3,3.42
				c0.87,0.79,2.09,1.2,3.68,1.2c0.79,0,1.55-0.14,2.34-0.43c0.79-0.3,1.48-0.69,2.07-1.22l2.56,2.32
				c-0.98,0.85-2.07,1.51-3.29,1.99s-2.44,0.71-3.68,0.71C629.24,91.24,628.31,91.24,628.31,91.24z"/>
		</g>
	</g>
</g>
</svg>
