<?xml version="1.0" encoding="utf-8"?>
<!-- Generator: Adobe Illustrator 23.0.0, SVG Export Plug-In . SVG Version: 6.00 Build 0)  -->
<svg version="1.1" id="레이어_1" xmlns="http://www.w3.org/2000/svg" xmlns:xlink="http://www.w3.org/1999/xlink" x="0px"
	 y="0px" viewBox="0 0 392.4 593.9" style="enable-background:new 0 0 392.4 593.9;" xml:space="preserve">
<style type="text/css">
	.st0{fill:#FDD000;}
	.st1{fill:none;stroke:#FDD000;stroke-width:5;stroke-miterlimit:10;}
	.st2{fill:#696A63;}
	.st3{fill:#DEDFDF;}
	.st4{fill:#EFE526;}
	.st5{fill:#040000;}
	.st6{fill:#EFE435;}
	.st7{fill:none;stroke:#EFE526;stroke-width:5;stroke-miterlimit:10;}
	.st8{font-family:'Garamond';}
	.st9{font-size:34.3607px;}
</style>
<g>
	<g>
		<g>
			<path class="st0" d="M-989,168.2c-19.7-4.9-30.3,3.4-30.3,3.4V189h97.2c1.6-11.4,7.6-22.5,7.6-22.5S-937.9,180.9-989,168.2z"/>
			<path class="st0" d="M-888,71.4c-26.2-5.6-46.4-13.2-78-2.6c-32.6,10.9-53.2,61.3-53.2,61.3v16.2c0,0,12.8-6.4,31.6-2.4
				c26.2,5.6,46.4,13.2,78,2.6c32.6-10.9,53.2-61.3,53.2-61.3V69C-856.5,69-869.3,75.4-888,71.4z"/>
			<path class="st0" d="M-883,153.7c-13.9,15.1-11.8,34.5-11.7,35.3h38.2v-53.8C-856.5,135.2-869.5,139.1-883,153.7z"/>
			<path class="st0" d="M-953.7,26.2c-1.6,11.5-7.6,22.6-7.6,22.6s23.4-14.4,74.5-1.8c19.7,4.9,30.3-3.5,30.3-3.5V26.2L-953.7,26.2z
				"/>
			<path class="st0" d="M-1019.3,80c0,0,13.1-3.9,26.5-18.5c14.2-15.4,11.7-35.4,11.7-35.4h-38.2V80z"/>
		</g>
		<rect x="-1028.9" y="17.4" class="st1" width="181.7" height="181.6"/>
	</g>
	<g>
		<path class="st0" d="M-434.1,164.6c-19.7-4.9-30.4,3.4-30.4,3.4v17.3h97.2c1.6-11.4,7.6-22.5,7.6-22.5S-383.1,177.2-434.1,164.6z"
			/>
		<path class="st0" d="M-333.2,67.8c-26.2-5.6-46.4-13.2-78-2.6c-32.6,10.9-53.2,61.3-53.2,61.3v16.2c0,0,12.8-6.4,31.6-2.4
			c26.2,5.6,46.4,13.2,78.1,2.6c32.6-10.9,53.2-61.3,53.2-61.3V65.4C-301.7,65.4-314.5,71.8-333.2,67.8z"/>
		<path class="st0" d="M-328.1,150.1c-13.9,15.1-11.8,34.5-11.7,35.3h38.2v-53.8C-301.7,131.6-314.7,135.5-328.1,150.1z"/>
		<path class="st0" d="M-398.9,22.5c-1.6,11.5-7.6,22.6-7.6,22.6s23.4-14.4,74.5-1.8c19.6,4.9,30.3-3.4,30.3-3.4V22.5L-398.9,22.5z"
			/>
		<path class="st0" d="M-464.5,76.4c0,0,13.1-3.9,26.5-18.5c14.2-15.4,11.7-35.4,11.7-35.4h-38.2V76.4z"/>
	</g>
	<g>
		<g>
			<path d="M-449.6,236.2h-3.7v-9.8l-10.3-14.5h4.3l7.8,11.7l7.8-11.7h4.3l-10.3,14.5L-449.6,236.2L-449.6,236.2z"/>
			<path d="M-418.1,236.2h-3.7v-24.3h3.7V236.2z"/>
			<path d="M-386.8,236.2h-3.7v-9.8l-10.3-14.5h4.3l7.8,11.7l7.9-11.7h4.3l-10.3,14.5L-386.8,236.2L-386.8,236.2z"/>
			<path d="M-359.5,229.1l-2.8,7.1h-3.8l10.3-24.3h4.2l9.9,24.3h-4l-2.7-7.1H-359.5z M-349.8,226.2l-4-10.7h-0.1l-4.4,10.7H-349.8z"
				/>
			<path d="M-307,211.9h3.7v24.3h-3.7v-11.4h-14.3v11.4h-3.7v-24.3h3.7v10.1h14.3V211.9z"/>
		</g>
	</g>
	<g>
		<g>
			<polygon points="-303.3,246.4 -462.9,246.4 -462.9,244.8 -303.3,244.8 			"/>
		</g>
	</g>
	<rect x="-474.1" y="13.8" class="st1" width="181.7" height="181.6"/>
	<g>
		<text transform="matrix(0.95 0 0 1 -463.5771 263.2783)" class="st8" style="font-size:16.366px;">Real Beauty by Full Natural</text>
	</g>
	<g>
		<path class="st0" d="M-712.8,160.2c-19.7-4.9-30.3,3.4-30.3,3.4V181h97.2c1.6-11.4,7.6-22.5,7.6-22.5S-661.7,172.8-712.8,160.2z"
			/>
		<path class="st0" d="M-611.9,63.4c-26.2-5.6-46.4-13.2-78-2.6c-32.6,10.9-53.2,61.3-53.2,61.3v16.2c0,0,12.8-6.4,31.6-2.4
			c26.2,5.6,46.4,13.2,78,2.6c32.6-10.9,53.2-61.3,53.2-61.3V61C-580.3,61-593.1,67.4-611.9,63.4z"/>
		<path class="st0" d="M-606.8,145.7c-13.9,15.1-11.8,34.5-11.7,35.3h38.2v-53.8C-580.3,127.2-593.4,131.1-606.8,145.7z"/>
		<path class="st0" d="M-677.5,18.2c-1.6,11.5-7.6,22.6-7.6,22.6s23.4-14.4,74.5-1.8c19.7,4.9,30.3-3.4,30.3-3.4V18.1L-677.5,18.2z"
			/>
		<path class="st0" d="M-743.1,72c0,0,13.1-3.9,26.5-18.5c14.2-15.4,11.7-35.4,11.7-35.4h-38.2V72z"/>
	</g>
	<g>
		<g>
			<path d="M-728.2,225.8h-3.7V216l-10.3-14.5h4.3l7.8,11.7l7.8-11.7h4.3l-10.3,14.5L-728.2,225.8L-728.2,225.8z"/>
			<path d="M-696.8,225.8h-3.7v-24.3h3.7V225.8z"/>
			<path d="M-665.4,225.8h-3.7V216l-10.3-14.5h4.3l7.8,11.7l7.8-11.7h4.3l-10.3,14.5V225.8z"/>
			<path d="M-638.1,218.7l-2.8,7.1h-3.8l10.3-24.3h4.2l9.9,24.3h-4l-2.7-7.1H-638.1z M-628.5,215.8l-4-10.7h-0.1l-4.4,10.7H-628.5z"
				/>
			<path d="M-585.6,201.5h3.7v24.3h-3.7v-11.4h-14.3v11.4h-3.7v-24.3h3.7v10.1h14.3V201.5z"/>
		</g>
	</g>
	<g>
		<g>
			<polygon points="-581.9,236 -741.5,236 -741.5,234.4 -581.9,234.4 			"/>
		</g>
	</g>
	<g>
		<text transform="matrix(0.95 0 0 1 -742.2231 252.8887)" class="st8" style="font-size:16.366px;">Real Beauty by Full Natural</text>
	</g>
	<g>
		<g>
			<path class="st2" d="M1078.4,64.8c0.9-1.3,2.1-2.3,3.6-3c1.5-0.7,3.3-1,5.3-1c2.6,0,4.8,0.4,6.5,1.3c1.8,0.8,3,2.1,3.7,3.6
				c1-1.6,2.3-2.8,3.9-3.7c1.6-0.8,3.4-1.2,5.6-1.2c3.5,0,6.2,0.7,8,2.2c1.8,1.4,2.8,3.5,2.8,6.2v24.2h-11.3V71.6
				c0-2.1-0.3-3.5-0.8-4.3c-0.6-0.8-1.5-1.1-2.8-1.1c-1.4,0-2.6,0.4-3.5,1.2c-0.9,0.8-1.3,1.9-1.3,3.3v22.6h-11.3V71.6
				c0-2.1-0.3-3.5-0.8-4.3c-0.6-0.8-1.5-1.2-2.9-1.2c-1.4,0-2.6,0.4-3.5,1.2c-0.9,0.8-1.3,1.9-1.3,3.3v22.6h-11.2V67.2
				c0-1.5,0-2.6-0.1-3.4c-0.1-0.8-0.1-1.6-0.3-2.3h11.3L1078.4,64.8z"/>
			<path class="st2" d="M1125.9,69.8v-0.6c0-2.8,1.3-4.9,4-6.3s6.6-2.2,11.7-2.2c5.1,0,8.8,0.7,11.2,2.2c2.4,1.5,3.6,3.8,3.6,7v15.8
				c0,1.4,0.1,2.7,0.2,4c0.1,1.3,0.3,2.4,0.6,3.5h-10l-0.9-3.6c-1,1.2-2.5,2.1-4.5,2.8c-2,0.7-4.1,1.1-6.3,1.1
				c-3.3,0-5.9-0.9-7.8-2.7c-1.9-1.8-2.9-4.2-2.9-7.3c0-3.6,1.4-6.2,4.2-7.9c2.8-1.7,7.3-2.7,13.5-3h3.5v-1.4c0-2.2-0.3-3.7-1-4.6
				c-0.7-0.9-1.8-1.3-3.4-1.3c-1.8,0-3.1,0.4-4,1.1s-1.3,1.9-1.3,3.3L1125.9,69.8L1125.9,69.8z M1146.1,77.5c-4,0-6.8,0.4-8.3,1.3
				c-1.5,0.9-2.3,2.4-2.3,4.5c0,1.6,0.4,2.8,1.2,3.7s1.8,1.3,3.2,1.3c2,0,3.6-0.7,4.7-2.1c1.1-1.4,1.6-3.3,1.6-5.9L1146.1,77.5
				L1146.1,77.5z"/>
			<path class="st2" d="M1164.5,93.3V45.1h11.1v48.2H1164.5z"/>
			<path class="st2" d="M1183.4,93.3V45.1h11.1v48.2H1183.4z"/>
		</g>
		<path class="st2" d="M1115.6,64.6l-0.4,0c-0.2-1.3-0.8-2.8-0.8-2.8c-0.2-0.8-1.2-4.4,1.9-7.9c2.9-3.4,9.2-3.6,10.6-7.5
			c0.3,0.5,0.7,1.9,0.7,3c0.2,3.8-1.3,7.1-3.7,9.4c-2.1,2-3.6,2.8-5.7,3.8l-0.8,0.4c-0.2-2.1,0.8-3.8,0.8-3.8
			c1.7-2.8,3.1-3.9,4.7-5.1c2.5-1.9,2.9-4.3,2.9-4.3c-2.2,3.1-5.5,3.9-7.7,6.2C1118,55.9,1114.6,59,1115.6,64.6z"/>
	</g>
	<text transform="matrix(1 0 0 1 1120.7651 179.7505)" style="font-family:'ArialMT'; font-size:13.7867px; letter-spacing:1;">TM</text>
	<g>
		<g>
			<path class="st3" d="M-1014.7-725.5c-10.4-2.6-16,1.8-16,1.8v9.1h51.3c0.8-6,4-11.9,4-11.9S-987.8-718.9-1014.7-725.5z"/>
			<path class="st3" d="M-961.5-776.6c-13.8-3-24.5-7-41.2-1.4c-17.2,5.8-28.1,32.3-28.1,32.3v8.5c0,0,6.8-3.4,16.7-1.3
				c13.8,3,24.5,7,41.2,1.4c17.2-5.8,28.1-32.3,28.1-32.3v-8.5C-944.8-777.9-951.6-774.5-961.5-776.6z"/>
			<path class="st3" d="M-958.8-733.2c-7.3,8-6.2,18.2-6.2,18.6h20.1V-743C-944.8-743-951.7-740.9-958.8-733.2z"/>
			<path class="st3" d="M-996.1-800.5c-0.8,6-4,11.9-4,11.9s12.4-7.6,39.3-0.9c10.4,2.6,16-1.8,16-1.8v-9.2L-996.1-800.5z"/>
			<path class="st3" d="M-1030.7-772c0,0,6.9-2.1,14-9.8c7.5-8.1,6.2-18.7,6.2-18.7h-20.1V-772z"/>
		</g>
	</g>
	<g>
		<g>
			<path class="st3" d="M-874.9-725.5c10.4-2.6,16,1.8,16,1.8v9.1h-51.3c-0.9-6-4-11.9-4-11.9S-901.9-718.9-874.9-725.5z"/>
			<path class="st3" d="M-928.2-776.6c13.8-3,24.5-7,41.2-1.4c17.2,5.8,28.1,32.3,28.1,32.3v8.5c0,0-6.8-3.4-16.7-1.3
				c-13.8,3-24.5,7-41.2,1.4c-17.2-5.8-28.1-32.3-28.1-32.3v-8.5C-944.8-777.9-938.1-774.5-928.2-776.6z"/>
			<path class="st3" d="M-930.8-733.2c7.3,8,6.2,18.2,6.2,18.6h-20.2V-743C-944.8-743-937.9-740.9-930.8-733.2z"/>
			<path class="st3" d="M-893.5-800.5c0.8,6,4,11.9,4,11.9s-12.4-7.6-39.3-0.9c-10.4,2.6-16-1.8-16-1.8v-9.2L-893.5-800.5z"/>
			<path class="st3" d="M-858.9-772c0,0-6.9-2.1-14-9.8c-7.5-8.1-6.2-18.7-6.2-18.7h20.2L-858.9-772L-858.9-772z"/>
		</g>
	</g>
	<g>
		<g>
			<path class="st3" d="M-1014.7-703.6c-10.4,2.6-16-1.8-16-1.8v-9.1h51.3c0.8,6,4,11.9,4,11.9S-987.8-710.3-1014.7-703.6z"/>
			<path class="st3" d="M-961.5-652.5c-13.8,3-24.5,7-41.2,1.4c-17.2-5.8-28.1-32.3-28.1-32.3v-8.5c0,0,6.8,3.4,16.7,1.3
				c13.8-3,24.5-7,41.2-1.4c17.2,5.8,28.1,32.3,28.1,32.3v8.5C-944.8-651.3-951.6-654.7-961.5-652.5z"/>
			<path class="st3" d="M-958.8-695.9c-7.3-8-6.2-18.2-6.2-18.6h20.1v28.4C-944.8-686.2-951.7-688.3-958.8-695.9z"/>
			<path class="st3" d="M-996.1-628.7c-0.8-6-4-11.9-4-11.9s12.4,7.6,39.3,0.9c10.4-2.6,16,1.8,16,1.8v9.2L-996.1-628.7z"/>
			<path class="st3" d="M-1030.7-657.1c0,0,6.9,2.1,14,9.8c7.5,8.1,6.2,18.7,6.2,18.7h-20.1V-657.1z"/>
		</g>
	</g>
	<g>
		<g>
			<path class="st3" d="M-874.9-703.6c10.4,2.6,16-1.8,16-1.8v-9.1h-51.3c-0.9,6-4,11.9-4,11.9S-901.9-710.3-874.9-703.6z"/>
			<path class="st3" d="M-928.2-652.5c13.8,3,24.5,7,41.2,1.4c17.2-5.8,28.1-32.3,28.1-32.3v-8.5c0,0-6.8,3.4-16.7,1.3
				c-13.8-3-24.5-7-41.2-1.4c-17.2,5.8-28.1,32.3-28.1,32.3v8.5C-944.8-651.3-938.1-654.7-928.2-652.5z"/>
			<path class="st3" d="M-930.8-695.9c7.3-8,6.2-18.2,6.2-18.6h-20.2v28.4C-944.8-686.2-937.9-688.3-930.8-695.9z"/>
			<path class="st3" d="M-893.5-628.7c0.8-6,4-11.9,4-11.9s-12.4,7.6-39.3,0.9c-10.4-2.6-16,1.8-16,1.8v9.2L-893.5-628.7z"/>
			<path class="st3" d="M-858.9-657.1c0,0-6.9,2.1-14,9.8c-7.5,8.1-6.2,18.7-6.2,18.7h20.2L-858.9-657.1L-858.9-657.1z"/>
		</g>
	</g>
	<g>
		<g>
			<path class="st3" d="M-1014.7-554.1c-10.4-2.6-16,1.8-16,1.8v9.1h51.3c0.8-6,4-11.9,4-11.9S-987.8-547.5-1014.7-554.1z"/>
			<path class="st3" d="M-961.5-605.2c-13.8-3-24.5-7-41.2-1.4c-17.2,5.8-28.1,32.3-28.1,32.3v8.5c0,0,6.8-3.4,16.7-1.3
				c13.8,3,24.5,7,41.2,1.4c17.2-5.8,28.1-32.3,28.1-32.3v-8.5C-944.8-606.5-951.6-603.1-961.5-605.2z"/>
			<path class="st3" d="M-958.8-561.8c-7.3,8-6.2,18.2-6.2,18.6h20.1v-28.4C-944.8-571.6-951.7-569.5-958.8-561.8z"/>
			<path class="st3" d="M-996.1-629.1c-0.8,6-4,11.9-4,11.9s12.4-7.6,39.3-0.9c10.4,2.6,16-1.8,16-1.8v-9.2L-996.1-629.1z"/>
			<path class="st3" d="M-1030.7-600.7c0,0,6.9-2.1,14-9.8c7.5-8.1,6.2-18.7,6.2-18.7h-20.1V-600.7z"/>
		</g>
	</g>
	<g>
		<g>
			<path class="st3" d="M-874.9-554.1c10.4-2.6,16,1.8,16,1.8v9.1h-51.3c-0.9-6-4-11.9-4-11.9S-901.9-547.5-874.9-554.1z"/>
			<path class="st3" d="M-928.2-605.2c13.8-3,24.5-7,41.2-1.4c17.2,5.8,28.1,32.3,28.1,32.3v8.5c0,0-6.8-3.4-16.7-1.3
				c-13.8,3-24.5,7-41.2,1.4c-17.2-5.8-28.1-32.3-28.1-32.3v-8.5C-944.8-606.5-938.1-603.1-928.2-605.2z"/>
			<path class="st3" d="M-930.8-561.8c7.3,8,6.2,18.2,6.2,18.6h-20.2v-28.4C-944.8-571.6-937.9-569.5-930.8-561.8z"/>
			<path class="st3" d="M-893.5-629.1c0.8,6,4,11.9,4,11.9s-12.4-7.6-39.3-0.9c-10.4,2.6-16-1.8-16-1.8v-9.2L-893.5-629.1z"/>
			<path class="st3" d="M-858.9-600.7c0,0-6.9-2.1-14-9.8c-7.5-8.1-6.2-18.7-6.2-18.7h20.2L-858.9-600.7L-858.9-600.7z"/>
		</g>
	</g>
	<g>
		<g>
			<path class="st3" d="M-703.1-725.5c10.4-2.6,16,1.8,16,1.8v9.1h-51.3c-0.8-6-4-11.9-4-11.9S-730-718.9-703.1-725.5z"/>
			<path class="st3" d="M-756.3-776.6c13.8-3,24.5-7,41.2-1.4c17.2,5.8,28.1,32.3,28.1,32.3v8.5c0,0-6.8-3.4-16.7-1.3
				c-13.8,3-24.5,7-41.2,1.4c-17.2-5.8-28.1-32.3-28.1-32.3v-8.5C-773-777.9-766.3-774.5-756.3-776.6z"/>
			<path class="st3" d="M-759-733.2c7.3,8,6.2,18.2,6.2,18.6H-773V-743C-773-743-766.1-740.9-759-733.2z"/>
			<path class="st3" d="M-721.7-800.5c0.8,6,4,11.9,4,11.9s-12.4-7.6-39.3-0.9c-10.4,2.6-16-1.8-16-1.8v-9.2L-721.7-800.5z"/>
			<path class="st3" d="M-687.1-772c0,0-6.9-2.1-14-9.8c-7.5-8.1-6.2-18.7-6.2-18.7h20.2L-687.1-772L-687.1-772z"/>
		</g>
	</g>
	<g>
		<g>
			<path class="st3" d="M-842.9-725.5c-10.4-2.6-16,1.8-16,1.8v9.1h51.3c0.9-6,4-11.9,4-11.9S-815.9-718.9-842.9-725.5z"/>
			<path class="st3" d="M-789.7-776.6c-13.8-3-24.5-7-41.2-1.4c-17.2,5.8-28.1,32.3-28.1,32.3v8.5c0,0,6.8-3.4,16.7-1.3
				c13.8,3,24.5,7,41.2,1.4c17.2-5.8,28.1-32.3,28.1-32.3v-8.5C-773-777.9-779.7-774.5-789.7-776.6z"/>
			<path class="st3" d="M-787-733.2c-7.3,8-6.2,18.2-6.2,18.6h20.2V-743C-773-743-779.9-740.9-787-733.2z"/>
			<path class="st3" d="M-824.3-800.5c-0.8,6-4,11.9-4,11.9s12.4-7.6,39.3-0.9c10.4,2.6,16-1.8,16-1.8v-9.2L-824.3-800.5z"/>
			<path class="st3" d="M-858.9-772c0,0,6.9-2.1,14-9.8c7.5-8.1,6.2-18.7,6.2-18.7h-20.2L-858.9-772L-858.9-772z"/>
		</g>
	</g>
	<g>
		<g>
			<path class="st3" d="M-703.1-703.6c10.4,2.6,16-1.8,16-1.8v-9.1h-51.3c-0.8,6-4,11.9-4,11.9S-730-710.3-703.1-703.6z"/>
			<path class="st3" d="M-756.3-652.5c13.8,3,24.5,7,41.2,1.4c17.2-5.8,28.1-32.3,28.1-32.3v-8.5c0,0-6.8,3.4-16.7,1.3
				c-13.8-3-24.5-7-41.2-1.4c-17.2,5.8-28.1,32.3-28.1,32.3v8.5C-773-651.3-766.3-654.7-756.3-652.5z"/>
			<path class="st3" d="M-759-695.9c7.3-8,6.2-18.2,6.2-18.6H-773v28.4C-773-686.2-766.1-688.3-759-695.9z"/>
			<path class="st3" d="M-721.7-628.7c0.8-6,4-11.9,4-11.9s-12.4,7.6-39.3,0.9c-10.4-2.6-16,1.8-16,1.8v9.2L-721.7-628.7z"/>
			<path class="st3" d="M-687.1-657.1c0,0-6.9,2.1-14,9.8c-7.5,8.1-6.2,18.7-6.2,18.7h20.2L-687.1-657.1L-687.1-657.1z"/>
		</g>
	</g>
	<g>
		<g>
			<path class="st3" d="M-842.9-703.6c-10.4,2.6-16-1.8-16-1.8v-9.1h51.3c0.9,6,4,11.9,4,11.9S-815.9-710.3-842.9-703.6z"/>
			<path class="st3" d="M-789.7-652.5c-13.8,3-24.5,7-41.2,1.4c-17.2-5.8-28.1-32.3-28.1-32.3v-8.5c0,0,6.8,3.4,16.7,1.3
				c13.8-3,24.5-7,41.2-1.4c17.2,5.8,28.1,32.3,28.1,32.3v8.5C-773-651.3-779.7-654.7-789.7-652.5z"/>
			<path class="st3" d="M-787-695.9c-7.3-8-6.2-18.2-6.2-18.6h20.2v28.4C-773-686.2-779.9-688.3-787-695.9z"/>
			<path class="st3" d="M-824.3-628.7c-0.8-6-4-11.9-4-11.9s12.4,7.6,39.3,0.9c10.4-2.6,16,1.8,16,1.8v9.2L-824.3-628.7z"/>
			<path class="st3" d="M-858.9-657.1c0,0,6.9,2.1,14,9.8c7.5,8.1,6.2,18.7,6.2,18.7h-20.2L-858.9-657.1L-858.9-657.1z"/>
		</g>
	</g>
	<g>
		<g>
			<path class="st3" d="M-703.1-554.1c10.4-2.6,16,1.8,16,1.8v9.1h-51.3c-0.8-6-4-11.9-4-11.9S-730-547.5-703.1-554.1z"/>
			<path class="st3" d="M-756.3-605.2c13.8-3,24.5-7,41.2-1.4c17.2,5.8,28.1,32.3,28.1,32.3v8.5c0,0-6.8-3.4-16.7-1.3
				c-13.8,3-24.5,7-41.2,1.4c-17.2-5.8-28.1-32.3-28.1-32.3v-8.5C-773-606.5-766.3-603.1-756.3-605.2z"/>
			<path class="st3" d="M-759-561.8c7.3,8,6.2,18.2,6.2,18.6H-773v-28.4C-773-571.6-766.1-569.5-759-561.8z"/>
			<path class="st3" d="M-721.7-629.1c0.8,6,4,11.9,4,11.9s-12.4-7.6-39.3-0.9c-10.4,2.6-16-1.8-16-1.8v-9.2L-721.7-629.1z"/>
			<path class="st3" d="M-687.1-600.7c0,0-6.9-2.1-14-9.8c-7.5-8.1-6.2-18.7-6.2-18.7h20.2L-687.1-600.7L-687.1-600.7z"/>
		</g>
	</g>
	<g>
		<g>
			<path class="st3" d="M-842.9-554.1c-10.4-2.6-16,1.8-16,1.8v9.1h51.3c0.9-6,4-11.9,4-11.9S-815.9-547.5-842.9-554.1z"/>
			<path class="st3" d="M-789.7-605.2c-13.8-3-24.5-7-41.2-1.4c-17.2,5.8-28.1,32.3-28.1,32.3v8.5c0,0,6.8-3.4,16.7-1.3
				c13.8,3,24.5,7,41.2,1.4c17.2-5.8,28.1-32.3,28.1-32.3v-8.5C-773-606.5-779.7-603.1-789.7-605.2z"/>
			<path class="st3" d="M-787-561.8c-7.3,8-6.2,18.2-6.2,18.6h20.2v-28.4C-773-571.6-779.9-569.5-787-561.8z"/>
			<path class="st3" d="M-824.3-629.1c-0.8,6-4,11.9-4,11.9s12.4-7.6,39.3-0.9c10.4,2.6,16-1.8,16-1.8v-9.2L-824.3-629.1z"/>
			<path class="st3" d="M-858.9-600.7c0,0,6.9-2.1,14-9.8c7.5-8.1,6.2-18.7,6.2-18.7h-20.2L-858.9-600.7L-858.9-600.7z"/>
		</g>
	</g>
	<g>
		<g>
			<g>
				<path class="st4" d="M1764.2,86.9c-10.2-2.5-15.7,1.8-15.7,1.8v9h50.4c0.8-5.9,3.9-11.7,3.9-11.7S1790.7,93.5,1764.2,86.9z"/>
				<path class="st4" d="M1816.6,36.7c-13.6-2.9-24.1-6.9-40.5-1.4c-16.9,5.7-27.6,31.8-27.6,31.8v8.4c0,0,6.6-3.3,16.4-1.3
					c13.6,2.9,24.1,6.9,40.5,1.4c16.9-5.7,27.6-31.8,27.6-31.8v-8.4C1832.9,35.5,1826.3,38.8,1816.6,36.7z"/>
				<path class="st4" d="M1819.2,79.4c-7.2,7.8-6.1,17.9-6.1,18.3h19.8V69.8C1832.9,69.8,1826.2,71.8,1819.2,79.4z"/>
				<path class="st4" d="M1782.5,13.3c-0.8,5.9-3.9,11.7-3.9,11.7s12.2-7.5,38.6-0.9c10.2,2.5,15.7-1.8,15.7-1.8v-9L1782.5,13.3z"/>
				<path class="st4" d="M1748.5,41.2c0,0,6.8-2,13.7-9.6c7.3-8,6.1-18.4,6.1-18.4h-19.8V41.2z"/>
			</g>
			<rect x="1852.6" y="64.4" width="220.5" height="2"/>
			<g>
				<path d="M1862.2,34.6h-3v-8l-8.4-11.9h3.5l6.4,9.6l6.4-9.6h3.5l-8.4,11.9L1862.2,34.6L1862.2,34.6z"/>
				<path d="M1887.9,34.6h-3V14.8h3V34.6z"/>
				<path d="M1913.6,34.6h-3v-8l-8.4-11.9h3.5l6.4,9.6l6.4-9.6h3.6l-8.4,11.9L1913.6,34.6L1913.6,34.6z"/>
				<path d="M1935.9,28.9l-2.3,5.8h-3.1l8.4-19.9h3.4l8.1,19.9h-3.3l-2.2-5.8C1944.9,28.9,1935.9,28.9,1935.9,28.9z M1943.8,26.5
					l-3.3-8.8h-0.1l-3.6,8.8H1943.8z"/>
				<path d="M1978.8,14.8h3v19.9h-3v-9.3h-11.7v9.3h-3V14.8h3V23h11.7V14.8z"/>
			</g>
			<g>
				<text transform="matrix(0.95 0 0 1 1852.5781 93.667)" class="st8" style="font-size:27.1995px;">Made of Full Natural</text>
			</g>
			<g>
				<g>
					<path class="st5" d="M1931.8,39.9h2.8l10.7,15.4l-0.4,0.4V39.9h3v19.9h-2.8l-10.7-15.1l0.4-0.4v15.5h-3L1931.8,39.9
						L1931.8,39.9z"/>
				</g>
			</g>
			<g>
				<g>
					<path class="st5" d="M1966.1,39.9h2.6l8.1,19.9h-3.3l-6.1-16l-6.1,16h-3.3L1966.1,39.9z M1961.8,52.8h11.5v2.7h-11.5V52.8z"/>
				</g>
			</g>
			<g>
				<g>
					<path class="st5" d="M1981.5,39.9h15.4v2.7h-15.4V39.9z M1987.7,41.6h3.1v18.3h-3.1V41.6z"/>
				</g>
			</g>
			<g>
				<g>
					<path class="st5" d="M2009.9,59.2c-1.2-0.6-2-1.4-2.6-2.5s-0.9-2.4-0.9-4V39.9h3.1v12.8c0,1.5,0.4,2.6,1.2,3.4
						c0.8,0.8,1.9,1.2,3.4,1.2s2.6-0.4,3.4-1.2c0.8-0.8,1.2-1.9,1.2-3.4V39.9h3.1v12.7c0,1.6-0.3,2.9-0.9,4s-1.5,2-2.6,2.5
						c-1.2,0.6-2.5,0.9-4.2,0.9C2012.4,60,2011.1,59.7,2009.9,59.2z"/>
				</g>
			</g>
			<g>
				<g>
					<path class="st5" d="M2032.2,39.9h3.1v19.9h-3.1V39.9z M2033.5,48.8h7.5c0.6,0,1.1-0.1,1.6-0.4c0.4-0.3,0.8-0.6,1.1-1.1
						c0.2-0.5,0.4-1,0.4-1.6s-0.1-1.2-0.4-1.6c-0.3-0.5-0.6-0.8-1-1.1c-0.4-0.3-1-0.4-1.6-0.4h-7.5v-2.7h7.3c1.3,0,2.4,0.2,3.3,0.7
						c1,0.5,1.7,1.2,2.2,2s0.8,1.9,0.8,3c0,1.1-0.3,2.1-0.8,3s-1.3,1.5-2.2,2c-1,0.5-2.1,0.7-3.3,0.7h-7.3V48.8z M2039.5,50.8
						l3.1-0.6l5.6,9.6h-3.6L2039.5,50.8z"/>
				</g>
			</g>
			<g>
				<g>
					<path class="st5" d="M2057.9,39.9h3.1v19.9h-3.1V39.9z M2059.3,39.9h12.6v2.7h-12.6V39.9z M2059.3,48.6h10.9v2.7h-10.9V48.6z
						 M2059.3,57.2h12.6v2.7h-12.6V57.2z"/>
				</g>
			</g>
		</g>
		<g>
			<g>
				<g>
					<path class="st4" d="M1763.8,211.7c-10.2-2.5-15.7,1.8-15.7,1.8v9h50.4c0.8-5.9,3.9-11.7,3.9-11.7S1790.3,218.3,1763.8,211.7z"
						/>
					<path class="st4" d="M1816.1,161.5c-13.6-2.9-24.1-6.9-40.5-1.4c-16.9,5.7-27.6,31.8-27.6,31.8v8.4c0,0,6.6-3.3,16.4-1.3
						c13.6,2.9,24.1,6.9,40.5,1.4c16.9-5.7,27.6-31.8,27.6-31.8v-8.4C1832.5,160.3,1825.8,163.6,1816.1,161.5z"/>
					<path class="st4" d="M1818.8,204.2c-7.2,7.8-6.1,17.9-6.1,18.3h19.8v-27.9C1832.5,194.6,1825.7,196.6,1818.8,204.2z"/>
					<path class="st4" d="M1782.1,138.1c-0.8,5.9-3.9,11.7-3.9,11.7s12.2-7.5,38.6-0.9c10.2,2.5,15.7-1.8,15.7-1.8v-9L1782.1,138.1z
						"/>
					<path class="st4" d="M1748.1,166c0,0,6.8-2,13.7-9.6c7.3-8,6.1-18.4,6.1-18.4h-19.8V166z"/>
				</g>
				<rect x="1852.1" y="189.2" width="220.5" height="2"/>
				<g>
					<path d="M1861.7,159.5h-3v-8l-8.4-11.9h3.5l6.4,9.6l6.4-9.6h3.5l-8.4,11.9L1861.7,159.5L1861.7,159.5z"/>
					<path d="M1887.4,159.5h-3v-19.9h3V159.5z"/>
					<path d="M1913.1,159.5h-3v-8l-8.4-11.9h3.5l6.4,9.6l6.4-9.6h3.6l-8.4,11.9L1913.1,159.5L1913.1,159.5z"/>
					<path d="M1935.4,153.7l-2.3,5.8h-3.1l8.4-19.9h3.4l8.1,19.9h-3.3l-2.2-5.8H1935.4z M1943.3,151.3l-3.3-8.8h-0.1l-3.6,8.8
						H1943.3z"/>
					<path d="M1978.4,139.6h3v19.9h-3v-9.3h-11.7v9.3h-3v-19.9h3v8.2h11.7V139.6z"/>
				</g>
				<g>
					<text transform="matrix(0.95 0 0 1 1852.1211 218.4814)" class="st8" style="font-size:27.1995px;">Made of Full Natural</text>
				</g>
			</g>
			<g>
				<g>
					<path d="M1981.8,169.1h3.1v14.2h-3.1V169.1z M1991.2,174.7c0-1-0.3-1.8-0.9-2.3c-0.6-0.6-1.4-0.8-2.4-0.8c-1,0-1.8,0.2-2.3,0.7
						c-0.6,0.5-0.8,1.2-0.8,2l-0.3-2.7c0.5-0.9,1.1-1.5,1.9-2c0.8-0.5,1.6-0.7,2.6-0.7c1.7,0,3,0.5,3.9,1.5c0.9,1,1.4,2.4,1.4,4.3
						v8.6h-3.1L1991.2,174.7L1991.2,174.7z"/>
					<path d="M2001.2,182.4c-0.9-0.7-1.4-1.8-1.4-3.3c0-1.4,0.4-2.5,1.3-3.2c0.9-0.7,2.2-1.1,4-1.1h4.4l0.2,2.2h-4.6
						c-0.8,0-1.4,0.2-1.8,0.5c-0.4,0.3-0.6,0.8-0.6,1.5c0,0.7,0.3,1.3,0.8,1.6s1.3,0.5,2.4,0.5c1.2,0,2.1-0.1,2.6-0.3
						c0.6-0.2,0.9-0.6,0.9-1.1l0.3,2c-0.3,0.4-0.6,0.7-1,0.9c-0.4,0.3-0.9,0.4-1.4,0.6s-1.1,0.2-1.8,0.2
						C2003.6,183.5,2002.1,183.1,2001.2,182.4z M2009.3,174.3c0-0.9-0.3-1.6-0.8-2.2c-0.6-0.5-1.3-0.8-2.3-0.8
						c-0.6,0-1.2,0.1-1.8,0.3s-1.1,0.4-1.6,0.7l-2.2-1.4c0.6-0.6,1.4-1.1,2.3-1.5s2-0.5,3.2-0.5c1.3,0,2.4,0.2,3.3,0.6
						c0.9,0.4,1.6,1,2.1,1.8c0.5,0.8,0.7,1.7,0.7,2.9v9.1h-2.9L2009.3,174.3L2009.3,174.3z"/>
					<path d="M2017.2,169.1h7v2.5h-7V169.1z M2019.7,182.4c-0.6-0.6-0.9-1.6-0.9-2.8V165h3.1v14.7c0,0.4,0.1,0.6,0.2,0.8
						s0.4,0.3,0.7,0.3h1.5v2.6h-1.8C2021.2,183.4,2020.3,183.1,2019.7,182.4z"/>
					<path d="M2033.1,177.7c0,1,0.3,1.8,0.8,2.3c0.6,0.5,1.3,0.8,2.3,0.8c1,0,1.8-0.2,2.3-0.7c0.6-0.5,0.8-1.2,0.8-2.1l0.2,3
						c-0.3,0.7-0.8,1.3-1.6,1.8c-0.7,0.5-1.6,0.7-2.7,0.7c-1.7,0-3.1-0.5-4-1.5c-0.9-1-1.4-2.4-1.4-4.3v-8.6h3.1L2033.1,177.7
						L2033.1,177.7z M2039.4,169.1h3.1v14.2h-3.1V169.1z"/>
					<path d="M2048.7,169.1h3.1v14.2h-3.1V169.1z M2056.3,171.8c-0.4-0.1-0.9-0.2-1.4-0.2c-1,0-1.7,0.2-2.3,0.7
						c-0.5,0.5-0.8,1.2-0.8,2l-0.3-2.7c0.5-0.9,1.1-1.5,1.9-2c0.8-0.5,1.6-0.7,2.5-0.7c0.7,0,1.4,0.1,1.9,0.3
						c0.6,0.2,1.1,0.5,1.5,0.8l-2,2.5C2057,172.2,2056.7,171.9,2056.3,171.8z"/>
					<path d="M2067.6,183.5c0,0-0.5-0.3-1.5-0.7s-1.8-1.2-2.3-2.2c-0.5-0.9-0.8-2.1-0.8-3.4v-1.6c0-1.4,0.3-2.6,0.8-3.6
						c0.5-1,1.3-1.8,2.3-2.3s2.2-0.8,3.6-0.8c1.3,0,2.4,0.3,3.3,0.9c0.9,0.6,1.6,1.4,2.1,2.6s0.7,2.5,0.7,4v0.9h-10.5v-2.2h7.6
						c-0.1-1.2-0.4-2.1-1-2.7s-1.3-1-2.3-1c-1.2,0-2.1,0.4-2.7,1c-0.6,0.7-1,1.7-1,2.9v1.8c0,1.2,0.3,2.1,1,2.7s1.6,0.9,2.9,0.9
						c0.6,0,1.2-0.1,1.9-0.3s1.2-0.6,1.6-1l2,1.8c-0.8,0.7-1.6,1.2-2.6,1.6s-1.9,0.6-2.9,0.6
						C2068.3,183.5,2067.6,183.5,2067.6,183.5z"/>
				</g>
			</g>
		</g>
		<g>
			<g>
				<path class="st4" d="M1765.7,333.7c-10.2-2.5-15.7,1.8-15.7,1.8v9h50.4c0.8-5.9,3.9-11.7,3.9-11.7S1792.2,340.3,1765.7,333.7z"
					/>
				<path class="st4" d="M1818,283.5c-13.6-2.9-24.1-6.9-40.5-1.4c-16.9,5.7-27.6,31.8-27.6,31.8v8.4c0,0,6.6-3.3,16.4-1.3
					c13.6,2.9,24.1,6.9,40.5,1.4c16.9-5.7,27.6-31.8,27.6-31.8v-8.4C1834.4,282.3,1827.8,285.6,1818,283.5z"/>
				<path class="st4" d="M1820.7,326.2c-7.2,7.8-6.1,17.9-6.1,18.3h19.8v-27.9C1834.4,316.6,1827.6,318.6,1820.7,326.2z"/>
				<path class="st4" d="M1784,260.1c-0.8,5.9-3.9,11.7-3.9,11.7s12.2-7.5,38.6-0.9c10.2,2.5,15.7-1.8,15.7-1.8v-9L1784,260.1z"/>
				<path class="st4" d="M1750,288c0,0,6.8-2,13.7-9.6c7.3-8,6.1-18.4,6.1-18.4H1750V288z"/>
			</g>
			<rect x="1854.1" y="311.2" width="220.5" height="2"/>
			<g>
				<path d="M1912.7,281.4h-3v-8l-8.4-11.9h3.5l6.4,9.5l6.4-9.5h3.5l-8.4,11.9L1912.7,281.4L1912.7,281.4z"/>
				<path d="M1938.4,281.4h-3v-19.9h3V281.4z"/>
				<path d="M1964,281.4h-3v-8l-8.4-11.9h3.5l6.4,9.5l6.4-9.5h3.6l-8.4,11.9L1964,281.4L1964,281.4z"/>
				<path d="M1986.4,275.6l-2.3,5.8h-3.1l8.4-19.9h3.4l8.1,19.9h-3.3l-2.2-5.8H1986.4z M1994.2,273.3l-3.3-8.8h-0.1l-3.6,8.8H1994.2
					z"/>
				<path d="M2029.3,261.5h3v19.9h-3v-9.3h-11.7v9.3h-3v-19.9h3v8.2h11.7V261.5z"/>
			</g>
			<g>
				<text transform="matrix(0.95 0 0 1 1854.0518 340.4609)" class="st8" style="font-size:27.1995px;">Made of Full Natural</text>
			</g>
			<g>
				<g>
					<path d="M1923.7,291.1h3.1v14.2h-3.1V291.1z M1933.2,296.7c0-1-0.3-1.8-0.9-2.3c-0.6-0.5-1.4-0.8-2.4-0.8c-1,0-1.8,0.2-2.3,0.7
						c-0.6,0.5-0.8,1.2-0.8,2l-0.3-2.7c0.5-0.9,1.1-1.5,1.9-2s1.6-0.7,2.6-0.7c1.7,0,3,0.5,3.9,1.5s1.4,2.4,1.4,4.3v8.6h-3.1
						L1933.2,296.7L1933.2,296.7z"/>
					<path d="M1943.1,304.4c-0.9-0.7-1.4-1.8-1.4-3.3c0-1.4,0.4-2.5,1.3-3.2c0.9-0.7,2.2-1,4-1h4.4l0.2,2.2h-4.6
						c-0.8,0-1.4,0.2-1.8,0.5s-0.6,0.8-0.6,1.5c0,0.7,0.3,1.3,0.8,1.6s1.3,0.5,2.4,0.5c1.2,0,2.1-0.1,2.6-0.3s0.9-0.6,0.9-1.1l0.3,2
						c-0.3,0.4-0.6,0.7-1,0.9s-0.9,0.4-1.4,0.5s-1.1,0.2-1.8,0.2C1945.5,305.5,1944.1,305.1,1943.1,304.4z M1951.3,296.3
						c0-0.9-0.3-1.6-0.8-2.2c-0.6-0.5-1.3-0.8-2.3-0.8c-0.6,0-1.2,0.1-1.8,0.3s-1.1,0.4-1.6,0.7l-2.2-1.4c0.6-0.6,1.4-1.1,2.3-1.5
						c1-0.4,2-0.5,3.2-0.5c1.3,0,2.4,0.2,3.3,0.6c0.9,0.4,1.6,1,2.1,1.8c0.5,0.8,0.7,1.7,0.7,2.9v9.1h-2.9V296.3z"/>
					<path d="M1959.2,291.1h7v2.5h-7V291.1z M1961.7,304.4c-0.6-0.6-0.9-1.6-0.9-2.8V287h3.1v14.7c0,0.4,0.1,0.6,0.2,0.8
						s0.4,0.3,0.7,0.3h1.5v2.6h-1.8C1963.2,305.4,1962.3,305,1961.7,304.4z"/>
					<path d="M1975,299.7c0,1,0.3,1.8,0.8,2.3c0.6,0.5,1.3,0.8,2.3,0.8c1,0,1.8-0.2,2.3-0.7c0.6-0.5,0.8-1.2,0.8-2.1l0.2,3
						c-0.3,0.7-0.8,1.3-1.6,1.8c-0.7,0.5-1.6,0.7-2.7,0.7c-1.7,0-3.1-0.5-4-1.5s-1.4-2.4-1.4-4.3v-8.6h3.1L1975,299.7L1975,299.7z
						 M1981.4,291.1h3.1v14.2h-3.1V291.1z"/>
					<path d="M1990.6,291.1h3.1v14.2h-3.1V291.1z M1998.2,293.8c-0.4-0.1-0.9-0.2-1.4-0.2c-1,0-1.7,0.2-2.3,0.7
						c-0.5,0.5-0.8,1.2-0.8,2l-0.3-2.7c0.5-0.9,1.1-1.5,1.9-2c0.8-0.5,1.6-0.7,2.5-0.7c0.7,0,1.4,0.1,1.9,0.3
						c0.6,0.2,1.1,0.5,1.5,0.8l-2,2.5C1998.9,294.2,1998.6,293.9,1998.2,293.8z"/>
					<path d="M2009.5,305.5c0,0-0.5-0.3-1.5-0.7s-1.8-1.2-2.3-2.2c-0.5-1-0.8-2.1-0.8-3.5v-1.6c0-1.4,0.3-2.6,0.8-3.6
						c0.5-1,1.3-1.8,2.3-2.3s2.2-0.8,3.6-0.8c1.3,0,2.4,0.3,3.3,0.9c0.9,0.6,1.6,1.5,2.1,2.6s0.7,2.5,0.7,4v0.9h-10.5v-2.2h7.6
						c-0.1-1.2-0.4-2.1-1-2.7s-1.3-1-2.3-1c-1.2,0-2.1,0.4-2.7,1c-0.6,0.7-1,1.7-1,2.9v1.8c0,1.2,0.3,2.1,1,2.7s1.7,0.9,2.9,0.9
						c0.6,0,1.2-0.1,1.8-0.3s1.2-0.5,1.6-1l2,1.8c-0.8,0.7-1.6,1.2-2.6,1.6c-1,0.4-1.9,0.5-2.9,0.5
						C2010.3,305.5,2009.5,305.5,2009.5,305.5z"/>
				</g>
			</g>
		</g>
		<g>
			<g>
				<g>
					<path class="st4" d="M1770.1,584.8c-10.2-2.5-15.7,1.8-15.7,1.8v9h50.4c0.8-5.9,3.9-11.7,3.9-11.7S1796.6,591.4,1770.1,584.8z"
						/>
					<path class="st4" d="M1822.4,534.7c-13.6-2.9-24.1-6.9-40.5-1.4c-16.9,5.7-27.6,31.8-27.6,31.8v8.4c0,0,6.6-3.3,16.4-1.3
						c13.6,2.9,24.1,6.9,40.5,1.4c16.9-5.7,27.6-31.8,27.6-31.8v-8.4C1838.8,533.4,1832.2,536.7,1822.4,534.7z"/>
					<path class="st4" d="M1825.1,577.3c-7.2,7.8-6.1,17.9-6.1,18.3h19.8v-27.9C1838.8,567.7,1832,569.8,1825.1,577.3z"/>
					<path class="st4" d="M1788.4,511.2c-0.8,6-3.9,11.7-3.9,11.7s12.2-7.5,38.6-0.9c10.2,2.5,15.7-1.8,15.7-1.8v-9L1788.4,511.2z"
						/>
					<path class="st4" d="M1754.4,539.1c0,0,6.8-2,13.7-9.6c7.3-8,6.1-18.4,6.1-18.4h-19.8V539.1z"/>
				</g>
				<rect x="1858.4" y="562.3" width="220.5" height="2"/>
				<g>
					<path d="M1900.1,532.6h-3v-8l-8.4-11.9h3.5l6.4,9.5l6.4-9.5h3.5l-8.4,11.9L1900.1,532.6L1900.1,532.6z"/>
					<path d="M1925.8,532.6h-3v-19.9h3V532.6z"/>
					<path d="M1951.4,532.6h-3v-8l-8.4-11.9h3.5l6.4,9.5l6.4-9.5h3.6l-8.4,11.9L1951.4,532.6L1951.4,532.6z"/>
					<path d="M1973.8,526.8l-2.3,5.8h-3.1l8.4-19.9h3.4l8.1,19.9h-3.3l-2.2-5.8H1973.8z M1981.6,524.4l-3.3-8.8h-0.1l-3.6,8.8
						H1981.6z"/>
					<path d="M2016.7,512.7h3v19.9h-3v-9.3H2005v9.3h-3v-19.9h3v8.2h11.7V512.7z"/>
				</g>
				<g>
					<text transform="matrix(0.95 0 0 1 1858.4424 591.5938)" class="st8" style="font-size:27.1995px;">Made of Full Natural</text>
				</g>
				<g>
					<g>
						<path class="st5" d="M1914.7,537.9h2.8l10.7,15.4l-0.4,0.4v-15.7h3v19.9h-2.8l-10.7-15.1l0.4-0.4v15.5h-3L1914.7,537.9
							L1914.7,537.9z"/>
					</g>
				</g>
				<g>
					<g>
						<path class="st5" d="M1949,537.9h2.6l8.1,19.9h-3.3l-6.1-16l-6.1,16h-3.3L1949,537.9z M1944.6,550.7h11.5v2.7h-11.5V550.7z"/>
					</g>
				</g>
				<g>
					<g>
						<path class="st5" d="M1964.4,537.9h15.4v2.7h-15.4V537.9z M1970.6,539.5h3.1v18.3h-3.1V539.5z"/>
					</g>
				</g>
				<g>
					<g>
						<path class="st5" d="M1992.8,557.1c-1.2-0.6-2-1.4-2.6-2.5s-0.9-2.4-0.9-4v-12.7h3.1v12.8c0,1.5,0.4,2.6,1.2,3.4
							s1.9,1.2,3.4,1.2c1.5,0,2.6-0.4,3.4-1.2s1.2-1.9,1.2-3.4v-12.8h3.1v12.7c0,1.6-0.3,2.9-0.9,4s-1.5,2-2.6,2.5s-2.5,0.9-4.2,0.9
							C1995.3,557.9,1993.9,557.7,1992.8,557.1z"/>
					</g>
				</g>
			</g>
			<g>
				<g>
					<path class="st5" d="M2015,537.8h3.1v19.9h-3.1V537.8z M2016.4,546.7h7.5c0.6,0,1.1-0.1,1.6-0.4c0.4-0.3,0.8-0.6,1-1.1
						s0.4-1,0.4-1.6s-0.1-1.2-0.4-1.6s-0.6-0.8-1-1.1c-0.4-0.3-1-0.4-1.6-0.4h-7.5v-2.7h7.3c1.3,0,2.4,0.2,3.3,0.7
						c1,0.5,1.7,1.2,2.2,2c0.5,0.9,0.8,1.9,0.8,3c0,1.1-0.3,2.1-0.8,3s-1.3,1.5-2.2,2c-1,0.5-2.1,0.7-3.3,0.7h-7.3L2016.4,546.7
						L2016.4,546.7z M2022.3,548.7l3.1-0.6l5.6,9.7h-3.6L2022.3,548.7z"/>
				</g>
			</g>
			<g>
				<g>
					<path class="st5" d="M2040.7,537.9h3.1v19.9h-3.1V537.9z M2042.2,537.9h12.6v2.7h-12.6V537.9z M2042.2,546.5h10.9v2.7h-10.9
						L2042.2,546.5L2042.2,546.5z M2042.2,555.1h12.6v2.7h-12.6V555.1z"/>
				</g>
			</g>
		</g>
		<g>
			<g>
				<g>
					<path class="st4" d="M1768.3,463.5c-10.2-2.5-15.7,1.8-15.7,1.8v9h50.4c0.8-5.9,3.9-11.7,3.9-11.7S1794.8,470,1768.3,463.5z"/>
					<path class="st4" d="M1820.6,413.3c-13.6-2.9-24.1-6.9-40.5-1.4c-16.9,5.7-27.6,31.8-27.6,31.8v8.4c0,0,6.6-3.3,16.4-1.3
						c13.6,2.9,24.1,6.9,40.5,1.4c16.9-5.7,27.6-31.8,27.6-31.8v-8.4C1837,412.1,1830.4,415.4,1820.6,413.3z"/>
					<path class="st4" d="M1823.3,456c-7.2,7.8-6.1,17.9-6.1,18.3h19.8v-27.9C1837,446.4,1830.2,448.4,1823.3,456z"/>
					<path class="st4" d="M1786.6,389.8c-0.8,6-3.9,11.7-3.9,11.7s12.2-7.5,38.6-0.9c10.2,2.5,15.7-1.8,15.7-1.8v-9L1786.6,389.8z"
						/>
					<path class="st4" d="M1752.6,417.8c0,0,6.8-2,13.7-9.6c7.3-8,6.1-18.4,6.1-18.4h-19.8V417.8z"/>
				</g>
				<rect x="1856.6" y="441" width="220.5" height="2"/>
				<g>
					<path d="M1913.2,411.2h-3v-8l-8.4-11.9h3.5l6.4,9.5l6.4-9.5h3.5l-8.4,11.9L1913.2,411.2L1913.2,411.2z"/>
					<path d="M1938.9,411.2h-3v-19.9h3V411.2z"/>
					<path d="M1964.6,411.2h-3v-8l-8.4-11.9h3.5l6.4,9.5l6.4-9.5h3.6l-8.4,11.9L1964.6,411.2L1964.6,411.2z"/>
					<path d="M1986.9,405.4l-2.3,5.8h-3.1l8.4-19.9h3.4l8.1,19.9h-3.3l-2.2-5.8H1986.9z M1994.8,403l-3.3-8.8h-0.1l-3.6,8.8H1994.8z
						"/>
					<path d="M2029.9,391.3h3v19.9h-3v-9.3h-11.7v9.3h-3v-19.9h3v8.2h11.7V391.3z"/>
				</g>
				<g>
					<text transform="matrix(0.95 0 0 1 1856.6279 470.2422)" class="st8" style="font-size:27.1995px;">Made of Full Natural</text>
				</g>
				<g>
					<g>
						<path class="st5" d="M1898.9,416.5h2.8l10.7,15.4l-0.4,0.4v-15.7h3v19.9h-2.8l-10.7-15.1l0.4-0.4v15.5h-3L1898.9,416.5
							L1898.9,416.5z"/>
					</g>
				</g>
			</g>
			<g>
				<g>
					<path class="st5" d="M1933.2,416.5h2.6l8.1,19.9h-3.3l-6.1-16l-6.1,16h-3.3L1933.2,416.5z M1928.8,429.4h11.5v2.6h-11.5V429.4z
						"/>
				</g>
			</g>
			<g>
				<g>
					<path class="st5" d="M1948.6,416.5h15.4v2.6h-15.4V416.5z M1954.8,418.1h3.1v18.3h-3.1V418.1z"/>
				</g>
			</g>
			<g>
				<g>
					<path class="st5" d="M1977,435.7c-1.2-0.6-2-1.4-2.6-2.5s-0.9-2.4-0.9-4v-12.7h3.1v12.8c0,1.5,0.4,2.6,1.2,3.4s1.9,1.2,3.4,1.2
						c1.5,0,2.6-0.4,3.4-1.2s1.2-1.9,1.2-3.4v-12.8h3.1v12.7c0,1.6-0.3,2.9-0.9,4s-1.5,2-2.6,2.5s-2.5,0.9-4.2,0.9
						C1979.5,436.6,1978.1,436.3,1977,435.7z"/>
				</g>
			</g>
			<g>
				<g>
					<path class="st5" d="M1999.2,416.5h3.1v19.9h-3.1V416.5z M2000.6,425.3h7.5c0.6,0,1.1-0.1,1.6-0.4c0.4-0.3,0.8-0.6,1-1.1
						c0.3-0.5,0.4-1,0.4-1.6s-0.1-1.1-0.4-1.6s-0.6-0.8-1-1.1c-0.4-0.3-1-0.4-1.6-0.4h-7.5v-2.6h7.3c1.3,0,2.4,0.2,3.3,0.7
						s1.7,1.1,2.2,2c0.5,0.9,0.8,1.9,0.8,3c0,1.1-0.3,2.1-0.8,3c-0.5,0.9-1.3,1.5-2.2,2c-1,0.5-2.1,0.7-3.3,0.7h-7.3L2000.6,425.3
						L2000.6,425.3z M2006.5,427.4l3.1-0.6l5.6,9.6h-3.6L2006.5,427.4z"/>
				</g>
			</g>
			<g>
				<g>
					<path class="st5" d="M2024.9,416.5h3.1v19.9h-3.1V416.5z M2026.4,416.5h12.6v2.6h-12.6V416.5z M2026.4,425.2h10.9v2.6h-10.9
						V425.2z M2026.4,433.7h12.6v2.6h-12.6V433.7z"/>
				</g>
			</g>
		</g>
		<g>
			<g>
				<path class="st4" d="M1283.6,91.8c-10.2-2.5-15.7,1.8-15.7,1.8v9h50.4c0.8-5.9,3.9-11.7,3.9-11.7S1310.1,98.4,1283.6,91.8z"/>
				<path class="st4" d="M1336,41.6c-13.6-2.9-24.1-6.9-40.5-1.4c-16.9,5.7-27.6,31.8-27.6,31.8v8.4c0,0,6.6-3.3,16.4-1.3
					c13.6,2.9,24.1,6.9,40.5,1.4c16.9-5.7,27.6-31.8,27.6-31.8v-8.4C1352.3,40.4,1345.7,43.7,1336,41.6z"/>
				<path class="st4" d="M1338.6,84.3c-7.2,7.8-6.1,17.9-6.1,18.3h19.8V74.7C1352.3,74.7,1345.6,76.7,1338.6,84.3z"/>
				<path class="st4" d="M1301.9,18.2c-0.8,6-3.9,11.7-3.9,11.7s12.2-7.5,38.6-0.9c10.2,2.5,15.7-1.8,15.7-1.8v-9L1301.9,18.2z"/>
				<path class="st4" d="M1267.9,46.1c0,0,6.8-2,13.7-9.6c7.3-8,6.1-18.4,6.1-18.4h-19.8V46.1z"/>
			</g>
			<rect x="1372" y="69.3" width="220.5" height="2"/>
			<g>
				<path d="M1371.6,56h-2.5v-8l-7.1-11.9h3l5.4,9.5l5.4-9.5h3l-7.1,11.9V56z"/>
				<path d="M1393.3,56h-2.6V36.2h2.6V56z"/>
				<path d="M1415,56h-2.5v-8l-7.1-11.9h3l5.4,9.5l5.4-9.5h3L1415,48V56z"/>
				<path d="M1433.9,50.3l-2,5.8h-2.6l7.1-19.9h2.9l6.8,19.9h-2.8l-1.9-5.8C1441.4,50.2,1433.9,50.2,1433.9,50.3z M1440.5,47.9
					l-2.8-8.8h-0.1l-3,8.8C1434.7,47.9,1440.5,47.9,1440.5,47.9z"/>
				<path d="M1470.1,36.2h2.5V56h-2.5v-9.3h-9.8V56h-2.6V36.2h2.6v8.2h9.8V36.2z"/>
			</g>
			<g>
				<text transform="matrix(0.95 0 0 1 1371.9736 98.5796)" class="st8" style="font-size:27.1995px;">Made of Full Natural</text>
			</g>
			<g>
				<g>
					<path class="st5" d="M1485.1,35.9h2.3l8.9,16.1l-0.3,0.4V35.9h2.5v20.8h-2.3l-8.8-15.8l0.3-0.4v16.2h-2.5L1485.1,35.9
						L1485.1,35.9z"/>
				</g>
			</g>
			<g>
				<g>
					<path class="st5" d="M1513.5,35.9h2.2l6.7,20.8h-2.7l-5-16.8l-5,16.8h-2.7L1513.5,35.9z M1509.9,49.3h9.5v2.8h-9.5V49.3z"/>
				</g>
			</g>
			<g>
				<g>
					<path class="st5" d="M1526.3,35.9h12.8v2.8h-12.8V35.9z M1531.4,37.6h2.5v19.1h-2.5V37.6z"/>
				</g>
			</g>
			<g>
				<g>
					<path class="st5" d="M1549.8,56c-0.9-0.6-1.7-1.5-2.2-2.7s-0.8-2.5-0.8-4.2V35.9h2.5v13.4c0,1.5,0.3,2.7,1,3.5s1.6,1.2,2.8,1.2
						s2.2-0.4,2.8-1.2c0.7-0.8,1-2,1-3.5V35.9h2.5v13.3c0,1.6-0.3,3-0.8,4.2s-1.2,2-2.2,2.7s-2.1,0.9-3.4,0.9
						C1551.9,56.9,1550.8,56.6,1549.8,56z"/>
				</g>
			</g>
			<g>
				<g>
					<path class="st5" d="M1568.3,35.9h2.5v20.8h-2.5V35.9z M1569.4,45.1h6.2c0.5,0,0.9-0.1,1.3-0.4s0.7-0.7,0.9-1.1
						c0.2-0.5,0.3-1.1,0.3-1.7s-0.1-1.2-0.3-1.7c-0.2-0.5-0.5-0.9-0.9-1.1s-0.8-0.4-1.3-0.4h-6.2v-2.8h6.1c1.1,0,2,0.3,2.8,0.7
						s1.4,1.2,1.8,2.1c0.4,0.9,0.7,2,0.7,3.2c0,1.2-0.2,2.2-0.7,3.2c-0.4,0.9-1.1,1.6-1.8,2.1s-1.7,0.7-2.8,0.7h-6.1L1569.4,45.1
						L1569.4,45.1z M1574.3,47.3l2.5-0.7l4.6,10.1h-3L1574.3,47.3z"/>
				</g>
			</g>
			<g>
				<g>
					<path class="st5" d="M1589.5,35.9h2.5v20.8h-2.5V35.9z M1590.8,35.9h10.4v2.8h-10.4V35.9z M1590.8,45h9v2.8h-9V45z
						 M1590.8,53.9h10.4v2.8h-10.4V53.9z"/>
				</g>
			</g>
		</g>
		<g>
			<g>
				<path class="st4" d="M1283.6,209.2c-10.2-2.5-15.7,1.8-15.7,1.8v9h50.4c0.8-5.9,3.9-11.7,3.9-11.7S1310.1,215.7,1283.6,209.2z"
					/>
				<path class="st4" d="M1336,159c-13.6-2.9-24.1-6.9-40.5-1.4c-16.9,5.7-27.6,31.8-27.6,31.8v8.4c0,0,6.6-3.3,16.4-1.3
					c13.6,2.9,24.1,6.9,40.5,1.4c16.9-5.7,27.6-31.8,27.6-31.8v-8.4C1352.3,157.7,1345.7,161.1,1336,159z"/>
				<path class="st4" d="M1338.6,201.6c-7.2,7.8-6.1,17.9-6.1,18.3h19.8v-27.9C1352.3,192.1,1345.6,194.1,1338.6,201.6z"/>
				<path class="st4" d="M1301.9,135.5c-0.8,5.9-3.9,11.7-3.9,11.7s12.2-7.5,38.6-0.9c10.2,2.5,15.7-1.8,15.7-1.8v-9L1301.9,135.5z"
					/>
				<path class="st4" d="M1267.9,163.4c0,0,6.8-2,13.7-9.6c7.3-8,6.1-18.4,6.1-18.4h-19.8V163.4z"/>
			</g>
			<rect x="1372" y="186.6" width="220.5" height="2"/>
			<g>
				<text transform="matrix(0.95 0 0 1 1371.9736 215.9263)" class="st8" style="font-size:27.1995px;">Made of Full Natural</text>
			</g>
			<g>
				<g>
					<path class="st5" d="M1517.4,164.1h1.9l7.3,12.1l-0.3,0.3v-12.4h2.1v15.6h-1.9l-7.2-11.9l0.2-0.3v12.2h-2.1L1517.4,164.1
						L1517.4,164.1z"/>
				</g>
			</g>
			<g>
				<g>
					<path class="st5" d="M1536.8,164.1h1.8l5.5,15.6h-2.3l-4.1-12.6l-4.1,12.6h-2.3L1536.8,164.1z M1533.9,174.2h7.8v2.1h-7.8
						V174.2z"/>
				</g>
			</g>
			<g>
				<g>
					<path class="st5" d="M1544,164.1h10.5v2.1H1544V164.1z M1548.2,165.4h2.1v14.3h-2.1V165.4z"/>
				</g>
			</g>
			<g>
				<g>
					<path class="st5" d="M1560.3,179.2c-0.8-0.4-1.4-1.1-1.8-2c-0.4-0.9-0.6-1.9-0.6-3.1v-10h2.1v10c0,1.1,0.3,2,0.8,2.6
						c0.5,0.6,1.3,0.9,2.3,0.9s1.8-0.3,2.3-0.9c0.6-0.6,0.8-1.5,0.8-2.6v-10h2.1v10c0,1.2-0.2,2.3-0.6,3.1s-1,1.5-1.8,2
						c-0.8,0.5-1.7,0.7-2.8,0.7C1562,179.9,1561,179.7,1560.3,179.2z"/>
				</g>
			</g>
			<g>
				<g>
					<path class="st5" d="M1571.9,164.1h2.1v15.6h-2.1V164.1z M1572.8,171.1h5.1c0.4,0,0.8-0.1,1.1-0.3c0.3-0.2,0.5-0.5,0.7-0.9
						c0.2-0.4,0.3-0.8,0.3-1.3c0-0.5-0.1-0.9-0.3-1.3c-0.2-0.4-0.4-0.6-0.7-0.9c-0.3-0.2-0.7-0.3-1.1-0.3h-5.1v-2.1h5
						c0.9,0,1.6,0.2,2.3,0.6s1.2,0.9,1.5,1.6c0.4,0.7,0.5,1.5,0.5,2.4s-0.2,1.7-0.5,2.4s-0.9,1.2-1.5,1.6s-1.4,0.6-2.3,0.6h-5
						L1572.8,171.1L1572.8,171.1z M1576.9,172.7l2.1-0.5l3.8,7.6h-2.5L1576.9,172.7z"/>
				</g>
			</g>
			<g>
				<g>
					<path class="st5" d="M1585.9,164.1h2.1v15.6h-2.1V164.1z M1586.9,164.1h8.5v2.1h-8.5V164.1z M1586.9,170.9h7.4v2.1h-7.4V170.9z
						 M1586.9,177.7h8.5v2.1h-8.5V177.7z"/>
				</g>
			</g>
			<g>
				<g>
					<path d="M1381.2,180.2h-3.1v-8.4l-8.8-12.4h3.7l6.7,10l6.7-10h3.7l-8.8,12.4V180.2z"/>
					<path d="M1408.1,180.2h-3.2v-20.7h3.2V180.2z"/>
					<path d="M1434.8,180.2h-3.1v-8.4l-8.8-12.4h3.7l6.7,10l6.7-10h3.7l-8.8,12.4L1434.8,180.2L1434.8,180.2z"/>
					<path d="M1458.1,174.1l-2.4,6h-3.3l8.8-20.7h3.6l8.4,20.7h-3.4l-2.3-6H1458.1z M1466.3,171.6l-3.5-9.1h-0.1l-3.7,9.1H1466.3z"
						/>
					<path d="M1502.9,159.4h3.1v20.7h-3.1v-9.7h-12.2v9.7h-3.1v-20.7h3.1v8.6h12.2V159.4z"/>
				</g>
			</g>
		</g>
		<g>
			<path class="st4" d="M1283.6,329.4c-10.2-2.5-15.7,1.8-15.7,1.8v9h50.4c0.8-5.9,3.9-11.7,3.9-11.7S1310.1,336,1283.6,329.4z"/>
			<path class="st4" d="M1336,279.2c-13.6-2.9-24.1-6.9-40.5-1.4c-16.9,5.7-27.6,31.8-27.6,31.8v8.4c0,0,6.6-3.3,16.4-1.3
				c13.6,2.9,24.1,6.9,40.5,1.4c16.9-5.7,27.6-31.8,27.6-31.8V278C1352.3,278,1345.7,281.3,1336,279.2z"/>
			<path class="st4" d="M1338.6,321.9c-7.2,7.8-6.1,17.9-6.1,18.3h19.8v-27.9C1352.3,312.3,1345.6,314.3,1338.6,321.9z"/>
			<path class="st4" d="M1301.9,255.8c-0.8,6-3.9,11.7-3.9,11.7s12.2-7.5,38.6-0.9c10.2,2.5,15.7-1.8,15.7-1.8v-9L1301.9,255.8z"/>
			<path class="st4" d="M1267.9,283.7c0,0,6.8-2,13.7-9.6c7.3-8,6.1-18.4,6.1-18.4h-19.8V283.7z"/>
		</g>
		<rect x="1372" y="306.9" width="220.5" height="2"/>
		<g>
			<text transform="matrix(0.95 0 0 1 1371.9736 336.1792)" class="st8" style="font-size:27.1995px;">Made of Full Natural</text>
		</g>
		<g>
			<g>
				<path d="M1381.2,298.4h-3.1v-8.4l-8.8-12.4h3.7l6.7,10l6.7-10h3.7l-8.8,12.4V298.4z"/>
				<path d="M1408.1,298.4h-3.2v-20.7h3.2V298.4z"/>
				<path d="M1434.8,298.4h-3.1v-8.4l-8.8-12.4h3.7l6.7,10l6.7-10h3.7l-8.8,12.4L1434.8,298.4L1434.8,298.4z"/>
				<path d="M1458.1,292.4l-2.4,6h-3.3l8.8-20.7h3.6l8.4,20.7h-3.4l-2.3-6H1458.1z M1466.3,289.9l-3.5-9.1h-0.1l-3.7,9.1H1466.3z"/>
				<path d="M1502.9,277.7h3.1v20.7h-3.1v-9.7h-12.2v9.7h-3.1v-20.7h3.1v8.6h12.2V277.7z"/>
			</g>
		</g>
		<g>
			<g>
				<path d="M1524.1,289.3h2v9.1h-2V289.3z M1530.2,292.9c0-0.6-0.2-1.1-0.6-1.5c-0.4-0.4-0.9-0.5-1.6-0.5c-0.6,0-1.1,0.2-1.5,0.5
					s-0.5,0.8-0.5,1.3l-0.2-1.8c0.3-0.5,0.7-1,1.2-1.3c0.5-0.3,1.1-0.5,1.7-0.5c1.1,0,1.9,0.3,2.5,1s0.9,1.6,0.9,2.8v5.5h-2V292.9z"
					/>
				<path d="M1536.6,297.8c-0.6-0.5-0.9-1.2-0.9-2.1c0-0.9,0.3-1.6,0.8-2s1.4-0.7,2.5-0.7h2.8l0.1,1.4h-3c-0.5,0-0.9,0.1-1.2,0.3
					s-0.4,0.5-0.4,1c0,0.5,0.2,0.8,0.5,1s0.8,0.3,1.5,0.3c0.8,0,1.3-0.1,1.7-0.2s0.6-0.4,0.6-0.7l0.2,1.3c-0.2,0.3-0.4,0.5-0.6,0.6
					s-0.6,0.3-0.9,0.4s-0.7,0.1-1.1,0.1C1538.1,298.5,1537.2,298.3,1536.6,297.8z M1541.8,292.6c0-0.6-0.2-1.1-0.5-1.4
					s-0.8-0.5-1.5-0.5c-0.4,0-0.8,0.1-1.2,0.2c-0.4,0.1-0.7,0.3-1,0.5l-1.4-0.9c0.4-0.4,0.9-0.7,1.5-1s1.3-0.4,2.1-0.4
					c0.8,0,1.5,0.1,2.1,0.4s1,0.6,1.3,1.2s0.5,1.1,0.5,1.8v5.9h-1.9L1541.8,292.6L1541.8,292.6z"/>
				<path d="M1546.9,289.3h4.5v1.6h-4.5V289.3z M1548.5,297.8c-0.4-0.4-0.6-1-0.6-1.8v-9.4h2v9.4c0,0.2,0.1,0.4,0.1,0.5
					s0.2,0.2,0.4,0.2h0.9v1.7h-1.1C1549.5,298.5,1548.9,298.3,1548.5,297.8z"/>
				<path d="M1557.1,294.8c0,0.6,0.2,1.1,0.5,1.5s0.9,0.5,1.5,0.5c0.6,0,1.1-0.2,1.5-0.5s0.5-0.8,0.5-1.3l0.1,1.9
					c-0.2,0.5-0.5,0.8-1,1.1c-0.5,0.3-1,0.5-1.7,0.5c-1.1,0-2-0.3-2.6-1s-0.9-1.6-0.9-2.7v-5.5h2L1557.1,294.8L1557.1,294.8z
					 M1561.2,289.3h2v9.1h-2V289.3z"/>
				<path d="M1567.2,289.3h2v9.1h-2V289.3z M1572,291c-0.3-0.1-0.6-0.1-0.9-0.1c-0.6,0-1.1,0.2-1.5,0.5c-0.3,0.3-0.5,0.8-0.5,1.3
					l-0.2-1.8c0.3-0.5,0.7-1,1.2-1.3s1-0.5,1.6-0.5c0.5,0,0.9,0.1,1.2,0.2s0.7,0.3,1,0.5l-1.3,1.6
					C1572.5,291.3,1572.3,291.1,1572,291z"/>
				<path d="M1579.3,298.5c0,0-0.3-0.2-1-0.5c-0.7-0.3-1.2-0.8-1.5-1.4c-0.3-0.6-0.5-1.4-0.5-2.2v-1c0-0.9,0.2-1.7,0.5-2.3
					c0.3-0.6,0.8-1.1,1.4-1.5s1.4-0.5,2.3-0.5c0.8,0,1.6,0.2,2.2,0.6s1.1,0.9,1.4,1.6s0.5,1.6,0.5,2.6v0.6h-6.8v-1.4h4.9
					c-0.1-0.7-0.3-1.3-0.6-1.7s-0.8-0.6-1.5-0.6c-0.8,0-1.3,0.2-1.7,0.7s-0.6,1.1-0.6,1.9v1.2c0,0.8,0.2,1.3,0.7,1.7
					s1.1,0.6,1.9,0.6c0.4,0,0.8-0.1,1.2-0.2s0.8-0.4,1.1-0.6l1.3,1.2c-0.5,0.4-1.1,0.8-1.7,1s-1.2,0.4-1.9,0.4
					C1579.8,298.5,1579.3,298.5,1579.3,298.5z"/>
			</g>
		</g>
		<g>
			<path class="st4" d="M1283.6,461.3c-10.2-2.5-15.7,1.8-15.7,1.8v9h50.4c0.8-5.9,3.9-11.7,3.9-11.7S1310.1,467.9,1283.6,461.3z"/>
			<path class="st4" d="M1336,411.1c-13.6-2.9-24.1-6.9-40.5-1.4c-16.9,5.7-27.6,31.8-27.6,31.8v8.4c0,0,6.6-3.3,16.4-1.3
				c13.6,2.9,24.1,6.9,40.5,1.4c16.9-5.7,27.6-31.8,27.6-31.8v-8.4C1352.3,409.9,1345.7,413.2,1336,411.1z"/>
			<path class="st4" d="M1338.6,453.8c-7.2,7.8-6.1,17.9-6.1,18.3h19.8v-27.9C1352.3,444.2,1345.6,446.2,1338.6,453.8z"/>
			<path class="st4" d="M1301.9,387.7c-0.8,6-3.9,11.7-3.9,11.7s12.2-7.5,38.6-0.9c10.2,2.5,15.7-1.8,15.7-1.8v-9L1301.9,387.7z"/>
			<path class="st4" d="M1267.9,415.6c0,0,6.8-2,13.7-9.6c7.3-8,6.1-18.4,6.1-18.4h-19.8V415.6z"/>
		</g>
		<rect x="1372" y="438.8" width="220.5" height="2"/>
		<g>
			<text transform="matrix(0.95 0 0 1 1371.9736 468.0605)" class="st8" style="font-size:27.1995px;">Made of Full Natural</text>
		</g>
		<g>
			<g>
				<path d="M1387.2,424.3h-3.1v-8.4l-8.8-12.4h3.7l6.7,10l6.7-10h3.7l-8.8,12.4V424.3z"/>
				<path d="M1414.1,424.3h-3.2v-20.7h3.2V424.3z"/>
				<path d="M1440.8,424.3h-3.1v-8.4l-8.8-12.4h3.7l6.7,10l6.7-10h3.7l-8.8,12.4L1440.8,424.3L1440.8,424.3z"/>
				<path d="M1464.1,418.3l-2.4,6h-3.3l8.8-20.7h3.6l8.4,20.7h-3.4l-2.3-6H1464.1z M1472.3,415.8l-3.5-9.1h-0.1l-3.7,9.1H1472.3z"/>
				<path d="M1508.9,403.5h3.1v20.7h-3.1v-9.7h-12.2v9.7h-3.1v-20.7h3.1v8.6h12.2V403.5z"/>
			</g>
		</g>
		<g>
			<g>
				<path d="M1530.1,415.2h2v9.1h-2V415.2z M1536.2,418.8c0-0.6-0.2-1.1-0.6-1.5c-0.4-0.4-0.9-0.5-1.6-0.5c-0.6,0-1.1,0.2-1.5,0.5
					s-0.5,0.8-0.5,1.3l-0.2-1.8c0.3-0.5,0.7-1,1.2-1.3c0.5-0.3,1.1-0.5,1.7-0.5c1.1,0,1.9,0.3,2.5,1s0.9,1.6,0.9,2.8v5.5h-2V418.8z"
					/>
				<path d="M1542.6,423.7c-0.6-0.5-0.9-1.2-0.9-2.1c0-0.9,0.3-1.6,0.8-2s1.4-0.7,2.5-0.7h2.8l0.1,1.4h-3c-0.5,0-0.9,0.1-1.2,0.3
					c-0.3,0.2-0.4,0.5-0.4,1c0,0.5,0.2,0.8,0.5,1s0.8,0.3,1.5,0.3c0.8,0,1.3-0.1,1.7-0.2s0.6-0.4,0.6-0.7l0.2,1.3
					c-0.2,0.3-0.4,0.5-0.6,0.6s-0.6,0.3-0.9,0.4s-0.7,0.1-1.1,0.1C1544.1,424.4,1543.2,424.2,1542.6,423.7z M1547.8,418.5
					c0-0.6-0.2-1.1-0.5-1.4c-0.3-0.3-0.8-0.5-1.5-0.5c-0.4,0-0.8,0.1-1.2,0.2c-0.4,0.1-0.7,0.3-1,0.5l-1.4-0.9
					c0.4-0.4,0.9-0.7,1.5-1s1.3-0.4,2.1-0.4c0.8,0,1.5,0.1,2.1,0.4c0.6,0.3,1,0.6,1.3,1.2c0.3,0.5,0.5,1.1,0.5,1.8v5.9h-1.9
					L1547.8,418.5L1547.8,418.5z"/>
				<path d="M1552.9,415.2h4.5v1.6h-4.5V415.2z M1554.5,423.7c-0.4-0.4-0.6-1-0.6-1.8v-9.4h2v9.4c0,0.2,0.1,0.4,0.1,0.5
					c0.1,0.1,0.2,0.2,0.4,0.2h0.9v1.7h-1.1C1555.5,424.3,1554.9,424.1,1554.5,423.7z"/>
				<path d="M1563.1,420.7c0,0.6,0.2,1.1,0.5,1.5s0.9,0.5,1.5,0.5c0.6,0,1.1-0.2,1.5-0.5s0.5-0.8,0.5-1.3l0.1,1.9
					c-0.2,0.5-0.5,0.8-1,1.1c-0.5,0.3-1,0.5-1.7,0.5c-1.1,0-2-0.3-2.6-1c-0.6-0.6-0.9-1.6-0.9-2.7v-5.5h2L1563.1,420.7L1563.1,420.7
					z M1567.2,415.2h2v9.1h-2V415.2z"/>
				<path d="M1573.2,415.2h2v9.1h-2V415.2z M1578,416.9c-0.3-0.1-0.6-0.1-0.9-0.1c-0.6,0-1.1,0.2-1.5,0.5c-0.3,0.3-0.5,0.8-0.5,1.3
					l-0.2-1.8c0.3-0.5,0.7-1,1.2-1.3s1-0.5,1.6-0.5c0.5,0,0.9,0.1,1.2,0.2s0.7,0.3,1,0.5l-1.3,1.6
					C1578.5,417.1,1578.3,417,1578,416.9z"/>
				<path d="M1585.3,424.4c0,0-0.3-0.2-1-0.5c-0.7-0.3-1.2-0.8-1.5-1.4c-0.3-0.6-0.5-1.4-0.5-2.2v-1c0-0.9,0.2-1.7,0.5-2.3
					c0.3-0.6,0.8-1.1,1.4-1.5s1.4-0.5,2.3-0.5c0.8,0,1.6,0.2,2.2,0.6s1.1,0.9,1.4,1.6s0.5,1.6,0.5,2.6v0.6h-6.8V419h4.9
					c-0.1-0.7-0.3-1.3-0.6-1.7c-0.4-0.4-0.8-0.6-1.5-0.6c-0.8,0-1.3,0.2-1.7,0.7s-0.6,1.1-0.6,1.9v1.2c0,0.8,0.2,1.3,0.7,1.7
					s1.1,0.6,1.9,0.6c0.4,0,0.8-0.1,1.2-0.2s0.8-0.4,1.1-0.6l1.3,1.2c-0.5,0.4-1.1,0.8-1.7,1c-0.6,0.2-1.2,0.4-1.9,0.4
					C1585.8,424.4,1585.3,424.4,1585.3,424.4z"/>
			</g>
		</g>
		<g>
			<path class="st4" d="M1284.3,570.6c-10.2-2.5-15.7,1.8-15.7,1.8v9h50.4c0.8-5.9,3.9-11.7,3.9-11.7S1310.8,577.1,1284.3,570.6z"/>
			<path class="st4" d="M1336.7,520.4c-13.6-2.9-24.1-6.9-40.5-1.4c-16.9,5.7-27.6,31.8-27.6,31.8v8.4c0,0,6.6-3.3,16.4-1.3
				c13.6,2.9,24.1,6.9,40.5,1.4c16.9-5.7,27.6-31.8,27.6-31.8v-8.4C1353,519.1,1346.4,522.5,1336.7,520.4z"/>
			<path class="st4" d="M1339.3,563c-7.2,7.8-6.1,17.9-6.1,18.3h19.8v-27.9C1353,553.4,1346.3,555.5,1339.3,563z"/>
			<path class="st4" d="M1302.6,496.9c-0.8,5.9-3.9,11.7-3.9,11.7s12.2-7.5,38.6-0.9c10.2,2.5,15.7-1.8,15.7-1.8v-9L1302.6,496.9z"
				/>
			<path class="st4" d="M1268.6,524.8c0,0,6.8-2,13.7-9.6c7.3-8,6.1-18.4,6.1-18.4h-19.8V524.8z"/>
		</g>
		<rect x="1372.7" y="548" width="220.5" height="2"/>
		<g>
			<path d="M1431.3,523.3h-3v-8l-8.4-11.9h3.5l6.4,9.5l6.4-9.5h3.5l-8.4,11.9L1431.3,523.3L1431.3,523.3z"/>
			<path d="M1457,523.3h-3v-19.9h3V523.3z"/>
			<path d="M1482.7,523.3h-3v-8l-8.4-11.9h3.5l6.4,9.5l6.4-9.5h3.6l-8.4,11.9L1482.7,523.3L1482.7,523.3z"/>
			<path d="M1505,517.5l-2.3,5.8h-3.1l8.4-19.9h3.4l8.1,19.9h-3.3l-2.2-5.8H1505z M1512.8,515.1l-3.3-8.8h-0.1l-3.6,8.8H1512.8z"/>
			<path d="M1547.9,503.4h3v19.9h-3V514h-11.7v9.3h-3v-19.9h3v8.2h11.7V503.4z"/>
		</g>
		<g>
			<text transform="matrix(0.95 0 0 1 1372.6621 577.3135)" class="st8" style="font-size:27.1995px;">Made of Full Natural</text>
		</g>
		<g>
			<g>
				<path d="M1457.4,533h2v9.1h-2V533z M1463.5,536.6c0-0.6-0.2-1.1-0.6-1.5s-0.9-0.5-1.6-0.5c-0.6,0-1.1,0.2-1.5,0.5
					s-0.5,0.8-0.5,1.3l-0.2-1.8c0.3-0.5,0.7-1,1.2-1.3c0.5-0.3,1.1-0.5,1.7-0.5c1.1,0,1.9,0.3,2.5,1c0.6,0.7,0.9,1.6,0.9,2.8v5.5h-2
					V536.6z"/>
				<path d="M1469.9,541.6c-0.6-0.5-0.9-1.2-0.9-2.1c0-0.9,0.3-1.6,0.8-2c0.6-0.5,1.4-0.7,2.5-0.7h2.8l0.1,1.4h-3
					c-0.5,0-0.9,0.1-1.2,0.3c-0.3,0.2-0.4,0.5-0.4,1c0,0.5,0.2,0.8,0.5,1c0.3,0.2,0.8,0.3,1.5,0.3c0.8,0,1.3-0.1,1.7-0.2
					c0.4-0.2,0.6-0.4,0.6-0.7l0.2,1.3c-0.2,0.3-0.4,0.5-0.6,0.6s-0.6,0.3-0.9,0.4s-0.7,0.1-1.1,0.1
					C1471.5,542.3,1470.6,542,1469.9,541.6z M1475.2,536.3c0-0.6-0.2-1.1-0.5-1.4s-0.8-0.5-1.5-0.5c-0.4,0-0.8,0-1.2,0.2
					c-0.4,0.1-0.7,0.3-1,0.5l-1.4-0.9c0.4-0.4,0.9-0.7,1.5-1s1.3-0.3,2.1-0.3c0.8,0,1.5,0.1,2.1,0.4c0.6,0.3,1,0.7,1.3,1.2
					s0.5,1.1,0.5,1.8v5.9h-1.9L1475.2,536.3L1475.2,536.3z"/>
				<path d="M1480.3,533h4.5v1.6h-4.5V533z M1481.8,541.6c-0.4-0.4-0.6-1-0.6-1.8v-9.4h2v9.4c0,0.2,0.1,0.4,0.1,0.5s0.2,0.2,0.4,0.2
					h0.9v1.7h-1.1C1482.8,542.2,1482.2,542,1481.8,541.6z"/>
				<path d="M1490.4,538.6c0,0.6,0.2,1.1,0.5,1.5s0.9,0.5,1.5,0.5c0.6,0,1.1-0.2,1.5-0.5s0.5-0.8,0.5-1.3l0.1,1.9
					c-0.2,0.5-0.5,0.8-1,1.1c-0.5,0.3-1,0.5-1.7,0.5c-1.1,0-2-0.3-2.6-1c-0.6-0.7-0.9-1.6-0.9-2.7V533h2L1490.4,538.6L1490.4,538.6z
					 M1494.5,533h2v9.1h-2V533z"/>
				<path d="M1500.5,533h2v9.1h-2V533z M1505.3,534.7c-0.3-0.1-0.6-0.2-0.9-0.2c-0.6,0-1.1,0.2-1.5,0.5s-0.5,0.8-0.5,1.3l-0.2-1.8
					c0.3-0.5,0.7-1,1.2-1.3c0.5-0.3,1-0.5,1.6-0.5c0.5,0,0.9,0.1,1.2,0.2s0.7,0.3,1,0.5l-1.3,1.6
					C1505.8,535,1505.6,534.8,1505.3,534.7z"/>
				<path d="M1512.6,542.3c0,0-0.3-0.2-1-0.5s-1.2-0.8-1.5-1.4c-0.3-0.6-0.5-1.3-0.5-2.2v-1c0-0.9,0.2-1.7,0.5-2.3s0.8-1.1,1.4-1.5
					s1.4-0.5,2.3-0.5c0.8,0,1.6,0.2,2.2,0.6s1.1,0.9,1.4,1.7s0.5,1.6,0.5,2.6v0.6h-6.8v-1.4h4.9c-0.1-0.7-0.3-1.3-0.6-1.7
					s-0.8-0.6-1.5-0.6c-0.8,0-1.3,0.2-1.7,0.7s-0.6,1.1-0.6,1.9v1.2c0,0.8,0.2,1.3,0.7,1.7s1.1,0.6,1.9,0.6c0.4,0,0.8-0.1,1.2-0.2
					c0.4-0.2,0.8-0.3,1.1-0.6l1.3,1.2c-0.5,0.4-1.1,0.8-1.7,1s-1.2,0.4-1.9,0.4C1513.1,542.3,1512.6,542.3,1512.6,542.3z"/>
			</g>
		</g>
	</g>
	<polygon class="st5" points="-335.2,-783.9 -363.4,-747.8 -363.4,-721.2 -373,-721.2 -373,-747.8 -401.2,-783.9 -389.7,-783.9 
		-368.2,-755.1 -346.7,-783.9 	"/>
	<rect x="-294.4" y="-783" class="st5" width="9.6" height="62.7"/>
	<polygon class="st5" points="-180.7,-783.9 -208.9,-747.8 -208.9,-721.2 -218.5,-721.2 -218.5,-747.8 -246.7,-783.9 -235.2,-783.9 
		-213.7,-755.1 -192.2,-783.9 	"/>
	<path class="st5" d="M-83.8-721.2h-10.7l-8.3-19H-133l-8,19h-10l27.6-62.7h10.3L-83.8-721.2z M-105.6-746.9l-12.8-29l-12,29H-105.6
		z"/>
	<polygon class="st5" points="8.2,-721.2 -1.4,-721.2 -1.4,-750.8 -38.7,-750.8 -38.7,-721.2 -48.3,-721.2 -48.3,-783.9 
		-38.7,-783.9 -38.7,-758.2 -1.4,-758.2 -1.4,-783.9 8.2,-783.9 	"/>
	<path class="st6" d="M-528.2-779.6l10.4,18c0,0,45.3,8.9,82.6-19.1c0,0-28,24.8-34.3,52.7l26.5-14.4c0,0,15.3-98.7,135.3-66.5
		l-11-18c0,0-44-9.5-82.6,18.4c0,0,25-22.5,34.3-52.7l-26.5,14.2C-393.5-846.9-407.7-748.5-528.2-779.6"/>
	<text transform="matrix(1.7422 0 0 1 8.2173 -722.3828)" class="st5" style="font-family:'MalgunGothic'; font-size:29.4289px;"> </text>
	<g>
		<g>
			<path d="M45.4-751.6H52v30.4h-6.6V-751.6z M65.7-739.6c0-2.2-0.6-3.8-1.8-5s-2.9-1.8-5.2-1.8c-2.2,0-3.8,0.5-5,1.5
				c-1.2,1-1.8,2.5-1.8,4.4l-0.7-5.9c1-1.8,2.4-3.3,4-4.3s3.5-1.5,5.5-1.5c3.6,0,6.4,1.1,8.4,3.2s3,5.2,3,9.2v18.5h-6.6V-739.6z"/>
			<path d="M87-723.1c-2-1.5-3.1-3.9-3.1-7.1c0-3,0.9-5.3,2.8-6.8c1.9-1.5,4.7-2.3,8.5-2.3h9.5l0.4,4.8h-9.9c-1.7,0-3,0.3-3.8,1
				s-1.3,1.8-1.3,3.2c0,1.5,0.6,2.7,1.7,3.4c1.1,0.7,2.8,1.1,5.1,1.1c2.5,0,4.4-0.2,5.6-0.7c1.2-0.5,1.8-1.3,1.8-2.3l0.7,4.3
				c-0.6,0.8-1.3,1.5-2.1,2s-1.8,0.9-2.9,1.2s-2.4,0.4-3.8,0.4C92.1-720.7,89.1-721.5,87-723.1z M104.4-740.5c0-2-0.6-3.5-1.8-4.6
				c-1.2-1.1-2.8-1.7-5-1.7c-1.3,0-2.6,0.2-3.9,0.6s-2.4,0.9-3.4,1.5l-4.8-3c1.3-1.4,2.9-2.5,5-3.2s4.4-1.2,6.9-1.2
				c2.8,0,5.2,0.4,7.1,1.3c2,0.9,3.5,2.2,4.5,3.9s1.6,3.7,1.6,6.1v19.5h-6.3L104.4-740.5L104.4-740.5z"/>
			<path d="M121.4-751.6h15.1v5.4h-15.1V-751.6z M126.8-723.1c-1.3-1.4-1.9-3.4-1.9-6v-31.3h6.6v31.4c0,0.7,0.2,1.3,0.5,1.7
				c0.3,0.4,0.8,0.6,1.4,0.6h3.2v5.7h-3.8C130-721,128-721.7,126.8-723.1z"/>
			<path d="M155.4-733.1c0,2.1,0.6,3.8,1.8,4.9c1.2,1.2,2.9,1.7,5,1.7c2.1,0,3.8-0.5,5-1.5c1.2-1,1.8-2.5,1.8-4.4l0.4,6.4
				c-0.7,1.5-1.8,2.8-3.4,3.8s-3.4,1.5-5.7,1.5c-3.7,0-6.6-1.1-8.6-3.2s-3-5.2-3-9.1v-18.5h6.6V-733.1z M169-751.6h6.5v30.4H169
				V-751.6z"/>
			<path d="M188.8-751.6h6.6v30.4h-6.6V-751.6z M205-745.8c-0.9-0.3-1.9-0.5-3.1-0.5c-2.1,0-3.7,0.5-4.9,1.6c-1.1,1-1.7,2.5-1.7,4.3
				l-0.7-5.9c1-1.8,2.4-3.2,4-4.2c1.6-1,3.4-1.5,5.4-1.5c1.5,0,2.9,0.2,4.1,0.6c1.2,0.4,2.3,1,3.2,1.8l-4.3,5.3
				C206.6-745,205.9-745.5,205-745.8z"/>
			<path d="M229.4-720.7c0,0-1.1-0.5-3.3-1.6s-3.9-2.6-5-4.6c-1.1-2-1.7-4.5-1.7-7.4v-3.4c0-3,0.6-5.6,1.7-7.7s2.7-3.8,4.8-4.9
				s4.6-1.7,7.6-1.7c2.8,0,5.2,0.6,7.1,1.9c2,1.3,3.5,3.1,4.5,5.5s1.6,5.3,1.6,8.6v2h-22.6v-4.8h16.3c-0.2-2.5-0.9-4.4-2.1-5.8
				s-2.8-2.1-4.9-2.1c-2.5,0-4.4,0.7-5.8,2.2c-1.4,1.5-2.1,3.6-2.1,6.3v3.9c0,2.5,0.7,4.5,2.2,5.8s3.5,2,6.2,2c1.3,0,2.6-0.2,4-0.7
				c1.3-0.5,2.5-1.2,3.5-2l4.3,3.9c-1.6,1.5-3.5,2.6-5.6,3.3s-4.1,1.2-6.2,1.2C230.9-720.7,229.4-720.7,229.4-720.7z"/>
		</g>
	</g>
	<g>
		<g>
			<path d="M-1006.2,242h-3.7v-9.8l-10.3-14.5h4.3l7.8,11.7l7.8-11.7h4.3l-10.3,14.5L-1006.2,242L-1006.2,242z"/>
			<path d="M-974.8,242h-3.7v-24.3h3.7V242z"/>
			<path d="M-943.4,242h-3.7v-9.8l-10.3-14.5h4.3l7.8,11.7l7.8-11.7h4.3l-10.3,14.5V242z"/>
			<path d="M-916.1,234.9l-2.8,7.1h-3.8l10.3-24.3h4.2l9.9,24.3h-4l-2.7-7.1H-916.1z M-906.4,232l-4-10.7h-0.1l-4.4,10.7H-906.4z"/>
			<path d="M-863.6,217.7h3.7V242h-3.7v-11.4h-14.3V242h-3.7v-24.3h3.7v10.1h14.3V217.7z"/>
		</g>
	</g>
	<g>
		<g>
			<path class="st0" d="M-434.1,493.8c-19.7-4.9-30.4,3.4-30.4,3.4v17.3h97.2c1.6-11.5,7.6-22.5,7.6-22.5S-383.1,506.5-434.1,493.8z
				"/>
			<path class="st0" d="M-333.2,397c-26.2-5.6-46.4-13.2-78-2.6c-32.6,10.9-53.2,61.3-53.2,61.3v16.1c0,0,12.8-6.4,31.6-2.4
				c26.2,5.6,46.4,13.2,78.1,2.6c32.6-10.9,53.2-61.3,53.2-61.3v-16.2C-301.7,394.6-314.5,401-333.2,397z"/>
			<path class="st0" d="M-328.1,479.3c-13.9,15.1-11.8,34.5-11.7,35.3h38.2v-53.8C-301.7,460.8-314.7,464.7-328.1,479.3z"/>
			<path class="st0" d="M-398.9,351.8c-1.6,11.5-7.6,22.6-7.6,22.6s23.4-14.4,74.5-1.8c19.6,4.9,30.3-3.5,30.3-3.5v-17.4
				L-398.9,351.8z"/>
			<path class="st0" d="M-464.5,405.6c0,0,13.1-3.9,26.5-18.5c14.2-15.4,11.7-35.4,11.7-35.4h-38.2V405.6z"/>
		</g>
		<rect x="-474.1" y="343" class="st1" width="181.7" height="181.6"/>
	</g>
	<g>
		<g>
			<path d="M-450.6,568.6h-3.7v-9.8l-10.3-14.5h4.3l7.8,11.7l7.8-11.7h4.3l-10.3,14.5L-450.6,568.6L-450.6,568.6z"/>
			<path d="M-419.1,568.6h-3.7v-24.3h3.7V568.6z"/>
			<path d="M-387.8,568.6h-3.7v-9.8l-10.3-14.5h4.3l7.8,11.7l7.9-11.7h4.3l-10.3,14.5L-387.8,568.6L-387.8,568.6z"/>
			<path d="M-360.5,561.5l-2.8,7.1h-3.8l10.3-24.3h4.2l9.9,24.3h-4l-2.7-7.1H-360.5z M-350.8,558.6l-4-10.7h-0.1l-4.4,10.7H-350.8z"
				/>
			<path d="M-308,544.3h3.7v24.3h-3.7v-11.3h-14.3v11.3h-3.7v-24.3h3.7v10.1h14.3V544.3z"/>
		</g>
	</g>
	<g>
		<g>
			<polygon points="-304.6,598.3 -464.2,598.3 -464.2,596.7 -304.6,596.7 			"/>
		</g>
	</g>
	<g>
		<text transform="matrix(0.95 0 0 1 -464.0664 615.1934)" class="st8" style="font-size:16.366px;">Real Beauty by Full Natural</text>
	</g>
	<g>
		<g>
			<path d="M-414.8,580.6h2v9.1h-2V580.6z M-408.7,584.2c0-0.6-0.2-1.1-0.5-1.5s-0.9-0.5-1.5-0.5c-0.6,0-1.1,0.2-1.5,0.5
				c-0.4,0.3-0.5,0.8-0.5,1.3l-0.2-1.8c0.3-0.5,0.7-1,1.2-1.3s1-0.5,1.7-0.5c1.1,0,1.9,0.3,2.5,1c0.6,0.7,0.9,1.6,0.9,2.8v5.5h-2
				L-408.7,584.2L-408.7,584.2z"/>
			<path d="M-402.3,589.2c-0.6-0.5-0.9-1.2-0.9-2.1c0-0.9,0.3-1.6,0.8-2s1.4-0.7,2.5-0.7h2.9l0.1,1.4h-3c-0.5,0-0.9,0.1-1.2,0.3
				c-0.3,0.2-0.4,0.5-0.4,1c0,0.5,0.2,0.8,0.5,1s0.9,0.3,1.5,0.3c0.8,0,1.3-0.1,1.7-0.2s0.6-0.4,0.6-0.7l0.2,1.3
				c-0.2,0.3-0.4,0.5-0.6,0.6s-0.5,0.3-0.9,0.4c-0.3,0.1-0.7,0.1-1.1,0.1C-400.8,589.8-401.7,589.6-402.3,589.2z M-397.1,583.9
				c0-0.6-0.2-1.1-0.5-1.4s-0.9-0.5-1.5-0.5c-0.4,0-0.8,0.1-1.2,0.2s-0.7,0.3-1,0.5l-1.4-0.9c0.4-0.4,0.9-0.7,1.5-1s1.3-0.3,2.1-0.3
				c0.8,0,1.5,0.1,2.1,0.4c0.6,0.3,1,0.7,1.4,1.2c0.3,0.5,0.5,1.1,0.5,1.8v5.9h-1.9L-397.1,583.9L-397.1,583.9z"/>
			<path d="M-392,580.6h4.5v1.6h-4.5V580.6z M-390.4,589.2c-0.4-0.4-0.6-1-0.6-1.8v-9.4h2v9.4c0,0.2,0,0.4,0.1,0.5s0.2,0.2,0.4,0.2
				h1v1.7h-1.1C-389.4,589.8-390,589.5-390.4,589.2z"/>
			<path d="M-381.8,586.1c0,0.6,0.2,1.1,0.5,1.5c0.4,0.3,0.9,0.5,1.5,0.5c0.6,0,1.1-0.2,1.5-0.5s0.5-0.8,0.5-1.3l0.1,1.9
				c-0.2,0.5-0.5,0.8-1,1.1c-0.5,0.3-1,0.5-1.7,0.5c-1.1,0-2-0.3-2.6-1c-0.6-0.7-0.9-1.6-0.9-2.7v-5.5h2L-381.8,586.1L-381.8,586.1z
				 M-377.7,580.6h2v9.1h-2V580.6z"/>
			<path d="M-371.8,580.6h2v9.1h-2V580.6z M-366.9,582.3c-0.3-0.1-0.6-0.2-0.9-0.2c-0.6,0-1.1,0.2-1.5,0.5c-0.3,0.3-0.5,0.8-0.5,1.3
				l-0.2-1.8c0.3-0.5,0.7-1,1.2-1.3c0.5-0.3,1-0.5,1.6-0.5c0.5,0,0.9,0.1,1.2,0.2s0.7,0.3,1,0.5l-1.3,1.6
				C-366.4,582.6-366.6,582.4-366.9,582.3z"/>
			<path d="M-359.6,589.8c0,0-0.3-0.2-1-0.5c-0.7-0.3-1.2-0.8-1.5-1.4s-0.5-1.3-0.5-2.2v-1c0-0.9,0.2-1.7,0.5-2.3s0.8-1.1,1.5-1.5
				c0.6-0.3,1.4-0.5,2.3-0.5c0.8,0,1.5,0.2,2.1,0.6s1,0.9,1.4,1.7s0.5,1.6,0.5,2.6v0.6h-6.8v-1.4h4.9c-0.1-0.7-0.3-1.3-0.6-1.7
				c-0.4-0.4-0.9-0.6-1.5-0.6c-0.8,0-1.3,0.2-1.7,0.7s-0.6,1.1-0.6,1.9v1.2c0,0.8,0.2,1.3,0.7,1.7c0.4,0.4,1.1,0.6,1.9,0.6
				c0.4,0,0.8-0.1,1.2-0.2s0.7-0.3,1-0.6l1.3,1.2c-0.5,0.4-1,0.8-1.7,1c-0.6,0.2-1.2,0.4-1.9,0.4
				C-359.2,589.8-359.6,589.8-359.6,589.8z"/>
		</g>
	</g>
	<g>
		<g>
			<path class="st0" d="M-712.6,493.8c-19.7-4.9-30.3,3.4-30.3,3.4v17.3h97.2c1.6-11.5,7.6-22.5,7.6-22.5S-661.6,506.5-712.6,493.8z
				"/>
			<path class="st0" d="M-611.7,397c-26.2-5.6-46.4-13.2-78-2.6c-32.6,10.9-53.2,61.3-53.2,61.3v16.1c0,0,12.8-6.4,31.6-2.4
				c26.2,5.6,46.4,13.2,78,2.6c32.6-10.9,53.2-61.3,53.2-61.3v-16.2C-580.2,394.6-592.9,401-611.7,397z"/>
			<path class="st0" d="M-606.6,479.3c-13.9,15.1-11.8,34.5-11.7,35.3h38.2v-53.8C-580.2,460.8-593.2,464.7-606.6,479.3z"/>
			<path class="st0" d="M-677.4,351.8c-1.6,11.5-7.6,22.6-7.6,22.6s23.4-14.4,74.5-1.8c19.7,4.9,30.3-3.5,30.3-3.5v-17.4
				L-677.4,351.8z"/>
			<path class="st0" d="M-743,405.6c0,0,13.1-3.9,26.5-18.5c14.2-15.4,11.7-35.4,11.7-35.4H-743V405.6z"/>
		</g>
	</g>
	<g>
		<g>
			<path d="M-729.1,562.6h-3.7v-9.8l-10.3-14.5h4.3l7.8,11.7l7.8-11.7h4.3l-10.3,14.5L-729.1,562.6L-729.1,562.6z"/>
			<path d="M-697.6,562.6h-3.7v-24.3h3.7V562.6z"/>
			<path d="M-666.2,562.6h-3.7v-9.8l-10.3-14.5h4.3l7.8,11.7l7.8-11.7h4.3l-10.3,14.5V562.6z"/>
			<path d="M-638.9,555.5l-2.8,7.1h-3.8l10.3-24.3h4.2l9.9,24.3h-4l-2.7-7.1H-638.9z M-629.3,552.6l-4-10.7h-0.1l-4.4,10.7H-629.3z"
				/>
			<path d="M-586.4,538.3h3.7v24.3h-3.7v-11.3h-14.3v11.3h-3.7v-24.3h3.7v10.1h14.3V538.3z"/>
		</g>
	</g>
	<g>
		<g>
			<polygon points="-583.1,592.3 -742.7,592.3 -742.7,590.7 -583.1,590.7 			"/>
		</g>
	</g>
	<g>
		<text transform="matrix(0.95 0 0 1 -742.5581 609.1934)" class="st8" style="font-size:16.366px;">Real Beauty by Full Natural</text>
	</g>
	<g>
		<g>
			<path d="M-693.3,574.6h2v9.1h-2V574.6z M-687.2,578.2c0-0.6-0.2-1.1-0.5-1.5s-0.9-0.5-1.5-0.5c-0.6,0-1.1,0.2-1.5,0.5
				s-0.5,0.8-0.5,1.3l-0.2-1.8c0.3-0.5,0.7-1,1.2-1.3s1-0.5,1.7-0.5c1.1,0,1.9,0.3,2.5,1c0.6,0.7,0.9,1.6,0.9,2.8v5.5h-2
				L-687.2,578.2L-687.2,578.2z"/>
			<path d="M-680.8,583.2c-0.6-0.5-0.9-1.2-0.9-2.1c0-0.9,0.3-1.6,0.8-2s1.4-0.7,2.5-0.7h2.8l0.1,1.4h-3c-0.5,0-0.9,0.1-1.2,0.3
				c-0.3,0.2-0.4,0.5-0.4,1c0,0.5,0.2,0.8,0.5,1s0.8,0.3,1.5,0.3c0.8,0,1.3-0.1,1.7-0.2s0.6-0.4,0.6-0.7l0.2,1.3
				c-0.2,0.3-0.4,0.5-0.6,0.6s-0.5,0.3-0.9,0.4c-0.3,0.1-0.7,0.1-1.1,0.1C-679.3,583.8-680.2,583.6-680.8,583.2z M-675.6,577.9
				c0-0.6-0.2-1.1-0.5-1.4c-0.3-0.3-0.8-0.5-1.5-0.5c-0.4,0-0.8,0.1-1.2,0.2s-0.7,0.3-1,0.5l-1.4-0.9c0.4-0.4,0.9-0.7,1.5-1
				s1.3-0.3,2.1-0.3c0.8,0,1.5,0.1,2.1,0.4c0.6,0.3,1,0.7,1.3,1.2c0.3,0.5,0.5,1.1,0.5,1.8v5.9h-1.9L-675.6,577.9L-675.6,577.9z"/>
			<path d="M-670.5,574.6h4.5v1.6h-4.5V574.6z M-668.9,583.2c-0.4-0.4-0.6-1-0.6-1.8v-9.4h2v9.4c0,0.2,0,0.4,0.2,0.5
				c0.1,0.1,0.2,0.2,0.4,0.2h1v1.7h-1.1C-667.9,583.8-668.5,583.5-668.9,583.2z"/>
			<path d="M-660.3,580.1c0,0.6,0.2,1.1,0.5,1.5s0.9,0.5,1.5,0.5c0.6,0,1.1-0.2,1.5-0.5s0.5-0.8,0.5-1.3l0.1,1.9
				c-0.2,0.5-0.5,0.8-1,1.1c-0.5,0.3-1,0.5-1.7,0.5c-1.1,0-2-0.3-2.6-1c-0.6-0.7-0.9-1.6-0.9-2.7v-5.5h2L-660.3,580.1L-660.3,580.1z
				 M-656.2,574.6h2v9.1h-2V574.6z"/>
			<path d="M-650.3,574.6h2v9.1h-2V574.6z M-645.4,576.3c-0.3-0.1-0.6-0.2-0.9-0.2c-0.6,0-1.1,0.2-1.5,0.5c-0.3,0.3-0.5,0.8-0.5,1.3
				l-0.2-1.8c0.3-0.5,0.7-1,1.2-1.3c0.5-0.3,1-0.5,1.6-0.5c0.5,0,0.9,0.1,1.2,0.2s0.7,0.3,1,0.5l-1.3,1.6
				C-644.9,576.6-645.1,576.4-645.4,576.3z"/>
			<path d="M-638.1,583.8c0,0-0.3-0.2-1-0.5c-0.7-0.3-1.2-0.8-1.5-1.4s-0.5-1.3-0.5-2.2v-1c0-0.9,0.2-1.7,0.5-2.3s0.8-1.1,1.5-1.5
				c0.6-0.3,1.4-0.5,2.3-0.5c0.8,0,1.5,0.2,2.2,0.6s1,0.9,1.4,1.7s0.5,1.6,0.5,2.6v0.6h-6.8v-1.4h4.9c-0.1-0.7-0.3-1.3-0.6-1.7
				c-0.4-0.4-0.8-0.6-1.5-0.6c-0.8,0-1.3,0.2-1.7,0.7s-0.6,1.1-0.6,1.9v1.2c0,0.8,0.2,1.3,0.7,1.7c0.4,0.4,1.1,0.6,1.9,0.6
				c0.4,0,0.8-0.1,1.2-0.2s0.7-0.3,1-0.6l1.3,1.2c-0.5,0.4-1,0.8-1.7,1s-1.2,0.4-1.9,0.4C-637.7,583.8-638.1,583.8-638.1,583.8z"/>
		</g>
	</g>
	<polygon class="st5" points="-338,-574.8 -366.1,-538.7 -366.1,-512.2 -375.7,-512.2 -375.7,-538.7 -404,-574.8 -392.5,-574.8 
		-370.9,-546.1 -349.5,-574.8 	"/>
	<rect x="-297.2" y="-574" class="st5" width="9.6" height="62.7"/>
	<polygon class="st5" points="-183.5,-574.8 -211.6,-538.7 -211.6,-512.2 -221.2,-512.2 -221.2,-538.7 -249.5,-574.8 -238,-574.8 
		-216.4,-546.1 -195,-574.8 	"/>
	<path class="st5" d="M-86.5-512.2h-10.7l-8.3-19h-30.2l-8,19h-10l27.6-62.7h10.3L-86.5-512.2z M-108.3-537.9l-12.8-29l-12,29
		H-108.3z"/>
	<polygon class="st5" points="5.5,-512.2 -4.2,-512.2 -4.2,-541.8 -41.4,-541.8 -41.4,-512.2 -51,-512.2 -51,-574.8 -41.4,-574.8 
		-41.4,-549.2 -4.2,-549.2 -4.2,-574.8 5.5,-574.8 	"/>
	<path class="st0" d="M-531-570.6l10.4,18c0,0,45.3,8.9,82.6-19.1c0,0-28,24.8-34.3,52.7l26.5-14.4c0,0,15.3-98.7,135.3-66.5l-11-18
		c0,0-44-9.5-82.6,18.4c0,0,25-22.5,34.3-52.7l-26.5,14.2C-396.3-637.9-410.5-539.4-531-570.6"/>
	<text transform="matrix(1.7422 0 0 1 5.4673 -513.3535)" class="st5" style="font-family:'MalgunGothic'; font-size:29.4289px;"> </text>
	<g>
		<g>
			<path d="M42.7-542.6h6.6v30.4h-6.6V-542.6z M63-530.6c0-2.2-0.6-3.8-1.8-5s-2.9-1.8-5.2-1.8c-2.2,0-3.8,0.5-5,1.5
				c-1.2,1-1.8,2.5-1.8,4.4l-0.7-5.9c1-1.8,2.4-3.3,4-4.3s3.5-1.5,5.5-1.5c3.6,0,6.4,1.1,8.4,3.2c2,2.2,3,5.2,3,9.2v18.5H63
				L63-530.6L63-530.6z"/>
			<path d="M84.3-514c-2-1.5-3.1-3.9-3.1-7.1c0-3,0.9-5.3,2.8-6.8c1.9-1.5,4.7-2.3,8.5-2.3h9.5l0.4,4.8h-9.9c-1.7,0-3,0.3-3.8,1
				s-1.3,1.8-1.3,3.2c0,1.5,0.6,2.7,1.7,3.4c1.1,0.7,2.8,1.1,5.1,1.1c2.5,0,4.4-0.2,5.6-0.7c1.2-0.5,1.8-1.3,1.8-2.3l0.7,4.3
				c-0.6,0.8-1.3,1.5-2.1,2s-1.8,0.9-2.9,1.2s-2.4,0.4-3.8,0.4C89.4-511.7,86.3-512.5,84.3-514z M101.7-531.4c0-2-0.6-3.5-1.8-4.6
				c-1.2-1.1-2.8-1.7-5-1.7c-1.3,0-2.6,0.2-3.9,0.6s-2.4,0.9-3.4,1.5l-4.8-3c1.3-1.4,2.9-2.5,5-3.2s4.4-1.2,6.9-1.2
				c2.8,0,5.2,0.4,7.1,1.3c2,0.9,3.5,2.2,4.5,3.9s1.6,3.7,1.6,6.1v19.5h-6.3L101.7-531.4L101.7-531.4z"/>
			<path d="M118.7-542.6h15.1v5.4h-15.1V-542.6z M124-514c-1.3-1.4-1.9-3.4-1.9-6v-31.3h6.6v31.4c0,0.7,0.2,1.3,0.5,1.7
				c0.3,0.4,0.8,0.6,1.4,0.6h3.2v5.7h-3.8C127.2-512,125.3-512.7,124-514z"/>
			<path d="M152.6-524.1c0,2.1,0.6,3.8,1.8,4.9c1.2,1.2,2.9,1.7,5,1.7c2.1,0,3.8-0.5,5-1.5c1.2-1,1.8-2.5,1.8-4.4l0.4,6.4
				c-0.7,1.5-1.8,2.8-3.4,3.8s-3.4,1.5-5.7,1.5c-3.7,0-6.6-1.1-8.6-3.2c-2-2.2-3-5.2-3-9.1v-18.5h6.6V-524.1z M166.2-542.6h6.5v30.4
				h-6.5V-542.6z"/>
			<path d="M186.1-542.6h6.6v30.4h-6.6V-542.6z M202.3-536.8c-0.9-0.3-1.9-0.5-3.1-0.5c-2.1,0-3.7,0.5-4.9,1.6
				c-1.1,1-1.7,2.5-1.7,4.3l-0.7-5.9c1-1.8,2.4-3.2,4-4.2c1.6-1,3.4-1.5,5.4-1.5c1.5,0,2.9,0.2,4.1,0.6c1.2,0.4,2.3,1,3.2,1.8
				l-4.3,5.3C203.9-536,203.2-536.5,202.3-536.8z"/>
			<path d="M226.6-511.7c0,0-1.1-0.5-3.3-1.6s-3.9-2.6-5-4.6c-1.1-2-1.7-4.5-1.7-7.4v-3.4c0-3,0.6-5.6,1.7-7.7s2.7-3.8,4.8-4.9
				s4.6-1.7,7.6-1.7c2.8,0,5.2,0.6,7.1,1.9c2,1.3,3.5,3.1,4.5,5.5s1.6,5.3,1.6,8.6v2h-22.6v-4.8h16.3c-0.2-2.5-0.9-4.4-2.1-5.8
				s-2.8-2.1-4.9-2.1c-2.5,0-4.4,0.7-5.8,2.2c-1.4,1.5-2.1,3.6-2.1,6.3v3.9c0,2.5,0.7,4.5,2.2,5.8s3.5,2,6.2,2c1.3,0,2.6-0.2,4-0.7
				c1.3-0.5,2.5-1.2,3.5-2l4.3,3.9c-1.6,1.5-3.5,2.6-5.6,3.3s-4.1,1.2-6.2,1.2C228.1-511.7,226.6-511.7,226.6-511.7z"/>
		</g>
	</g>
	<g>
		<g>
			<path class="st4" d="M1289.8,926.8c-10.2-2.5-15.7,1.8-15.7,1.8v9h50.4c0.8-5.9,3.9-11.7,3.9-11.7S1316.3,933.4,1289.8,926.8z"/>
			<path class="st4" d="M1342.1,876.6c-13.6-2.9-24.1-6.9-40.5-1.4c-16.9,5.7-27.6,31.8-27.6,31.8v8.4c0,0,6.6-3.3,16.4-1.3
				c13.6,2.9,24.1,6.9,40.5,1.4c16.9-5.7,27.6-31.8,27.6-31.8v-8.4C1358.5,875.4,1351.8,878.7,1342.1,876.6z"/>
			<path class="st4" d="M1344.7,919.3c-7.2,7.8-6.1,17.9-6.1,18.3h19.8v-27.9C1358.5,909.7,1351.7,911.7,1344.7,919.3z"/>
			<path class="st4" d="M1308.1,853.2c-0.8,6-3.9,11.7-3.9,11.7s12.2-7.5,38.6-0.9c10.2,2.5,15.7-1.8,15.7-1.8v-9L1308.1,853.2z"/>
			<path class="st4" d="M1274,881.1c0,0,6.8-2,13.7-9.6c7.3-8,6.1-18.4,6.1-18.4H1274V881.1z"/>
		</g>
		<rect x="1378.1" y="904.3" width="220.5" height="2"/>
		<g>
			<text transform="matrix(0.95 0 0 1 1378.1074 933.5879)" class="st8" style="font-size:27.1995px;">Made of Full Natural</text>
		</g>
		<g>
			<g>
				<path d="M1387.4,895.8h-3.1v-8.3l-8.8-12.4h3.7l6.7,10l6.7-10h3.7l-8.8,12.4V895.8z"/>
				<path d="M1414.2,895.8h-3.2v-20.7h3.2V895.8z"/>
				<path d="M1441,895.8h-3.1v-8.3l-8.8-12.4h3.7l6.7,10l6.7-10h3.7l-8.8,12.4L1441,895.8L1441,895.8z"/>
				<path d="M1464.3,889.8l-2.4,6h-3.3l8.8-20.7h3.6l8.4,20.7h-3.4l-2.3-6H1464.3z M1472.5,887.3l-3.5-9.1h-0.1l-3.7,9.1H1472.5z"/>
				<path d="M1509.1,875.1h3.1v20.7h-3.1v-9.7h-12.2v9.7h-3.1v-20.7h3.1v8.6h12.2V875.1z"/>
			</g>
		</g>
		<g>
			<g>
				<path d="M1530.3,886.7h2v9.1h-2V886.7z M1536.3,890.3c0-0.6-0.2-1.1-0.6-1.5s-0.9-0.5-1.6-0.5c-0.6,0-1.1,0.2-1.5,0.5
					s-0.5,0.8-0.5,1.3l-0.2-1.8c0.3-0.5,0.7-1,1.2-1.3s1.1-0.5,1.7-0.5c1.1,0,1.9,0.3,2.5,1s0.9,1.6,0.9,2.8v5.5h-2V890.3z"/>
				<path d="M1542.7,895.3c-0.6-0.5-0.9-1.2-0.9-2.1c0-0.9,0.3-1.6,0.8-2c0.6-0.5,1.4-0.7,2.5-0.7h2.8l0.1,1.4h-3
					c-0.5,0-0.9,0.1-1.2,0.3c-0.3,0.2-0.4,0.5-0.4,1c0,0.5,0.2,0.8,0.5,1s0.8,0.3,1.5,0.3c0.8,0,1.3-0.1,1.7-0.2
					c0.4-0.2,0.6-0.4,0.6-0.7l0.2,1.3c-0.2,0.3-0.4,0.5-0.6,0.6c-0.3,0.2-0.6,0.3-0.9,0.4c-0.3,0.1-0.7,0.1-1.1,0.1
					C1544.3,896,1543.3,895.7,1542.7,895.3z M1548,890c0-0.6-0.2-1.1-0.5-1.4s-0.8-0.5-1.5-0.5c-0.4,0-0.8,0.1-1.2,0.2
					s-0.7,0.3-1,0.5l-1.4-0.9c0.4-0.4,0.9-0.7,1.5-1s1.3-0.3,2.1-0.3c0.8,0,1.5,0.1,2.1,0.4c0.6,0.3,1,0.7,1.3,1.2
					c0.3,0.5,0.5,1.1,0.5,1.8v5.9h-1.9L1548,890L1548,890z"/>
				<path d="M1553.1,886.7h4.5v1.6h-4.5V886.7z M1554.7,895.3c-0.4-0.4-0.6-1-0.6-1.8V884h2v9.4c0,0.2,0.1,0.4,0.1,0.5
					c0.1,0.1,0.2,0.2,0.4,0.2h0.9v1.7h-1.1C1555.6,895.9,1555,895.7,1554.7,895.3z"/>
				<path d="M1563.3,892.2c0,0.6,0.2,1.1,0.5,1.5s0.9,0.5,1.5,0.5c0.6,0,1.1-0.2,1.5-0.5s0.5-0.8,0.5-1.3l0.1,1.9
					c-0.2,0.5-0.5,0.8-1,1.1c-0.5,0.3-1,0.5-1.7,0.5c-1.1,0-2-0.3-2.6-1c-0.6-0.7-0.9-1.6-0.9-2.7v-5.5h2L1563.3,892.2L1563.3,892.2
					z M1567.3,886.7h2v9.1h-2V886.7z"/>
				<path d="M1573.3,886.7h2v9.1h-2V886.7z M1578.1,888.4c-0.3-0.1-0.6-0.2-0.9-0.2c-0.6,0-1.1,0.2-1.5,0.5s-0.5,0.8-0.5,1.3
					l-0.2-1.8c0.3-0.5,0.7-1,1.2-1.3c0.5-0.3,1-0.5,1.6-0.5c0.5,0,0.9,0.1,1.2,0.2s0.7,0.3,1,0.5l-1.3,1.6
					C1578.6,888.7,1578.4,888.5,1578.1,888.4z"/>
				<path d="M1585.4,896c0,0-0.3-0.2-1-0.5c-0.7-0.3-1.2-0.8-1.5-1.4s-0.5-1.3-0.5-2.2v-1c0-0.9,0.2-1.7,0.5-2.3s0.8-1.1,1.4-1.5
					c0.6-0.3,1.4-0.5,2.3-0.5c0.8,0,1.6,0.2,2.2,0.6c0.6,0.4,1,0.9,1.4,1.7s0.5,1.6,0.5,2.6v0.6h-6.8v-1.4h4.9
					c-0.1-0.7-0.3-1.3-0.6-1.7c-0.4-0.4-0.8-0.6-1.5-0.6c-0.8,0-1.3,0.2-1.7,0.7s-0.6,1.1-0.6,1.9v1.2c0,0.8,0.2,1.3,0.7,1.7
					c0.4,0.4,1.1,0.6,1.9,0.6c0.4,0,0.8-0.1,1.2-0.2c0.4-0.2,0.7-0.3,1.1-0.6l1.3,1.2c-0.5,0.4-1.1,0.8-1.7,1s-1.2,0.4-1.9,0.4
					C1585.9,896,1585.4,896,1585.4,896z"/>
			</g>
		</g>
	</g>
	<g>
		<g>
			<path class="st0" d="M1288.7,785.7c-10.2-2.5-15.7,1.8-15.7,1.8v9h50.4c0.8-5.9,3.9-11.7,3.9-11.7S1315.2,792.3,1288.7,785.7z"/>
			<path class="st0" d="M1341.1,735.5c-13.6-2.9-24.1-6.9-40.5-1.4c-16.9,5.7-27.6,31.8-27.6,31.8v8.4c0,0,6.6-3.3,16.4-1.3
				c13.6,2.9,24.1,6.9,40.5,1.4c16.9-5.7,27.6-31.8,27.6-31.8v-8.4C1357.4,734.3,1350.8,737.6,1341.1,735.5z"/>
			<path class="st0" d="M1343.7,778.2c-7.2,7.8-6.1,17.9-6.1,18.3h19.8v-27.9C1357.4,768.6,1350.7,770.6,1343.7,778.2z"/>
			<path class="st0" d="M1307,712c-0.8,6-3.9,11.7-3.9,11.7s12.2-7.5,38.6-0.9c10.2,2.5,15.7-1.8,15.7-1.8v-9L1307,712z"/>
			<path class="st0" d="M1273,740c0,0,6.8-2,13.7-9.6c7.3-8,6.1-18.4,6.1-18.4H1273V740z"/>
		</g>
		<rect x="1377.1" y="763.2" width="220.5" height="2"/>
		<g>
			<text transform="matrix(0.95 0 0 1 1377.0635 792.4512)" class="st8" style="font-size:27.1995px;">Made of Full Natural</text>
		</g>
		<g>
			<g>
				<path d="M1386.3,754.7h-3.1v-8.3l-8.8-12.4h3.7l6.7,10l6.7-10h3.7l-8.8,12.4V754.7z"/>
				<path d="M1413.2,754.7h-3.2v-20.7h3.2V754.7z"/>
				<path d="M1439.9,754.7h-3.1v-8.3L1428,734h3.7l6.7,10l6.7-10h3.7l-8.8,12.4L1439.9,754.7L1439.9,754.7z"/>
				<path d="M1463.2,748.7l-2.4,6h-3.3l8.8-20.7h3.6l8.4,20.7h-3.4l-2.3-6H1463.2z M1471.4,746.2l-3.5-9.1h-0.1l-3.7,9.1H1471.4z"/>
				<path d="M1508,733.9h3.1v20.7h-3.1V745h-12.2v9.7h-3.1v-20.7h3.1v8.6h12.2V733.9z"/>
			</g>
		</g>
		<g>
			<g>
				<path d="M1529.2,745.6h2v9.1h-2V745.6z M1535.3,749.2c0-0.6-0.2-1.1-0.6-1.5s-0.9-0.5-1.6-0.5c-0.6,0-1.1,0.2-1.5,0.5
					s-0.5,0.8-0.5,1.3l-0.2-1.8c0.3-0.5,0.7-1,1.2-1.3c0.5-0.3,1.1-0.5,1.7-0.5c1.1,0,1.9,0.3,2.5,1c0.6,0.7,0.9,1.6,0.9,2.8v5.5h-2
					V749.2z"/>
				<path d="M1541.7,754.1c-0.6-0.5-0.9-1.2-0.9-2.1c0-0.9,0.3-1.6,0.8-2s1.4-0.7,2.5-0.7h2.8l0.1,1.4h-3c-0.5,0-0.9,0.1-1.2,0.3
					s-0.4,0.5-0.4,1c0,0.5,0.2,0.8,0.5,1c0.3,0.2,0.8,0.3,1.5,0.3c0.8,0,1.3-0.1,1.7-0.2s0.6-0.4,0.6-0.7l0.2,1.3
					c-0.2,0.3-0.4,0.5-0.6,0.6s-0.6,0.3-0.9,0.4s-0.7,0.1-1.1,0.1C1543.2,754.8,1542.3,754.6,1541.7,754.1z M1546.9,748.9
					c0-0.6-0.2-1.1-0.5-1.4s-0.8-0.5-1.5-0.5c-0.4,0-0.8,0.1-1.2,0.2s-0.7,0.3-1,0.5l-1.4-0.9c0.4-0.4,0.9-0.7,1.5-1
					s1.3-0.3,2.1-0.3c0.8,0,1.5,0.1,2.1,0.4s1,0.7,1.3,1.2s0.5,1.1,0.5,1.8v5.9h-1.9L1546.9,748.9L1546.9,748.9z"/>
				<path d="M1552,745.6h4.5v1.6h-4.5V745.6z M1553.6,754.1c-0.4-0.4-0.6-1-0.6-1.8v-9.4h2v9.4c0,0.2,0.1,0.4,0.1,0.5
					s0.2,0.2,0.4,0.2h0.9v1.7h-1.1C1554.6,754.7,1554,754.5,1553.6,754.1z"/>
				<path d="M1562.2,751.1c0,0.6,0.2,1.1,0.5,1.5s0.9,0.5,1.5,0.5c0.6,0,1.1-0.2,1.5-0.5s0.5-0.8,0.5-1.3l0.1,1.9
					c-0.2,0.5-0.5,0.8-1,1.1c-0.5,0.3-1,0.5-1.7,0.5c-1.1,0-2-0.3-2.6-1s-0.9-1.6-0.9-2.7v-5.5h2L1562.2,751.1L1562.2,751.1z
					 M1566.3,745.6h2v9.1h-2V745.6z"/>
				<path d="M1572.2,745.6h2v9.1h-2V745.6z M1577.1,747.3c-0.3-0.1-0.6-0.2-0.9-0.2c-0.6,0-1.1,0.2-1.5,0.5
					c-0.3,0.3-0.5,0.8-0.5,1.3l-0.2-1.8c0.3-0.5,0.7-1,1.2-1.3c0.5-0.3,1-0.5,1.6-0.5c0.5,0,0.9,0.1,1.2,0.2s0.7,0.3,1,0.5l-1.3,1.6
					C1577.6,747.5,1577.4,747.4,1577.1,747.3z"/>
				<path d="M1584.4,754.8c0,0-0.3-0.2-1-0.5c-0.7-0.3-1.2-0.8-1.5-1.4s-0.5-1.3-0.5-2.2v-1c0-0.9,0.2-1.7,0.5-2.3s0.8-1.1,1.4-1.5
					s1.4-0.5,2.3-0.5c0.8,0,1.6,0.2,2.2,0.6s1.1,0.9,1.4,1.7s0.5,1.6,0.5,2.6v0.6h-6.8v-1.4h4.9c-0.1-0.7-0.3-1.3-0.6-1.7
					s-0.8-0.6-1.5-0.6c-0.8,0-1.3,0.2-1.7,0.7s-0.6,1.1-0.6,1.9v1.2c0,0.8,0.2,1.3,0.7,1.7s1.1,0.6,1.9,0.6c0.4,0,0.8-0.1,1.2-0.2
					s0.8-0.3,1.1-0.6l1.3,1.2c-0.5,0.4-1.1,0.8-1.7,1s-1.2,0.4-1.9,0.4C1584.9,754.8,1584.4,754.8,1584.4,754.8z"/>
			</g>
		</g>
	</g>
	<g>
		<g>
			<path class="st4" d="M-988.7,900.1c-19.7-4.9-30.3,3.4-30.3,3.4v17.3h97.2c1.6-11.5,7.6-22.5,7.6-22.5S-937.6,912.7-988.7,900.1z
				"/>
			<path class="st4" d="M-887.8,803.3c-26.2-5.6-46.4-13.2-78-2.6c-32.6,10.9-53.2,61.3-53.2,61.3v16.2c0,0,12.8-6.4,31.6-2.4
				c26.2,5.6,46.4,13.2,78,2.6c32.6-10.9,53.2-61.3,53.2-61.3v-16.2C-856.2,800.9-869,807.3-887.8,803.3z"/>
			<path class="st4" d="M-882.7,885.6c-13.9,15.1-11.8,34.5-11.7,35.3h38.2v-53.8C-856.2,867.1-869.3,871-882.7,885.6z"/>
			<path class="st4" d="M-953.4,758.1c-1.6,11.5-7.6,22.6-7.6,22.6s23.4-14.4,74.5-1.8c19.7,4.9,30.3-3.5,30.3-3.5V758L-953.4,758.1
				z"/>
			<path class="st4" d="M-1019,811.9c0,0,13.1-3.9,26.5-18.5c14.2-15.4,11.7-35.4,11.7-35.4h-38.2V811.9z"/>
		</g>
		<rect x="-1028.6" y="749.3" class="st7" width="181.7" height="181.6"/>
	</g>
	<g>
		<g>
			<path d="M-1005.9,973.9h-3.7v-9.8l-10.3-14.5h4.3l7.8,11.7l7.8-11.7h4.3l-10.3,14.5L-1005.9,973.9L-1005.9,973.9z"/>
			<path d="M-974.5,973.9h-3.7v-24.3h3.7V973.9z"/>
			<path d="M-943.1,973.9h-3.7v-9.8l-10.3-14.5h4.3l7.8,11.7l7.8-11.7h4.3l-10.3,14.5V973.9z"/>
			<path d="M-915.8,966.8l-2.8,7.1h-3.8l10.3-24.3h4.2l9.9,24.3h-4l-2.7-7.1H-915.8z M-906.2,963.9l-4-10.7h-0.1l-4.4,10.7H-906.2z"
				/>
			<path d="M-863.3,949.6h3.7v24.3h-3.7v-11.3h-14.3v11.3h-3.7v-24.3h3.7v10.1h14.3V949.6z"/>
		</g>
	</g>
	<g>
		<g>
			<path class="st4" d="M-434.9,896.8c-19.7-4.9-30.4,3.4-30.4,3.4v17.3h97.2c1.6-11.5,7.6-22.5,7.6-22.5S-383.8,909.5-434.9,896.8z
				"/>
			<path class="st4" d="M-334,800c-26.2-5.6-46.4-13.2-78-2.6c-32.6,10.9-53.2,61.3-53.2,61.3v16.2c0,0,12.8-6.4,31.6-2.4
				c26.2,5.6,46.4,13.2,78,2.6c32.6-10.9,53.2-61.3,53.2-61.3v-16.2C-302.4,797.6-315.2,804-334,800z"/>
			<path class="st4" d="M-328.9,882.3c-13.9,15.1-11.8,34.5-11.7,35.3h38.2v-53.8C-302.4,863.8-315.4,867.7-328.9,882.3z"/>
			<path class="st4" d="M-399.6,754.8c-1.6,11.5-7.6,22.6-7.6,22.6s23.4-14.4,74.5-1.8c19.6,4.9,30.3-3.5,30.3-3.5v-17.4
				L-399.6,754.8z"/>
			<path class="st4" d="M-465.2,808.6c0,0,13.1-3.9,26.5-18.5c14.2-15.4,11.7-35.4,11.7-35.4h-38.2V808.6z"/>
		</g>
		<rect x="-474.8" y="746" class="st7" width="181.7" height="181.6"/>
	</g>
	<g>
		<g>
			<path d="M-451.3,971.6h-3.7v-9.8l-10.3-14.5h4.3l7.8,11.7l7.8-11.7h4.3l-10.3,14.5L-451.3,971.6L-451.3,971.6z"/>
			<path d="M-419.9,971.6h-3.7v-24.3h3.7V971.6z"/>
			<path d="M-388.5,971.6h-3.7v-9.8l-10.3-14.5h4.3l7.8,11.7l7.9-11.7h4.3l-10.3,14.5L-388.5,971.6L-388.5,971.6z"/>
			<path d="M-361.2,964.5l-2.8,7.1h-3.8l10.3-24.3h4.2l9.9,24.3h-4l-2.7-7.1H-361.2z M-351.5,961.6l-4-10.7h-0.1l-4.4,10.7H-351.5z"
				/>
			<path d="M-308.7,947.3h3.7v24.3h-3.7v-11.3h-14.3v11.3h-3.7v-24.3h3.7v10.1h14.3V947.3z"/>
		</g>
	</g>
	<g>
		<g>
			<polygon points="-305.3,1001.3 -464.9,1001.3 -464.9,999.7 -305.3,999.7 			"/>
		</g>
	</g>
	<g>
		<text transform="matrix(0.95 0 0 1 -464.7837 1018.1943)" class="st8" style="font-size:16.366px;">Real Beauty by Full Natural</text>
	</g>
	<g>
		<g>
			<path d="M-415.5,983.6h2v9.1h-2V983.6z M-409.4,987.2c0-0.6-0.2-1.1-0.5-1.5s-0.9-0.5-1.5-0.5c-0.6,0-1.1,0.2-1.5,0.5
				c-0.4,0.3-0.5,0.8-0.5,1.3l-0.2-1.8c0.3-0.5,0.7-1,1.2-1.3s1-0.5,1.7-0.5c1.1,0,1.9,0.3,2.5,1c0.6,0.7,0.9,1.6,0.9,2.8v5.5h-2
				L-409.4,987.2L-409.4,987.2z"/>
			<path d="M-403,992.2c-0.6-0.5-0.9-1.2-0.9-2.1c0-0.9,0.3-1.6,0.8-2s1.4-0.7,2.5-0.7h2.9l0.1,1.4h-3c-0.5,0-0.9,0.1-1.2,0.3
				c-0.3,0.2-0.4,0.5-0.4,1c0,0.5,0.2,0.8,0.5,1s0.9,0.3,1.5,0.3c0.8,0,1.3-0.1,1.7-0.2s0.6-0.4,0.6-0.7l0.2,1.3
				c-0.2,0.3-0.4,0.5-0.6,0.6s-0.5,0.3-0.9,0.4s-0.7,0.1-1.1,0.1C-401.5,992.8-402.4,992.6-403,992.2z M-397.8,986.9
				c0-0.6-0.2-1.1-0.5-1.4s-0.9-0.5-1.5-0.5c-0.4,0-0.8,0.1-1.2,0.2s-0.7,0.3-1,0.5l-1.4-0.9c0.4-0.4,0.9-0.7,1.5-1s1.3-0.3,2.1-0.3
				c0.8,0,1.5,0.1,2.1,0.4c0.6,0.3,1,0.7,1.4,1.2c0.3,0.5,0.5,1.1,0.5,1.8v5.9h-1.9L-397.8,986.9L-397.8,986.9z"/>
			<path d="M-392.7,983.6h4.5v1.6h-4.5V983.6z M-391.1,992.2c-0.4-0.4-0.6-1-0.6-1.8v-9.4h2v9.4c0,0.2,0,0.4,0.1,0.5
				s0.2,0.2,0.4,0.2h1v1.7h-1.1C-390.1,992.8-390.7,992.6-391.1,992.2z"/>
			<path d="M-382.5,989.1c0,0.6,0.2,1.1,0.5,1.5c0.4,0.3,0.9,0.5,1.5,0.5c0.6,0,1.1-0.2,1.5-0.5s0.5-0.8,0.5-1.3l0.1,1.9
				c-0.2,0.5-0.5,0.8-1,1.1c-0.5,0.3-1,0.5-1.7,0.5c-1.1,0-2-0.3-2.6-1s-0.9-1.6-0.9-2.7v-5.5h2L-382.5,989.1L-382.5,989.1z
				 M-378.5,983.6h2v9.1h-2V983.6z"/>
			<path d="M-372.5,983.6h2v9.1h-2V983.6z M-367.6,985.3c-0.3-0.1-0.6-0.2-0.9-0.2c-0.6,0-1.1,0.2-1.5,0.5s-0.5,0.8-0.5,1.3
				l-0.2-1.8c0.3-0.5,0.7-1,1.2-1.3c0.5-0.3,1-0.5,1.6-0.5c0.5,0,0.9,0.1,1.2,0.2s0.7,0.3,1,0.5l-1.3,1.6
				C-367.1,985.6-367.4,985.4-367.6,985.3z"/>
			<path d="M-360.3,992.8c0,0-0.3-0.2-1-0.5c-0.7-0.3-1.2-0.8-1.5-1.4s-0.5-1.3-0.5-2.2v-1c0-0.9,0.2-1.7,0.5-2.3s0.8-1.1,1.5-1.5
				c0.6-0.3,1.4-0.5,2.3-0.5c0.8,0,1.5,0.2,2.1,0.6s1,0.9,1.4,1.7s0.5,1.6,0.5,2.6v0.6h-6.8v-1.4h4.9c-0.1-0.7-0.3-1.3-0.6-1.7
				s-0.9-0.6-1.5-0.6c-0.8,0-1.3,0.2-1.7,0.7s-0.6,1.1-0.6,1.9v1.2c0,0.8,0.2,1.3,0.7,1.7c0.4,0.4,1.1,0.6,1.9,0.6
				c0.4,0,0.8-0.1,1.2-0.2s0.7-0.3,1-0.6l1.3,1.2c-0.5,0.4-1,0.8-1.7,1c-0.6,0.2-1.2,0.4-1.9,0.4
				C-359.9,992.8-360.3,992.8-360.3,992.8z"/>
		</g>
	</g>
	<g>
		<g>
			<path class="st4" d="M-713.4,896.8c-19.7-4.9-30.3,3.4-30.3,3.4v17.3h97.2c1.6-11.5,7.6-22.5,7.6-22.5S-662.3,909.5-713.4,896.8z
				"/>
			<path class="st4" d="M-612.4,800c-26.2-5.6-46.4-13.2-78-2.6c-32.6,10.9-53.2,61.3-53.2,61.3v16.2c0,0,12.8-6.4,31.6-2.4
				c26.2,5.6,46.4,13.2,78,2.6c32.6-10.9,53.2-61.3,53.2-61.3v-16.2C-580.9,797.6-593.7,804-612.4,800z"/>
			<path class="st4" d="M-607.4,882.3c-13.9,15.1-11.8,34.5-11.7,35.3h38.2v-53.8C-580.9,863.8-593.9,867.7-607.4,882.3z"/>
			<path class="st4" d="M-678.1,754.8c-1.6,11.5-7.6,22.6-7.6,22.6s23.4-14.4,74.5-1.8c19.7,4.9,30.3-3.5,30.3-3.5v-17.4
				L-678.1,754.8z"/>
			<path class="st4" d="M-743.7,808.6c0,0,13.1-3.9,26.5-18.5c14.2-15.4,11.7-35.4,11.7-35.4h-38.2V808.6z"/>
		</g>
	</g>
	<g>
		<g>
			<path d="M-729.8,965.6h-3.7v-9.8l-10.3-14.5h4.3l7.8,11.7l7.8-11.7h4.3l-10.3,14.5L-729.8,965.6L-729.8,965.6z"/>
			<path d="M-698.3,965.6h-3.7v-24.3h3.7V965.6z"/>
			<path d="M-667,965.6h-3.7v-9.8l-10.3-14.5h4.3l7.8,11.7l7.8-11.7h4.3l-10.3,14.5V965.6z"/>
			<path d="M-639.7,958.5l-2.8,7.1h-3.8l10.3-24.3h4.2l9.9,24.3h-4l-2.7-7.1H-639.7z M-630,955.6l-4-10.7h-0.1l-4.4,10.7H-630z"/>
			<path d="M-587.2,941.3h3.7v24.3h-3.7v-11.3h-14.3v11.3h-3.7v-24.3h3.7v10.1h14.3V941.3z"/>
		</g>
	</g>
	<g>
		<g>
			<polygon points="-583.8,995.3 -743.4,995.3 -743.4,993.7 -583.8,993.7 			"/>
		</g>
	</g>
	<g>
		<text transform="matrix(0.95 0 0 1 -743.2754 1012.1943)" class="st8" style="font-size:16.366px;">Real Beauty by Full Natural</text>
	</g>
	<g>
		<g>
			<path d="M-694,977.6h2v9.1h-2V977.6z M-687.9,981.2c0-0.6-0.2-1.1-0.5-1.5s-0.9-0.5-1.5-0.5c-0.6,0-1.1,0.2-1.5,0.5
				s-0.5,0.8-0.5,1.3l-0.2-1.8c0.3-0.5,0.7-1,1.2-1.3s1-0.5,1.7-0.5c1.1,0,1.9,0.3,2.5,1c0.6,0.7,0.9,1.6,0.9,2.8v5.5h-2
				L-687.9,981.2L-687.9,981.2z"/>
			<path d="M-681.5,986.2c-0.6-0.5-0.9-1.2-0.9-2.1c0-0.9,0.3-1.6,0.8-2s1.4-0.7,2.5-0.7h2.8l0.1,1.4h-3c-0.5,0-0.9,0.1-1.2,0.3
				c-0.3,0.2-0.4,0.5-0.4,1c0,0.5,0.2,0.8,0.5,1s0.8,0.3,1.5,0.3c0.8,0,1.3-0.1,1.7-0.2s0.6-0.4,0.6-0.7l0.2,1.3
				c-0.2,0.3-0.4,0.5-0.6,0.6s-0.5,0.3-0.9,0.4s-0.7,0.1-1.1,0.1C-680,986.8-680.9,986.6-681.5,986.2z M-676.3,980.9
				c0-0.6-0.2-1.1-0.5-1.4c-0.3-0.3-0.8-0.5-1.5-0.5c-0.4,0-0.8,0.1-1.2,0.2s-0.7,0.3-1,0.5l-1.4-0.9c0.4-0.4,0.9-0.7,1.5-1
				s1.3-0.3,2.1-0.3c0.8,0,1.5,0.1,2.1,0.4c0.6,0.3,1,0.7,1.3,1.2c0.3,0.5,0.5,1.1,0.5,1.8v5.9h-1.9L-676.3,980.9L-676.3,980.9z"/>
			<path d="M-671.2,977.6h4.5v1.6h-4.5V977.6z M-669.6,986.2c-0.4-0.4-0.6-1-0.6-1.8v-9.4h2v9.4c0,0.2,0,0.4,0.2,0.5
				s0.2,0.2,0.4,0.2h1v1.7h-1.1C-668.6,986.8-669.2,986.6-669.6,986.2z"/>
			<path d="M-661,983.1c0,0.6,0.2,1.1,0.5,1.5s0.9,0.5,1.5,0.5c0.6,0,1.1-0.2,1.5-0.5s0.5-0.8,0.5-1.3l0.1,1.9
				c-0.2,0.5-0.5,0.8-1,1.1c-0.5,0.3-1,0.5-1.7,0.5c-1.1,0-2-0.3-2.6-1s-0.9-1.6-0.9-2.7v-5.5h2L-661,983.1L-661,983.1z
				 M-656.9,977.6h2v9.1h-2V977.6z"/>
			<path d="M-651,977.6h2v9.1h-2V977.6z M-646.1,979.3c-0.3-0.1-0.6-0.2-0.9-0.2c-0.6,0-1.1,0.2-1.5,0.5s-0.5,0.8-0.5,1.3l-0.2-1.8
				c0.3-0.5,0.7-1,1.2-1.3c0.5-0.3,1-0.5,1.6-0.5c0.5,0,0.9,0.1,1.2,0.2s0.7,0.3,1,0.5l-1.3,1.6
				C-645.6,979.6-645.9,979.4-646.1,979.3z"/>
			<path d="M-638.8,986.8c0,0-0.3-0.2-1-0.5c-0.7-0.3-1.2-0.8-1.5-1.4s-0.5-1.3-0.5-2.2v-1c0-0.9,0.2-1.7,0.5-2.3s0.8-1.1,1.5-1.5
				c0.6-0.3,1.4-0.5,2.3-0.5c0.8,0,1.5,0.2,2.2,0.6s1,0.9,1.4,1.7s0.5,1.6,0.5,2.6v0.6h-6.8v-1.4h4.9c-0.1-0.7-0.3-1.3-0.6-1.7
				s-0.8-0.6-1.5-0.6c-0.8,0-1.3,0.2-1.7,0.7s-0.6,1.1-0.6,1.9v1.2c0,0.8,0.2,1.3,0.7,1.7c0.4,0.4,1.1,0.6,1.9,0.6
				c0.4,0,0.8-0.1,1.2-0.2s0.7-0.3,1-0.6l1.3,1.2c-0.5,0.4-1,0.8-1.7,1s-1.2,0.4-1.9,0.4C-638.4,986.8-638.8,986.8-638.8,986.8z"/>
		</g>
	</g>
	<g>
		<g>
			<path class="st0" d="M90.3,324.4c-41.3-10.2-63.7,7.2-63.7,7.2v36.4h204.1c3.4-24,16-47.3,16-47.3S197.5,350.9,90.3,324.4z"/>
			<path class="st0" d="M302.2,121.1c-55-11.8-97.4-27.8-163.8-5.5C69.9,138.5,26.6,244.2,26.6,244.2v33.9c0,0,26.9-13.5,66.3-5
				c55,11.8,97.4,27.8,163.9,5.5C325.1,255.7,368.5,150,368.5,150v-33.9C368.5,116.1,341.6,129.5,302.2,121.1z"/>
			<path class="st0" d="M312.8,293.8c-29.2,31.6-24.7,72.5-24.5,74.2h80.2V255C368.5,255,341,263.2,312.8,293.8z"/>
			<path class="st0" d="M164.3,26.1c-3.4,24.1-16,47.5-16,47.5s49.2-30.2,156.4-3.7c41.3,10.2,63.7-7.2,63.7-7.2V26.1L164.3,26.1z"
				/>
			<path class="st0" d="M26.6,139.2c0,0,27.4-8.2,55.6-38.8c29.8-32.3,24.6-74.3,24.6-74.3H26.6V139.2z"/>
		</g>
		<rect x="6.5" y="7.6" class="st1" width="381.4" height="381.3"/>
	</g>
	<g>
		<g>
			<path d="M55.8,481.3h-7.7v-20.6l-21.6-30.5h9l16.4,24.5l16.4-24.5h9.1l-21.6,30.5L55.8,481.3L55.8,481.3z"/>
			<path d="M121.8,481.3h-7.8v-51h7.8V481.3z"/>
			<path d="M187.7,481.3H180v-20.6l-21.7-30.5h9l16.4,24.5l16.5-24.5h9.1l-21.7,30.5L187.7,481.3L187.7,481.3z"/>
			<path d="M245,466.5l-5.9,14.8h-8l21.6-51h8.8l20.8,51h-8.5l-5.6-14.8H245z M265.3,460.3l-8.5-22.5h-0.2l-9.1,22.5H265.3z"/>
			<path d="M355.3,430.3h7.7v51h-7.7v-23.8h-30v23.8h-7.7v-51h7.7v21.1h30V430.3z"/>
		</g>
	</g>
	<g>
		<g>
			<polygon points="362.2,543.7 27.2,543.7 27.2,540.3 362.2,540.3 			"/>
		</g>
	</g>
	<g>
		<text transform="matrix(0.95 0 0 1 21.4814 579.1758)" class="st8 st9">Real Beauty by Full Natural</text>
	</g>
	<g>
		<g>
			<path d="M130.9,506.5h4.1v19.1h-4.1V506.5z M143.7,514.1c0-1.3-0.4-2.4-1.2-3.1c-0.8-0.7-1.9-1.1-3.3-1.1c-1.4,0-2.4,0.3-3.1,1
				c-0.7,0.6-1.1,1.6-1.1,2.8l-0.4-3.7c0.6-1.2,1.5-2,2.6-2.7c1.1-0.6,2.2-0.9,3.5-0.9c2.3,0,4.1,0.7,5.3,2c1.3,1.4,1.9,3.3,1.9,5.8
				v11.6h-4.1L143.7,514.1L143.7,514.1z"/>
			<path d="M157.1,524.5c-1.3-1-1.9-2.5-1.9-4.5c0-1.9,0.6-3.3,1.8-4.3s3-1.4,5.3-1.4h6l0.3,3h-6.3c-1.1,0-1.9,0.2-2.4,0.7
				s-0.8,1.1-0.8,2c0,1,0.4,1.7,1.1,2.2s1.8,0.7,3.2,0.7c1.6,0,2.8-0.2,3.5-0.5s1.2-0.8,1.2-1.4l0.4,2.7c-0.4,0.5-0.8,0.9-1.4,1.3
				s-1.1,0.6-1.9,0.8s-1.5,0.3-2.4,0.3C160.3,526,158.4,525.5,157.1,524.5z M168.1,513.5c0-1.3-0.4-2.2-1.1-2.9
				c-0.7-0.7-1.8-1-3.1-1c-0.8,0-1.7,0.1-2.5,0.4s-1.5,0.6-2.1,1l-3-1.9c0.8-0.9,1.9-1.5,3.2-2c1.3-0.5,2.8-0.7,4.4-0.7
				c1.8,0,3.2,0.3,4.5,0.8c1.2,0.6,2.2,1.4,2.8,2.4s1,2.4,1,3.9v12.3h-3.9L168.1,513.5L168.1,513.5z"/>
			<path d="M178.8,506.5h9.5v3.4h-9.5V506.5z M182.1,524.5c-0.8-0.8-1.2-2.1-1.2-3.8V501h4.1v19.8c0,0.5,0.1,0.8,0.3,1.1
				s0.5,0.4,0.9,0.4h2v3.6h-2.4C184.2,525.8,182.9,525.3,182.1,524.5z"/>
			<path d="M200.2,518.2c0,1.3,0.4,2.4,1.1,3.1s1.8,1.1,3.2,1.1c1.4,0,2.4-0.3,3.1-1c0.7-0.7,1.1-1.6,1.1-2.8l0.3,4
				c-0.4,1-1.1,1.7-2.1,2.4s-2.2,1-3.6,1c-2.3,0-4.1-0.7-5.4-2s-1.9-3.3-1.9-5.8v-11.6h4.1L200.2,518.2L200.2,518.2z M208.8,506.5
				h4.1v19.1h-4.1V506.5z"/>
			<path d="M221.2,506.5h4.1v19.1h-4.1V506.5z M231.4,510.1c-0.6-0.2-1.2-0.3-1.9-0.3c-1.3,0-2.3,0.3-3.1,1s-1.1,1.6-1.1,2.7
				l-0.4-3.7c0.6-1.1,1.5-2,2.5-2.7s2.2-1,3.4-1c1,0,1.8,0.1,2.6,0.4s1.5,0.6,2,1.1l-2.7,3.3C232.5,510.7,232,510.4,231.4,510.1z"/>
			<path d="M246.8,526c0,0-0.7-0.3-2.1-1c-1.4-0.7-2.4-1.6-3.2-2.9c-0.7-1.3-1.1-2.8-1.1-4.7v-2.2c0-1.9,0.4-3.5,1.1-4.9
				s1.7-2.4,3-3.1c1.3-0.7,2.9-1,4.8-1c1.8,0,3.3,0.4,4.5,1.2c1.2,0.8,2.2,2,2.9,3.5c0.7,1.5,1,3.3,1,5.4v1.3h-14.2v-3h10.3
				c-0.1-1.6-0.6-2.8-1.3-3.6s-1.8-1.3-3.1-1.3c-1.6,0-2.8,0.5-3.6,1.4s-1.3,2.3-1.3,4v2.4c0,1.6,0.5,2.8,1.4,3.7
				c0.9,0.8,2.2,1.3,3.9,1.3c0.8,0,1.7-0.2,2.5-0.5s1.6-0.7,2.2-1.3l2.7,2.5c-1,0.9-2.2,1.6-3.5,2.1c-1.3,0.5-2.6,0.8-3.9,0.8
				C247.7,526,246.8,526,246.8,526z"/>
		</g>
	</g>
</g>
</svg>
