<?xml version="1.0" encoding="utf-8"?>
<!-- Generator: Adobe Illustrator 23.0.0, SVG Export Plug-In . SVG Version: 6.00 Build 0)  -->
<svg version="1.1" xmlns="http://www.w3.org/2000/svg" xmlns:xlink="http://www.w3.org/1999/xlink" x="0px" y="0px"
	 viewBox="0 0 796.4 179.57" style="enable-background:new 0 0 796.4 179.57;" xml:space="preserve">
<style type="text/css">
	.st0{fill:#FDD000;}
	.st1{fill:none;stroke:#FDD000;stroke-width:5;stroke-miterlimit:10;}
	.st2{fill:#696A63;}
	.st3{fill:#DEDFDF;}
	.st4{fill:#EFE526;}
	.st5{fill:#040000;}
	.st6{fill:#EFE435;}
	.st7{fill:none;stroke:#EFE526;stroke-width:5;stroke-miterlimit:10;}
	.st8{font-family:'MalgunGothic';}
	.st9{font-size:29.4289px;}
</style>
<g id="레이어_1">
	<g>
		<g>
			<path class="st0" d="M-988.96,168.24c-19.67-4.86-30.35,3.43-30.35,3.43V189h97.23c1.62-11.45,7.62-22.54,7.62-22.54
				S-937.88,180.86-988.96,168.24z"/>
			<path class="st0" d="M-888.04,71.42c-26.2-5.61-46.39-13.24-78.04-2.62c-32.58,10.92-53.23,61.26-53.23,61.26v16.16
				c0,0,12.79-6.42,31.57-2.4c26.21,5.62,46.39,13.24,78.05,2.63c32.58-10.93,53.22-61.26,53.22-61.26V69.03
				C-856.47,69.03-869.26,75.44-888.04,71.42z"/>
			<path class="st0" d="M-882.96,153.68c-13.89,15.07-11.78,34.54-11.69,35.32h38.19v-53.8
				C-856.47,135.2-869.53,139.11-882.96,153.68z"/>
			<path class="st0" d="M-953.69,26.18c-1.61,11.47-7.62,22.6-7.62,22.6s23.43-14.4,74.51-1.78c19.65,4.86,30.34-3.45,30.34-3.45
				V26.16L-953.69,26.18z"/>
			<path class="st0" d="M-1019.31,80.04c0,0,13.08-3.9,26.5-18.48c14.18-15.39,11.7-35.4,11.7-35.4h-38.2V80.04z"/>
		</g>
		<rect x="-1028.89" y="17.38" class="st1" width="181.68" height="181.61"/>
	</g>
	<g>
		<path class="st0" d="M-434.15,164.62c-19.67-4.86-30.35,3.43-30.35,3.43v17.32h97.23c1.62-11.45,7.62-22.54,7.62-22.54
			S-383.07,177.23-434.15,164.62z"/>
		<path class="st0" d="M-333.23,67.79c-26.2-5.61-46.39-13.24-78.04-2.62c-32.58,10.92-53.23,61.26-53.23,61.26v16.16
			c0,0,12.79-6.42,31.57-2.4c26.21,5.62,46.39,13.24,78.05,2.63c32.58-10.93,53.22-61.26,53.22-61.26V65.4
			C-301.66,65.4-314.45,71.81-333.23,67.79z"/>
		<path class="st0" d="M-328.15,150.05c-13.89,15.07-11.78,34.54-11.69,35.32h38.19v-53.8
			C-301.66,131.57-314.72,135.48-328.15,150.05z"/>
		<path class="st0" d="M-398.88,22.55c-1.61,11.47-7.62,22.6-7.62,22.6s23.43-14.4,74.51-1.78c19.65,4.86,30.34-3.44,30.34-3.44
			v-17.4L-398.88,22.55z"/>
		<path class="st0" d="M-464.5,76.41c0,0,13.08-3.91,26.5-18.48c14.18-15.39,11.7-35.4,11.7-35.4h-38.2V76.41z"/>
	</g>
	<g>
		<g>
			<path d="M-449.59,236.19h-3.67v-9.79l-10.31-14.51h4.3l7.83,11.67l7.82-11.67h4.34l-10.31,14.51V236.19z"/>
			<path d="M-418.15,236.19h-3.69v-24.3h3.69V236.19z"/>
			<path d="M-386.77,236.19h-3.66v-9.79l-10.33-14.51h4.29l7.82,11.67l7.85-11.67h4.34l-10.32,14.51V236.19z"/>
			<path d="M-359.46,229.13l-2.83,7.07h-3.81l10.27-24.3h4.17l9.89,24.3h-4.03l-2.69-7.07H-359.46z M-349.83,226.2l-4.05-10.7h-0.08
				l-4.36,10.7H-349.83z"/>
			<path d="M-306.96,211.89h3.68v24.3h-3.68v-11.35h-14.28v11.35h-3.67v-24.3h3.67v10.06h14.28V211.89z"/>
		</g>
	</g>
	<g>
		<g>
			<polygon points="-303.29,246.36 -462.87,246.36 -462.87,244.78 -303.29,244.78 -303.29,246.36 			"/>
		</g>
	</g>
	<rect x="-474.08" y="13.75" class="st1" width="181.68" height="181.61"/>
	<g>
		<text transform="matrix(0.95 0 0 1 -463.5771 263.2783)" style="font-family:'Garamond'; font-size:16.366px;">Real Beauty by Full Natural</text>
	</g>
	<g>
		<path class="st0" d="M-712.79,160.23c-19.67-4.86-30.35,3.43-30.35,3.43v17.32h97.23c1.62-11.45,7.62-22.54,7.62-22.54
			S-661.72,172.84-712.79,160.23z"/>
		<path class="st0" d="M-611.88,63.4c-26.2-5.61-46.39-13.24-78.04-2.62c-32.58,10.92-53.23,61.26-53.23,61.26v16.16
			c0,0,12.79-6.42,31.57-2.4c26.21,5.62,46.39,13.24,78.05,2.63c32.58-10.93,53.22-61.26,53.22-61.26V61.01
			C-580.3,61.01-593.1,67.42-611.88,63.4z"/>
		<path class="st0" d="M-606.8,145.66c-13.89,15.07-11.78,34.54-11.69,35.32h38.19v-53.8C-580.3,127.18-593.37,131.09-606.8,145.66z
			"/>
		<path class="st0" d="M-677.53,18.16c-1.61,11.47-7.62,22.6-7.62,22.6s23.43-14.4,74.51-1.78c19.65,4.86,30.34-3.44,30.34-3.44
			V18.14L-677.53,18.16z"/>
		<path class="st0" d="M-743.14,72.02c0,0,13.08-3.91,26.5-18.48c14.18-15.39,11.7-35.4,11.7-35.4h-38.2V72.02z"/>
	</g>
	<g>
		<g>
			<path d="M-728.24,225.8h-3.67v-9.79l-10.31-14.51h4.3l7.83,11.67l7.82-11.67h4.34l-10.31,14.51V225.8z"/>
			<path d="M-696.8,225.8h-3.69v-24.3h3.69V225.8z"/>
			<path d="M-665.41,225.8h-3.66v-9.79l-10.33-14.51h4.29l7.82,11.67l7.85-11.67h4.34l-10.31,14.51V225.8z"/>
			<path d="M-638.11,218.74l-2.83,7.07h-3.81l10.27-24.3h4.17l9.89,24.3h-4.03l-2.69-7.07H-638.11z M-628.47,215.81l-4.05-10.7
				h-0.08l-4.36,10.7H-628.47z"/>
			<path d="M-585.61,201.5h3.68v24.3h-3.68v-11.35h-14.28v11.35h-3.67v-24.3h3.67v10.06h14.28V201.5z"/>
		</g>
	</g>
	<g>
		<g>
			<polygon points="-581.94,235.97 -741.52,235.97 -741.52,234.39 -581.94,234.39 -581.94,235.97 			"/>
		</g>
	</g>
	<g>
		<text transform="matrix(0.95 0 0 1 -742.2231 252.8887)" style="font-family:'Garamond'; font-size:16.366px;">Real Beauty by Full Natural</text>
	</g>
	<g>
		<g>
			<path class="st2" d="M1078.41,64.78c0.91-1.32,2.12-2.32,3.64-3.02c1.52-0.69,3.29-1.03,5.31-1.03c2.59,0,4.78,0.42,6.54,1.26
				c1.76,0.85,3.01,2.05,3.74,3.62c1.04-1.63,2.35-2.85,3.93-3.66c1.58-0.82,3.44-1.22,5.57-1.22c3.5,0,6.18,0.71,8.04,2.15
				c1.85,1.43,2.78,3.51,2.78,6.22v24.17h-11.25v-21.7c0-2.1-0.27-3.53-0.82-4.28c-0.55-0.75-1.49-1.13-2.84-1.13
				c-1.45,0-2.62,0.41-3.52,1.24c-0.9,0.82-1.34,1.92-1.34,3.27v22.6h-11.25v-21.7c0-2.06-0.28-3.48-0.84-4.25
				c-0.56-0.77-1.52-1.16-2.9-1.16c-1.45,0-2.61,0.41-3.48,1.22c-0.87,0.82-1.31,1.92-1.31,3.29v22.6h-11.24V67.19
				c0-1.47-0.03-2.59-0.08-3.39c-0.05-0.79-0.14-1.56-0.27-2.3h11.29L1078.41,64.78z"/>
			<path class="st2" d="M1125.89,69.79v-0.62c0-2.76,1.34-4.86,4.01-6.29c2.67-1.43,6.58-2.15,11.71-2.15
				c5.09,0,8.82,0.74,11.19,2.23c2.37,1.48,3.56,3.82,3.56,7.02V85.8c0,1.4,0.06,2.73,0.19,3.98c0.13,1.25,0.33,2.41,0.58,3.51
				h-9.96l-0.86-3.62c-1.01,1.15-2.51,2.09-4.5,2.8c-1.98,0.71-4.08,1.07-6.29,1.07c-3.29,0-5.91-0.89-7.84-2.67
				c-1.94-1.78-2.9-4.2-2.9-7.25c0-3.57,1.4-6.21,4.21-7.93c2.8-1.72,7.31-2.72,13.54-2.99h3.54v-1.45c0-2.18-0.34-3.72-1.03-4.6
				c-0.69-0.88-1.84-1.33-3.45-1.33c-1.76,0-3.09,0.38-3.99,1.13c-0.9,0.75-1.34,1.87-1.34,3.35H1125.89z M1146.09,77.52
				c-4.02,0-6.8,0.43-8.33,1.28c-1.54,0.86-2.3,2.37-2.3,4.53c0,1.57,0.38,2.78,1.15,3.65c0.77,0.87,1.82,1.3,3.17,1.3
				c2.02,0,3.58-0.69,4.67-2.05c1.09-1.37,1.63-3.35,1.63-5.92V77.52z"/>
			<path class="st2" d="M1164.53,93.28v-48.2h11.09v48.2H1164.53z"/>
			<path class="st2" d="M1183.41,93.28v-48.2h11.09v48.2H1183.41z"/>
		</g>
		<path class="st2" d="M1115.55,64.58l-0.43,0.03c-0.23-1.27-0.78-2.78-0.78-2.78c-0.22-0.85-1.19-4.37,1.88-7.94
			c2.95-3.42,9.2-3.57,10.56-7.53c0.33,0.53,0.65,1.87,0.71,3c0.22,3.82-1.29,7.06-3.67,9.36c-2.09,2.03-3.63,2.85-5.67,3.77
			l-0.8,0.38c-0.18-2.11,0.76-3.77,0.76-3.77c1.72-2.78,3.09-3.9,4.66-5.13c2.46-1.89,2.91-4.28,2.91-4.28
			c-2.22,3.09-5.46,3.86-7.65,6.18C1118.04,55.88,1114.55,59.01,1115.55,64.58z"/>
	</g>
	<text transform="matrix(1 0 0 1 1120.7651 179.7505)" style="font-family:'ArialMT'; font-size:13.7867px; letter-spacing:2;">TM</text>
	<g>
		<g>
			<path class="st3" d="M-1014.71-725.52c-10.38-2.57-16.01,1.81-16.01,1.81v9.14h51.3c0.85-6.04,4.02-11.89,4.02-11.89
				S-987.77-718.86-1014.71-725.52z"/>
			<path class="st3" d="M-961.47-776.61c-13.82-2.96-24.47-6.98-41.17-1.38c-17.19,5.76-28.08,32.32-28.08,32.32v8.53
				c0,0,6.75-3.39,16.66-1.27c13.82,2.96,24.47,6.99,41.17,1.39c17.19-5.77,28.08-32.32,28.08-32.32v-8.53
				C-944.81-777.87-951.56-774.49-961.47-776.61z"/>
			<path class="st3" d="M-958.79-733.21c-7.33,7.95-6.22,18.22-6.17,18.63h20.14v-28.38C-944.81-742.96-951.71-740.89-958.79-733.21
				z"/>
			<path class="st3" d="M-996.11-800.47c-0.85,6.05-4.02,11.93-4.02,11.93s12.36-7.6,39.31-0.94c10.37,2.56,16-1.82,16-1.82v-9.18
				L-996.11-800.47z"/>
			<path class="st3" d="M-1030.72-772.05c0,0,6.9-2.06,13.98-9.75c7.48-8.12,6.17-18.68,6.17-18.68h-20.15V-772.05z"/>
		</g>
	</g>
	<g>
		<g>
			<path class="st3" d="M-874.91-725.52c10.38-2.57,16.01,1.81,16.01,1.81v9.14h-51.3c-0.86-6.04-4.02-11.89-4.02-11.89
				S-901.86-718.86-874.91-725.52z"/>
			<path class="st3" d="M-928.15-776.61c13.82-2.96,24.47-6.98,41.17-1.38c17.19,5.76,28.08,32.32,28.08,32.32v8.53
				c0,0-6.75-3.39-16.65-1.27c-13.83,2.96-24.48,6.99-41.18,1.39c-17.19-5.77-28.08-32.32-28.08-32.32v-8.53
				C-944.81-777.87-938.06-774.49-928.15-776.61z"/>
			<path class="st3" d="M-930.84-733.21c7.33,7.95,6.22,18.22,6.17,18.63h-20.15v-28.38C-944.81-742.96-937.92-740.89-930.84-733.21
				z"/>
			<path class="st3" d="M-893.52-800.47c0.85,6.05,4.02,11.93,4.02,11.93s-12.36-7.6-39.31-0.94c-10.37,2.56-16.01-1.82-16.01-1.82
				v-9.18L-893.52-800.47z"/>
			<path class="st3" d="M-858.9-772.05c0,0-6.9-2.06-13.98-9.75c-7.48-8.12-6.17-18.68-6.17-18.68h20.15V-772.05z"/>
		</g>
	</g>
	<g>
		<g>
			<path class="st3" d="M-1014.71-703.63c-10.38,2.57-16.01-1.81-16.01-1.81v-9.14h51.3c0.85,6.04,4.02,11.89,4.02,11.89
				S-987.77-710.28-1014.71-703.63z"/>
			<path class="st3" d="M-961.47-652.54c-13.82,2.96-24.47,6.98-41.17,1.38c-17.19-5.76-28.08-32.32-28.08-32.32V-692
				c0,0,6.75,3.39,16.66,1.27c13.82-2.96,24.47-6.99,41.17-1.39c17.19,5.77,28.08,32.32,28.08,32.32v8.53
				C-944.81-651.28-951.56-654.66-961.47-652.54z"/>
			<path class="st3" d="M-958.79-695.94c-7.33-7.95-6.22-18.22-6.17-18.63h20.14v28.38C-944.81-686.19-951.71-688.25-958.79-695.94z
				"/>
			<path class="st3" d="M-996.11-628.67c-0.85-6.05-4.02-11.93-4.02-11.93s12.36,7.6,39.31,0.94c10.37-2.56,16,1.82,16,1.82v9.18
				L-996.11-628.67z"/>
			<path class="st3" d="M-1030.72-657.09c0,0,6.9,2.06,13.98,9.75c7.48,8.12,6.17,18.68,6.17,18.68h-20.15V-657.09z"/>
		</g>
	</g>
	<g>
		<g>
			<path class="st3" d="M-874.91-703.63c10.38,2.57,16.01-1.81,16.01-1.81v-9.14h-51.3c-0.86,6.04-4.02,11.89-4.02,11.89
				S-901.86-710.28-874.91-703.63z"/>
			<path class="st3" d="M-928.15-652.54c13.82,2.96,24.47,6.98,41.17,1.38c17.19-5.76,28.08-32.32,28.08-32.32V-692
				c0,0-6.75,3.39-16.65,1.27c-13.83-2.96-24.48-6.99-41.18-1.39c-17.19,5.77-28.08,32.32-28.08,32.32v8.53
				C-944.81-651.28-938.06-654.66-928.15-652.54z"/>
			<path class="st3" d="M-930.84-695.94c7.33-7.95,6.22-18.22,6.17-18.63h-20.15v28.38C-944.81-686.19-937.92-688.25-930.84-695.94z
				"/>
			<path class="st3" d="M-893.52-628.67c0.85-6.05,4.02-11.93,4.02-11.93s-12.36,7.6-39.31,0.94c-10.37-2.56-16.01,1.82-16.01,1.82
				v9.18L-893.52-628.67z"/>
			<path class="st3" d="M-858.9-657.09c0,0-6.9,2.06-13.98,9.75c-7.48,8.12-6.17,18.68-6.17,18.68h20.15V-657.09z"/>
		</g>
	</g>
	<g>
		<g>
			<path class="st3" d="M-1014.71-554.13c-10.38-2.57-16.01,1.81-16.01,1.81v9.14h51.3c0.85-6.04,4.02-11.89,4.02-11.89
				S-987.77-547.47-1014.71-554.13z"/>
			<path class="st3" d="M-961.47-605.22c-13.82-2.96-24.47-6.98-41.17-1.38c-17.19,5.76-28.08,32.32-28.08,32.32v8.53
				c0,0,6.75-3.39,16.66-1.27c13.82,2.96,24.47,6.99,41.17,1.39c17.19-5.77,28.08-32.32,28.08-32.32v-8.53
				C-944.81-606.48-951.56-603.09-961.47-605.22z"/>
			<path class="st3" d="M-958.79-561.82c-7.33,7.95-6.22,18.22-6.17,18.63h20.14v-28.38C-944.81-571.56-951.71-569.5-958.79-561.82z
				"/>
			<path class="st3" d="M-996.11-629.08c-0.85,6.05-4.02,11.93-4.02,11.93s12.36-7.6,39.31-0.94c10.37,2.56,16-1.82,16-1.82v-9.18
				L-996.11-629.08z"/>
			<path class="st3" d="M-1030.72-600.66c0,0,6.9-2.06,13.98-9.75c7.48-8.12,6.17-18.68,6.17-18.68h-20.15V-600.66z"/>
		</g>
	</g>
	<g>
		<g>
			<path class="st3" d="M-874.91-554.13c10.38-2.57,16.01,1.81,16.01,1.81v9.14h-51.3c-0.86-6.04-4.02-11.89-4.02-11.89
				S-901.86-547.47-874.91-554.13z"/>
			<path class="st3" d="M-928.15-605.22c13.82-2.96,24.47-6.98,41.17-1.38c17.19,5.76,28.08,32.32,28.08,32.32v8.53
				c0,0-6.75-3.39-16.65-1.27c-13.83,2.96-24.48,6.99-41.18,1.39c-17.19-5.77-28.08-32.32-28.08-32.32v-8.53
				C-944.81-606.48-938.06-603.09-928.15-605.22z"/>
			<path class="st3" d="M-930.84-561.82c7.33,7.95,6.22,18.22,6.17,18.63h-20.15v-28.38C-944.81-571.56-937.92-569.5-930.84-561.82z
				"/>
			<path class="st3" d="M-893.52-629.08c0.85,6.05,4.02,11.93,4.02,11.93s-12.36-7.6-39.31-0.94c-10.37,2.56-16.01-1.82-16.01-1.82
				v-9.18L-893.52-629.08z"/>
			<path class="st3" d="M-858.9-600.66c0,0-6.9-2.06-13.98-9.75c-7.48-8.12-6.17-18.68-6.17-18.68h20.15V-600.66z"/>
		</g>
	</g>
	<g>
		<g>
			<path class="st3" d="M-703.09-725.52c10.38-2.57,16.01,1.81,16.01,1.81v9.14h-51.3c-0.85-6.04-4.02-11.89-4.02-11.89
				S-730.04-718.86-703.09-725.52z"/>
			<path class="st3" d="M-756.34-776.61c13.82-2.96,24.47-6.98,41.17-1.38c17.19,5.76,28.08,32.32,28.08,32.32v8.53
				c0,0-6.75-3.39-16.66-1.27c-13.82,2.96-24.47,6.99-41.17,1.39c-17.19-5.77-28.08-32.32-28.08-32.32v-8.53
				C-772.99-777.87-766.25-774.49-756.34-776.61z"/>
			<path class="st3" d="M-759.02-733.21c7.33,7.95,6.22,18.22,6.17,18.63h-20.14v-28.38C-772.99-742.96-766.1-740.89-759.02-733.21z
				"/>
			<path class="st3" d="M-721.7-800.47c0.85,6.05,4.02,11.93,4.02,11.93s-12.36-7.6-39.31-0.94c-10.37,2.56-16-1.82-16-1.82v-9.18
				L-721.7-800.47z"/>
			<path class="st3" d="M-687.08-772.05c0,0-6.9-2.06-13.98-9.75c-7.48-8.12-6.17-18.68-6.17-18.68h20.15V-772.05z"/>
		</g>
	</g>
	<g>
		<g>
			<path class="st3" d="M-842.89-725.52c-10.38-2.57-16.01,1.81-16.01,1.81v9.14h51.3c0.86-6.04,4.02-11.89,4.02-11.89
				S-815.94-718.86-842.89-725.52z"/>
			<path class="st3" d="M-789.65-776.61c-13.82-2.96-24.47-6.98-41.17-1.38c-17.19,5.76-28.08,32.32-28.08,32.32v8.53
				c0,0,6.75-3.39,16.65-1.27c13.83,2.96,24.48,6.99,41.18,1.39c17.19-5.77,28.08-32.32,28.08-32.32v-8.53
				C-772.99-777.87-779.74-774.49-789.65-776.61z"/>
			<path class="st3" d="M-786.97-733.21c-7.33,7.95-6.22,18.22-6.17,18.63h20.15v-28.38C-772.99-742.96-779.88-740.89-786.97-733.21
				z"/>
			<path class="st3" d="M-824.28-800.47c-0.85,6.05-4.02,11.93-4.02,11.93s12.36-7.6,39.31-0.94c10.37,2.56,16.01-1.82,16.01-1.82
				v-9.18L-824.28-800.47z"/>
			<path class="st3" d="M-858.9-772.05c0,0,6.9-2.06,13.98-9.75c7.48-8.12,6.17-18.68,6.17-18.68h-20.15V-772.05z"/>
		</g>
	</g>
	<g>
		<g>
			<path class="st3" d="M-703.09-703.63c10.38,2.57,16.01-1.81,16.01-1.81v-9.14h-51.3c-0.85,6.04-4.02,11.89-4.02,11.89
				S-730.04-710.28-703.09-703.63z"/>
			<path class="st3" d="M-756.34-652.54c13.82,2.96,24.47,6.98,41.17,1.38c17.19-5.76,28.08-32.32,28.08-32.32V-692
				c0,0-6.75,3.39-16.66,1.27c-13.82-2.96-24.47-6.99-41.17-1.39c-17.19,5.77-28.08,32.32-28.08,32.32v8.53
				C-772.99-651.28-766.25-654.66-756.34-652.54z"/>
			<path class="st3" d="M-759.02-695.94c7.33-7.95,6.22-18.22,6.17-18.63h-20.14v28.38C-772.99-686.19-766.1-688.25-759.02-695.94z"
				/>
			<path class="st3" d="M-721.7-628.67c0.85-6.05,4.02-11.93,4.02-11.93s-12.36,7.6-39.31,0.94c-10.37-2.56-16,1.82-16,1.82v9.18
				L-721.7-628.67z"/>
			<path class="st3" d="M-687.08-657.09c0,0-6.9,2.06-13.98,9.75c-7.48,8.12-6.17,18.68-6.17,18.68h20.15V-657.09z"/>
		</g>
	</g>
	<g>
		<g>
			<path class="st3" d="M-842.89-703.63c-10.38,2.57-16.01-1.81-16.01-1.81v-9.14h51.3c0.86,6.04,4.02,11.89,4.02,11.89
				S-815.94-710.28-842.89-703.63z"/>
			<path class="st3" d="M-789.65-652.54c-13.82,2.96-24.47,6.98-41.17,1.38c-17.19-5.76-28.08-32.32-28.08-32.32V-692
				c0,0,6.75,3.39,16.65,1.27c13.83-2.96,24.48-6.99,41.18-1.39c17.19,5.77,28.08,32.32,28.08,32.32v8.53
				C-772.99-651.28-779.74-654.66-789.65-652.54z"/>
			<path class="st3" d="M-786.97-695.94c-7.33-7.95-6.22-18.22-6.17-18.63h20.15v28.38C-772.99-686.19-779.88-688.25-786.97-695.94z
				"/>
			<path class="st3" d="M-824.28-628.67c-0.85-6.05-4.02-11.93-4.02-11.93s12.36,7.6,39.31,0.94c10.37-2.56,16.01,1.82,16.01,1.82
				v9.18L-824.28-628.67z"/>
			<path class="st3" d="M-858.9-657.09c0,0,6.9,2.06,13.98,9.75c7.48,8.12,6.17,18.68,6.17,18.68h-20.15V-657.09z"/>
		</g>
	</g>
	<g>
		<g>
			<path class="st3" d="M-703.09-554.13c10.38-2.57,16.01,1.81,16.01,1.81v9.14h-51.3c-0.85-6.04-4.02-11.89-4.02-11.89
				S-730.04-547.47-703.09-554.13z"/>
			<path class="st3" d="M-756.34-605.22c13.82-2.96,24.47-6.98,41.17-1.38c17.19,5.76,28.08,32.32,28.08,32.32v8.53
				c0,0-6.75-3.39-16.66-1.27c-13.82,2.96-24.47,6.99-41.17,1.39c-17.19-5.77-28.08-32.32-28.08-32.32v-8.53
				C-772.99-606.48-766.25-603.09-756.34-605.22z"/>
			<path class="st3" d="M-759.02-561.82c7.33,7.95,6.22,18.22,6.17,18.63h-20.14v-28.38C-772.99-571.56-766.1-569.5-759.02-561.82z"
				/>
			<path class="st3" d="M-721.7-629.08c0.85,6.05,4.02,11.93,4.02,11.93s-12.36-7.6-39.31-0.94c-10.37,2.56-16-1.82-16-1.82v-9.18
				L-721.7-629.08z"/>
			<path class="st3" d="M-687.08-600.66c0,0-6.9-2.06-13.98-9.75c-7.48-8.12-6.17-18.68-6.17-18.68h20.15V-600.66z"/>
		</g>
	</g>
	<g>
		<g>
			<path class="st3" d="M-842.89-554.13c-10.38-2.57-16.01,1.81-16.01,1.81v9.14h51.3c0.86-6.04,4.02-11.89,4.02-11.89
				S-815.94-547.47-842.89-554.13z"/>
			<path class="st3" d="M-789.65-605.22c-13.82-2.96-24.47-6.98-41.17-1.38c-17.19,5.76-28.08,32.32-28.08,32.32v8.53
				c0,0,6.75-3.39,16.65-1.27c13.83,2.96,24.48,6.99,41.18,1.39c17.19-5.77,28.08-32.32,28.08-32.32v-8.53
				C-772.99-606.48-779.74-603.09-789.65-605.22z"/>
			<path class="st3" d="M-786.97-561.82c-7.33,7.95-6.22,18.22-6.17,18.63h20.15v-28.38C-772.99-571.56-779.88-569.5-786.97-561.82z
				"/>
			<path class="st3" d="M-824.28-629.08c-0.85,6.05-4.02,11.93-4.02,11.93s12.36-7.6,39.31-0.94c10.37,2.56,16.01-1.82,16.01-1.82
				v-9.18L-824.28-629.08z"/>
			<path class="st3" d="M-858.9-600.66c0,0,6.9-2.06,13.98-9.75c7.48-8.12,6.17-18.68,6.17-18.68h-20.15V-600.66z"/>
		</g>
	</g>
	<g>
		<g>
			<g>
				<path class="st4" d="M1764.24,86.92c-10.2-2.52-15.74,1.79-15.74,1.79v8.98h50.42c0.83-5.94,3.94-11.69,3.94-11.69
					S1790.73,93.46,1764.24,86.92z"/>
				<path class="st4" d="M1816.57,36.72c-13.59-2.91-24.06-6.86-40.46-1.36c-16.9,5.66-27.6,31.76-27.6,31.76v8.38
					c0,0,6.64-3.33,16.37-1.25c13.59,2.91,24.06,6.86,40.47,1.37c16.89-5.66,27.6-31.76,27.6-31.76v-8.38
					C1832.95,35.48,1826.31,38.81,1816.57,36.72z"/>
				<path class="st4" d="M1819.2,79.37c-7.2,7.81-6.11,17.91-6.06,18.31h19.8V69.79C1832.95,69.79,1826.16,71.82,1819.2,79.37z"/>
				<path class="st4" d="M1782.53,13.27c-0.83,5.94-3.95,11.71-3.95,11.71s12.15-7.46,38.63-0.92c10.19,2.53,15.73-1.79,15.73-1.79
					v-9.02L1782.53,13.27z"/>
				<path class="st4" d="M1748.51,41.19c0,0,6.79-2.02,13.74-9.58c7.35-7.98,6.06-18.36,6.06-18.36h-19.8V41.19z"/>
			</g>
			<rect x="1852.58" y="64.39" width="220.48" height="1.99"/>
			<g>
				<path d="M1862.18,34.64h-3v-8.01l-8.44-11.87h3.52l6.41,9.55l6.41-9.55h3.54l-8.44,11.87V34.64z"/>
				<path d="M1887.9,34.64h-3.02V14.76h3.02V34.64z"/>
				<path d="M1913.57,34.64h-3v-8.01l-8.43-11.87h3.51l6.41,9.55l6.41-9.55h3.55l-8.45,11.87V34.64z"/>
				<path d="M1935.89,28.85l-2.32,5.8h-3.12l8.4-19.88h3.42l8.09,19.88h-3.3l-2.2-5.8H1935.89z M1943.77,26.47l-3.3-8.76h-0.06
					l-3.58,8.76H1943.77z"/>
				<path d="M1978.83,14.76h3.01v19.88h-3.01v-9.29h-11.66v9.29h-3.02V14.76h3.02v8.22h11.66V14.76z"/>
			</g>
			<g>
				<text transform="matrix(0.95 0 0 1 1852.5786 93.667)" style="font-family:'Garamond'; font-size:27.1995px;">Made of Full Natural</text>
			</g>
			<g>
				<g>
					<path class="st5" d="M1931.84,39.93h2.78l10.69,15.37l-0.36,0.36V39.93h3.04V59.8h-2.81l-10.66-15.13l0.36-0.36V59.8h-3.04
						V39.93z"/>
				</g>
			</g>
			<g>
				<g>
					<path class="st5" d="M1966.11,39.93h2.62l8.06,19.88h-3.31l-6.06-16.04l-6.06,16.04h-3.31L1966.11,39.93z M1961.77,52.8h11.51
						v2.65h-11.51V52.8z"/>
				</g>
			</g>
			<g>
				<g>
					<path class="st5" d="M1981.52,39.93h15.43v2.65h-15.43V39.93z M1987.7,41.56h3.07v18.25h-3.07V41.56z"/>
				</g>
			</g>
			<g>
				<g>
					<path class="st5" d="M2009.91,59.15c-1.15-0.58-2.02-1.42-2.62-2.53s-0.9-2.44-0.9-4V39.93h3.07v12.78
						c0,1.45,0.4,2.57,1.2,3.36c0.8,0.79,1.93,1.19,3.4,1.19c1.47,0,2.61-0.4,3.42-1.19c0.81-0.79,1.21-1.91,1.21-3.36V39.93h3.07
						v12.69c0,1.56-0.3,2.89-0.9,4s-1.48,1.95-2.63,2.53c-1.15,0.58-2.54,0.87-4.17,0.87C2012.44,60.02,2011.05,59.73,2009.91,59.15
						z"/>
				</g>
			</g>
			<g>
				<g>
					<path class="st5" d="M2032.18,39.92h3.07v19.89h-3.07V39.92z M2033.52,48.75h7.46c0.58,0,1.1-0.13,1.55-0.38
						c0.45-0.25,0.8-0.62,1.05-1.09c0.24-0.47,0.37-1.01,0.37-1.62c0-0.61-0.12-1.15-0.37-1.62c-0.25-0.47-0.59-0.83-1.04-1.09
						c-0.45-0.25-0.96-0.38-1.56-0.38h-7.46v-2.65h7.34c1.26,0,2.37,0.24,3.33,0.71c0.96,0.47,1.7,1.15,2.23,2.02
						c0.53,0.87,0.79,1.88,0.79,3.01c0,1.14-0.27,2.14-0.8,3.01c-0.53,0.87-1.28,1.54-2.23,2.02c-0.96,0.47-2.06,0.71-3.32,0.71
						h-7.34V48.75z M2039.47,50.79l3.05-0.63l5.6,9.65h-3.64L2039.47,50.79z"/>
				</g>
			</g>
			<g>
				<g>
					<path class="st5" d="M2057.85,39.93h3.07v19.88h-3.07V39.93z M2059.34,39.93h12.56v2.65h-12.56V39.93z M2059.34,48.61h10.9
						v2.65h-10.9V48.61z M2059.34,57.16h12.56v2.65h-12.56V57.16z"/>
				</g>
			</g>
		</g>
		<g>
			<g>
				<g>
					<path class="st4" d="M1763.79,211.73c-10.2-2.52-15.74,1.79-15.74,1.79v8.98h50.42c0.83-5.94,3.94-11.69,3.94-11.69
						S1790.27,218.28,1763.79,211.73z"/>
					<path class="st4" d="M1816.11,161.53c-13.59-2.91-24.06-6.86-40.46-1.36c-16.9,5.66-27.6,31.76-27.6,31.76v8.38
						c0,0,6.64-3.33,16.37-1.25c13.59,2.91,24.06,6.86,40.47,1.37c16.89-5.66,27.6-31.76,27.6-31.76v-8.38
						C1832.49,160.3,1825.85,163.63,1816.11,161.53z"/>
					<path class="st4" d="M1818.75,204.19c-7.2,7.81-6.11,17.91-6.06,18.31h19.8v-27.89
						C1832.49,194.61,1825.71,196.63,1818.75,204.19z"/>
					<path class="st4" d="M1782.07,138.08c-0.83,5.94-3.95,11.71-3.95,11.71s12.15-7.46,38.63-0.92
						c10.19,2.53,15.73-1.79,15.73-1.79v-9.02L1782.07,138.08z"/>
					<path class="st4" d="M1748.05,166c0,0,6.79-2.02,13.74-9.58c7.35-7.98,6.06-18.36,6.06-18.36h-19.8V166z"/>
				</g>
				<rect x="1852.12" y="189.2" width="220.48" height="1.99"/>
				<g>
					<path d="M1861.73,159.46h-3v-8.01l-8.44-11.87h3.52l6.41,9.55l6.41-9.55h3.54l-8.44,11.87V159.46z"/>
					<path d="M1887.45,159.46h-3.02v-19.88h3.02V159.46z"/>
					<path d="M1913.11,159.46h-3v-8.01l-8.43-11.87h3.51l6.41,9.55l6.41-9.55h3.55l-8.45,11.87V159.46z"/>
					<path d="M1935.44,153.66l-2.32,5.8h-3.12l8.4-19.88h3.42l8.09,19.88h-3.3l-2.21-5.8H1935.44z M1943.31,151.28l-3.3-8.76h-0.06
						l-3.58,8.76H1943.31z"/>
					<path d="M1978.37,139.58h3.01v19.88h-3.01v-9.29h-11.66v9.29h-3.02v-19.88h3.02v8.22h11.66V139.58z"/>
				</g>
				<g>
					<text transform="matrix(0.95 0 0 1 1852.1211 218.4814)" style="font-family:'Garamond'; font-size:27.1995px;">Made of Full Natural</text>
				</g>
				<g>
					<g>
					</g>
				</g>
				<g>
					<g>
					</g>
				</g>
				<g>
					<g>
					</g>
				</g>
				<g>
					<g>
					</g>
				</g>
				<g>
					<g>
					</g>
				</g>
				<g>
					<g>
					</g>
				</g>
			</g>
			<g>
				<g>
					<path d="M1981.77,169.11h3.07v14.19h-3.07V169.11z M1991.24,174.71c0-1-0.29-1.78-0.86-2.32c-0.57-0.55-1.37-0.82-2.41-0.82
						c-1,0-1.78,0.24-2.32,0.72c-0.55,0.48-0.82,1.16-0.82,2.04l-0.32-2.73c0.48-0.86,1.11-1.52,1.89-1.98
						c0.78-0.46,1.64-0.7,2.58-0.7c1.7,0,3.01,0.5,3.93,1.51c0.93,1.01,1.39,2.43,1.39,4.27v8.61h-3.07V174.71z"/>
					<path d="M2001.19,182.42c-0.95-0.72-1.43-1.83-1.43-3.3c0-1.4,0.44-2.46,1.31-3.16c0.87-0.7,2.19-1.05,3.96-1.05h4.44
						l0.21,2.24h-4.63c-0.8,0-1.4,0.16-1.8,0.49c-0.4,0.32-0.59,0.82-0.59,1.48c0,0.72,0.26,1.25,0.79,1.6
						c0.53,0.35,1.33,0.52,2.4,0.52c1.17,0,2.05-0.11,2.62-0.34c0.58-0.23,0.87-0.58,0.87-1.07l0.32,2c-0.27,0.38-0.61,0.7-1,0.94
						c-0.4,0.25-0.86,0.43-1.38,0.55s-1.11,0.18-1.76,0.18C2003.58,183.51,2002.14,183.15,2001.19,182.42z M2009.33,174.31
						c0-0.93-0.27-1.65-0.82-2.17c-0.55-0.51-1.32-0.77-2.32-0.77c-0.62,0-1.23,0.09-1.83,0.26c-0.6,0.17-1.13,0.42-1.59,0.72
						l-2.24-1.39c0.59-0.65,1.37-1.15,2.34-1.51c0.97-0.36,2.04-0.54,3.22-0.54c1.29,0,2.4,0.21,3.32,0.62
						c0.92,0.42,1.63,1.02,2.11,1.8c0.48,0.79,0.72,1.74,0.72,2.85v9.12h-2.92V174.31z"/>
					<path d="M2017.24,169.11h7.04v2.52h-7.04V169.11z M2019.73,182.42c-0.59-0.63-0.88-1.57-0.88-2.81v-14.63h3.07v14.66
						c0,0.35,0.07,0.61,0.22,0.8c0.15,0.19,0.37,0.28,0.66,0.28h1.47v2.65h-1.78C2021.24,183.37,2020.32,183.06,2019.73,182.42z"/>
					<path d="M2033.1,177.74c0,0.99,0.28,1.76,0.83,2.3c0.56,0.54,1.34,0.81,2.35,0.81c1,0,1.78-0.24,2.33-0.72
						c0.55-0.48,0.83-1.17,0.83-2.06l0.21,2.97c-0.32,0.7-0.84,1.29-1.56,1.76c-0.72,0.47-1.61,0.71-2.66,0.71
						c-1.72,0-3.06-0.5-3.99-1.51c-0.94-1.01-1.41-2.43-1.41-4.26v-8.63h3.07V177.74z M2039.45,169.11h3.05v14.19h-3.05V169.11z"/>
					<path d="M2048.7,169.11h3.07v14.19h-3.07V169.11z M2056.27,171.79c-0.41-0.15-0.89-0.23-1.43-0.23c-0.97,0-1.73,0.24-2.26,0.73
						c-0.54,0.49-0.8,1.16-0.8,2.03l-0.32-2.73c0.48-0.85,1.1-1.51,1.87-1.98c0.76-0.47,1.6-0.7,2.53-0.7
						c0.71,0,1.36,0.09,1.93,0.28c0.58,0.19,1.08,0.46,1.51,0.83l-2,2.46C2057.02,172.18,2056.68,171.95,2056.27,171.79z"/>
					<path d="M2067.61,183.51c0,0-0.51-0.25-1.53-0.74c-1.02-0.49-1.8-1.21-2.34-2.17c-0.54-0.95-0.8-2.1-0.8-3.45v-1.6
						c0-1.4,0.26-2.6,0.78-3.6c0.52-0.99,1.27-1.75,2.25-2.27s2.17-0.78,3.55-0.78c1.3,0,2.42,0.3,3.34,0.89
						c0.92,0.59,1.63,1.45,2.11,2.57s0.73,2.47,0.73,4.03v0.93h-10.53v-2.24h7.61c-0.09-1.16-0.42-2.06-0.98-2.7
						s-1.33-0.96-2.28-0.96c-1.16,0-2.06,0.35-2.7,1.04c-0.64,0.69-0.96,1.67-0.96,2.94v1.8c0,1.18,0.34,2.08,1.02,2.71
						s1.65,0.94,2.9,0.94c0.62,0,1.24-0.11,1.85-0.34c0.61-0.23,1.16-0.55,1.64-0.96l2.02,1.83c-0.77,0.67-1.64,1.2-2.6,1.57
						s-1.93,0.55-2.9,0.55C2068.33,183.51,2067.61,183.51,2067.61,183.51z"/>
				</g>
			</g>
		</g>
		<g>
			<g>
				<path class="st4" d="M1765.72,333.71c-10.2-2.52-15.74,1.79-15.74,1.79v8.98h50.42c0.83-5.94,3.94-11.69,3.94-11.69
					S1792.2,340.26,1765.72,333.71z"/>
				<path class="st4" d="M1818.04,283.51c-13.59-2.9-24.06-6.86-40.46-1.36c-16.9,5.66-27.6,31.75-27.6,31.75v8.38
					c0,0,6.64-3.32,16.37-1.25c13.59,2.91,24.06,6.86,40.47,1.37c16.89-5.66,27.6-31.76,27.6-31.76v-8.38
					C1834.42,282.28,1827.78,285.61,1818.04,283.51z"/>
				<path class="st4" d="M1820.68,326.17c-7.2,7.81-6.11,17.91-6.06,18.31h19.8v-27.89
					C1834.42,316.59,1827.64,318.61,1820.68,326.17z"/>
				<path class="st4" d="M1784,260.06c-0.83,5.94-3.95,11.71-3.95,11.71s12.15-7.46,38.63-0.92c10.19,2.53,15.73-1.79,15.73-1.79
					v-9.02L1784,260.06z"/>
				<path class="st4" d="M1749.98,287.98c0,0,6.79-2.02,13.74-9.58c7.35-7.98,6.06-18.36,6.06-18.36h-19.8V287.98z"/>
			</g>
			<rect x="1854.05" y="311.18" width="220.48" height="1.99"/>
			<g>
				<path d="M1912.66,281.44h-3v-8.01l-8.44-11.87h3.52l6.41,9.55l6.41-9.55h3.54l-8.44,11.87V281.44z"/>
				<path d="M1938.38,281.44h-3.02v-19.88h3.02V281.44z"/>
				<path d="M1964.04,281.44h-3v-8.01l-8.43-11.87h3.51l6.41,9.55l6.41-9.55h3.55l-8.45,11.87V281.44z"/>
				<path d="M1986.37,275.64l-2.32,5.8h-3.12l8.4-19.88h3.42l8.09,19.88h-3.3l-2.21-5.8H1986.37z M1994.24,273.26l-3.3-8.76h-0.06
					l-3.58,8.76H1994.24z"/>
				<path d="M2029.3,261.55h3.01v19.88h-3.01v-9.29h-11.66v9.29h-3.02v-19.88h3.02v8.22h11.66V261.55z"/>
			</g>
			<g>
				<text transform="matrix(0.95 0 0 1 1854.0518 340.4609)" style="font-family:'Garamond'; font-size:27.1995px;">Made of Full Natural</text>
			</g>
			<g>
				<g>
				</g>
			</g>
			<g>
				<g>
				</g>
			</g>
			<g>
				<g>
				</g>
			</g>
			<g>
				<g>
				</g>
			</g>
			<g>
				<g>
				</g>
			</g>
			<g>
				<g>
				</g>
			</g>
			<g>
				<g>
					<path d="M1923.7,291.09h3.07v14.19h-3.07V291.09z M1933.17,296.69c0-1-0.29-1.78-0.86-2.32c-0.57-0.55-1.37-0.82-2.41-0.82
						c-1,0-1.78,0.24-2.32,0.72c-0.55,0.48-0.82,1.16-0.82,2.04l-0.32-2.73c0.48-0.86,1.11-1.52,1.89-1.98s1.64-0.7,2.58-0.7
						c1.69,0,3,0.5,3.93,1.51c0.93,1.01,1.39,2.43,1.39,4.27v8.61h-3.07V296.69z"/>
					<path d="M1943.12,304.4c-0.95-0.72-1.43-1.82-1.43-3.3c0-1.4,0.44-2.46,1.31-3.16c0.87-0.7,2.19-1.05,3.96-1.05h4.44l0.21,2.24
						h-4.63c-0.8,0-1.4,0.16-1.8,0.48c-0.4,0.32-0.59,0.82-0.59,1.48c0,0.72,0.26,1.25,0.79,1.6c0.53,0.35,1.33,0.52,2.4,0.52
						c1.17,0,2.05-0.11,2.63-0.34c0.58-0.23,0.86-0.58,0.86-1.07l0.32,2c-0.27,0.38-0.6,0.7-1,0.94s-0.86,0.43-1.38,0.55
						c-0.52,0.12-1.11,0.19-1.76,0.19C1945.51,305.49,1944.07,305.13,1943.12,304.4z M1951.26,296.29c0-0.93-0.27-1.65-0.82-2.17
						c-0.55-0.51-1.32-0.77-2.32-0.77c-0.62,0-1.23,0.09-1.83,0.26c-0.6,0.17-1.13,0.42-1.59,0.72l-2.24-1.39
						c0.59-0.65,1.37-1.15,2.34-1.51c0.97-0.36,2.04-0.54,3.23-0.54c1.29,0,2.4,0.21,3.32,0.62c0.92,0.42,1.62,1.02,2.11,1.8
						c0.48,0.79,0.72,1.74,0.72,2.85v9.12h-2.92V296.29z"/>
					<path d="M1959.17,291.09h7.04v2.52h-7.04V291.09z M1961.66,304.4c-0.59-0.63-0.88-1.57-0.88-2.81v-14.63h3.07v14.66
						c0,0.35,0.08,0.61,0.23,0.8c0.15,0.19,0.37,0.28,0.66,0.28h1.47v2.65h-1.77C1963.17,305.35,1962.25,305.04,1961.66,304.4z"/>
					<path d="M1975.03,299.72c0,0.99,0.28,1.76,0.83,2.3c0.56,0.54,1.34,0.81,2.35,0.81c1,0,1.78-0.24,2.33-0.72
						c0.55-0.48,0.83-1.17,0.83-2.06l0.21,2.97c-0.32,0.7-0.84,1.29-1.56,1.76c-0.72,0.47-1.61,0.71-2.66,0.71
						c-1.72,0-3.05-0.5-3.99-1.51c-0.94-1.01-1.41-2.43-1.41-4.26v-8.63h3.07V299.72z M1981.38,291.09h3.05v14.19h-3.05V291.09z"/>
					<path d="M1990.63,291.09h3.07v14.19h-3.07V291.09z M1998.2,293.77c-0.41-0.15-0.89-0.23-1.43-0.23c-0.97,0-1.73,0.24-2.26,0.73
						c-0.54,0.49-0.8,1.16-0.8,2.03l-0.32-2.73c0.48-0.85,1.1-1.51,1.87-1.98c0.76-0.47,1.6-0.7,2.53-0.7
						c0.71,0,1.36,0.09,1.93,0.28c0.58,0.19,1.08,0.46,1.51,0.83l-2,2.46C1998.95,294.16,1998.61,293.93,1998.2,293.77z"/>
					<path d="M2009.54,305.49c0,0-0.51-0.25-1.53-0.74s-1.8-1.21-2.34-2.17c-0.54-0.95-0.8-2.1-0.8-3.45v-1.6
						c0-1.4,0.26-2.6,0.77-3.6c0.52-0.99,1.27-1.75,2.25-2.27s2.17-0.78,3.55-0.78c1.3,0,2.42,0.3,3.34,0.89
						c0.92,0.59,1.63,1.45,2.11,2.57s0.73,2.47,0.73,4.03v0.93h-10.53v-2.24h7.61c-0.09-1.16-0.42-2.06-0.99-2.7
						s-1.33-0.96-2.28-0.96c-1.16,0-2.06,0.35-2.7,1.04c-0.64,0.69-0.96,1.67-0.96,2.94v1.81c0,1.18,0.34,2.08,1.02,2.71
						s1.65,0.94,2.9,0.94c0.62,0,1.24-0.11,1.85-0.34c0.61-0.23,1.16-0.55,1.64-0.96l2.01,1.83c-0.77,0.67-1.64,1.2-2.6,1.56
						c-0.96,0.37-1.93,0.55-2.9,0.55C2010.26,305.49,2009.54,305.49,2009.54,305.49z"/>
				</g>
			</g>
		</g>
		<g>
			<g>
				<g>
					<path class="st4" d="M1770.11,584.85c-10.2-2.52-15.74,1.79-15.74,1.79v8.98h50.42c0.83-5.94,3.94-11.69,3.94-11.69
						S1796.59,591.39,1770.11,584.85z"/>
					<path class="st4" d="M1822.44,534.65c-13.59-2.9-24.06-6.86-40.46-1.36c-16.9,5.66-27.6,31.76-27.6,31.76v8.38
						c0,0,6.64-3.33,16.37-1.25c13.59,2.91,24.06,6.86,40.47,1.37c16.89-5.66,27.6-31.76,27.6-31.76v-8.38
						C1838.81,533.41,1832.17,536.74,1822.44,534.65z"/>
					<path class="st4" d="M1825.07,577.3c-7.2,7.81-6.11,17.91-6.06,18.31h19.8v-27.89C1838.81,567.72,1832.03,569.75,1825.07,577.3
						z"/>
					<path class="st4" d="M1788.39,511.19c-0.83,5.95-3.95,11.71-3.95,11.71s12.15-7.46,38.63-0.92
						c10.19,2.53,15.73-1.79,15.73-1.79v-9.02L1788.39,511.19z"/>
					<path class="st4" d="M1754.37,539.12c0,0,6.79-2.02,13.74-9.58c7.35-7.98,6.06-18.36,6.06-18.36h-19.8V539.12z"/>
				</g>
				<rect x="1858.44" y="562.32" width="220.48" height="1.99"/>
				<g>
					<path d="M1900.05,532.57h-3v-8.01l-8.44-11.87h3.52l6.41,9.55l6.41-9.55h3.54l-8.44,11.87V532.57z"/>
					<path d="M1925.77,532.57h-3.02v-19.88h3.02V532.57z"/>
					<path d="M1951.43,532.57h-3v-8.01l-8.43-11.87h3.51l6.41,9.55l6.41-9.55h3.55l-8.45,11.87V532.57z"/>
					<path d="M1973.76,526.77l-2.32,5.8h-3.12l8.4-19.88h3.42l8.09,19.88h-3.3l-2.2-5.8H1973.76z M1981.63,524.39l-3.3-8.76h-0.06
						l-3.58,8.76H1981.63z"/>
					<path d="M2016.69,512.69h3.01v19.88h-3.01v-9.29h-11.66v9.29h-3.02v-19.88h3.02v8.22h11.66V512.69z"/>
				</g>
				<g>
					<text transform="matrix(0.95 0 0 1 1858.4429 591.5933)" style="font-family:'Garamond'; font-size:27.1995px;">Made of Full Natural</text>
				</g>
				<g>
					<g>
						<path class="st5" d="M1914.7,537.86h2.78l10.69,15.37l-0.36,0.36v-15.72h3.04v19.87h-2.81l-10.66-15.13l0.36-0.36v15.49h-3.04
							V537.86z"/>
					</g>
				</g>
				<g>
					<g>
						<path class="st5" d="M1948.98,537.86h2.62l8.06,19.88h-3.31l-6.06-16.04l-6.06,16.04h-3.31L1948.98,537.86z M1944.63,550.72
							h11.5v2.65h-11.5V550.72z"/>
					</g>
				</g>
				<g>
					<g>
						<path class="st5" d="M1964.38,537.86h15.43v2.65h-15.43V537.86z M1970.56,539.48h3.07v18.25h-3.07V539.48z"/>
					</g>
				</g>
				<g>
					<g>
						<path class="st5" d="M1992.77,557.07c-1.15-0.58-2.02-1.42-2.63-2.53s-0.9-2.44-0.9-4v-12.69h3.07v12.78
							c0,1.45,0.4,2.57,1.2,3.36s1.94,1.19,3.4,1.19c1.47,0,2.62-0.4,3.42-1.19s1.21-1.91,1.21-3.36v-12.78h3.07v12.69
							c0,1.56-0.3,2.89-0.9,4s-1.48,1.95-2.63,2.53s-2.54,0.87-4.17,0.87C1995.3,557.94,1993.92,557.65,1992.77,557.07z"/>
					</g>
				</g>
			</g>
			<g>
				<g>
					<path class="st5" d="M2015.04,537.84h3.07v19.89h-3.07V537.84z M2016.38,546.68h7.46c0.58,0,1.1-0.13,1.55-0.38
						c0.45-0.25,0.8-0.62,1.04-1.09s0.37-1.01,0.37-1.62c0-0.61-0.12-1.15-0.37-1.62s-0.59-0.83-1.04-1.09
						c-0.45-0.25-0.96-0.38-1.56-0.38h-7.46v-2.65h7.34c1.26,0,2.37,0.24,3.33,0.71c0.96,0.47,1.7,1.15,2.22,2.02
						c0.53,0.87,0.79,1.88,0.79,3.01c0,1.14-0.27,2.14-0.8,3.01s-1.28,1.54-2.23,2.02c-0.96,0.47-2.06,0.71-3.32,0.71h-7.34V546.68z
						 M2022.34,548.71l3.05-0.63l5.59,9.65h-3.64L2022.34,548.71z"/>
				</g>
			</g>
			<g>
				<g>
					<path class="st5" d="M2040.71,537.86h3.07v19.88h-3.07V537.86z M2042.2,537.86h12.56v2.65h-12.56V537.86z M2042.2,546.54h10.9
						v2.65h-10.9V546.54z M2042.2,555.08h12.56v2.65h-12.56V555.08z"/>
				</g>
			</g>
		</g>
		<g>
			<g>
				<g>
					<path class="st4" d="M1768.29,463.5c-10.2-2.52-15.74,1.79-15.74,1.79v8.98h50.42c0.83-5.94,3.94-11.69,3.94-11.69
						S1794.78,470.04,1768.29,463.5z"/>
					<path class="st4" d="M1820.62,413.29c-13.59-2.9-24.06-6.86-40.46-1.36c-16.9,5.66-27.6,31.76-27.6,31.76v8.38
						c0,0,6.64-3.33,16.37-1.25c13.59,2.91,24.06,6.86,40.47,1.37c16.89-5.66,27.6-31.76,27.6-31.76v-8.38
						C1837,412.06,1830.36,415.39,1820.62,413.29z"/>
					<path class="st4" d="M1823.25,455.95c-7.2,7.81-6.11,17.91-6.06,18.31h19.8v-27.89C1837,446.37,1830.21,448.39,1823.25,455.95z
						"/>
					<path class="st4" d="M1786.58,389.84c-0.83,5.95-3.95,11.71-3.95,11.71s12.15-7.46,38.63-0.92
						c10.19,2.53,15.73-1.79,15.73-1.79v-9.02L1786.58,389.84z"/>
					<path class="st4" d="M1752.56,417.77c0,0,6.79-2.02,13.74-9.58c7.35-7.98,6.06-18.36,6.06-18.36h-19.8V417.77z"/>
				</g>
				<rect x="1856.63" y="440.96" width="220.48" height="1.99"/>
				<g>
					<path d="M1913.23,411.22h-3v-8.01l-8.44-11.87h3.52l6.41,9.55l6.41-9.55h3.54l-8.44,11.87V411.22z"/>
					<path d="M1938.95,411.22h-3.02v-19.88h3.02V411.22z"/>
					<path d="M1964.62,411.22h-3v-8.01l-8.43-11.87h3.51l6.41,9.55l6.41-9.55h3.55l-8.45,11.87V411.22z"/>
					<path d="M1986.94,405.42l-2.32,5.8h-3.12l8.4-19.88h3.42l8.09,19.88h-3.3l-2.2-5.8H1986.94z M1994.82,403.04l-3.3-8.76h-0.06
						l-3.58,8.76H1994.82z"/>
					<path d="M2029.88,391.34h3.01v19.88h-3.01v-9.29h-11.66v9.29h-3.02v-19.88h3.02v8.22h11.66V391.34z"/>
				</g>
				<g>
					<text transform="matrix(0.95 0 0 1 1856.6284 470.2422)" style="font-family:'Garamond'; font-size:27.1995px;">Made of Full Natural</text>
				</g>
				<g>
					<g>
						<path class="st5" d="M1898.89,416.51h2.78l10.69,15.37l-0.36,0.36v-15.72h3.04v19.87h-2.81l-10.66-15.13l0.36-0.36v15.49
							h-3.04V416.51z"/>
					</g>
				</g>
			</g>
			<g>
				<g>
					<path class="st5" d="M1933.16,416.51h2.62l8.06,19.88h-3.31l-6.06-16.04l-6.06,16.04h-3.31L1933.16,416.51z M1928.82,429.37
						h11.5v2.65h-11.5V429.37z"/>
				</g>
			</g>
			<g>
				<g>
					<path class="st5" d="M1948.57,416.51H1964v2.65h-15.43V416.51z M1954.75,418.13h3.07v18.25h-3.07V418.13z"/>
				</g>
			</g>
			<g>
				<g>
					<path class="st5" d="M1976.96,435.72c-1.15-0.58-2.02-1.42-2.63-2.53s-0.9-2.44-0.9-4v-12.69h3.07v12.78
						c0,1.45,0.4,2.57,1.2,3.36s1.94,1.19,3.4,1.19c1.47,0,2.62-0.4,3.42-1.19s1.21-1.91,1.21-3.36v-12.78h3.07v12.69
						c0,1.56-0.3,2.89-0.9,4s-1.48,1.95-2.63,2.53c-1.15,0.58-2.54,0.87-4.17,0.87C1979.49,436.59,1978.11,436.3,1976.96,435.72z"/>
				</g>
			</g>
			<g>
				<g>
					<path class="st5" d="M1999.23,416.49h3.07v19.89h-3.07V416.49z M2000.57,425.32h7.46c0.58,0,1.1-0.13,1.55-0.38
						c0.45-0.25,0.8-0.62,1.04-1.09c0.25-0.47,0.37-1.01,0.37-1.62c0-0.61-0.12-1.15-0.37-1.62c-0.25-0.47-0.59-0.83-1.04-1.09
						c-0.45-0.25-0.96-0.38-1.56-0.38h-7.46v-2.65h7.34c1.26,0,2.37,0.24,3.33,0.71c0.96,0.47,1.7,1.15,2.22,2.02
						c0.53,0.87,0.79,1.88,0.79,3.01c0,1.14-0.27,2.14-0.8,3.02c-0.53,0.87-1.28,1.54-2.23,2.02c-0.96,0.47-2.06,0.71-3.32,0.71
						h-7.34V425.32z M2006.53,427.36l3.05-0.63l5.59,9.65h-3.64L2006.53,427.36z"/>
				</g>
			</g>
			<g>
				<g>
					<path class="st5" d="M2024.9,416.51h3.07v19.88h-3.07V416.51z M2026.39,416.51h12.56v2.65h-12.56V416.51z M2026.39,425.19h10.9
						v2.65h-10.9V425.19z M2026.39,433.73h12.56v2.65h-12.56V433.73z"/>
				</g>
			</g>
		</g>
		<g>
			<g>
				<path class="st4" d="M1283.64,91.83c-10.2-2.52-15.74,1.79-15.74,1.79v8.98h50.42c0.83-5.94,3.94-11.69,3.94-11.69
					S1310.12,98.38,1283.64,91.83z"/>
				<path class="st4" d="M1335.97,41.63c-13.59-2.9-24.06-6.86-40.46-1.36c-16.9,5.66-27.6,31.76-27.6,31.76v8.38
					c0,0,6.64-3.33,16.37-1.25c13.59,2.91,24.06,6.86,40.47,1.37c16.89-5.66,27.6-31.76,27.6-31.76V40.4
					C1352.34,40.4,1345.7,43.72,1335.97,41.63z"/>
				<path class="st4" d="M1338.6,84.29c-7.2,7.81-6.11,17.91-6.06,18.31h19.8V74.71C1352.34,74.71,1345.56,76.73,1338.6,84.29z"/>
				<path class="st4" d="M1301.93,18.18c-0.83,5.95-3.95,11.71-3.95,11.71s12.15-7.46,38.63-0.92c10.19,2.53,15.73-1.79,15.73-1.79
					v-9.02L1301.93,18.18z"/>
				<path class="st4" d="M1267.9,46.1c0,0,6.79-2.02,13.74-9.58c7.35-7.98,6.06-18.36,6.06-18.36h-19.8V46.1z"/>
			</g>
			<rect x="1371.97" y="69.3" width="220.48" height="1.99"/>
			<g>
				<path d="M1371.63,56.04h-2.54v-8.01l-7.12-11.87h2.97l5.41,9.55l5.41-9.55h2.99l-7.12,11.87V56.04z"/>
				<path d="M1393.35,56.04h-2.55V36.16h2.55V56.04z"/>
				<path d="M1415.02,56.04h-2.53v-8.01l-7.12-11.87h2.96l5.41,9.55l5.41-9.55h3l-7.13,11.87V56.04z"/>
				<path d="M1433.87,50.25l-1.96,5.8h-2.63l7.09-19.88h2.88l6.83,19.88h-2.79l-1.86-5.8H1433.87z M1440.52,47.87l-2.79-8.76h-0.05
					l-3.02,8.76H1440.52z"/>
				<path d="M1470.12,36.16h2.54v19.88h-2.54v-9.29h-9.84v9.29h-2.55V36.16h2.55v8.22h9.84V36.16z"/>
			</g>
			<g>
				<text transform="matrix(0.95 0 0 1 1371.9741 98.5796)" style="font-family:'Garamond'; font-size:27.1995px;">Made of Full Natural</text>
			</g>
			<g>
				<g>
					<path class="st5" d="M1485.1,35.89h2.31l8.86,16.08l-0.3,0.37V35.89h2.52v20.79h-2.33l-8.84-15.84l0.3-0.37v16.21h-2.52V35.89z
						"/>
				</g>
			</g>
			<g>
				<g>
					<path class="st5" d="M1513.51,35.89h2.17l6.68,20.81h-2.74l-5.02-16.78l-5.02,16.78h-2.74L1513.51,35.89z M1509.9,49.35h9.53
						v2.78h-9.53V49.35z"/>
				</g>
			</g>
			<g>
				<g>
					<path class="st5" d="M1526.27,35.89h12.79v2.78h-12.79V35.89z M1531.39,37.59h2.54v19.1h-2.54V37.59z"/>
				</g>
			</g>
			<g>
				<g>
					<path class="st5" d="M1549.8,56c-0.95-0.61-1.68-1.49-2.18-2.65c-0.5-1.16-0.75-2.55-0.75-4.19V35.89h2.54v13.38
						c0,1.52,0.33,2.69,1,3.52c0.67,0.83,1.6,1.24,2.82,1.24c1.22,0,2.17-0.42,2.83-1.24c0.67-0.83,1-2,1-3.52V35.89h2.54v13.28
						c0,1.63-0.25,3.03-0.75,4.19c-0.5,1.16-1.23,2.04-2.18,2.65s-2.11,0.91-3.45,0.91C1551.89,56.91,1550.75,56.6,1549.8,56z"/>
				</g>
			</g>
			<g>
				<g>
					<path class="st5" d="M1568.25,35.87h2.54v20.82h-2.54V35.87z M1569.36,45.12h6.18c0.48,0,0.91-0.13,1.28-0.4
						c0.37-0.27,0.66-0.65,0.87-1.14c0.2-0.49,0.31-1.06,0.31-1.7c0-0.64-0.1-1.2-0.31-1.7c-0.2-0.49-0.49-0.87-0.86-1.14
						s-0.8-0.4-1.29-0.4h-6.18v-2.78h6.08c1.05,0,1.97,0.25,2.76,0.74s1.41,1.2,1.84,2.11c0.44,0.91,0.65,1.96,0.65,3.15
						c0,1.19-0.22,2.24-0.66,3.16c-0.44,0.91-1.06,1.61-1.85,2.11s-1.71,0.74-2.75,0.74h-6.08V45.12z M1574.3,47.25l2.53-0.66
						l4.64,10.1h-3.02L1574.3,47.25z"/>
				</g>
			</g>
			<g>
				<g>
					<path class="st5" d="M1589.52,35.89h2.54v20.81h-2.54V35.89z M1590.75,35.89h10.41v2.78h-10.41V35.89z M1590.75,44.97h9.04
						v2.78h-9.04V44.97z M1590.75,53.92h10.41v2.78h-10.41V53.92z"/>
				</g>
			</g>
		</g>
		<g>
			<g>
				<path class="st4" d="M1283.64,209.18c-10.2-2.52-15.74,1.79-15.74,1.79v8.98h50.42c0.83-5.94,3.94-11.69,3.94-11.69
					S1310.12,215.73,1283.64,209.18z"/>
				<path class="st4" d="M1335.97,158.98c-13.59-2.9-24.06-6.86-40.46-1.36c-16.9,5.66-27.6,31.76-27.6,31.76v8.38
					c0,0,6.64-3.33,16.37-1.25c13.59,2.91,24.06,6.86,40.47,1.37c16.89-5.66,27.6-31.76,27.6-31.76v-8.38
					C1352.34,157.74,1345.7,161.07,1335.97,158.98z"/>
				<path class="st4" d="M1338.6,201.63c-7.2,7.81-6.11,17.91-6.06,18.31h19.8v-27.89C1352.34,192.06,1345.56,194.08,1338.6,201.63z
					"/>
				<path class="st4" d="M1301.93,135.53c-0.83,5.95-3.95,11.71-3.95,11.71s12.15-7.46,38.63-0.92c10.19,2.53,15.73-1.79,15.73-1.79
					v-9.02L1301.93,135.53z"/>
				<path class="st4" d="M1267.9,163.45c0,0,6.79-2.02,13.74-9.58c7.35-7.98,6.06-18.36,6.06-18.36h-19.8V163.45z"/>
			</g>
			<rect x="1371.97" y="186.65" width="220.48" height="1.99"/>
			<g>
				<text transform="matrix(0.95 0 0 1 1371.9741 215.9263)" style="font-family:'Garamond'; font-size:27.1995px;">Made of Full Natural</text>
			</g>
			<g>
				<g>
					<path class="st5" d="M1517.41,164.13h1.89l7.26,12.07l-0.25,0.28v-12.35h2.06v15.61h-1.91l-7.24-11.89l0.24-0.28v12.17h-2.06
						V164.13z"/>
				</g>
			</g>
			<g>
				<g>
					<path class="st5" d="M1536.84,164.13h1.78l5.47,15.62h-2.25l-4.12-12.6l-4.11,12.6h-2.25L1536.84,164.13z M1533.89,174.24h7.81
						v2.08h-7.81V174.24z"/>
				</g>
			</g>
			<g>
				<g>
					<path class="st5" d="M1543.99,164.13h10.48v2.08h-10.48V164.13z M1548.19,165.41h2.08v14.34h-2.08V165.41z"/>
				</g>
			</g>
			<g>
				<g>
					<path class="st5" d="M1560.26,179.23c-0.78-0.45-1.37-1.12-1.78-1.99c-0.41-0.87-0.61-1.92-0.61-3.14v-9.97h2.08v10.04
						c0,1.14,0.27,2.02,0.82,2.64c0.54,0.62,1.31,0.93,2.31,0.93c1,0,1.78-0.31,2.32-0.93c0.55-0.62,0.82-1.5,0.82-2.64v-10.04h2.08
						v9.97c0,1.22-0.21,2.27-0.61,3.14s-1,1.53-1.79,1.99c-0.78,0.46-1.73,0.68-2.83,0.68
						C1561.98,179.91,1561.04,179.68,1560.26,179.23z"/>
				</g>
			</g>
			<g>
				<g>
					<path class="st5" d="M1571.93,164.12h2.08v15.63h-2.08V164.12z M1572.84,171.06h5.06c0.39,0,0.75-0.1,1.05-0.3
						c0.31-0.2,0.54-0.48,0.71-0.85c0.17-0.37,0.25-0.79,0.25-1.27c0-0.48-0.08-0.9-0.25-1.27c-0.17-0.37-0.4-0.65-0.71-0.85
						c-0.3-0.2-0.65-0.3-1.06-0.3h-5.06v-2.08h4.98c0.86,0,1.61,0.19,2.26,0.56c0.65,0.37,1.15,0.9,1.51,1.58
						c0.36,0.68,0.54,1.47,0.54,2.37c0,0.9-0.18,1.69-0.54,2.37c-0.36,0.68-0.87,1.21-1.52,1.58c-0.65,0.37-1.4,0.56-2.25,0.56
						h-4.98V171.06z M1576.88,172.66l2.07-0.49l3.8,7.58h-2.47L1576.88,172.66z"/>
				</g>
			</g>
			<g>
				<g>
					<path class="st5" d="M1585.87,164.13h2.08v15.62h-2.08V164.13z M1586.88,164.13h8.53v2.08h-8.53V164.13z M1586.88,170.95h7.4
						v2.08h-7.4V170.95z M1586.88,177.67h8.53v2.08h-8.53V177.67z"/>
				</g>
			</g>
			<g>
				<g>
					<path d="M1381.23,180.16h-3.13v-8.35l-8.8-12.38h3.67l6.68,9.96l6.67-9.96h3.7l-8.79,12.38V180.16z"/>
					<path d="M1408.06,180.16h-3.15v-20.74h3.15V180.16z"/>
					<path d="M1434.84,180.16h-3.12v-8.35l-8.81-12.38h3.66l6.67,9.96l6.7-9.96h3.71l-8.8,12.38V180.16z"/>
					<path d="M1458.13,174.13l-2.42,6.03h-3.25l8.76-20.74h3.56l8.44,20.74h-3.44l-2.3-6.03H1458.13z M1466.35,171.63l-3.46-9.13
						h-0.07l-3.72,9.13H1466.35z"/>
					<path d="M1502.93,159.42h3.14v20.74h-3.14v-9.68h-12.18v9.68h-3.13v-20.74h3.13V168h12.18V159.42z"/>
				</g>
			</g>
		</g>
		<g>
			<path class="st4" d="M1283.64,329.43c-10.2-2.52-15.74,1.79-15.74,1.79v8.98h50.42c0.83-5.94,3.94-11.69,3.94-11.69
				S1310.12,335.98,1283.64,329.43z"/>
			<path class="st4" d="M1335.97,279.23c-13.59-2.9-24.06-6.86-40.46-1.36c-16.9,5.66-27.6,31.76-27.6,31.76v8.38
				c0,0,6.64-3.33,16.37-1.25c13.59,2.91,24.06,6.86,40.47,1.37c16.89-5.66,27.6-31.76,27.6-31.76V278
				C1352.34,278,1345.7,281.32,1335.97,279.23z"/>
			<path class="st4" d="M1338.6,321.89c-7.2,7.81-6.11,17.91-6.06,18.31h19.8v-27.89C1352.34,312.31,1345.56,314.33,1338.6,321.89z"
				/>
			<path class="st4" d="M1301.93,255.78c-0.83,5.95-3.95,11.71-3.95,11.71s12.15-7.46,38.63-0.92c10.19,2.53,15.73-1.79,15.73-1.79
				v-9.02L1301.93,255.78z"/>
			<path class="st4" d="M1267.9,283.7c0,0,6.79-2.02,13.74-9.58c7.35-7.98,6.06-18.36,6.06-18.36h-19.8V283.7z"/>
		</g>
		<rect x="1371.97" y="306.9" width="220.48" height="1.99"/>
		<g>
			<text transform="matrix(0.95 0 0 1 1371.9741 336.1792)" style="font-family:'Garamond'; font-size:27.1995px;">Made of Full Natural</text>
		</g>
		<g>
			<g>
				<path d="M1381.23,298.41h-3.13v-8.35l-8.8-12.38h3.67l6.68,9.96l6.67-9.96h3.7l-8.79,12.38V298.41z"/>
				<path d="M1408.06,298.41h-3.15v-20.74h3.15V298.41z"/>
				<path d="M1434.84,298.41h-3.12v-8.35l-8.81-12.38h3.66l6.67,9.96l6.7-9.96h3.71l-8.8,12.38V298.41z"/>
				<path d="M1458.13,292.38l-2.42,6.03h-3.25l8.76-20.74h3.56l8.44,20.74h-3.44l-2.3-6.03H1458.13z M1466.35,289.88l-3.46-9.13
					h-0.07l-3.72,9.13H1466.35z"/>
				<path d="M1502.93,277.67h3.14v20.74h-3.14v-9.68h-12.18v9.68h-3.13v-20.74h3.13v8.58h12.18V277.67z"/>
			</g>
		</g>
		<g>
			<g>
				<path d="M1524.12,289.29h1.97v9.12h-1.97V289.29z M1530.21,292.88c0-0.64-0.18-1.14-0.55-1.49c-0.37-0.35-0.88-0.53-1.55-0.53
					c-0.64,0-1.14,0.16-1.49,0.47s-0.53,0.75-0.53,1.31l-0.2-1.76c0.31-0.55,0.71-0.98,1.21-1.27c0.5-0.3,1.05-0.45,1.66-0.45
					c1.09,0,1.93,0.32,2.53,0.97c0.6,0.65,0.89,1.56,0.89,2.75v5.54h-1.97V292.88z"/>
				<path d="M1536.6,297.84c-0.61-0.47-0.92-1.17-0.92-2.12c0-0.9,0.28-1.58,0.84-2.03s1.41-0.68,2.54-0.68h2.85l0.14,1.44h-2.98
					c-0.52,0-0.9,0.1-1.16,0.31s-0.38,0.53-0.38,0.95c0,0.46,0.17,0.81,0.51,1.03c0.34,0.22,0.85,0.33,1.54,0.33
					c0.75,0,1.32-0.07,1.69-0.22s0.56-0.38,0.56-0.69l0.2,1.28c-0.17,0.25-0.39,0.45-0.64,0.61s-0.55,0.28-0.88,0.36
					s-0.71,0.12-1.13,0.12C1538.14,298.54,1537.21,298.31,1536.6,297.84z M1541.83,292.63c0-0.6-0.18-1.06-0.53-1.39
					s-0.85-0.5-1.49-0.5c-0.4,0-0.79,0.06-1.17,0.17c-0.38,0.11-0.72,0.27-1.02,0.47l-1.44-0.9c0.38-0.42,0.88-0.74,1.5-0.97
					c0.62-0.23,1.31-0.35,2.07-0.35c0.83,0,1.54,0.13,2.14,0.4s1.04,0.65,1.35,1.16s0.46,1.12,0.46,1.83v5.86h-1.88V292.63z"/>
				<path d="M1546.92,289.29h4.53v1.62h-4.53V289.29z M1548.52,297.84c-0.38-0.41-0.57-1.01-0.57-1.81v-9.4h1.97v9.42
					c0,0.22,0.05,0.39,0.14,0.51s0.24,0.18,0.43,0.18h0.95v1.71h-1.14C1549.49,298.45,1548.9,298.25,1548.52,297.84z"/>
				<path d="M1557.12,294.83c0,0.64,0.18,1.13,0.54,1.48c0.36,0.35,0.86,0.52,1.51,0.52c0.64,0,1.14-0.16,1.5-0.47
					c0.36-0.31,0.53-0.75,0.53-1.33l0.14,1.91c-0.21,0.45-0.54,0.83-1.01,1.13c-0.46,0.3-1.04,0.46-1.71,0.46
					c-1.11,0-1.96-0.32-2.57-0.97s-0.9-1.56-0.9-2.74v-5.55h1.97V294.83z M1561.2,289.29h1.96v9.12h-1.96V289.29z"/>
				<path d="M1567.15,289.29h1.97v9.12h-1.97V289.29z M1572.01,291.01c-0.26-0.1-0.57-0.15-0.92-0.15c-0.63,0-1.11,0.16-1.46,0.47
					c-0.34,0.31-0.52,0.75-0.52,1.31l-0.2-1.76c0.31-0.54,0.71-0.97,1.2-1.27c0.49-0.3,1.03-0.45,1.62-0.45
					c0.46,0,0.87,0.06,1.24,0.18s0.69,0.3,0.97,0.53l-1.29,1.58C1572.49,291.25,1572.27,291.11,1572.01,291.01z"/>
				<path d="M1579.3,298.54c0,0-0.33-0.16-0.99-0.47c-0.66-0.32-1.16-0.78-1.5-1.39c-0.34-0.61-0.52-1.35-0.52-2.22v-1.03
					c0-0.9,0.17-1.67,0.5-2.31c0.33-0.64,0.81-1.13,1.45-1.46s1.39-0.5,2.28-0.5c0.84,0,1.55,0.19,2.15,0.57s1.05,0.93,1.36,1.65
					s0.47,1.58,0.47,2.59v0.6h-6.77v-1.44h4.89c-0.06-0.74-0.27-1.32-0.63-1.74s-0.85-0.62-1.46-0.62c-0.75,0-1.33,0.22-1.74,0.67
					c-0.41,0.45-0.61,1.08-0.61,1.89v1.16c0,0.76,0.22,1.34,0.66,1.74s1.06,0.61,1.87,0.61c0.4,0,0.79-0.07,1.19-0.22
					s0.75-0.35,1.05-0.62l1.3,1.18c-0.5,0.43-1.05,0.77-1.67,1.01s-1.24,0.36-1.87,0.36C1579.77,298.54,1579.3,298.54,1579.3,298.54
					z"/>
			</g>
		</g>
		<g>
			<path class="st4" d="M1283.64,461.32c-10.2-2.52-15.74,1.79-15.74,1.79v8.98h50.42c0.83-5.94,3.94-11.69,3.94-11.69
				S1310.12,467.86,1283.64,461.32z"/>
			<path class="st4" d="M1335.97,411.11c-13.59-2.9-24.06-6.86-40.46-1.36c-16.9,5.66-27.6,31.76-27.6,31.76v8.38
				c0,0,6.64-3.33,16.37-1.25c13.59,2.91,24.06,6.86,40.47,1.37c16.89-5.66,27.6-31.76,27.6-31.76v-8.38
				C1352.34,409.88,1345.7,413.21,1335.97,411.11z"/>
			<path class="st4" d="M1338.6,453.77c-7.2,7.81-6.11,17.91-6.06,18.31h19.8v-27.89C1352.34,444.19,1345.56,446.21,1338.6,453.77z"
				/>
			<path class="st4" d="M1301.93,387.66c-0.83,5.95-3.95,11.71-3.95,11.71s12.15-7.46,38.63-0.92c10.19,2.53,15.73-1.79,15.73-1.79
				v-9.02L1301.93,387.66z"/>
			<path class="st4" d="M1267.9,415.58c0,0,6.79-2.02,13.74-9.58c7.35-7.98,6.06-18.36,6.06-18.36h-19.8V415.58z"/>
		</g>
		<rect x="1371.97" y="438.78" width="220.48" height="1.99"/>
		<g>
			<text transform="matrix(0.95 0 0 1 1371.9741 468.061)" style="font-family:'Garamond'; font-size:27.1995px;">Made of Full Natural</text>
		</g>
		<g>
			<g>
				<path d="M1387.23,424.29h-3.13v-8.35l-8.8-12.38h3.67l6.68,9.96l6.67-9.96h3.7l-8.79,12.38V424.29z"/>
				<path d="M1414.06,424.29h-3.15v-20.74h3.15V424.29z"/>
				<path d="M1440.84,424.29h-3.12v-8.35l-8.81-12.38h3.66l6.67,9.96l6.7-9.96h3.71l-8.8,12.38V424.29z"/>
				<path d="M1464.13,418.26l-2.42,6.03h-3.25l8.76-20.74h3.56l8.44,20.74h-3.44l-2.3-6.03H1464.13z M1472.35,415.76l-3.46-9.13
					h-0.07l-3.72,9.13H1472.35z"/>
				<path d="M1508.93,403.55h3.14v20.74h-3.14v-9.68h-12.18v9.68h-3.13v-20.74h3.13v8.58h12.18V403.55z"/>
			</g>
		</g>
		<g>
			<g>
				<path d="M1530.12,415.17h1.97v9.12h-1.97V415.17z M1536.21,418.76c0-0.64-0.18-1.14-0.55-1.49c-0.37-0.35-0.88-0.53-1.55-0.53
					c-0.64,0-1.14,0.16-1.49,0.47s-0.53,0.75-0.53,1.31l-0.2-1.76c0.31-0.55,0.71-0.98,1.21-1.27c0.5-0.3,1.05-0.45,1.66-0.45
					c1.09,0,1.93,0.32,2.53,0.97c0.6,0.65,0.89,1.56,0.89,2.75v5.54h-1.97V418.76z"/>
				<path d="M1542.6,423.72c-0.61-0.47-0.92-1.17-0.92-2.12c0-0.9,0.28-1.58,0.84-2.03s1.41-0.68,2.54-0.68h2.85l0.14,1.44h-2.98
					c-0.52,0-0.9,0.1-1.16,0.31c-0.25,0.21-0.38,0.53-0.38,0.95c0,0.46,0.17,0.81,0.51,1.03c0.34,0.22,0.85,0.33,1.54,0.33
					c0.75,0,1.32-0.07,1.69-0.22s0.56-0.38,0.56-0.69l0.2,1.28c-0.17,0.25-0.39,0.45-0.64,0.61s-0.55,0.28-0.88,0.36
					c-0.33,0.08-0.71,0.12-1.13,0.12C1544.14,424.42,1543.21,424.19,1542.6,423.72z M1547.83,418.51c0-0.6-0.18-1.06-0.53-1.39
					c-0.35-0.33-0.85-0.5-1.49-0.5c-0.4,0-0.79,0.06-1.17,0.17c-0.38,0.11-0.72,0.27-1.02,0.47l-1.44-0.9
					c0.38-0.42,0.88-0.74,1.5-0.97c0.62-0.23,1.31-0.35,2.07-0.35c0.83,0,1.54,0.13,2.14,0.4c0.59,0.27,1.04,0.65,1.35,1.16
					c0.31,0.51,0.46,1.12,0.46,1.83v5.86h-1.88V418.51z"/>
				<path d="M1552.92,415.17h4.53v1.62h-4.53V415.17z M1554.52,423.72c-0.38-0.41-0.57-1.01-0.57-1.81v-9.4h1.97v9.42
					c0,0.22,0.05,0.39,0.14,0.51c0.1,0.12,0.24,0.18,0.43,0.18h0.95v1.71h-1.14C1555.49,424.33,1554.9,424.13,1554.52,423.72z"/>
				<path d="M1563.12,420.71c0,0.64,0.18,1.13,0.54,1.48c0.36,0.35,0.86,0.52,1.51,0.52c0.64,0,1.14-0.16,1.5-0.47
					c0.36-0.31,0.53-0.75,0.53-1.33l0.14,1.91c-0.21,0.45-0.54,0.83-1.01,1.13c-0.46,0.3-1.04,0.46-1.71,0.46
					c-1.11,0-1.96-0.32-2.57-0.97c-0.6-0.65-0.9-1.56-0.9-2.74v-5.55h1.97V420.71z M1567.2,415.17h1.96v9.12h-1.96V415.17z"/>
				<path d="M1573.15,415.17h1.97v9.12h-1.97V415.17z M1578.01,416.89c-0.26-0.1-0.57-0.15-0.92-0.15c-0.63,0-1.11,0.16-1.46,0.47
					c-0.34,0.31-0.52,0.75-0.52,1.31l-0.2-1.76c0.31-0.54,0.71-0.97,1.2-1.27c0.49-0.3,1.03-0.45,1.62-0.45
					c0.46,0,0.87,0.06,1.24,0.18c0.37,0.12,0.69,0.3,0.97,0.53l-1.29,1.58C1578.49,417.14,1578.27,416.99,1578.01,416.89z"/>
				<path d="M1585.3,424.42c0,0-0.33-0.16-0.99-0.47c-0.66-0.32-1.16-0.78-1.5-1.39c-0.34-0.61-0.52-1.35-0.52-2.22v-1.03
					c0-0.9,0.17-1.67,0.5-2.31c0.33-0.64,0.81-1.13,1.45-1.46s1.39-0.5,2.28-0.5c0.84,0,1.55,0.19,2.15,0.57s1.05,0.93,1.36,1.65
					s0.47,1.58,0.47,2.59v0.6h-6.77v-1.44h4.89c-0.06-0.74-0.27-1.32-0.63-1.74c-0.36-0.41-0.85-0.62-1.46-0.62
					c-0.75,0-1.33,0.22-1.74,0.67c-0.41,0.45-0.61,1.08-0.61,1.89v1.16c0,0.76,0.22,1.34,0.66,1.74s1.06,0.61,1.87,0.61
					c0.4,0,0.79-0.07,1.19-0.22s0.75-0.35,1.05-0.62l1.3,1.18c-0.5,0.43-1.05,0.77-1.67,1.01c-0.62,0.24-1.24,0.36-1.87,0.36
					C1585.77,424.42,1585.3,424.42,1585.3,424.42z"/>
			</g>
		</g>
		<g>
			<path class="st4" d="M1284.33,570.57c-10.2-2.52-15.74,1.79-15.74,1.79v8.98h50.42c0.83-5.94,3.94-11.69,3.94-11.69
				S1310.81,577.11,1284.33,570.57z"/>
			<path class="st4" d="M1336.65,520.37c-13.59-2.9-24.06-6.86-40.46-1.36c-16.9,5.66-27.6,31.75-27.6,31.75v8.38
				c0,0,6.64-3.32,16.37-1.25c13.59,2.91,24.06,6.86,40.47,1.37c16.89-5.66,27.6-31.76,27.6-31.76v-8.38
				C1353.03,519.13,1346.39,522.46,1336.65,520.37z"/>
			<path class="st4" d="M1339.29,563.02c-7.2,7.81-6.11,17.91-6.06,18.31h19.8v-27.89C1353.03,553.44,1346.25,555.46,1339.29,563.02
				z"/>
			<path class="st4" d="M1302.61,496.91c-0.83,5.94-3.95,11.71-3.95,11.71s12.15-7.46,38.63-0.92c10.19,2.53,15.73-1.79,15.73-1.79
				v-9.02L1302.61,496.91z"/>
			<path class="st4" d="M1268.59,524.84c0,0,6.79-2.02,13.74-9.58c7.35-7.98,6.06-18.36,6.06-18.36h-19.8V524.84z"/>
		</g>
		<rect x="1372.66" y="548.03" width="220.48" height="1.99"/>
		<g>
			<path d="M1431.27,523.29h-3v-8.01l-8.44-11.87h3.52l6.41,9.55l6.41-9.55h3.54l-8.44,11.87V523.29z"/>
			<path d="M1456.99,523.29h-3.02v-19.88h3.02V523.29z"/>
			<path d="M1482.65,523.29h-3v-8.01l-8.43-11.87h3.51l6.41,9.55l6.41-9.55h3.55l-8.45,11.87V523.29z"/>
			<path d="M1504.98,517.49l-2.32,5.8h-3.12l8.4-19.88h3.42l8.09,19.88h-3.3l-2.21-5.8H1504.98z M1512.85,515.11l-3.3-8.76h-0.06
				l-3.58,8.76H1512.85z"/>
			<path d="M1547.91,503.41h3.01v19.88h-3.01V514h-11.66v9.29h-3.02v-19.88h3.02v8.22h11.66V503.41z"/>
		</g>
		<g>
			<text transform="matrix(0.95 0 0 1 1372.6626 577.3135)" style="font-family:'Garamond'; font-size:27.1995px;">Made of Full Natural</text>
		</g>
		<g>
			<g>
			</g>
		</g>
		<g>
			<g>
			</g>
		</g>
		<g>
			<g>
			</g>
		</g>
		<g>
			<g>
			</g>
		</g>
		<g>
			<g>
			</g>
		</g>
		<g>
			<g>
			</g>
		</g>
		<g>
			<g>
				<path d="M1457.45,533.01h1.97v9.12h-1.97V533.01z M1463.54,536.61c0-0.64-0.18-1.14-0.55-1.49s-0.88-0.53-1.55-0.53
					c-0.64,0-1.14,0.15-1.49,0.46s-0.53,0.75-0.53,1.31l-0.2-1.76c0.31-0.55,0.71-0.98,1.21-1.28c0.5-0.3,1.05-0.45,1.66-0.45
					c1.09,0,1.93,0.32,2.53,0.97c0.6,0.65,0.89,1.56,0.89,2.75v5.54h-1.97V536.61z"/>
				<path d="M1469.94,541.57c-0.61-0.47-0.92-1.17-0.92-2.12c0-0.9,0.28-1.58,0.84-2.03c0.56-0.45,1.41-0.68,2.54-0.68h2.85
					l0.13,1.44h-2.98c-0.52,0-0.9,0.1-1.16,0.31c-0.25,0.21-0.38,0.53-0.38,0.95c0,0.46,0.17,0.81,0.51,1.03
					c0.34,0.22,0.85,0.33,1.54,0.33c0.75,0,1.32-0.07,1.69-0.22c0.37-0.15,0.56-0.38,0.56-0.69l0.2,1.28
					c-0.17,0.25-0.39,0.45-0.64,0.61s-0.55,0.28-0.88,0.36s-0.71,0.12-1.13,0.12C1471.47,542.27,1470.55,542.04,1469.94,541.57z
					 M1475.17,536.35c0-0.6-0.18-1.06-0.53-1.39c-0.35-0.33-0.85-0.5-1.49-0.5c-0.4,0-0.79,0.05-1.17,0.17
					c-0.38,0.11-0.72,0.27-1.02,0.47l-1.44-0.9c0.38-0.42,0.88-0.74,1.5-0.97s1.31-0.35,2.07-0.35c0.83,0,1.54,0.13,2.14,0.4
					c0.59,0.27,1.04,0.65,1.35,1.16s0.46,1.12,0.46,1.83v5.86h-1.88V536.35z"/>
				<path d="M1480.25,533.01h4.52v1.62h-4.52V533.01z M1481.85,541.57c-0.38-0.41-0.57-1.01-0.57-1.81v-9.4h1.97v9.42
					c0,0.22,0.05,0.39,0.14,0.51s0.24,0.18,0.43,0.18h0.95v1.71h-1.14C1482.83,542.18,1482.23,541.98,1481.85,541.57z"/>
				<path d="M1490.45,538.56c0,0.64,0.18,1.13,0.54,1.48s0.86,0.52,1.51,0.52c0.64,0,1.14-0.16,1.5-0.47s0.53-0.75,0.53-1.33
					l0.14,1.91c-0.21,0.45-0.54,0.83-1.01,1.13c-0.46,0.3-1.03,0.46-1.71,0.46c-1.11,0-1.96-0.32-2.57-0.97
					c-0.6-0.65-0.9-1.56-0.9-2.74v-5.55h1.97V538.56z M1494.53,533.01h1.96v9.12h-1.96V533.01z"/>
				<path d="M1500.48,533.01h1.97v9.12h-1.97V533.01z M1505.34,534.74c-0.26-0.1-0.57-0.15-0.92-0.15c-0.63,0-1.11,0.16-1.46,0.47
					s-0.52,0.75-0.52,1.31l-0.2-1.76c0.31-0.54,0.71-0.97,1.2-1.27c0.49-0.3,1.03-0.45,1.63-0.45c0.46,0,0.87,0.06,1.24,0.18
					c0.37,0.12,0.69,0.3,0.97,0.53l-1.29,1.58C1505.83,534.98,1505.61,534.84,1505.34,534.74z"/>
				<path d="M1512.63,542.27c0,0-0.33-0.16-0.99-0.47s-1.16-0.78-1.5-1.39c-0.35-0.61-0.52-1.35-0.52-2.22v-1.03
					c0-0.9,0.17-1.67,0.5-2.31s0.81-1.13,1.45-1.46s1.39-0.5,2.28-0.5c0.84,0,1.55,0.19,2.15,0.57s1.05,0.93,1.36,1.65
					s0.47,1.59,0.47,2.59v0.6h-6.77v-1.44h4.89c-0.06-0.74-0.27-1.32-0.63-1.74s-0.85-0.62-1.46-0.62c-0.75,0-1.33,0.22-1.74,0.67
					s-0.61,1.07-0.61,1.89v1.16c0,0.76,0.22,1.34,0.66,1.74s1.06,0.61,1.87,0.61c0.4,0,0.8-0.07,1.19-0.22
					c0.39-0.15,0.75-0.35,1.05-0.62l1.3,1.18c-0.5,0.43-1.05,0.77-1.67,1.01c-0.62,0.24-1.24,0.36-1.87,0.36
					C1513.1,542.27,1512.63,542.27,1512.63,542.27z"/>
			</g>
		</g>
	</g>
	<polygon class="st5" points="-335.21,-783.88 -363.38,-747.75 -363.38,-721.18 -372.96,-721.18 -372.96,-747.75 -401.24,-783.88 
		-389.71,-783.88 -368.17,-755.09 -346.72,-783.88 	"/>
	<rect x="-294.41" y="-782.99" class="st5" width="9.6" height="62.71"/>
	<polygon class="st5" points="-180.71,-783.88 -208.89,-747.75 -208.89,-721.18 -218.48,-721.18 -218.48,-747.75 -246.74,-783.88 
		-235.21,-783.88 -213.69,-755.09 -192.23,-783.88 	"/>
	<path class="st5" d="M-83.75-721.18h-10.72l-8.35-19.04h-30.22l-7.98,19.04h-9.96l27.57-62.71h10.27L-83.75-721.18z M-105.58-746.9
		l-12.79-29.01l-12.04,29.01H-105.58z"/>
	<polygon class="st5" points="8.22,-721.18 -1.43,-721.18 -1.43,-750.79 -38.68,-750.79 -38.68,-721.18 -48.29,-721.18 
		-48.29,-783.88 -38.68,-783.88 -38.68,-758.2 -1.43,-758.2 -1.43,-783.88 8.22,-783.88 	"/>
	<path class="st6" d="M-528.21-779.59l10.38,18c0,0,45.32,8.89,82.59-19.06c0,0-27.96,24.77-34.31,52.73l26.47-14.4
		c0,0,15.25-98.68,135.32-66.5l-11.01-18c0,0-44.05-9.53-82.59,18.43c0,0,24.99-22.45,34.31-52.73l-26.47,14.19
		C-393.53-846.93-407.72-748.46-528.21-779.59"/>
	<text transform="matrix(1.7422 0 0 1 8.2173 -722.3829)" class="st5 st8 st9"> </text>
	<g>
		<g>
			<path d="M45.4-751.59h6.57v30.41H45.4V-751.59z M65.7-739.61c0-2.15-0.61-3.81-1.84-4.98s-2.94-1.76-5.16-1.76
				c-2.15,0-3.81,0.52-4.98,1.55c-1.17,1.04-1.76,2.49-1.76,4.37l-0.68-5.86c1.03-1.84,2.38-3.25,4.04-4.25s3.51-1.49,5.53-1.49
				c3.63,0,6.44,1.08,8.43,3.24c1.99,2.16,2.98,5.21,2.98,9.16v18.46H65.7V-739.61z"/>
			<path d="M87.02-723.07c-2.04-1.55-3.06-3.91-3.06-7.08c0-3.01,0.93-5.26,2.8-6.77c1.87-1.5,4.69-2.26,8.48-2.26h9.51l0.45,4.8
				h-9.93c-1.72,0-3,0.35-3.85,1.04c-0.85,0.69-1.27,1.75-1.27,3.18c0,1.54,0.56,2.69,1.69,3.43c1.13,0.74,2.84,1.11,5.14,1.11
				c2.51,0,4.39-0.24,5.62-0.73c1.24-0.49,1.85-1.25,1.85-2.29l0.68,4.28c-0.58,0.82-1.29,1.49-2.14,2.02s-1.83,0.92-2.95,1.19
				s-2.37,0.4-3.77,0.4C92.14-720.74,89.06-721.51,87.02-723.07z M104.45-740.46c0-1.99-0.59-3.54-1.76-4.64
				c-1.17-1.1-2.83-1.66-4.98-1.66c-1.33,0-2.64,0.19-3.92,0.56c-1.28,0.37-2.41,0.89-3.4,1.55l-4.8-2.99
				c1.27-1.39,2.94-2.47,5.01-3.24c2.07-0.77,4.38-1.16,6.91-1.16c2.77,0,5.15,0.44,7.12,1.33c1.98,0.89,3.48,2.18,4.51,3.87
				c1.03,1.69,1.55,3.73,1.55,6.11v19.54h-6.25V-740.46z"/>
			<path d="M121.41-751.59h15.08v5.39h-15.08V-751.59z M126.75-723.07c-1.26-1.36-1.89-3.36-1.89-6.02v-31.35h6.57v31.41
				c0,0.74,0.16,1.31,0.48,1.71c0.32,0.4,0.79,0.6,1.42,0.6h3.16v5.68h-3.8C129.99-721.03,128-721.71,126.75-723.07z"/>
			<path d="M155.39-733.1c0,2.13,0.6,3.77,1.79,4.94c1.19,1.16,2.87,1.74,5.04,1.74c2.15,0,3.81-0.52,5-1.55
				c1.18-1.04,1.77-2.51,1.77-4.42l0.45,6.36c-0.69,1.5-1.8,2.76-3.35,3.78c-1.55,1.02-3.45,1.52-5.7,1.52
				c-3.7,0-6.55-1.08-8.56-3.24c-2.01-2.16-3.01-5.2-3.01-9.13v-18.49h6.57V-733.1z M168.99-751.59h6.54v30.41h-6.54V-751.59z"/>
			<path d="M188.83-751.59h6.57v30.41h-6.57V-751.59z M205.04-745.85c-0.88-0.33-1.9-0.5-3.06-0.5c-2.08,0-3.7,0.52-4.85,1.57
				c-1.15,1.04-1.72,2.5-1.72,4.35l-0.68-5.86c1.03-1.82,2.36-3.23,4-4.23c1.63-1.01,3.44-1.51,5.41-1.51c1.53,0,2.91,0.2,4.14,0.6
				c1.23,0.4,2.31,0.99,3.24,1.77l-4.29,5.27C206.65-745.03,205.92-745.51,205.04-745.85z"/>
			<path d="M229.35-720.74c0,0-1.1-0.53-3.29-1.58s-3.86-2.6-5.01-4.64c-1.15-2.04-1.72-4.51-1.72-7.4v-3.43
				c0-3.01,0.55-5.58,1.66-7.71c1.11-2.13,2.71-3.75,4.82-4.86s4.64-1.67,7.61-1.67c2.79,0,5.18,0.63,7.15,1.9
				c1.98,1.27,3.49,3.11,4.53,5.51c1.04,2.4,1.56,5.28,1.56,8.64v1.99h-22.56v-4.8h16.31c-0.19-2.48-0.9-4.41-2.11-5.79
				s-2.84-2.07-4.88-2.07c-2.49,0-4.42,0.74-5.78,2.23c-1.37,1.48-2.05,3.58-2.05,6.3v3.87c0,2.52,0.73,4.45,2.19,5.8
				s3.53,2.02,6.22,2.02c1.33,0,2.65-0.24,3.96-0.73c1.31-0.49,2.48-1.17,3.51-2.05l4.32,3.93c-1.65,1.45-3.51,2.56-5.58,3.35
				s-4.14,1.19-6.22,1.19C230.89-720.74,229.35-720.74,229.35-720.74z"/>
		</g>
	</g>
	<g>
		<g>
			<path d="M-1006.21,241.99h-3.67v-9.79l-10.31-14.51h4.3l7.83,11.67l7.82-11.67h4.34l-10.31,14.51V241.99z"/>
			<path d="M-974.77,241.99h-3.69v-24.3h3.69V241.99z"/>
			<path d="M-943.38,241.99h-3.66v-9.79l-10.33-14.51h4.29l7.82,11.67l7.85-11.67h4.34l-10.31,14.51V241.99z"/>
			<path d="M-916.08,234.92l-2.83,7.07h-3.81l10.27-24.3h4.17l9.89,24.3h-4.03l-2.69-7.07H-916.08z M-906.44,231.99l-4.05-10.7
				h-0.08l-4.36,10.7H-906.44z"/>
			<path d="M-863.58,217.68h3.68v24.3h-3.68v-11.35h-14.28v11.35h-3.67v-24.3h3.67v10.06h14.28V217.68z"/>
		</g>
	</g>
	<g>
		<g>
			<path class="st4" d="M-987.96,497.12c-19.67-4.86-30.35,3.43-30.35,3.43v17.32h97.23c1.62-11.45,7.62-22.54,7.62-22.54
				S-936.88,509.74-987.96,497.12z"/>
			<path class="st4" d="M-887.04,400.29c-26.2-5.61-46.39-13.23-78.04-2.62c-32.58,10.92-53.23,61.26-53.23,61.26v16.15
				c0,0,12.79-6.42,31.57-2.4c26.21,5.62,46.39,13.24,78.05,2.63c32.58-10.93,53.22-61.26,53.22-61.26V397.9
				C-855.47,397.9-868.26,404.31-887.04,400.29z"/>
			<path class="st4" d="M-881.96,482.55c-13.89,15.07-11.78,34.54-11.69,35.32h38.19v-53.8
				C-855.47,464.08-868.53,467.98-881.96,482.55z"/>
			<path class="st4" d="M-952.69,355.06c-1.61,11.47-7.62,22.6-7.62,22.6s23.43-14.39,74.51-1.78c19.65,4.86,30.34-3.45,30.34-3.45
				v-17.39L-952.69,355.06z"/>
			<path class="st4" d="M-1018.31,408.92c0,0,13.08-3.9,26.5-18.48c14.18-15.39,11.7-35.4,11.7-35.4h-38.2V408.92z"/>
		</g>
		<rect x="-1027.89" y="346.26" class="st7" width="181.68" height="181.61"/>
	</g>
	<g>
		<g>
			<path d="M-1005.21,570.86h-3.67v-9.79l-10.31-14.51h4.3l7.83,11.67l7.82-11.67h4.34l-10.31,14.51V570.86z"/>
			<path d="M-973.77,570.86h-3.69v-24.3h3.69V570.86z"/>
			<path d="M-942.38,570.86h-3.66v-9.79l-10.33-14.51h4.29l7.82,11.67l7.85-11.67h4.34l-10.31,14.51V570.86z"/>
			<path d="M-915.08,563.79l-2.83,7.07h-3.81l10.27-24.3h4.17l9.89,24.3h-4.03l-2.69-7.07H-915.08z M-905.44,560.87l-4.05-10.7
				h-0.08l-4.36,10.7H-905.44z"/>
			<path d="M-862.58,546.56h3.68v24.3h-3.68v-11.35h-14.28v11.35h-3.67v-24.3h3.67v10.06h14.28V546.56z"/>
		</g>
	</g>
	<g>
		<g>
			<path class="st4" d="M-434.15,493.83c-19.67-4.86-30.35,3.43-30.35,3.43v17.32h97.23c1.62-11.45,7.62-22.54,7.62-22.54
				S-383.07,506.45-434.15,493.83z"/>
			<path class="st4" d="M-333.23,397c-26.2-5.61-46.39-13.23-78.04-2.62c-32.58,10.92-53.23,61.26-53.23,61.26v16.15
				c0,0,12.79-6.42,31.57-2.4c26.21,5.62,46.39,13.24,78.05,2.63c32.58-10.93,53.22-61.26,53.22-61.26v-16.16
				C-301.66,394.61-314.45,401.02-333.23,397z"/>
			<path class="st4" d="M-328.15,479.26c-13.89,15.07-11.78,34.54-11.69,35.32h38.19v-53.8
				C-301.66,460.78-314.72,464.69-328.15,479.26z"/>
			<path class="st4" d="M-398.88,351.76c-1.61,11.47-7.62,22.6-7.62,22.6s23.43-14.39,74.51-1.78c19.65,4.86,30.34-3.45,30.34-3.45
				v-17.39L-398.88,351.76z"/>
			<path class="st4" d="M-464.5,405.62c0,0,13.08-3.9,26.5-18.48c14.18-15.39,11.7-35.4,11.7-35.4h-38.2V405.62z"/>
		</g>
		<rect x="-474.08" y="342.96" class="st7" width="181.68" height="181.61"/>
	</g>
	<g>
		<g>
			<path d="M-450.58,568.57h-3.67v-9.79l-10.31-14.51h4.3l7.83,11.67l7.82-11.67h4.34l-10.31,14.51V568.57z"/>
			<path d="M-419.13,568.57h-3.69v-24.3h3.69V568.57z"/>
			<path d="M-387.75,568.57h-3.66v-9.79l-10.33-14.51h4.29l7.82,11.67l7.85-11.67h4.34l-10.31,14.51V568.57z"/>
			<path d="M-360.45,561.5l-2.83,7.07h-3.81l10.27-24.3h4.17l9.89,24.3h-4.03l-2.69-7.07H-360.45z M-350.81,558.57l-4.05-10.7h-0.08
				l-4.36,10.7H-350.81z"/>
			<path d="M-307.95,544.27h3.68v24.3h-3.68v-11.35h-14.28v11.35h-3.67v-24.3h3.67v10.06h14.28V544.27z"/>
		</g>
	</g>
	<g>
		<g>
			<polygon points="-304.62,598.28 -464.21,598.28 -464.21,596.69 -304.62,596.69 -304.62,598.28 			"/>
		</g>
	</g>
	<g>
		<text transform="matrix(0.95 0 0 1 -464.0664 615.1934)" style="font-family:'Garamond'; font-size:16.366px;">Real Beauty by Full Natural</text>
	</g>
	<g>
		<g>
			<path d="M-414.81,580.59h1.97v9.12h-1.97V580.59z M-408.72,584.19c0-0.64-0.18-1.14-0.55-1.49c-0.37-0.35-0.88-0.53-1.55-0.53
				c-0.64,0-1.14,0.16-1.49,0.47c-0.35,0.31-0.53,0.75-0.53,1.31l-0.2-1.76c0.31-0.55,0.71-0.98,1.21-1.27s1.05-0.45,1.66-0.45
				c1.09,0,1.93,0.32,2.53,0.97c0.6,0.65,0.89,1.56,0.89,2.75v5.54h-1.97V584.19z"/>
			<path d="M-402.32,589.15c-0.61-0.46-0.92-1.17-0.92-2.12c0-0.9,0.28-1.58,0.84-2.03c0.56-0.45,1.41-0.68,2.54-0.68h2.85
				l0.14,1.44h-2.98c-0.52,0-0.9,0.1-1.16,0.31c-0.25,0.21-0.38,0.53-0.38,0.95c0,0.46,0.17,0.81,0.51,1.03s0.85,0.33,1.54,0.33
				c0.75,0,1.32-0.07,1.69-0.22s0.56-0.38,0.56-0.69l0.2,1.28c-0.17,0.25-0.39,0.45-0.64,0.61c-0.25,0.16-0.55,0.28-0.88,0.36
				c-0.33,0.08-0.71,0.12-1.13,0.12C-400.78,589.85-401.71,589.61-402.32,589.15z M-397.09,583.93c0-0.6-0.18-1.06-0.53-1.39
				c-0.35-0.33-0.85-0.5-1.49-0.5c-0.4,0-0.79,0.06-1.17,0.17c-0.38,0.11-0.72,0.27-1.02,0.47l-1.44-0.9
				c0.38-0.42,0.88-0.74,1.5-0.97c0.62-0.23,1.31-0.35,2.07-0.35c0.83,0,1.54,0.13,2.14,0.4c0.59,0.27,1.04,0.65,1.35,1.16
				c0.31,0.51,0.46,1.12,0.46,1.83v5.86h-1.88V583.93z"/>
			<path d="M-392,580.59h4.52v1.62H-392V580.59z M-390.4,589.15c-0.38-0.41-0.57-1.01-0.57-1.81v-9.4h1.97v9.42
				c0,0.22,0.05,0.39,0.15,0.51c0.1,0.12,0.24,0.18,0.43,0.18h0.95v1.71h-1.14C-389.43,589.76-390.03,589.55-390.4,589.15z"/>
			<path d="M-381.81,586.14c0,0.64,0.18,1.13,0.54,1.48c0.36,0.35,0.86,0.52,1.51,0.52c0.64,0,1.14-0.16,1.5-0.47
				s0.53-0.75,0.53-1.33l0.14,1.91c-0.21,0.45-0.54,0.83-1.01,1.13c-0.46,0.3-1.03,0.46-1.71,0.46c-1.11,0-1.96-0.32-2.57-0.97
				c-0.6-0.65-0.9-1.56-0.9-2.74v-5.55h1.97V586.14z M-377.73,580.59h1.96v9.12h-1.96V580.59z"/>
			<path d="M-371.78,580.59h1.97v9.12h-1.97V580.59z M-366.92,582.31c-0.26-0.1-0.57-0.15-0.92-0.15c-0.63,0-1.11,0.16-1.46,0.47
				c-0.34,0.31-0.52,0.75-0.52,1.3l-0.2-1.76c0.31-0.54,0.71-0.97,1.2-1.27c0.49-0.3,1.03-0.45,1.62-0.45
				c0.46,0,0.87,0.06,1.24,0.18c0.37,0.12,0.69,0.3,0.97,0.53l-1.29,1.58C-366.43,582.56-366.65,582.41-366.92,582.31z"/>
			<path d="M-359.62,589.85c0,0-0.33-0.16-0.99-0.47c-0.66-0.32-1.16-0.78-1.5-1.39c-0.34-0.61-0.52-1.35-0.52-2.22v-1.03
				c0-0.9,0.17-1.67,0.5-2.31c0.33-0.64,0.81-1.13,1.45-1.46c0.63-0.33,1.39-0.5,2.28-0.5c0.84,0,1.55,0.19,2.15,0.57
				s1.05,0.93,1.36,1.65s0.47,1.58,0.47,2.59v0.6h-6.77v-1.44h4.89c-0.06-0.74-0.27-1.32-0.63-1.74c-0.36-0.41-0.85-0.62-1.46-0.62
				c-0.75,0-1.33,0.22-1.74,0.67c-0.41,0.45-0.61,1.08-0.61,1.89v1.16c0,0.76,0.22,1.34,0.66,1.74c0.44,0.4,1.06,0.61,1.87,0.61
				c0.4,0,0.8-0.07,1.19-0.22s0.74-0.35,1.05-0.62l1.3,1.18c-0.5,0.43-1.05,0.77-1.67,1.01c-0.62,0.24-1.24,0.36-1.87,0.36
				C-359.16,589.85-359.62,589.85-359.62,589.85z"/>
		</g>
	</g>
	<g>
		<g>
			<path class="st4" d="M-712.64,493.83c-19.67-4.86-30.35,3.43-30.35,3.43v17.32h97.23c1.62-11.45,7.62-22.54,7.62-22.54
				S-661.56,506.45-712.64,493.83z"/>
			<path class="st4" d="M-611.72,397c-26.2-5.61-46.39-13.23-78.04-2.62c-32.58,10.92-53.23,61.26-53.23,61.26v16.15
				c0,0,12.79-6.42,31.57-2.4c26.21,5.62,46.39,13.24,78.05,2.63c32.58-10.93,53.22-61.26,53.22-61.26v-16.16
				C-580.15,394.61-592.94,401.02-611.72,397z"/>
			<path class="st4" d="M-606.64,479.26c-13.89,15.07-11.78,34.54-11.69,35.32h38.19v-53.8
				C-580.15,460.78-593.22,464.69-606.64,479.26z"/>
			<path class="st4" d="M-677.37,351.76c-1.61,11.47-7.62,22.6-7.62,22.6s23.43-14.39,74.51-1.78c19.65,4.86,30.34-3.45,30.34-3.45
				v-17.39L-677.37,351.76z"/>
			<path class="st4" d="M-742.99,405.62c0,0,13.08-3.9,26.5-18.48c14.18-15.39,11.7-35.4,11.7-35.4h-38.2V405.62z"/>
		</g>
	</g>
	<g>
		<g>
			<path d="M-729.07,562.57h-3.67v-9.79l-10.31-14.51h4.3l7.83,11.67l7.82-11.67h4.34l-10.31,14.51V562.57z"/>
			<path d="M-697.62,562.57h-3.69v-24.3h3.69V562.57z"/>
			<path d="M-666.24,562.57h-3.66v-9.79l-10.33-14.51h4.29l7.82,11.67l7.85-11.67h4.34l-10.31,14.51V562.57z"/>
			<path d="M-638.94,555.5l-2.83,7.07h-3.81l10.27-24.3h4.17l9.89,24.3h-4.03l-2.69-7.07H-638.94z M-629.3,552.57l-4.05-10.7h-0.08
				l-4.36,10.7H-629.3z"/>
			<path d="M-586.44,538.27h3.68v24.3h-3.68v-11.35h-14.28v11.35h-3.67v-24.3h3.67v10.06h14.28V538.27z"/>
		</g>
	</g>
	<g>
		<g>
			<polygon points="-583.11,592.28 -742.7,592.28 -742.7,590.69 -583.11,590.69 -583.11,592.28 			"/>
		</g>
	</g>
	<g>
		<text transform="matrix(0.95 0 0 1 -742.5581 609.1934)" style="font-family:'Garamond'; font-size:16.366px;">Real Beauty by Full Natural</text>
	</g>
	<g>
		<g>
			<path d="M-693.3,574.59h1.97v9.12h-1.97V574.59z M-687.21,578.19c0-0.64-0.18-1.14-0.55-1.49c-0.37-0.35-0.88-0.53-1.55-0.53
				c-0.64,0-1.14,0.16-1.49,0.47c-0.35,0.31-0.53,0.75-0.53,1.31l-0.2-1.76c0.31-0.55,0.71-0.98,1.21-1.27s1.05-0.45,1.66-0.45
				c1.09,0,1.93,0.32,2.53,0.97c0.6,0.65,0.89,1.56,0.89,2.75v5.54h-1.97V578.19z"/>
			<path d="M-680.81,583.15c-0.61-0.46-0.92-1.17-0.92-2.12c0-0.9,0.28-1.58,0.84-2.03c0.56-0.45,1.41-0.68,2.54-0.68h2.85
				l0.14,1.44h-2.98c-0.52,0-0.9,0.1-1.16,0.31c-0.25,0.21-0.38,0.53-0.38,0.95c0,0.46,0.17,0.81,0.51,1.03s0.85,0.33,1.54,0.33
				c0.75,0,1.32-0.07,1.69-0.22s0.56-0.38,0.56-0.69l0.2,1.28c-0.17,0.25-0.39,0.45-0.64,0.61c-0.25,0.16-0.55,0.28-0.88,0.36
				c-0.33,0.08-0.71,0.12-1.13,0.12C-679.28,583.85-680.2,583.61-680.81,583.15z M-675.58,577.93c0-0.6-0.18-1.06-0.53-1.39
				c-0.35-0.33-0.85-0.5-1.49-0.5c-0.4,0-0.79,0.06-1.17,0.17c-0.38,0.11-0.72,0.27-1.02,0.47l-1.44-0.9
				c0.38-0.42,0.88-0.74,1.5-0.97c0.62-0.23,1.31-0.35,2.07-0.35c0.83,0,1.54,0.13,2.14,0.4c0.59,0.27,1.04,0.65,1.35,1.16
				c0.31,0.51,0.46,1.12,0.46,1.83v5.86h-1.88V577.93z"/>
			<path d="M-670.49,574.59h4.52v1.62h-4.52V574.59z M-668.89,583.15c-0.38-0.41-0.57-1.01-0.57-1.81v-9.4h1.97v9.42
				c0,0.22,0.05,0.39,0.15,0.51c0.1,0.12,0.24,0.18,0.43,0.18h0.95v1.71h-1.14C-667.92,583.76-668.52,583.55-668.89,583.15z"/>
			<path d="M-660.3,580.14c0,0.64,0.18,1.13,0.54,1.48c0.36,0.35,0.86,0.52,1.51,0.52c0.64,0,1.14-0.16,1.5-0.47
				s0.53-0.75,0.53-1.33l0.14,1.91c-0.21,0.45-0.54,0.83-1.01,1.13c-0.46,0.3-1.03,0.46-1.71,0.46c-1.11,0-1.96-0.32-2.57-0.97
				c-0.6-0.65-0.9-1.56-0.9-2.74v-5.55h1.97V580.14z M-656.22,574.59h1.96v9.12h-1.96V574.59z"/>
			<path d="M-650.27,574.59h1.97v9.12h-1.97V574.59z M-645.41,576.31c-0.26-0.1-0.57-0.15-0.92-0.15c-0.63,0-1.11,0.16-1.46,0.47
				c-0.34,0.31-0.52,0.75-0.52,1.3l-0.2-1.76c0.31-0.54,0.71-0.97,1.2-1.27c0.49-0.3,1.03-0.45,1.62-0.45
				c0.46,0,0.87,0.06,1.24,0.18c0.37,0.12,0.69,0.3,0.97,0.53l-1.29,1.58C-644.92,576.56-645.14,576.41-645.41,576.31z"/>
			<path d="M-638.11,583.85c0,0-0.33-0.16-0.99-0.47c-0.66-0.32-1.16-0.78-1.5-1.39c-0.34-0.61-0.52-1.35-0.52-2.22v-1.03
				c0-0.9,0.17-1.67,0.5-2.31c0.33-0.64,0.81-1.13,1.45-1.46c0.63-0.33,1.39-0.5,2.28-0.5c0.84,0,1.55,0.19,2.15,0.57
				s1.05,0.93,1.36,1.65s0.47,1.58,0.47,2.59v0.6h-6.77v-1.44h4.89c-0.06-0.74-0.27-1.32-0.63-1.74c-0.36-0.41-0.85-0.62-1.46-0.62
				c-0.75,0-1.33,0.22-1.74,0.67c-0.41,0.45-0.61,1.08-0.61,1.89v1.16c0,0.76,0.22,1.34,0.66,1.74c0.44,0.4,1.06,0.61,1.87,0.61
				c0.4,0,0.8-0.07,1.19-0.22s0.74-0.35,1.05-0.62l1.3,1.18c-0.5,0.43-1.05,0.77-1.67,1.01c-0.62,0.24-1.24,0.36-1.87,0.36
				C-637.65,583.85-638.11,583.85-638.11,583.85z"/>
		</g>
	</g>
	<polygon class="st5" points="-337.96,-574.85 -366.13,-538.72 -366.13,-512.15 -375.71,-512.15 -375.71,-538.72 -403.99,-574.85 
		-392.46,-574.85 -370.92,-546.06 -349.47,-574.85 	"/>
	<rect x="-297.16" y="-573.96" class="st5" width="9.6" height="62.71"/>
	<polygon class="st5" points="-183.46,-574.85 -211.64,-538.72 -211.64,-512.15 -221.23,-512.15 -221.23,-538.72 -249.49,-574.85 
		-237.96,-574.85 -216.44,-546.06 -194.98,-574.85 	"/>
	<path class="st5" d="M-86.5-512.15h-10.72l-8.35-19.04h-30.22l-7.98,19.04h-9.96l27.57-62.71h10.27L-86.5-512.15z M-108.33-537.87
		l-12.79-29.01l-12.04,29.01H-108.33z"/>
	<polygon class="st5" points="5.47,-512.15 -4.18,-512.15 -4.18,-541.76 -41.43,-541.76 -41.43,-512.15 -51.04,-512.15 
		-51.04,-574.85 -41.43,-574.85 -41.43,-549.17 -4.18,-549.17 -4.18,-574.85 5.47,-574.85 	"/>
	<path class="st0" d="M-530.96-570.56l10.38,18c0,0,45.32,8.89,82.59-19.06c0,0-27.96,24.77-34.31,52.73l26.47-14.4
		c0,0,15.25-98.68,135.32-66.5l-11.01-18c0,0-44.05-9.53-82.59,18.43c0,0,24.99-22.45,34.31-52.73l-26.47,14.19
		C-396.28-637.9-410.47-539.43-530.96-570.56"/>
	<text transform="matrix(1.7422 0 0 1 5.4672 -513.3535)" class="st5 st8 st9"> </text>
	<g>
		<g>
			<path d="M42.65-542.56h6.57v30.41h-6.57V-542.56z M62.95-530.58c0-2.15-0.61-3.81-1.84-4.98s-2.94-1.76-5.16-1.76
				c-2.15,0-3.81,0.52-4.98,1.55c-1.17,1.04-1.76,2.49-1.76,4.37l-0.68-5.86c1.03-1.84,2.38-3.25,4.04-4.25S56.1-543,58.12-543
				c3.63,0,6.44,1.08,8.43,3.24c1.99,2.16,2.98,5.21,2.98,9.16v18.46h-6.57V-530.58z"/>
			<path d="M84.27-514.04c-2.04-1.55-3.06-3.91-3.06-7.08c0-3.01,0.93-5.26,2.8-6.77c1.87-1.5,4.69-2.26,8.48-2.26h9.51l0.45,4.8
				h-9.93c-1.72,0-3,0.35-3.85,1.04c-0.85,0.69-1.27,1.75-1.27,3.18c0,1.54,0.56,2.69,1.69,3.43c1.13,0.74,2.84,1.11,5.14,1.11
				c2.51,0,4.39-0.24,5.62-0.73c1.24-0.49,1.85-1.25,1.85-2.29l0.68,4.28c-0.58,0.82-1.29,1.49-2.14,2.02s-1.83,0.92-2.95,1.19
				s-2.37,0.4-3.77,0.4C89.39-511.71,86.31-512.49,84.27-514.04z M101.7-531.43c0-1.99-0.59-3.54-1.76-4.64
				c-1.17-1.1-2.83-1.66-4.98-1.66c-1.33,0-2.64,0.19-3.92,0.56c-1.28,0.37-2.41,0.89-3.4,1.55l-4.8-2.99
				c1.27-1.39,2.94-2.47,5.01-3.24c2.07-0.77,4.38-1.16,6.91-1.16c2.77,0,5.15,0.44,7.12,1.33c1.98,0.89,3.48,2.18,4.51,3.87
				c1.03,1.69,1.55,3.73,1.55,6.11v19.54h-6.25V-531.43z"/>
			<path d="M118.66-542.56h15.08v5.39h-15.08V-542.56z M124-514.04c-1.26-1.36-1.89-3.36-1.89-6.02v-31.35h6.57V-520
				c0,0.74,0.16,1.31,0.48,1.71c0.32,0.4,0.79,0.6,1.42,0.6h3.16v5.68h-3.8C127.24-512,125.25-512.68,124-514.04z"/>
			<path d="M152.64-524.07c0,2.13,0.6,3.77,1.79,4.94c1.19,1.16,2.87,1.74,5.04,1.74c2.15,0,3.81-0.52,5-1.55
				c1.18-1.04,1.77-2.51,1.77-4.42l0.45,6.36c-0.69,1.5-1.8,2.76-3.35,3.78c-1.55,1.02-3.45,1.52-5.7,1.52
				c-3.7,0-6.55-1.08-8.56-3.24c-2.01-2.16-3.01-5.2-3.01-9.13v-18.49h6.57V-524.07z M166.24-542.56h6.54v30.41h-6.54V-542.56z"/>
			<path d="M186.08-542.56h6.57v30.41h-6.57V-542.56z M202.29-536.82c-0.88-0.33-1.9-0.5-3.06-0.5c-2.08,0-3.7,0.52-4.85,1.57
				c-1.15,1.04-1.72,2.5-1.72,4.35l-0.68-5.86c1.03-1.82,2.36-3.23,4-4.23c1.63-1.01,3.44-1.51,5.41-1.51c1.53,0,2.91,0.2,4.14,0.6
				c1.23,0.4,2.31,0.99,3.24,1.77l-4.29,5.27C203.9-536,203.17-536.48,202.29-536.82z"/>
			<path d="M226.6-511.71c0,0-1.1-0.53-3.29-1.58s-3.86-2.6-5.01-4.64c-1.15-2.04-1.72-4.51-1.72-7.4v-3.43
				c0-3.01,0.55-5.58,1.66-7.71c1.11-2.13,2.71-3.75,4.82-4.86s4.64-1.67,7.61-1.67c2.79,0,5.18,0.63,7.15,1.9
				c1.98,1.27,3.49,3.11,4.53,5.51c1.04,2.4,1.56,5.28,1.56,8.64v1.99h-22.56v-4.8h16.31c-0.19-2.48-0.9-4.41-2.11-5.79
				s-2.84-2.07-4.88-2.07c-2.49,0-4.42,0.74-5.78,2.23c-1.37,1.48-2.05,3.58-2.05,6.3v3.87c0,2.52,0.73,4.45,2.19,5.8
				s3.53,2.02,6.22,2.02c1.33,0,2.65-0.24,3.96-0.73c1.31-0.49,2.48-1.17,3.51-2.05l4.32,3.93c-1.65,1.45-3.51,2.56-5.58,3.35
				s-4.14,1.19-6.22,1.19C228.14-511.71,226.6-511.71,226.6-511.71z"/>
		</g>
	</g>
	<g>
		<g>
			<path class="st4" d="M1289.77,926.84c-10.2-2.52-15.74,1.79-15.74,1.79v8.98h50.42c0.83-5.94,3.94-11.69,3.94-11.69
				S1316.26,933.39,1289.77,926.84z"/>
			<path class="st4" d="M1342.1,876.64c-13.59-2.9-24.06-6.86-40.46-1.36c-16.9,5.66-27.6,31.76-27.6,31.76v8.38
				c0,0,6.64-3.33,16.37-1.25c13.59,2.91,24.06,6.86,40.47,1.37c16.89-5.66,27.6-31.76,27.6-31.76v-8.38
				C1358.48,875.4,1351.83,878.73,1342.1,876.64z"/>
			<path class="st4" d="M1344.73,919.3c-7.2,7.81-6.11,17.91-6.06,18.31h19.8v-27.89C1358.48,909.72,1351.69,911.74,1344.73,919.3z"
				/>
			<path class="st4" d="M1308.06,853.19c-0.83,5.95-3.95,11.71-3.95,11.71s12.15-7.46,38.63-0.92c10.19,2.53,15.73-1.79,15.73-1.79
				v-9.02L1308.06,853.19z"/>
			<path class="st4" d="M1274.04,881.11c0,0,6.79-2.02,13.74-9.58c7.35-7.98,6.06-18.36,6.06-18.36h-19.8V881.11z"/>
		</g>
		<rect x="1378.11" y="904.31" width="220.48" height="1.99"/>
		<g>
			<text transform="matrix(0.95 0 0 1 1378.1074 933.588)" style="font-family:'Garamond'; font-size:27.1995px;">Made of Full Natural</text>
		</g>
		<g>
			<g>
				<path d="M1387.36,895.82h-3.13v-8.35l-8.8-12.38h3.67l6.68,9.96l6.67-9.96h3.7l-8.79,12.38V895.82z"/>
				<path d="M1414.19,895.82h-3.15v-20.74h3.15V895.82z"/>
				<path d="M1440.97,895.82h-3.12v-8.35l-8.81-12.38h3.66l6.67,9.96l6.7-9.96h3.71l-8.8,12.38V895.82z"/>
				<path d="M1464.26,889.79l-2.42,6.03h-3.25l8.76-20.74h3.56l8.44,20.74h-3.44l-2.3-6.03H1464.26z M1472.49,887.29l-3.46-9.13
					h-0.07l-3.72,9.13H1472.49z"/>
				<path d="M1509.06,875.08h3.14v20.74h-3.14v-9.68h-12.18v9.68h-3.13v-20.74h3.13v8.58h12.18V875.08z"/>
			</g>
		</g>
		<g>
			<g>
				<path d="M1530.25,886.7h1.97v9.12h-1.97V886.7z M1536.34,890.29c0-0.64-0.18-1.14-0.55-1.49s-0.88-0.53-1.55-0.53
					c-0.64,0-1.14,0.16-1.49,0.47s-0.53,0.75-0.53,1.31l-0.2-1.76c0.31-0.55,0.71-0.98,1.21-1.27s1.05-0.45,1.66-0.45
					c1.09,0,1.93,0.32,2.53,0.97s0.89,1.56,0.89,2.75v5.54h-1.97V890.29z"/>
				<path d="M1542.74,895.25c-0.61-0.47-0.92-1.17-0.92-2.12c0-0.9,0.28-1.58,0.84-2.03c0.56-0.45,1.41-0.68,2.54-0.68h2.85
					l0.14,1.44h-2.98c-0.52,0-0.9,0.1-1.15,0.31c-0.26,0.21-0.38,0.53-0.38,0.95c0,0.46,0.17,0.81,0.51,1.03s0.85,0.33,1.54,0.33
					c0.75,0,1.32-0.07,1.69-0.22c0.37-0.15,0.56-0.38,0.56-0.69l0.2,1.28c-0.17,0.25-0.39,0.45-0.64,0.61
					c-0.26,0.16-0.55,0.28-0.88,0.36c-0.34,0.08-0.71,0.12-1.13,0.12C1544.27,895.95,1543.35,895.72,1542.74,895.25z
					 M1547.97,890.04c0-0.6-0.18-1.06-0.53-1.39s-0.85-0.5-1.49-0.5c-0.4,0-0.79,0.06-1.17,0.17c-0.38,0.11-0.72,0.27-1.02,0.47
					l-1.44-0.9c0.38-0.42,0.88-0.74,1.5-0.97c0.62-0.23,1.31-0.35,2.07-0.35c0.83,0,1.54,0.13,2.14,0.4
					c0.59,0.27,1.04,0.65,1.35,1.16c0.31,0.51,0.46,1.12,0.46,1.83v5.86h-1.88V890.04z"/>
				<path d="M1553.06,886.7h4.52v1.62h-4.52V886.7z M1554.66,895.25c-0.38-0.41-0.57-1.01-0.57-1.81v-9.4h1.97v9.42
					c0,0.22,0.05,0.39,0.14,0.51c0.1,0.12,0.24,0.18,0.43,0.18h0.95v1.71h-1.14C1555.63,895.86,1555.03,895.66,1554.66,895.25z"/>
				<path d="M1563.25,892.24c0,0.64,0.18,1.13,0.54,1.48c0.36,0.35,0.86,0.52,1.51,0.52c0.64,0,1.14-0.16,1.5-0.47
					s0.53-0.75,0.53-1.33l0.13,1.91c-0.21,0.45-0.54,0.83-1.01,1.13c-0.46,0.3-1.03,0.46-1.71,0.46c-1.11,0-1.96-0.32-2.57-0.97
					c-0.6-0.65-0.9-1.56-0.9-2.74v-5.55h1.97V892.24z M1567.33,886.7h1.96v9.12h-1.96V886.7z"/>
				<path d="M1573.28,886.7h1.97v9.12h-1.97V886.7z M1578.14,888.42c-0.26-0.1-0.57-0.15-0.92-0.15c-0.63,0-1.11,0.16-1.46,0.47
					s-0.52,0.75-0.52,1.31l-0.2-1.76c0.31-0.54,0.71-0.97,1.2-1.27c0.49-0.3,1.03-0.45,1.62-0.45c0.46,0,0.87,0.06,1.24,0.18
					c0.37,0.12,0.7,0.3,0.97,0.53l-1.29,1.58C1578.63,888.66,1578.41,888.52,1578.14,888.42z"/>
				<path d="M1585.44,895.95c0,0-0.33-0.16-0.99-0.47c-0.66-0.32-1.16-0.78-1.5-1.39s-0.52-1.35-0.52-2.22v-1.03
					c0-0.9,0.17-1.67,0.5-2.31c0.33-0.64,0.81-1.13,1.45-1.46c0.63-0.33,1.39-0.5,2.28-0.5c0.84,0,1.55,0.19,2.15,0.57
					c0.59,0.38,1.04,0.93,1.36,1.65s0.47,1.58,0.47,2.59v0.6h-6.77v-1.44h4.89c-0.06-0.74-0.27-1.32-0.63-1.74
					c-0.37-0.41-0.85-0.62-1.46-0.62c-0.75,0-1.33,0.22-1.74,0.67s-0.61,1.08-0.61,1.89v1.16c0,0.76,0.22,1.34,0.66,1.74
					c0.44,0.4,1.06,0.61,1.87,0.61c0.4,0,0.8-0.07,1.19-0.22c0.39-0.15,0.74-0.35,1.05-0.62l1.3,1.18c-0.5,0.43-1.05,0.77-1.67,1.01
					c-0.62,0.24-1.24,0.36-1.87,0.36C1585.9,895.95,1585.44,895.95,1585.44,895.95z"/>
			</g>
		</g>
	</g>
	<g>
		<g>
			<path class="st0" d="M1288.73,785.71c-10.2-2.52-15.74,1.79-15.74,1.79v8.98h50.42c0.83-5.94,3.94-11.69,3.94-11.69
				S1315.21,792.25,1288.73,785.71z"/>
			<path class="st0" d="M1341.06,735.5c-13.59-2.9-24.06-6.86-40.46-1.36c-16.9,5.66-27.6,31.76-27.6,31.76v8.38
				c0,0,6.64-3.33,16.37-1.25c13.59,2.91,24.06,6.86,40.47,1.37c16.89-5.66,27.6-31.76,27.6-31.76v-8.38
				C1357.43,734.27,1350.79,737.6,1341.06,735.5z"/>
			<path class="st0" d="M1343.69,778.16c-7.2,7.81-6.11,17.91-6.06,18.31h19.8v-27.89C1357.43,768.58,1350.65,770.6,1343.69,778.16z
				"/>
			<path class="st0" d="M1307.02,712.05c-0.83,5.95-3.95,11.71-3.95,11.71s12.15-7.46,38.63-0.92c10.19,2.53,15.73-1.79,15.73-1.79
				v-9.02L1307.02,712.05z"/>
			<path class="st0" d="M1272.99,739.97c0,0,6.79-2.02,13.74-9.58c7.35-7.98,6.06-18.36,6.06-18.36h-19.8V739.97z"/>
		</g>
		<rect x="1377.06" y="763.17" width="220.48" height="1.99"/>
		<g>
			<text transform="matrix(0.95 0 0 1 1377.064 792.4511)" style="font-family:'Garamond'; font-size:27.1995px;">Made of Full Natural</text>
		</g>
		<g>
			<g>
				<path d="M1386.32,754.68h-3.13v-8.35l-8.8-12.38h3.67l6.68,9.96l6.67-9.96h3.7l-8.79,12.38V754.68z"/>
				<path d="M1413.15,754.68H1410v-20.74h3.15V754.68z"/>
				<path d="M1439.93,754.68h-3.12v-8.35l-8.81-12.38h3.66l6.67,9.96l6.7-9.96h3.71l-8.8,12.38V754.68z"/>
				<path d="M1463.22,748.65l-2.42,6.03h-3.25l8.76-20.74h3.56l8.44,20.74h-3.44l-2.3-6.03H1463.22z M1471.44,746.15l-3.46-9.13
					h-0.07l-3.72,9.13H1471.44z"/>
				<path d="M1508.02,733.94h3.14v20.74h-3.14V745h-12.18v9.68h-3.13v-20.74h3.13v8.58h12.18V733.94z"/>
			</g>
		</g>
		<g>
			<g>
				<path d="M1529.21,745.56h1.97v9.12h-1.97V745.56z M1535.3,749.15c0-0.64-0.18-1.14-0.55-1.49c-0.37-0.35-0.88-0.53-1.55-0.53
					c-0.64,0-1.14,0.16-1.49,0.47s-0.53,0.75-0.53,1.31l-0.2-1.76c0.31-0.55,0.71-0.98,1.21-1.27c0.5-0.3,1.05-0.45,1.66-0.45
					c1.09,0,1.93,0.32,2.53,0.97c0.6,0.65,0.89,1.56,0.89,2.75v5.54h-1.97V749.15z"/>
				<path d="M1541.69,754.11c-0.61-0.47-0.92-1.17-0.92-2.12c0-0.9,0.28-1.58,0.84-2.03s1.41-0.68,2.54-0.68h2.85l0.14,1.44h-2.98
					c-0.52,0-0.9,0.1-1.16,0.31s-0.38,0.53-0.38,0.95c0,0.46,0.17,0.81,0.51,1.03c0.34,0.22,0.85,0.33,1.54,0.33
					c0.75,0,1.32-0.07,1.69-0.22s0.56-0.38,0.56-0.69l0.2,1.28c-0.17,0.25-0.39,0.45-0.64,0.61s-0.55,0.28-0.88,0.36
					s-0.71,0.12-1.13,0.12C1543.23,754.81,1542.3,754.58,1541.69,754.11z M1546.92,748.9c0-0.6-0.18-1.06-0.53-1.39
					s-0.85-0.5-1.49-0.5c-0.4,0-0.79,0.06-1.17,0.17c-0.38,0.11-0.72,0.27-1.02,0.47l-1.44-0.9c0.38-0.42,0.88-0.74,1.5-0.97
					c0.62-0.23,1.31-0.35,2.07-0.35c0.83,0,1.54,0.13,2.14,0.4s1.04,0.65,1.35,1.16s0.46,1.12,0.46,1.83v5.86h-1.88V748.9z"/>
				<path d="M1552.01,745.56h4.53v1.62h-4.53V745.56z M1553.61,754.11c-0.38-0.41-0.57-1.01-0.57-1.81v-9.4h1.97v9.42
					c0,0.22,0.05,0.39,0.14,0.51s0.24,0.18,0.43,0.18h0.95v1.71h-1.14C1554.58,754.72,1553.99,754.52,1553.61,754.11z"/>
				<path d="M1562.21,751.1c0,0.64,0.18,1.13,0.54,1.48c0.36,0.35,0.86,0.52,1.51,0.52c0.64,0,1.14-0.16,1.5-0.47
					c0.36-0.31,0.53-0.75,0.53-1.33l0.14,1.91c-0.21,0.45-0.54,0.83-1.01,1.13c-0.46,0.3-1.04,0.46-1.71,0.46
					c-1.11,0-1.96-0.32-2.57-0.97s-0.9-1.56-0.9-2.74v-5.55h1.97V751.1z M1566.29,745.56h1.96v9.12h-1.96V745.56z"/>
				<path d="M1572.24,745.56h1.97v9.12h-1.97V745.56z M1577.1,747.28c-0.26-0.1-0.57-0.15-0.92-0.15c-0.63,0-1.11,0.16-1.46,0.47
					c-0.34,0.31-0.52,0.75-0.52,1.3l-0.2-1.76c0.31-0.54,0.71-0.97,1.2-1.27c0.49-0.3,1.03-0.45,1.62-0.45
					c0.46,0,0.87,0.06,1.24,0.18s0.69,0.3,0.97,0.53l-1.29,1.58C1577.58,747.53,1577.36,747.38,1577.1,747.28z"/>
				<path d="M1584.39,754.81c0,0-0.33-0.16-0.99-0.47c-0.66-0.32-1.16-0.78-1.5-1.39c-0.34-0.61-0.52-1.35-0.52-2.22v-1.03
					c0-0.9,0.17-1.67,0.5-2.31c0.33-0.64,0.81-1.13,1.45-1.46s1.39-0.5,2.28-0.5c0.84,0,1.55,0.19,2.15,0.57s1.05,0.93,1.36,1.65
					s0.47,1.58,0.47,2.59v0.6h-6.77v-1.44h4.89c-0.06-0.74-0.27-1.32-0.63-1.74s-0.85-0.62-1.46-0.62c-0.75,0-1.33,0.22-1.74,0.67
					c-0.41,0.45-0.61,1.08-0.61,1.89v1.16c0,0.76,0.22,1.34,0.66,1.74s1.06,0.61,1.87,0.61c0.4,0,0.79-0.07,1.19-0.22
					s0.75-0.35,1.05-0.62l1.3,1.18c-0.5,0.43-1.05,0.77-1.67,1.01s-1.24,0.36-1.87,0.36
					C1584.86,754.81,1584.39,754.81,1584.39,754.81z"/>
			</g>
		</g>
	</g>
	<polygon class="st5" points="201.22,95.1 173.06,131.23 173.06,157.8 163.47,157.8 163.47,131.23 135.2,95.1 146.73,95.1 
		168.26,123.89 189.71,95.1 	"/>
	<rect x="242.02" y="95.98" class="st5" width="9.6" height="62.71"/>
	<polygon class="st5" points="355.72,95.1 327.54,131.23 327.54,157.8 317.95,157.8 317.95,131.23 289.7,95.1 301.23,95.1 
		322.74,123.89 344.2,95.1 	"/>
	<path class="st5" d="M452.68,157.8h-10.72l-8.35-19.04h-30.22l-7.98,19.04h-9.96l27.57-62.71h10.27L452.68,157.8z M430.85,132.08
		l-12.79-29.01l-12.04,29.01H430.85z"/>
	<polygon class="st5" points="544.65,157.8 535,157.8 535,128.19 497.75,128.19 497.75,157.8 488.14,157.8 488.14,95.1 497.75,95.1 
		497.75,120.78 535,120.78 535,95.1 544.65,95.1 	"/>
	<path class="st0" d="M8.22,99.39l10.38,18c0,0,45.32,8.89,82.59-19.06c0,0-27.96,24.77-34.31,52.73l26.47-14.4
		c0,0,15.25-98.68,135.32-66.5l-11.01-18c0,0-44.05-9.53-82.59,18.43c0,0,24.99-22.45,34.31-52.73L142.9,32.04
		C142.9,32.04,128.71,130.52,8.22,99.39"/>
	<text transform="matrix(1.7422 0 0 1 544.6494 156.5961)" class="st5 st8 st9"> </text>
	<g>
		<g>
			<path d="M581.83,127.39h6.57v30.41h-6.57V127.39z M602.13,139.37c0-2.15-0.61-3.81-1.84-4.98s-2.94-1.76-5.16-1.76
				c-2.15,0-3.81,0.52-4.98,1.55c-1.17,1.04-1.76,2.49-1.76,4.37l-0.68-5.86c1.03-1.84,2.38-3.25,4.04-4.25s3.51-1.49,5.53-1.49
				c3.63,0,6.44,1.08,8.43,3.24c1.99,2.16,2.98,5.21,2.98,9.16v18.46h-6.57V139.37z"/>
			<path d="M623.45,155.91c-2.04-1.55-3.06-3.91-3.06-7.08c0-3.01,0.93-5.26,2.8-6.77c1.87-1.5,4.69-2.26,8.48-2.26h9.51l0.45,4.8
				h-9.93c-1.72,0-3,0.35-3.85,1.04c-0.85,0.69-1.27,1.75-1.27,3.18c0,1.54,0.56,2.69,1.69,3.43c1.13,0.74,2.84,1.11,5.14,1.11
				c2.51,0,4.39-0.24,5.62-0.73c1.24-0.49,1.85-1.25,1.85-2.29l0.68,4.28c-0.58,0.82-1.29,1.49-2.14,2.02s-1.83,0.92-2.95,1.19
				s-2.37,0.4-3.77,0.4C628.57,158.24,625.49,157.46,623.45,155.91z M640.88,138.52c0-1.99-0.59-3.54-1.76-4.64
				c-1.17-1.1-2.83-1.66-4.98-1.66c-1.33,0-2.64,0.19-3.92,0.56c-1.28,0.37-2.41,0.89-3.4,1.55l-4.8-2.99
				c1.27-1.39,2.94-2.47,5.01-3.24c2.07-0.77,4.38-1.16,6.91-1.16c2.77,0,5.15,0.44,7.12,1.33c1.98,0.89,3.48,2.18,4.51,3.87
				c1.03,1.69,1.55,3.73,1.55,6.11v19.54h-6.25V138.52z"/>
			<path d="M657.85,127.39h15.08v5.39h-15.08V127.39z M663.18,155.91c-1.26-1.36-1.89-3.36-1.89-6.02v-31.35h6.57v31.41
				c0,0.74,0.16,1.31,0.48,1.71c0.32,0.4,0.79,0.6,1.42,0.6h3.16v5.68h-3.8C666.42,157.95,664.44,157.27,663.18,155.91z"/>
			<path d="M691.83,145.88c0,2.13,0.6,3.77,1.79,4.94c1.19,1.16,2.87,1.74,5.04,1.74c2.15,0,3.81-0.52,5-1.55
				c1.18-1.04,1.77-2.51,1.77-4.42l0.45,6.36c-0.69,1.5-1.8,2.76-3.35,3.78c-1.55,1.02-3.45,1.52-5.7,1.52
				c-3.7,0-6.55-1.08-8.56-3.24c-2.01-2.16-3.01-5.2-3.01-9.13v-18.49h6.57V145.88z M705.43,127.39h6.54v30.41h-6.54V127.39z"/>
			<path d="M725.26,127.39h6.57v30.41h-6.57V127.39z M741.47,133.13c-0.88-0.33-1.9-0.5-3.06-0.5c-2.08,0-3.7,0.52-4.85,1.57
				c-1.15,1.04-1.72,2.5-1.72,4.35l-0.68-5.86c1.03-1.82,2.36-3.23,4-4.23c1.63-1.01,3.44-1.51,5.41-1.51c1.53,0,2.91,0.2,4.14,0.6
				c1.23,0.4,2.31,0.99,3.24,1.77l-4.29,5.27C743.08,133.95,742.35,133.47,741.47,133.13z"/>
			<path d="M765.78,158.24c0,0-1.1-0.53-3.29-1.58s-3.86-2.6-5.01-4.64c-1.15-2.04-1.72-4.51-1.72-7.4v-3.43
				c0-3.01,0.55-5.58,1.66-7.71c1.11-2.13,2.71-3.75,4.82-4.86s4.64-1.67,7.61-1.67c2.79,0,5.18,0.63,7.15,1.9
				c1.98,1.27,3.49,3.11,4.53,5.51c1.04,2.4,1.56,5.28,1.56,8.64V145h-22.56v-4.8h16.31c-0.19-2.48-0.9-4.41-2.11-5.79
				s-2.84-2.07-4.88-2.07c-2.49,0-4.42,0.74-5.78,2.23c-1.37,1.48-2.05,3.58-2.05,6.3v3.87c0,2.52,0.73,4.45,2.19,5.8
				s3.53,2.02,6.22,2.02c1.33,0,2.65-0.24,3.96-0.73c1.31-0.49,2.48-1.17,3.51-2.05l4.32,3.93c-1.65,1.45-3.51,2.56-5.58,3.35
				s-4.14,1.19-6.22,1.19C767.33,158.24,765.78,158.24,765.78,158.24z"/>
		</g>
	</g>
</g>
<g id="레이어_2">
</g>
</svg>
